<svg width="82" height="23" viewBox="0 0 82 23" fill="none" xmlns="http://www.w3.org/2000/svg">
<path d="M0.871094 7.14648V5.125C2.77539 4.93945 4.10352 4.63184 4.85547 4.20215C5.60742 3.7627 6.16895 2.73242 6.54004 1.11133H8.62012V22H5.80762V7.14648H0.871094ZM22.8145 1.02344C25.5293 1.02344 27.4922 2.1416 28.7031 4.37793C29.6406 6.10645 30.1094 8.47461 30.1094 11.4824C30.1094 14.334 29.6846 16.6924 28.835 18.5576C27.6045 21.2334 25.5928 22.5713 22.7998 22.5713C20.2803 22.5713 18.4053 21.4775 17.1748 19.29C16.1494 17.4639 15.6367 15.0127 15.6367 11.9365C15.6367 9.55371 15.9443 7.50781 16.5596 5.79883C17.7119 2.61523 19.7969 1.02344 22.8145 1.02344ZM22.7852 20.1689C24.1523 20.1689 25.2412 19.5635 26.0518 18.3525C26.8623 17.1416 27.2676 14.8857 27.2676 11.585C27.2676 9.20215 26.9746 7.24414 26.3887 5.71094C25.8027 4.16797 24.665 3.39648 22.9756 3.39648C21.4229 3.39648 20.2852 4.12891 19.5625 5.59375C18.8496 7.04883 18.4932 9.19727 18.4932 12.0391C18.4932 14.1777 18.7227 15.8965 19.1816 17.1953C19.8848 19.1777 21.0859 20.1689 22.7852 20.1689ZM39.5137 1.02344C42.2285 1.02344 44.1914 2.1416 45.4023 4.37793C46.3398 6.10645 46.8086 8.47461 46.8086 11.4824C46.8086 14.334 46.3838 16.6924 45.5342 18.5576C44.3037 21.2334 42.292 22.5713 39.499 22.5713C36.9795 22.5713 35.1045 21.4775 33.874 19.29C32.8486 17.4639 32.3359 15.0127 32.3359 11.9365C32.3359 9.55371 32.6436 7.50781 33.2588 5.79883C34.4111 2.61523 36.4961 1.02344 39.5137 1.02344ZM39.4844 20.1689C40.8516 20.1689 41.9404 19.5635 42.751 18.3525C43.5615 17.1416 43.9668 14.8857 43.9668 11.585C43.9668 9.20215 43.6738 7.24414 43.0879 5.71094C42.502 4.16797 41.3643 3.39648 39.6748 3.39648C38.1221 3.39648 36.9844 4.12891 36.2617 5.59375C35.5488 7.04883 35.1924 9.19727 35.1924 12.0391C35.1924 14.1777 35.4219 15.8965 35.8809 17.1953C36.584 19.1777 37.7852 20.1689 39.4844 20.1689ZM56.2129 1.02344C58.9277 1.02344 60.8906 2.1416 62.1016 4.37793C63.0391 6.10645 63.5078 8.47461 63.5078 11.4824C63.5078 14.334 63.083 16.6924 62.2334 18.5576C61.0029 21.2334 58.9912 22.5713 56.1982 22.5713C53.6787 22.5713 51.8037 21.4775 50.5732 19.29C49.5479 17.4639 49.0352 15.0127 49.0352 11.9365C49.0352 9.55371 49.3428 7.50781 49.958 5.79883C51.1104 2.61523 53.1953 1.02344 56.2129 1.02344ZM56.1836 20.1689C57.5508 20.1689 58.6396 19.5635 59.4502 18.3525C60.2607 17.1416 60.666 14.8857 60.666 11.585C60.666 9.20215 60.373 7.24414 59.7871 5.71094C59.2012 4.16797 58.0635 3.39648 56.374 3.39648C54.8213 3.39648 53.6836 4.12891 52.9609 5.59375C52.248 7.04883 51.8916 9.19727 51.8916 12.0391C51.8916 14.1777 52.1211 15.8965 52.5801 17.1953C53.2832 19.1777 54.4844 20.1689 56.1836 20.1689ZM67.7069 22V0.579999H73.3469C75.9669 0.579999 77.9069 1.11 79.1669 2.17C80.4469 3.23 81.0869 4.77 81.0869 6.79C81.0869 8.15 80.7769 9.32 80.1569 10.3C79.5369 11.26 78.6169 12 77.3969 12.52C76.1969 13.04 74.7069 13.3 72.9269 13.3H70.4069V22H67.7069ZM65.0969 17.92V15.97H75.3569V17.92H65.0969ZM65.0969 13.3V11.02H71.9669V13.3H65.0969ZM72.5369 11.02C73.7569 11.02 74.7869 10.89 75.6269 10.63C76.4869 10.37 77.1469 9.94 77.6069 9.34C78.0669 8.74 78.2969 7.92 78.2969 6.88C78.2969 5.52 77.8769 4.51 77.0369 3.85C76.1969 3.19 74.8869 2.86 73.1069 2.86H70.4069V11.02H72.5369Z" fill="#3D3D3D"/>
</svg>
