<svg width="442" height="285" viewBox="0 0 442 285" fill="none" xmlns="http://www.w3.org/2000/svg">
<path d="M129.592 163.265V190.248H109.748V228H75.9885V190.248H6.53405V160.119L71.0275 53.6378H109.748V163.265H129.592ZM32.0652 163.265H75.9885V87.518L32.0652 163.265Z" fill="black"/>
<path d="M419.592 163.265V190.248H399.748V228H365.989V190.248H296.534V160.119L361.028 53.6378H399.748V163.265H419.592ZM322.065 163.265H365.989V87.518L322.065 163.265Z" fill="black"/>
<path d="M265.083 112.807C276.215 126.763 281.781 143.259 281.781 162.297C281.781 181.657 276.215 198.234 265.083 212.028C253.951 225.741 237.051 232.598 214.384 232.598C191.716 232.598 174.816 225.741 163.684 212.028C152.552 198.234 146.986 181.657 146.986 162.297C146.986 143.259 152.552 126.763 163.684 112.807C174.816 98.8517 191.716 91.874 214.384 91.874C237.051 91.874 253.951 98.8517 265.083 112.807ZM214.263 121.035C204.179 121.035 196.395 124.625 190.909 131.804C185.505 138.903 182.802 149.067 182.802 162.297C182.802 175.526 185.505 185.73 190.909 192.91C196.395 200.089 204.179 203.679 214.263 203.679C224.346 203.679 232.09 200.089 237.495 192.91C242.899 185.73 245.602 175.526 245.602 162.297C245.602 149.067 242.899 138.903 237.495 131.804C232.09 124.625 224.346 121.035 214.263 121.035Z" fill="black"/>
</svg>
