<svg width="83" height="23" viewBox="0 0 83 23" fill="none" xmlns="http://www.w3.org/2000/svg">
<path d="M14.6885 1.375V3.6748C14.0146 4.3291 13.1162 5.4668 11.9932 7.08789C10.8799 8.70898 9.89355 10.457 9.03418 12.332C8.18457 14.1582 7.54004 15.8232 7.10059 17.3271C6.81738 18.2939 6.45117 19.8516 6.00195 22H3.08691C3.75098 17.9961 5.21582 14.0117 7.48145 10.0469C8.81934 7.72266 10.2256 5.71582 11.7002 4.02637H0.0986328V1.375H14.6885ZM23.8145 1.02344C26.5293 1.02344 28.4922 2.1416 29.7031 4.37793C30.6406 6.10645 31.1094 8.47461 31.1094 11.4824C31.1094 14.334 30.6846 16.6924 29.835 18.5576C28.6045 21.2334 26.5928 22.5713 23.7998 22.5713C21.2803 22.5713 19.4053 21.4775 18.1748 19.29C17.1494 17.4639 16.6367 15.0127 16.6367 11.9365C16.6367 9.55371 16.9443 7.50781 17.5596 5.79883C18.7119 2.61523 20.7969 1.02344 23.8145 1.02344ZM23.7852 20.1689C25.1523 20.1689 26.2412 19.5635 27.0518 18.3525C27.8623 17.1416 28.2676 14.8857 28.2676 11.585C28.2676 9.20215 27.9746 7.24414 27.3887 5.71094C26.8027 4.16797 25.665 3.39648 23.9756 3.39648C22.4229 3.39648 21.2852 4.12891 20.5625 5.59375C19.8496 7.04883 19.4932 9.19727 19.4932 12.0391C19.4932 14.1777 19.7227 15.8965 20.1816 17.1953C20.8848 19.1777 22.0859 20.1689 23.7852 20.1689ZM40.5137 1.02344C43.2285 1.02344 45.1914 2.1416 46.4023 4.37793C47.3398 6.10645 47.8086 8.47461 47.8086 11.4824C47.8086 14.334 47.3838 16.6924 46.5342 18.5576C45.3037 21.2334 43.292 22.5713 40.499 22.5713C37.9795 22.5713 36.1045 21.4775 34.874 19.29C33.8486 17.4639 33.3359 15.0127 33.3359 11.9365C33.3359 9.55371 33.6436 7.50781 34.2588 5.79883C35.4111 2.61523 37.4961 1.02344 40.5137 1.02344ZM40.4844 20.1689C41.8516 20.1689 42.9404 19.5635 43.751 18.3525C44.5615 17.1416 44.9668 14.8857 44.9668 11.585C44.9668 9.20215 44.6738 7.24414 44.0879 5.71094C43.502 4.16797 42.3643 3.39648 40.6748 3.39648C39.1221 3.39648 37.9844 4.12891 37.2617 5.59375C36.5488 7.04883 36.1924 9.19727 36.1924 12.0391C36.1924 14.1777 36.4219 15.8965 36.8809 17.1953C37.584 19.1777 38.7852 20.1689 40.4844 20.1689ZM57.2129 1.02344C59.9277 1.02344 61.8906 2.1416 63.1016 4.37793C64.0391 6.10645 64.5078 8.47461 64.5078 11.4824C64.5078 14.334 64.083 16.6924 63.2334 18.5576C62.0029 21.2334 59.9912 22.5713 57.1982 22.5713C54.6787 22.5713 52.8037 21.4775 51.5732 19.29C50.5479 17.4639 50.0352 15.0127 50.0352 11.9365C50.0352 9.55371 50.3428 7.50781 50.958 5.79883C52.1104 2.61523 54.1953 1.02344 57.2129 1.02344ZM57.1836 20.1689C58.5508 20.1689 59.6396 19.5635 60.4502 18.3525C61.2607 17.1416 61.666 14.8857 61.666 11.585C61.666 9.20215 61.373 7.24414 60.7871 5.71094C60.2012 4.16797 59.0635 3.39648 57.374 3.39648C55.8213 3.39648 54.6836 4.12891 53.9609 5.59375C53.248 7.04883 52.8916 9.19727 52.8916 12.0391C52.8916 14.1777 53.1211 15.8965 53.5801 17.1953C54.2832 19.1777 55.4844 20.1689 57.1836 20.1689ZM68.7069 22V0.579999H74.3469C76.9669 0.579999 78.9069 1.11 80.1669 2.17C81.4469 3.23 82.0869 4.77 82.0869 6.79C82.0869 8.15 81.7769 9.32 81.1569 10.3C80.5369 11.26 79.6169 12 78.3969 12.52C77.1969 13.04 75.7069 13.3 73.9269 13.3H71.4069V22H68.7069ZM66.0969 17.92V15.97H76.3569V17.92H66.0969ZM66.0969 13.3V11.02H72.9669V13.3H66.0969ZM73.5369 11.02C74.7569 11.02 75.7869 10.89 76.6269 10.63C77.4869 10.37 78.1469 9.94 78.6069 9.34C79.0669 8.74 79.2969 7.92 79.2969 6.88C79.2969 5.52 78.8769 4.51 78.0369 3.85C77.1969 3.19 75.8869 2.86 74.1069 2.86H71.4069V11.02H73.5369Z" fill="#3D3D3D"/>
</svg>
