<svg width="84" height="23" viewBox="0 0 84 23" fill="none" xmlns="http://www.w3.org/2000/svg">
<path d="M8.15918 9.8125C9.32129 9.8125 10.2295 9.49023 10.8838 8.8457C11.5381 8.19141 11.8652 7.41504 11.8652 6.5166C11.8652 5.73535 11.5527 5.01758 10.9277 4.36328C10.3027 3.70898 9.35059 3.38184 8.07129 3.38184C6.80176 3.38184 5.88379 3.70898 5.31738 4.36328C4.75098 5.01758 4.46777 5.78418 4.46777 6.66309C4.46777 7.64941 4.83398 8.4209 5.56641 8.97754C6.29883 9.53418 7.16309 9.8125 8.15918 9.8125ZM8.32031 20.1982C9.54102 20.1982 10.5518 19.8711 11.3525 19.2168C12.1631 18.5527 12.5684 17.5664 12.5684 16.2578C12.5684 14.9004 12.1533 13.8701 11.3232 13.167C10.4932 12.4639 9.42871 12.1123 8.12988 12.1123C6.87012 12.1123 5.83984 12.4736 5.03906 13.1963C4.24805 13.9092 3.85254 14.9004 3.85254 16.1699C3.85254 17.2637 4.21387 18.2109 4.93652 19.0117C5.66895 19.8027 6.79688 20.1982 8.32031 20.1982ZM4.57031 10.8232C3.83789 10.5107 3.2666 10.1445 2.85645 9.72461C2.08496 8.94336 1.69922 7.92773 1.69922 6.67773C1.69922 5.11523 2.26562 3.77246 3.39844 2.64941C4.53125 1.52637 6.1377 0.964844 8.21777 0.964844C10.2295 0.964844 11.8066 1.49707 12.9492 2.56152C14.0918 3.61621 14.6631 4.85156 14.6631 6.26758C14.6631 7.57617 14.3311 8.63574 13.667 9.44629C13.2959 9.90527 12.7197 10.3545 11.9385 10.7939C12.8076 11.1943 13.4912 11.6533 13.9893 12.1709C14.917 13.1475 15.3809 14.417 15.3809 15.9795C15.3809 17.8252 14.7607 19.3926 13.5205 20.6816C12.2803 21.9609 10.5273 22.6006 8.26172 22.6006C6.2207 22.6006 4.49219 22.0488 3.07617 20.9453C1.66992 19.832 0.966797 18.2207 0.966797 16.1113C0.966797 14.8711 1.26953 13.8018 1.875 12.9033C2.48047 11.9951 3.37891 11.3018 4.57031 10.8232ZM24.8145 1.02344C27.5293 1.02344 29.4922 2.1416 30.7031 4.37793C31.6406 6.10645 32.1094 8.47461 32.1094 11.4824C32.1094 14.334 31.6846 16.6924 30.835 18.5576C29.6045 21.2334 27.5928 22.5713 24.7998 22.5713C22.2803 22.5713 20.4053 21.4775 19.1748 19.29C18.1494 17.4639 17.6367 15.0127 17.6367 11.9365C17.6367 9.55371 17.9443 7.50781 18.5596 5.79883C19.7119 2.61523 21.7969 1.02344 24.8145 1.02344ZM24.7852 20.1689C26.1523 20.1689 27.2412 19.5635 28.0518 18.3525C28.8623 17.1416 29.2676 14.8857 29.2676 11.585C29.2676 9.20215 28.9746 7.24414 28.3887 5.71094C27.8027 4.16797 26.665 3.39648 24.9756 3.39648C23.4229 3.39648 22.2852 4.12891 21.5625 5.59375C20.8496 7.04883 20.4932 9.19727 20.4932 12.0391C20.4932 14.1777 20.7227 15.8965 21.1816 17.1953C21.8848 19.1777 23.0859 20.1689 24.7852 20.1689ZM41.5137 1.02344C44.2285 1.02344 46.1914 2.1416 47.4023 4.37793C48.3398 6.10645 48.8086 8.47461 48.8086 11.4824C48.8086 14.334 48.3838 16.6924 47.5342 18.5576C46.3037 21.2334 44.292 22.5713 41.499 22.5713C38.9795 22.5713 37.1045 21.4775 35.874 19.29C34.8486 17.4639 34.3359 15.0127 34.3359 11.9365C34.3359 9.55371 34.6436 7.50781 35.2588 5.79883C36.4111 2.61523 38.4961 1.02344 41.5137 1.02344ZM41.4844 20.1689C42.8516 20.1689 43.9404 19.5635 44.751 18.3525C45.5615 17.1416 45.9668 14.8857 45.9668 11.585C45.9668 9.20215 45.6738 7.24414 45.0879 5.71094C44.502 4.16797 43.3643 3.39648 41.6748 3.39648C40.1221 3.39648 38.9844 4.12891 38.2617 5.59375C37.5488 7.04883 37.1924 9.19727 37.1924 12.0391C37.1924 14.1777 37.4219 15.8965 37.8809 17.1953C38.584 19.1777 39.7852 20.1689 41.4844 20.1689ZM58.2129 1.02344C60.9277 1.02344 62.8906 2.1416 64.1016 4.37793C65.0391 6.10645 65.5078 8.47461 65.5078 11.4824C65.5078 14.334 65.083 16.6924 64.2334 18.5576C63.0029 21.2334 60.9912 22.5713 58.1982 22.5713C55.6787 22.5713 53.8037 21.4775 52.5732 19.29C51.5479 17.4639 51.0352 15.0127 51.0352 11.9365C51.0352 9.55371 51.3428 7.50781 51.958 5.79883C53.1104 2.61523 55.1953 1.02344 58.2129 1.02344ZM58.1836 20.1689C59.5508 20.1689 60.6396 19.5635 61.4502 18.3525C62.2607 17.1416 62.666 14.8857 62.666 11.585C62.666 9.20215 62.373 7.24414 61.7871 5.71094C61.2012 4.16797 60.0635 3.39648 58.374 3.39648C56.8213 3.39648 55.6836 4.12891 54.9609 5.59375C54.248 7.04883 53.8916 9.19727 53.8916 12.0391C53.8916 14.1777 54.1211 15.8965 54.5801 17.1953C55.2832 19.1777 56.4844 20.1689 58.1836 20.1689ZM69.7069 22V0.579999H75.3469C77.9669 0.579999 79.9069 1.11 81.1669 2.17C82.4469 3.23 83.0869 4.77 83.0869 6.79C83.0869 8.15 82.7769 9.32 82.1569 10.3C81.5369 11.26 80.6169 12 79.3969 12.52C78.1969 13.04 76.7069 13.3 74.9269 13.3H72.4069V22H69.7069ZM67.0969 17.92V15.97H77.3569V17.92H67.0969ZM67.0969 13.3V11.02H73.9669V13.3H67.0969ZM74.5369 11.02C75.7569 11.02 76.7869 10.89 77.6269 10.63C78.4869 10.37 79.1469 9.94 79.6069 9.34C80.0669 8.74 80.2969 7.92 80.2969 6.88C80.2969 5.52 79.8769 4.51 79.0369 3.85C78.1969 3.19 76.8869 2.86 75.1069 2.86H72.4069V11.02H74.5369Z" fill="#3D3D3D"/>
</svg>
