<svg width="222" height="79" viewBox="0 0 222 79" fill="none" xmlns="http://www.w3.org/2000/svg">
<rect width="222" height="79" fill="#740606"/>
<path d="M64.3965 31.6445H76.0371V46H73.0391V34.1152H67.4043V46H64.3965V31.6445ZM89.0156 39.7793H81.9746V43.4023H89.9727V46H79.0938V31.6445H89.6309V34.1152H81.9746V37.2988H89.0156V39.7793ZM100.705 40.502C100.119 40.7298 99.4551 40.8438 98.7129 40.8438H95.4316V46H92.4336V31.6445H98.957C99.7188 31.6445 100.38 31.7487 100.939 31.957C101.506 32.1654 101.975 32.4681 102.346 32.8652C102.717 33.2624 102.993 33.7441 103.176 34.3105C103.358 34.877 103.449 35.5215 103.449 36.2441C103.449 36.9147 103.342 37.5332 103.127 38.0996C102.912 38.6595 102.6 39.1445 102.189 39.5547C101.786 39.9583 101.291 40.2741 100.705 40.502ZM95.4316 38.3633H98.2734C98.9505 38.3633 99.4811 38.1973 99.8652 37.8652C100.256 37.5332 100.451 36.9928 100.451 36.2441C100.451 35.8665 100.399 35.5443 100.295 35.2773C100.197 35.0104 100.054 34.7923 99.8652 34.623C99.6829 34.4473 99.4551 34.3203 99.1816 34.2422C98.9147 34.1576 98.612 34.1152 98.2734 34.1152H95.4316V38.3633ZM115.695 39.7793H108.654V43.4023H116.652V46H105.773V31.6445H116.311V34.1152H108.654V37.2988H115.695V39.7793ZM130.51 31.6445V46H127.629V36.2832H127.59L121.916 46H118.869V31.6445H121.75V41.4199H121.789L127.473 31.6445H130.51ZM125.637 29.1641C125.826 29.099 125.979 29.0078 126.096 28.8906C126.219 28.7669 126.307 28.6204 126.359 28.4512C126.418 28.2819 126.444 28.0931 126.438 27.8848H128.703C128.703 28.9069 128.387 29.6654 127.756 30.1602C127.124 30.6484 126.184 30.8926 124.934 30.8926C123.684 30.8926 122.743 30.6484 122.111 30.1602C121.48 29.6654 121.164 28.9069 121.164 27.8848H123.43C123.436 28.0866 123.465 28.2721 123.518 28.4414C123.576 28.6107 123.664 28.7572 123.781 28.8809C123.898 29.0046 124.051 29.1022 124.24 29.1738C124.429 29.2389 124.66 29.2715 124.934 29.2715C125.207 29.2715 125.441 29.2357 125.637 29.1641ZM132.17 31.6445H143.928V34.1152H139.543V46H136.545V34.1152H132.17V31.6445ZM154.328 46V36.2832H154.289L148.615 46H145.568V31.6445H148.449V41.4199H148.488L154.172 31.6445H157.209V46H154.328Z" fill="#ECECEC"/>
</svg>
