<svg width="1386" height="238" viewBox="0 0 1386 238" fill="none" xmlns="http://www.w3.org/2000/svg">
<rect width="1386" height="238" fill="#3D3D3D"/>
<path d="M1166.19 116.587H1172.03V117.993H1167.8V126H1166.19V116.587ZM1180.02 121.28C1180.02 120.759 1179.96 120.281 1179.84 119.848C1179.73 119.408 1179.55 119.03 1179.32 118.714C1179.08 118.397 1178.79 118.151 1178.45 117.976C1178.11 117.794 1177.71 117.703 1177.26 117.703C1176.81 117.703 1176.41 117.794 1176.07 117.976C1175.73 118.151 1175.45 118.397 1175.21 118.714C1174.98 119.03 1174.8 119.408 1174.69 119.848C1174.57 120.281 1174.51 120.759 1174.51 121.28C1174.51 121.808 1174.57 122.294 1174.69 122.739C1174.8 123.179 1174.98 123.557 1175.21 123.873C1175.45 124.189 1175.73 124.438 1176.07 124.62C1176.41 124.796 1176.81 124.884 1177.26 124.884C1177.71 124.884 1178.11 124.796 1178.45 124.62C1178.79 124.438 1179.08 124.189 1179.32 123.873C1179.55 123.557 1179.73 123.179 1179.84 122.739C1179.96 122.294 1180.02 121.808 1180.02 121.28ZM1181.64 121.28C1181.64 122.054 1181.54 122.751 1181.34 123.372C1181.14 123.987 1180.85 124.512 1180.48 124.945C1180.1 125.379 1179.64 125.713 1179.1 125.947C1178.56 126.176 1177.95 126.29 1177.26 126.29C1176.58 126.29 1175.96 126.176 1175.42 125.947C1174.88 125.713 1174.43 125.379 1174.05 124.945C1173.68 124.512 1173.39 123.987 1173.19 123.372C1172.99 122.751 1172.89 122.054 1172.89 121.28C1172.89 120.519 1172.99 119.83 1173.19 119.215C1173.39 118.6 1173.68 118.075 1174.05 117.642C1174.43 117.208 1174.88 116.877 1175.42 116.648C1175.96 116.414 1176.58 116.297 1177.26 116.297C1177.95 116.297 1178.56 116.414 1179.1 116.648C1179.64 116.877 1180.1 117.208 1180.48 117.642C1180.85 118.075 1181.14 118.6 1181.34 119.215C1181.54 119.83 1181.64 120.519 1181.64 121.28ZM1191.31 126H1184.04V128.303H1182.53V124.594H1183.76C1184.02 123.961 1184.23 123.316 1184.38 122.66C1184.53 121.998 1184.65 121.333 1184.73 120.665C1184.81 119.991 1184.87 119.314 1184.89 118.635C1184.91 117.955 1184.92 117.272 1184.92 116.587H1191.5V124.594H1192.83V128.303H1191.31V126ZM1189.88 124.594V117.993H1186.47C1186.43 118.526 1186.39 119.074 1186.34 119.637C1186.3 120.199 1186.24 120.765 1186.16 121.333C1186.09 121.896 1186 122.452 1185.87 123.003C1185.76 123.554 1185.6 124.084 1185.41 124.594H1189.88Z" fill="#E8E8E8"/>
<path d="M124.174 120.674L122.205 114.926L120.025 120.674H124.174ZM116.316 126L121.159 112.878H123.26L127.944 126H126.028L124.666 122.045H119.586L118.145 126H116.316ZM129.315 116.587H130.933V117.879H130.968C131.073 117.662 131.205 117.457 131.363 117.264C131.527 117.07 131.721 116.903 131.943 116.763C132.172 116.616 132.433 116.502 132.726 116.42C133.024 116.338 133.364 116.297 133.745 116.297C134.249 116.297 134.732 116.394 135.195 116.587C135.658 116.78 136.068 117.07 136.426 117.457C136.783 117.844 137.067 118.33 137.278 118.916C137.489 119.496 137.595 120.173 137.595 120.946C137.595 121.913 137.495 122.736 137.296 123.416C137.103 124.09 136.824 124.641 136.461 125.068C136.104 125.496 135.67 125.807 135.16 126C134.65 126.193 134.082 126.29 133.455 126.29C133.145 126.29 132.854 126.249 132.585 126.167C132.315 126.085 132.072 125.979 131.855 125.851C131.645 125.716 131.463 125.569 131.311 125.411C131.158 125.247 131.044 125.089 130.968 124.937H130.933V129.709H129.315V116.587ZM130.897 121.342C130.897 121.852 130.947 122.323 131.047 122.757C131.146 123.185 131.299 123.557 131.504 123.873C131.715 124.189 131.976 124.438 132.286 124.62C132.603 124.796 132.975 124.884 133.402 124.884C133.848 124.884 134.231 124.796 134.554 124.62C134.882 124.438 135.151 124.189 135.362 123.873C135.573 123.557 135.729 123.185 135.828 122.757C135.928 122.323 135.978 121.852 135.978 121.342C135.978 120.809 135.928 120.319 135.828 119.874C135.729 119.429 135.573 119.045 135.362 118.723C135.151 118.4 134.882 118.151 134.554 117.976C134.231 117.794 133.848 117.703 133.402 117.703C132.975 117.703 132.603 117.794 132.286 117.976C131.976 118.151 131.715 118.4 131.504 118.723C131.299 119.045 131.146 119.429 131.047 119.874C130.947 120.319 130.897 120.809 130.897 121.342ZM139.423 116.587H141.04V123.803H141.075L145.698 116.587H147.553V126H145.927V118.784H145.892L141.277 126H139.423V116.587ZM149.935 116.587H151.552V120.384H155.946V116.587H157.572V126H155.946V121.79H151.552V126H149.935V116.587ZM159.937 119.408C159.954 118.834 160.062 118.351 160.262 117.958C160.461 117.56 160.73 117.237 161.07 116.991C161.41 116.745 161.812 116.569 162.274 116.464C162.743 116.353 163.253 116.297 163.804 116.297C164.261 116.297 164.703 116.344 165.131 116.438C165.564 116.531 165.948 116.684 166.282 116.895C166.616 117.1 166.883 117.369 167.082 117.703C167.287 118.031 167.39 118.433 167.39 118.907V124.383C167.39 124.535 167.431 124.667 167.513 124.778C167.595 124.884 167.727 124.937 167.908 124.937C167.99 124.937 168.075 124.931 168.163 124.919C168.251 124.901 168.342 124.884 168.436 124.866V125.982C168.301 126.018 168.166 126.05 168.031 126.079C167.902 126.108 167.747 126.123 167.565 126.123C167.284 126.123 167.041 126.1 166.836 126.053C166.637 126.006 166.467 125.93 166.326 125.824C166.191 125.713 166.086 125.572 166.01 125.402C165.934 125.227 165.884 125.013 165.86 124.761C165.661 124.978 165.45 125.18 165.228 125.367C165.005 125.549 164.756 125.71 164.48 125.851C164.205 125.985 163.897 126.091 163.558 126.167C163.218 126.249 162.834 126.29 162.406 126.29C162.043 126.29 161.688 126.231 161.343 126.114C161.003 125.997 160.695 125.824 160.42 125.596C160.15 125.367 159.934 125.086 159.77 124.752C159.605 124.412 159.523 124.02 159.523 123.574C159.523 123.088 159.605 122.669 159.77 122.317C159.934 121.96 160.147 121.664 160.411 121.43C160.675 121.189 160.977 121.005 161.316 120.876C161.656 120.747 162.002 120.662 162.354 120.621L164.999 120.296C165.251 120.267 165.447 120.17 165.588 120.006C165.734 119.836 165.808 119.566 165.808 119.197C165.808 118.629 165.62 118.222 165.245 117.976C164.876 117.724 164.343 117.598 163.646 117.598C162.931 117.598 162.397 117.75 162.046 118.055C161.694 118.354 161.495 118.805 161.448 119.408H159.937ZM165.772 121.21C165.644 121.304 165.482 121.383 165.289 121.447C165.102 121.506 164.894 121.556 164.665 121.597C164.437 121.638 164.193 121.676 163.936 121.711C163.678 121.74 163.42 121.772 163.162 121.808C162.869 121.849 162.6 121.907 162.354 121.983C162.107 122.06 161.894 122.159 161.712 122.282C161.53 122.405 161.39 122.555 161.29 122.73C161.19 122.9 161.141 123.103 161.141 123.337C161.141 123.606 161.182 123.844 161.264 124.049C161.352 124.254 161.469 124.427 161.615 124.567C161.768 124.708 161.949 124.813 162.16 124.884C162.371 124.954 162.603 124.989 162.854 124.989C163.013 124.989 163.194 124.972 163.399 124.937C163.604 124.896 163.815 124.837 164.032 124.761C164.249 124.685 164.46 124.588 164.665 124.471C164.876 124.348 165.063 124.201 165.228 124.031C165.392 123.861 165.523 123.668 165.623 123.451C165.723 123.234 165.772 122.991 165.772 122.722V121.21ZM175.133 113.08H177.611L181.268 123.952H181.303L184.959 113.08H187.438V126H185.82V115.128H185.785L182.146 126H180.424L176.785 115.128H176.75V126H175.133V113.08ZM189.96 119.408C189.978 118.834 190.086 118.351 190.285 117.958C190.484 117.56 190.754 117.237 191.094 116.991C191.434 116.745 191.835 116.569 192.298 116.464C192.767 116.353 193.276 116.297 193.827 116.297C194.284 116.297 194.727 116.344 195.154 116.438C195.588 116.531 195.972 116.684 196.306 116.895C196.64 117.1 196.906 117.369 197.105 117.703C197.311 118.031 197.413 118.433 197.413 118.907V124.383C197.413 124.535 197.454 124.667 197.536 124.778C197.618 124.884 197.75 124.937 197.932 124.937C198.014 124.937 198.099 124.931 198.187 124.919C198.274 124.901 198.365 124.884 198.459 124.866V125.982C198.324 126.018 198.189 126.05 198.055 126.079C197.926 126.108 197.771 126.123 197.589 126.123C197.308 126.123 197.064 126.1 196.859 126.053C196.66 126.006 196.49 125.93 196.35 125.824C196.215 125.713 196.109 125.572 196.033 125.402C195.957 125.227 195.907 125.013 195.884 124.761C195.685 124.978 195.474 125.18 195.251 125.367C195.028 125.549 194.779 125.71 194.504 125.851C194.229 125.985 193.921 126.091 193.581 126.167C193.241 126.249 192.857 126.29 192.43 126.29C192.066 126.29 191.712 126.231 191.366 126.114C191.026 125.997 190.719 125.824 190.443 125.596C190.174 125.367 189.957 125.086 189.793 124.752C189.629 124.412 189.547 124.02 189.547 123.574C189.547 123.088 189.629 122.669 189.793 122.317C189.957 121.96 190.171 121.664 190.435 121.43C190.698 121.189 191 121.005 191.34 120.876C191.68 120.747 192.025 120.662 192.377 120.621L195.022 120.296C195.274 120.267 195.471 120.17 195.611 120.006C195.758 119.836 195.831 119.566 195.831 119.197C195.831 118.629 195.644 118.222 195.269 117.976C194.899 117.724 194.366 117.598 193.669 117.598C192.954 117.598 192.421 117.75 192.069 118.055C191.718 118.354 191.519 118.805 191.472 119.408H189.96ZM195.796 121.21C195.667 121.304 195.506 121.383 195.312 121.447C195.125 121.506 194.917 121.556 194.688 121.597C194.46 121.638 194.217 121.676 193.959 121.711C193.701 121.74 193.443 121.772 193.186 121.808C192.893 121.849 192.623 121.907 192.377 121.983C192.131 122.06 191.917 122.159 191.735 122.282C191.554 122.405 191.413 122.555 191.313 122.73C191.214 122.9 191.164 123.103 191.164 123.337C191.164 123.606 191.205 123.844 191.287 124.049C191.375 124.254 191.492 124.427 191.639 124.567C191.791 124.708 191.973 124.813 192.184 124.884C192.395 124.954 192.626 124.989 192.878 124.989C193.036 124.989 193.218 124.972 193.423 124.937C193.628 124.896 193.839 124.837 194.056 124.761C194.272 124.685 194.483 124.588 194.688 124.471C194.899 124.348 195.087 124.201 195.251 124.031C195.415 123.861 195.547 123.668 195.646 123.451C195.746 123.234 195.796 122.991 195.796 122.722V121.21ZM199.909 116.587H201.526V117.879H201.562C201.667 117.662 201.799 117.457 201.957 117.264C202.121 117.07 202.314 116.903 202.537 116.763C202.766 116.616 203.026 116.502 203.319 116.42C203.618 116.338 203.958 116.297 204.339 116.297C204.843 116.297 205.326 116.394 205.789 116.587C206.252 116.78 206.662 117.07 207.02 117.457C207.377 117.844 207.661 118.33 207.872 118.916C208.083 119.496 208.188 120.173 208.188 120.946C208.188 121.913 208.089 122.736 207.89 123.416C207.696 124.09 207.418 124.641 207.055 125.068C206.697 125.496 206.264 125.807 205.754 126C205.244 126.193 204.676 126.29 204.049 126.29C203.738 126.29 203.448 126.249 203.179 126.167C202.909 126.085 202.666 125.979 202.449 125.851C202.238 125.716 202.057 125.569 201.904 125.411C201.752 125.247 201.638 125.089 201.562 124.937H201.526V129.709H199.909V116.587ZM201.491 121.342C201.491 121.852 201.541 122.323 201.641 122.757C201.74 123.185 201.893 123.557 202.098 123.873C202.309 124.189 202.569 124.438 202.88 124.62C203.196 124.796 203.568 124.884 203.996 124.884C204.441 124.884 204.825 124.796 205.147 124.62C205.476 124.438 205.745 124.189 205.956 123.873C206.167 123.557 206.322 123.185 206.422 122.757C206.521 122.323 206.571 121.852 206.571 121.342C206.571 120.809 206.521 120.319 206.422 119.874C206.322 119.429 206.167 119.045 205.956 118.723C205.745 118.4 205.476 118.151 205.147 117.976C204.825 117.794 204.441 117.703 203.996 117.703C203.568 117.703 203.196 117.794 202.88 117.976C202.569 118.151 202.309 118.4 202.098 118.723C201.893 119.045 201.74 119.429 201.641 119.874C201.541 120.319 201.491 120.809 201.491 121.342ZM210.017 116.587H211.634V123.803H211.669L216.292 116.587H218.146V126H216.521V118.784H216.485L211.871 126H210.017V116.587ZM220.528 116.587H222.146V120.384H226.54V116.587H228.166V126H226.54V121.79H222.146V126H220.528V116.587ZM237.122 121.28C237.122 120.759 237.063 120.281 236.946 119.848C236.829 119.408 236.653 119.03 236.419 118.714C236.185 118.397 235.895 118.151 235.549 117.976C235.209 117.794 234.813 117.703 234.362 117.703C233.911 117.703 233.516 117.794 233.176 117.976C232.836 118.151 232.549 118.397 232.314 118.714C232.08 119.03 231.904 119.408 231.787 119.848C231.67 120.281 231.611 120.759 231.611 121.28C231.611 121.808 231.67 122.294 231.787 122.739C231.904 123.179 232.08 123.557 232.314 123.873C232.549 124.189 232.836 124.438 233.176 124.62C233.516 124.796 233.911 124.884 234.362 124.884C234.813 124.884 235.209 124.796 235.549 124.62C235.895 124.438 236.185 124.189 236.419 123.873C236.653 123.557 236.829 123.179 236.946 122.739C237.063 122.294 237.122 121.808 237.122 121.28ZM238.739 121.28C238.739 122.054 238.64 122.751 238.44 123.372C238.241 123.987 237.954 124.512 237.579 124.945C237.204 125.379 236.744 125.713 236.199 125.947C235.66 126.176 235.048 126.29 234.362 126.29C233.677 126.29 233.064 126.176 232.525 125.947C231.986 125.713 231.529 125.379 231.154 124.945C230.779 124.512 230.492 123.987 230.293 123.372C230.094 122.751 229.994 122.054 229.994 121.28C229.994 120.519 230.094 119.83 230.293 119.215C230.492 118.6 230.779 118.075 231.154 117.642C231.529 117.208 231.986 116.877 232.525 116.648C233.064 116.414 233.677 116.297 234.362 116.297C235.048 116.297 235.66 116.414 236.199 116.648C236.744 116.877 237.204 117.208 237.579 117.642C237.954 118.075 238.241 118.6 238.44 119.215C238.64 119.83 238.739 120.519 238.739 121.28ZM240.567 116.587H244.575C245.724 116.587 246.582 116.801 247.15 117.229C247.725 117.656 248.012 118.277 248.012 119.092C248.012 119.525 247.906 119.892 247.695 120.19C247.484 120.489 247.206 120.753 246.86 120.981C247.358 121.169 247.754 121.438 248.047 121.79C248.34 122.142 248.486 122.596 248.486 123.152C248.486 123.592 248.413 123.987 248.267 124.339C248.12 124.69 247.897 124.989 247.599 125.235C247.3 125.481 246.919 125.672 246.456 125.807C245.999 125.936 245.457 126 244.83 126H240.567V116.587ZM242.185 124.708H244.646C245.073 124.708 245.428 124.676 245.709 124.611C245.996 124.541 246.225 124.441 246.395 124.312C246.564 124.184 246.685 124.028 246.755 123.847C246.825 123.665 246.86 123.46 246.86 123.231C246.86 123.003 246.825 122.798 246.755 122.616C246.685 122.429 246.564 122.273 246.395 122.15C246.225 122.021 245.996 121.925 245.709 121.86C245.428 121.79 245.073 121.755 244.646 121.755H242.185V124.708ZM242.185 120.568H244.628C245.173 120.568 245.604 120.46 245.92 120.243C246.236 120.026 246.395 119.689 246.395 119.232C246.395 118.975 246.351 118.761 246.263 118.591C246.175 118.415 246.058 118.274 245.911 118.169C245.765 118.063 245.598 117.99 245.41 117.949C245.229 117.902 245.041 117.879 244.848 117.879H242.185V120.568ZM250.411 119.408C250.429 118.834 250.537 118.351 250.736 117.958C250.936 117.56 251.205 117.237 251.545 116.991C251.885 116.745 252.286 116.569 252.749 116.464C253.218 116.353 253.728 116.297 254.278 116.297C254.735 116.297 255.178 116.344 255.605 116.438C256.039 116.531 256.423 116.684 256.757 116.895C257.091 117.1 257.357 117.369 257.557 117.703C257.762 118.031 257.864 118.433 257.864 118.907V124.383C257.864 124.535 257.905 124.667 257.987 124.778C258.069 124.884 258.201 124.937 258.383 124.937C258.465 124.937 258.55 124.931 258.638 124.919C258.726 124.901 258.816 124.884 258.91 124.866V125.982C258.775 126.018 258.641 126.05 258.506 126.079C258.377 126.108 258.222 126.123 258.04 126.123C257.759 126.123 257.516 126.1 257.311 126.053C257.111 126.006 256.941 125.93 256.801 125.824C256.666 125.713 256.561 125.572 256.484 125.402C256.408 125.227 256.358 125.013 256.335 124.761C256.136 124.978 255.925 125.18 255.702 125.367C255.479 125.549 255.23 125.71 254.955 125.851C254.68 125.985 254.372 126.091 254.032 126.167C253.692 126.249 253.309 126.29 252.881 126.29C252.518 126.29 252.163 126.231 251.817 126.114C251.478 125.997 251.17 125.824 250.895 125.596C250.625 125.367 250.408 125.086 250.244 124.752C250.08 124.412 249.998 124.02 249.998 123.574C249.998 123.088 250.08 122.669 250.244 122.317C250.408 121.96 250.622 121.664 250.886 121.43C251.149 121.189 251.451 121.005 251.791 120.876C252.131 120.747 252.477 120.662 252.828 120.621L255.474 120.296C255.726 120.267 255.922 120.17 256.062 120.006C256.209 119.836 256.282 119.566 256.282 119.197C256.282 118.629 256.095 118.222 255.72 117.976C255.351 117.724 254.817 117.598 254.12 117.598C253.405 117.598 252.872 117.75 252.521 118.055C252.169 118.354 251.97 118.805 251.923 119.408H250.411ZM256.247 121.21C256.118 121.304 255.957 121.383 255.764 121.447C255.576 121.506 255.368 121.556 255.14 121.597C254.911 121.638 254.668 121.676 254.41 121.711C254.152 121.74 253.895 121.772 253.637 121.808C253.344 121.849 253.074 121.907 252.828 121.983C252.582 122.06 252.368 122.159 252.187 122.282C252.005 122.405 251.864 122.555 251.765 122.73C251.665 122.9 251.615 123.103 251.615 123.337C251.615 123.606 251.656 123.844 251.738 124.049C251.826 124.254 251.943 124.427 252.09 124.567C252.242 124.708 252.424 124.813 252.635 124.884C252.846 124.954 253.077 124.989 253.329 124.989C253.487 124.989 253.669 124.972 253.874 124.937C254.079 124.896 254.29 124.837 254.507 124.761C254.724 124.685 254.935 124.588 255.14 124.471C255.351 124.348 255.538 124.201 255.702 124.031C255.866 123.861 255.998 123.668 256.098 123.451C256.197 123.234 256.247 122.991 256.247 122.722V121.21ZM265.019 120.173H269.431V121.799H265.019V120.173ZM283.862 122.687C283.839 122.915 283.792 123.164 283.722 123.434C283.657 123.703 283.561 123.973 283.432 124.242C283.303 124.506 283.136 124.761 282.931 125.007C282.731 125.253 282.485 125.473 282.192 125.666C281.905 125.854 281.565 126.003 281.173 126.114C280.78 126.231 280.332 126.29 279.828 126.29C279.553 126.29 279.263 126.255 278.958 126.185C278.653 126.12 278.354 126.009 278.062 125.851C277.774 125.692 277.499 125.49 277.235 125.244C276.978 124.992 276.749 124.682 276.55 124.312C276.356 123.943 276.201 123.516 276.084 123.029C275.967 122.537 275.908 121.975 275.908 121.342C275.908 120.562 276.02 119.862 276.242 119.241C276.465 118.614 276.761 118.084 277.13 117.65C277.505 117.217 277.938 116.883 278.431 116.648C278.929 116.414 279.45 116.297 279.995 116.297C280.487 116.297 280.921 116.35 281.296 116.455C281.677 116.561 282.008 116.701 282.289 116.877C282.57 117.053 282.808 117.258 283.001 117.492C283.194 117.721 283.35 117.964 283.467 118.222C283.59 118.474 283.681 118.731 283.739 118.995C283.804 119.259 283.845 119.511 283.862 119.751H282.351C282.269 119.112 282.046 118.611 281.683 118.248C281.325 117.885 280.821 117.703 280.171 117.703C279.726 117.703 279.336 117.794 279.002 117.976C278.674 118.157 278.398 118.412 278.176 118.74C277.959 119.062 277.795 119.455 277.684 119.918C277.578 120.375 277.525 120.879 277.525 121.43C277.525 122.051 277.584 122.587 277.701 123.038C277.818 123.483 277.985 123.853 278.202 124.146C278.419 124.433 278.683 124.646 278.993 124.787C279.31 124.922 279.667 124.989 280.065 124.989C280.347 124.989 280.613 124.939 280.865 124.84C281.117 124.734 281.343 124.585 281.542 124.392C281.741 124.192 281.911 123.949 282.052 123.662C282.192 123.375 282.292 123.05 282.351 122.687H283.862ZM285.462 116.587H287.079V124.594H291.474V116.587H293.1V124.594H294.26V128.303H292.748V126H285.462V116.587ZM303.761 122.994C303.696 123.404 303.556 123.806 303.339 124.198C303.122 124.591 302.838 124.942 302.486 125.253C302.135 125.563 301.719 125.812 301.238 126C300.764 126.193 300.236 126.29 299.656 126.29C299.023 126.29 298.438 126.188 297.898 125.982C297.365 125.771 296.902 125.458 296.51 125.042C296.123 124.62 295.818 124.093 295.596 123.46C295.373 122.827 295.262 122.083 295.262 121.228C295.262 120.653 295.323 120.135 295.446 119.672C295.575 119.203 295.745 118.787 295.956 118.424C296.173 118.055 296.422 117.738 296.703 117.475C296.984 117.205 297.28 116.985 297.591 116.815C297.907 116.64 298.229 116.511 298.558 116.429C298.886 116.341 299.202 116.297 299.507 116.297C300.151 116.297 300.74 116.394 301.273 116.587C301.807 116.78 302.264 117.076 302.645 117.475C303.031 117.867 303.33 118.362 303.541 118.96C303.758 119.552 303.866 120.249 303.866 121.052V121.86H296.984C296.99 122.317 297.055 122.733 297.178 123.108C297.301 123.478 297.477 123.794 297.705 124.058C297.934 124.321 298.209 124.526 298.531 124.673C298.859 124.813 299.229 124.884 299.639 124.884C300.055 124.884 300.406 124.825 300.693 124.708C300.98 124.591 301.221 124.441 301.414 124.26C301.607 124.078 301.763 123.876 301.88 123.653C302.003 123.431 302.105 123.211 302.188 122.994H303.761ZM302.24 120.568C302.229 120.111 302.158 119.704 302.029 119.347C301.906 118.989 301.73 118.69 301.502 118.45C301.279 118.204 301.01 118.02 300.693 117.896C300.377 117.768 300.025 117.703 299.639 117.703C299.27 117.703 298.93 117.776 298.619 117.923C298.309 118.063 298.036 118.263 297.802 118.521C297.567 118.772 297.38 119.074 297.239 119.426C297.099 119.771 297.014 120.152 296.984 120.568H302.24ZM305.765 116.587H307.382V120.384H311.776V116.587H313.402V126H311.776V121.79H307.382V126H305.765V116.587ZM315.767 119.408C315.784 118.834 315.893 118.351 316.092 117.958C316.291 117.56 316.561 117.237 316.9 116.991C317.24 116.745 317.642 116.569 318.104 116.464C318.573 116.353 319.083 116.297 319.634 116.297C320.091 116.297 320.533 116.344 320.961 116.438C321.395 116.531 321.778 116.684 322.112 116.895C322.446 117.1 322.713 117.369 322.912 117.703C323.117 118.031 323.22 118.433 323.22 118.907V124.383C323.22 124.535 323.261 124.667 323.343 124.778C323.425 124.884 323.557 124.937 323.738 124.937C323.82 124.937 323.905 124.931 323.993 124.919C324.081 124.901 324.172 124.884 324.266 124.866V125.982C324.131 126.018 323.996 126.05 323.861 126.079C323.732 126.108 323.577 126.123 323.396 126.123C323.114 126.123 322.871 126.1 322.666 126.053C322.467 126.006 322.297 125.93 322.156 125.824C322.021 125.713 321.916 125.572 321.84 125.402C321.764 125.227 321.714 125.013 321.69 124.761C321.491 124.978 321.28 125.18 321.058 125.367C320.835 125.549 320.586 125.71 320.311 125.851C320.035 125.985 319.728 126.091 319.388 126.167C319.048 126.249 318.664 126.29 318.236 126.29C317.873 126.29 317.519 126.231 317.173 126.114C316.833 125.997 316.525 125.824 316.25 125.596C315.98 125.367 315.764 125.086 315.6 124.752C315.436 124.412 315.354 124.02 315.354 123.574C315.354 123.088 315.436 122.669 315.6 122.317C315.764 121.96 315.978 121.664 316.241 121.43C316.505 121.189 316.807 121.005 317.146 120.876C317.486 120.747 317.832 120.662 318.184 120.621L320.829 120.296C321.081 120.267 321.277 120.17 321.418 120.006C321.564 119.836 321.638 119.566 321.638 119.197C321.638 118.629 321.45 118.222 321.075 117.976C320.706 117.724 320.173 117.598 319.476 117.598C318.761 117.598 318.228 117.75 317.876 118.055C317.524 118.354 317.325 118.805 317.278 119.408H315.767ZM321.603 121.21C321.474 121.304 321.312 121.383 321.119 121.447C320.932 121.506 320.724 121.556 320.495 121.597C320.267 121.638 320.023 121.676 319.766 121.711C319.508 121.74 319.25 121.772 318.992 121.808C318.699 121.849 318.43 121.907 318.184 121.983C317.938 122.06 317.724 122.159 317.542 122.282C317.36 122.405 317.22 122.555 317.12 122.73C317.021 122.9 316.971 123.103 316.971 123.337C316.971 123.606 317.012 123.844 317.094 124.049C317.182 124.254 317.299 124.427 317.445 124.567C317.598 124.708 317.779 124.813 317.99 124.884C318.201 124.954 318.433 124.989 318.685 124.989C318.843 124.989 319.024 124.972 319.229 124.937C319.435 124.896 319.646 124.837 319.862 124.761C320.079 124.685 320.29 124.588 320.495 124.471C320.706 124.348 320.894 124.201 321.058 124.031C321.222 123.861 321.354 123.668 321.453 123.451C321.553 123.234 321.603 122.991 321.603 122.722V121.21ZM325.716 116.587H327.333V117.879H327.368C327.474 117.662 327.605 117.457 327.764 117.264C327.928 117.07 328.121 116.903 328.344 116.763C328.572 116.616 328.833 116.502 329.126 116.42C329.425 116.338 329.765 116.297 330.146 116.297C330.649 116.297 331.133 116.394 331.596 116.587C332.059 116.78 332.469 117.07 332.826 117.457C333.184 117.844 333.468 118.33 333.679 118.916C333.89 119.496 333.995 120.173 333.995 120.946C333.995 121.913 333.896 122.736 333.696 123.416C333.503 124.09 333.225 124.641 332.861 125.068C332.504 125.496 332.07 125.807 331.561 126C331.051 126.193 330.482 126.29 329.855 126.29C329.545 126.29 329.255 126.249 328.985 126.167C328.716 126.085 328.473 125.979 328.256 125.851C328.045 125.716 327.863 125.569 327.711 125.411C327.559 125.247 327.444 125.089 327.368 124.937H327.333V129.709H325.716V116.587ZM327.298 121.342C327.298 121.852 327.348 122.323 327.447 122.757C327.547 123.185 327.699 123.557 327.904 123.873C328.115 124.189 328.376 124.438 328.687 124.62C329.003 124.796 329.375 124.884 329.803 124.884C330.248 124.884 330.632 124.796 330.954 124.62C331.282 124.438 331.552 124.189 331.763 123.873C331.974 123.557 332.129 123.185 332.229 122.757C332.328 122.323 332.378 121.852 332.378 121.342C332.378 120.809 332.328 120.319 332.229 119.874C332.129 119.429 331.974 119.045 331.763 118.723C331.552 118.4 331.282 118.151 330.954 117.976C330.632 117.794 330.248 117.703 329.803 117.703C329.375 117.703 329.003 117.794 328.687 117.976C328.376 118.151 328.115 118.4 327.904 118.723C327.699 119.045 327.547 119.429 327.447 119.874C327.348 120.319 327.298 120.809 327.298 121.342ZM335.823 116.587H337.44V123.803H337.476L342.099 116.587H343.953V126H342.327V118.784H342.292L337.678 126H335.823V116.587ZM353.735 122.687C353.712 122.915 353.665 123.164 353.595 123.434C353.53 123.703 353.434 123.973 353.305 124.242C353.176 124.506 353.009 124.761 352.804 125.007C352.604 125.253 352.358 125.473 352.065 125.666C351.778 125.854 351.438 126.003 351.046 126.114C350.653 126.231 350.205 126.29 349.701 126.29C349.426 126.29 349.136 126.255 348.831 126.185C348.526 126.12 348.228 126.009 347.935 125.851C347.647 125.692 347.372 125.49 347.108 125.244C346.851 124.992 346.622 124.682 346.423 124.312C346.229 123.943 346.074 123.516 345.957 123.029C345.84 122.537 345.781 121.975 345.781 121.342C345.781 120.562 345.893 119.862 346.115 119.241C346.338 118.614 346.634 118.084 347.003 117.65C347.378 117.217 347.812 116.883 348.304 116.648C348.802 116.414 349.323 116.297 349.868 116.297C350.36 116.297 350.794 116.35 351.169 116.455C351.55 116.561 351.881 116.701 352.162 116.877C352.443 117.053 352.681 117.258 352.874 117.492C353.067 117.721 353.223 117.964 353.34 118.222C353.463 118.474 353.554 118.731 353.612 118.995C353.677 119.259 353.718 119.511 353.735 119.751H352.224C352.142 119.112 351.919 118.611 351.556 118.248C351.198 117.885 350.694 117.703 350.044 117.703C349.599 117.703 349.209 117.794 348.875 117.976C348.547 118.157 348.271 118.412 348.049 118.74C347.832 119.062 347.668 119.455 347.557 119.918C347.451 120.375 347.398 120.879 347.398 121.43C347.398 122.051 347.457 122.587 347.574 123.038C347.691 123.483 347.858 123.853 348.075 124.146C348.292 124.433 348.556 124.646 348.866 124.787C349.183 124.922 349.54 124.989 349.938 124.989C350.22 124.989 350.486 124.939 350.738 124.84C350.99 124.734 351.216 124.585 351.415 124.392C351.614 124.192 351.784 123.949 351.925 123.662C352.065 123.375 352.165 123.05 352.224 122.687H353.735ZM357.84 117.993H354.597V116.587H362.7V117.993H359.457V126H357.84V117.993ZM364.643 127.837C365.047 127.767 365.331 127.482 365.495 126.984C365.583 126.721 365.627 126.466 365.627 126.22C365.627 126.179 365.624 126.141 365.618 126.105C365.618 126.076 365.612 126.041 365.601 126H364.643V124.084H366.523V125.859C366.523 126.557 366.383 127.169 366.102 127.696C365.82 128.224 365.334 128.549 364.643 128.672V127.837ZM374.354 116.587H375.972V121.14L380.727 116.587H382.845L378.424 120.744L382.915 126H380.832L377.158 121.729L375.972 122.722V126H374.354V116.587ZM384.128 116.587H385.745V117.879H385.78C385.886 117.662 386.018 117.457 386.176 117.264C386.34 117.07 386.533 116.903 386.756 116.763C386.984 116.616 387.245 116.502 387.538 116.42C387.837 116.338 388.177 116.297 388.558 116.297C389.062 116.297 389.545 116.394 390.008 116.587C390.471 116.78 390.881 117.07 391.238 117.457C391.596 117.844 391.88 118.33 392.091 118.916C392.302 119.496 392.407 120.173 392.407 120.946C392.407 121.913 392.308 122.736 392.108 123.416C391.915 124.09 391.637 124.641 391.273 125.068C390.916 125.496 390.482 125.807 389.973 126C389.463 126.193 388.895 126.29 388.268 126.29C387.957 126.29 387.667 126.249 387.397 126.167C387.128 126.085 386.885 125.979 386.668 125.851C386.457 125.716 386.275 125.569 386.123 125.411C385.971 125.247 385.856 125.089 385.78 124.937H385.745V129.709H384.128V116.587ZM385.71 121.342C385.71 121.852 385.76 122.323 385.859 122.757C385.959 123.185 386.111 123.557 386.316 123.873C386.527 124.189 386.788 124.438 387.099 124.62C387.415 124.796 387.787 124.884 388.215 124.884C388.66 124.884 389.044 124.796 389.366 124.62C389.694 124.438 389.964 124.189 390.175 123.873C390.386 123.557 390.541 123.185 390.641 122.757C390.74 122.323 390.79 121.852 390.79 121.342C390.79 120.809 390.74 120.319 390.641 119.874C390.541 119.429 390.386 119.045 390.175 118.723C389.964 118.4 389.694 118.151 389.366 117.976C389.044 117.794 388.66 117.703 388.215 117.703C387.787 117.703 387.415 117.794 387.099 117.976C386.788 118.151 386.527 118.4 386.316 118.723C386.111 119.045 385.959 119.429 385.859 119.874C385.76 120.319 385.71 120.809 385.71 121.342ZM402.251 122.994C402.187 123.404 402.046 123.806 401.829 124.198C401.612 124.591 401.328 124.942 400.977 125.253C400.625 125.563 400.209 125.812 399.729 126C399.254 126.193 398.727 126.29 398.146 126.29C397.514 126.29 396.928 126.188 396.389 125.982C395.855 125.771 395.393 125.458 395 125.042C394.613 124.62 394.309 124.093 394.086 123.46C393.863 122.827 393.752 122.083 393.752 121.228C393.752 120.653 393.813 120.135 393.937 119.672C394.065 119.203 394.235 118.787 394.446 118.424C394.663 118.055 394.912 117.738 395.193 117.475C395.475 117.205 395.771 116.985 396.081 116.815C396.397 116.64 396.72 116.511 397.048 116.429C397.376 116.341 397.692 116.297 397.997 116.297C398.642 116.297 399.23 116.394 399.764 116.587C400.297 116.78 400.754 117.076 401.135 117.475C401.521 117.867 401.82 118.362 402.031 118.96C402.248 119.552 402.356 120.249 402.356 121.052V121.86H395.475C395.48 122.317 395.545 122.733 395.668 123.108C395.791 123.478 395.967 123.794 396.195 124.058C396.424 124.321 396.699 124.526 397.021 124.673C397.35 124.813 397.719 124.884 398.129 124.884C398.545 124.884 398.896 124.825 399.184 124.708C399.471 124.591 399.711 124.441 399.904 124.26C400.098 124.078 400.253 123.876 400.37 123.653C400.493 123.431 400.596 123.211 400.678 122.994H402.251ZM400.73 120.568C400.719 120.111 400.648 119.704 400.52 119.347C400.396 118.989 400.221 118.69 399.992 118.45C399.77 118.204 399.5 118.02 399.184 117.896C398.867 117.768 398.516 117.703 398.129 117.703C397.76 117.703 397.42 117.776 397.109 117.923C396.799 118.063 396.526 118.263 396.292 118.521C396.058 118.772 395.87 119.074 395.729 119.426C395.589 119.771 395.504 120.152 395.475 120.568H400.73ZM404.237 119.408C404.255 118.834 404.363 118.351 404.562 117.958C404.762 117.56 405.031 117.237 405.371 116.991C405.711 116.745 406.112 116.569 406.575 116.464C407.044 116.353 407.554 116.297 408.104 116.297C408.562 116.297 409.004 116.344 409.432 116.438C409.865 116.531 410.249 116.684 410.583 116.895C410.917 117.1 411.184 117.369 411.383 117.703C411.588 118.031 411.69 118.433 411.69 118.907V124.383C411.69 124.535 411.731 124.667 411.813 124.778C411.896 124.884 412.027 124.937 412.209 124.937C412.291 124.937 412.376 124.931 412.464 124.919C412.552 124.901 412.643 124.884 412.736 124.866V125.982C412.602 126.018 412.467 126.05 412.332 126.079C412.203 126.108 412.048 126.123 411.866 126.123C411.585 126.123 411.342 126.1 411.137 126.053C410.938 126.006 410.768 125.93 410.627 125.824C410.492 125.713 410.387 125.572 410.311 125.402C410.234 125.227 410.185 125.013 410.161 124.761C409.962 124.978 409.751 125.18 409.528 125.367C409.306 125.549 409.057 125.71 408.781 125.851C408.506 125.985 408.198 126.091 407.858 126.167C407.519 126.249 407.135 126.29 406.707 126.29C406.344 126.29 405.989 126.231 405.644 126.114C405.304 125.997 404.996 125.824 404.721 125.596C404.451 125.367 404.234 125.086 404.07 124.752C403.906 124.412 403.824 124.02 403.824 123.574C403.824 123.088 403.906 122.669 404.07 122.317C404.234 121.96 404.448 121.664 404.712 121.43C404.976 121.189 405.277 121.005 405.617 120.876C405.957 120.747 406.303 120.662 406.654 120.621L409.3 120.296C409.552 120.267 409.748 120.17 409.889 120.006C410.035 119.836 410.108 119.566 410.108 119.197C410.108 118.629 409.921 118.222 409.546 117.976C409.177 117.724 408.644 117.598 407.946 117.598C407.231 117.598 406.698 117.75 406.347 118.055C405.995 118.354 405.796 118.805 405.749 119.408H404.237ZM410.073 121.21C409.944 121.304 409.783 121.383 409.59 121.447C409.402 121.506 409.194 121.556 408.966 121.597C408.737 121.638 408.494 121.676 408.236 121.711C407.979 121.74 407.721 121.772 407.463 121.808C407.17 121.849 406.9 121.907 406.654 121.983C406.408 122.06 406.194 122.159 406.013 122.282C405.831 122.405 405.69 122.555 405.591 122.73C405.491 122.9 405.441 123.103 405.441 123.337C405.441 123.606 405.482 123.844 405.564 124.049C405.652 124.254 405.77 124.427 405.916 124.567C406.068 124.708 406.25 124.813 406.461 124.884C406.672 124.954 406.903 124.989 407.155 124.989C407.313 124.989 407.495 124.972 407.7 124.937C407.905 124.896 408.116 124.837 408.333 124.761C408.55 124.685 408.761 124.588 408.966 124.471C409.177 124.348 409.364 124.201 409.528 124.031C409.692 123.861 409.824 123.668 409.924 123.451C410.023 123.234 410.073 122.991 410.073 122.722V121.21ZM416.779 117.993H413.536V116.587H421.64V117.993H418.396V126H416.779V117.993ZM423.274 116.587H424.892V123.803H424.927L429.55 116.587H431.404V126H429.778V118.784H429.743L425.129 126H423.274V116.587ZM433.786 116.587H437.794C438.942 116.587 439.801 116.801 440.369 117.229C440.943 117.656 441.23 118.277 441.23 119.092C441.23 119.525 441.125 119.892 440.914 120.19C440.703 120.489 440.425 120.753 440.079 120.981C440.577 121.169 440.973 121.438 441.266 121.79C441.559 122.142 441.705 122.596 441.705 123.152C441.705 123.592 441.632 123.987 441.485 124.339C441.339 124.69 441.116 124.989 440.817 125.235C440.519 125.481 440.138 125.672 439.675 125.807C439.218 125.936 438.676 126 438.049 126H433.786V116.587ZM435.403 124.708H437.864C438.292 124.708 438.646 124.676 438.928 124.611C439.215 124.541 439.443 124.441 439.613 124.312C439.783 124.184 439.903 124.028 439.974 123.847C440.044 123.665 440.079 123.46 440.079 123.231C440.079 123.003 440.044 122.798 439.974 122.616C439.903 122.429 439.783 122.273 439.613 122.15C439.443 122.021 439.215 121.925 438.928 121.86C438.646 121.79 438.292 121.755 437.864 121.755H435.403V124.708ZM435.403 120.568H437.847C438.392 120.568 438.822 120.46 439.139 120.243C439.455 120.026 439.613 119.689 439.613 119.232C439.613 118.975 439.569 118.761 439.481 118.591C439.394 118.415 439.276 118.274 439.13 118.169C438.983 118.063 438.816 117.99 438.629 117.949C438.447 117.902 438.26 117.879 438.066 117.879H435.403V120.568ZM454.933 126H443.647V116.587H445.265V124.594H448.657V116.587H450.274V124.594H453.658V116.587H455.275V124.594H456.444V128.303H454.933V126ZM457.921 116.587H459.538V123.803H459.573L464.196 116.587H466.051V126H464.425V118.784H464.39L459.775 126H457.921V116.587ZM468.433 116.587H470.05V121.14L474.805 116.587H476.923L472.502 120.744L476.993 126H474.91L471.236 121.729L470.05 122.722V126H468.433V116.587Z" fill="#E8E8E8"/>
<path d="M939.587 122.687C939.563 122.915 939.517 123.164 939.446 123.434C939.382 123.703 939.285 123.973 939.156 124.242C939.027 124.506 938.86 124.761 938.655 125.007C938.456 125.253 938.21 125.473 937.917 125.666C937.63 125.854 937.29 126.003 936.897 126.114C936.505 126.231 936.057 126.29 935.553 126.29C935.277 126.29 934.987 126.255 934.683 126.185C934.378 126.12 934.079 126.009 933.786 125.851C933.499 125.692 933.224 125.49 932.96 125.244C932.702 124.992 932.474 124.682 932.274 124.312C932.081 123.943 931.926 123.516 931.809 123.029C931.691 122.537 931.633 121.975 931.633 121.342C931.633 120.562 931.744 119.862 931.967 119.241C932.189 118.614 932.485 118.084 932.854 117.65C933.229 117.217 933.663 116.883 934.155 116.648C934.653 116.414 935.175 116.297 935.72 116.297C936.212 116.297 936.646 116.35 937.021 116.455C937.401 116.561 937.732 116.701 938.014 116.877C938.295 117.053 938.532 117.258 938.726 117.492C938.919 117.721 939.074 117.964 939.191 118.222C939.314 118.474 939.405 118.731 939.464 118.995C939.528 119.259 939.569 119.511 939.587 119.751H938.075C937.993 119.112 937.771 118.611 937.407 118.248C937.05 117.885 936.546 117.703 935.896 117.703C935.45 117.703 935.061 117.794 934.727 117.976C934.398 118.157 934.123 118.412 933.9 118.74C933.684 119.062 933.52 119.455 933.408 119.918C933.303 120.375 933.25 120.879 933.25 121.43C933.25 122.051 933.309 122.587 933.426 123.038C933.543 123.483 933.71 123.853 933.927 124.146C934.144 124.433 934.407 124.646 934.718 124.787C935.034 124.922 935.392 124.989 935.79 124.989C936.071 124.989 936.338 124.939 936.59 124.84C936.842 124.734 937.067 124.585 937.267 124.392C937.466 124.192 937.636 123.949 937.776 123.662C937.917 123.375 938.017 123.05 938.075 122.687H939.587ZM943.691 117.993H940.448V116.587H948.552V117.993H945.309V126H943.691V117.993ZM950.169 119.408C950.187 118.834 950.295 118.351 950.494 117.958C950.693 117.56 950.963 117.237 951.303 116.991C951.643 116.745 952.044 116.569 952.507 116.464C952.976 116.353 953.485 116.297 954.036 116.297C954.493 116.297 954.936 116.344 955.363 116.438C955.797 116.531 956.181 116.684 956.515 116.895C956.849 117.1 957.115 117.369 957.314 117.703C957.52 118.031 957.622 118.433 957.622 118.907V124.383C957.622 124.535 957.663 124.667 957.745 124.778C957.827 124.884 957.959 124.937 958.141 124.937C958.223 124.937 958.308 124.931 958.396 124.919C958.483 124.901 958.574 124.884 958.668 124.866V125.982C958.533 126.018 958.398 126.05 958.264 126.079C958.135 126.108 957.979 126.123 957.798 126.123C957.517 126.123 957.273 126.1 957.068 126.053C956.869 126.006 956.699 125.93 956.559 125.824C956.424 125.713 956.318 125.572 956.242 125.402C956.166 125.227 956.116 125.013 956.093 124.761C955.894 124.978 955.683 125.18 955.46 125.367C955.237 125.549 954.988 125.71 954.713 125.851C954.438 125.985 954.13 126.091 953.79 126.167C953.45 126.249 953.066 126.29 952.639 126.29C952.275 126.29 951.921 126.231 951.575 126.114C951.235 125.997 950.928 125.824 950.652 125.596C950.383 125.367 950.166 125.086 950.002 124.752C949.838 124.412 949.756 124.02 949.756 123.574C949.756 123.088 949.838 122.669 950.002 122.317C950.166 121.96 950.38 121.664 950.644 121.43C950.907 121.189 951.209 121.005 951.549 120.876C951.889 120.747 952.234 120.662 952.586 120.621L955.231 120.296C955.483 120.267 955.68 120.17 955.82 120.006C955.967 119.836 956.04 119.566 956.04 119.197C956.04 118.629 955.853 118.222 955.478 117.976C955.108 117.724 954.575 117.598 953.878 117.598C953.163 117.598 952.63 117.75 952.278 118.055C951.927 118.354 951.728 118.805 951.681 119.408H950.169ZM956.005 121.21C955.876 121.304 955.715 121.383 955.521 121.447C955.334 121.506 955.126 121.556 954.897 121.597C954.669 121.638 954.426 121.676 954.168 121.711C953.91 121.74 953.652 121.772 953.395 121.808C953.102 121.849 952.832 121.907 952.586 121.983C952.34 122.06 952.126 122.159 951.944 122.282C951.763 122.405 951.622 122.555 951.522 122.73C951.423 122.9 951.373 123.103 951.373 123.337C951.373 123.606 951.414 123.844 951.496 124.049C951.584 124.254 951.701 124.427 951.848 124.567C952 124.708 952.182 124.813 952.393 124.884C952.604 124.954 952.835 124.989 953.087 124.989C953.245 124.989 953.427 124.972 953.632 124.937C953.837 124.896 954.048 124.837 954.265 124.761C954.481 124.685 954.692 124.588 954.897 124.471C955.108 124.348 955.296 124.201 955.46 124.031C955.624 123.861 955.756 123.668 955.855 123.451C955.955 123.234 956.005 122.991 956.005 122.722V121.21ZM966.868 120.437H967.686L970.771 116.587H972.722L969.021 121.052L972.862 126H970.867L967.686 121.72H966.868V126H965.251V121.72H964.425L961.217 126H959.222L963.098 121.052L959.415 116.587H961.375L964.425 120.437H965.251V116.587H966.868V120.437ZM979.173 116.587H980.79V117.879H980.825C980.931 117.662 981.062 117.457 981.221 117.264C981.385 117.07 981.578 116.903 981.801 116.763C982.029 116.616 982.29 116.502 982.583 116.42C982.882 116.338 983.222 116.297 983.603 116.297C984.106 116.297 984.59 116.394 985.053 116.587C985.516 116.78 985.926 117.07 986.283 117.457C986.641 117.844 986.925 118.33 987.136 118.916C987.347 119.496 987.452 120.173 987.452 120.946C987.452 121.913 987.353 122.736 987.153 123.416C986.96 124.09 986.682 124.641 986.318 125.068C985.961 125.496 985.527 125.807 985.018 126C984.508 126.193 983.939 126.29 983.312 126.29C983.002 126.29 982.712 126.249 982.442 126.167C982.173 126.085 981.93 125.979 981.713 125.851C981.502 125.716 981.32 125.569 981.168 125.411C981.016 125.247 980.901 125.089 980.825 124.937H980.79V129.709H979.173V116.587ZM980.755 121.342C980.755 121.852 980.805 122.323 980.904 122.757C981.004 123.185 981.156 123.557 981.361 123.873C981.572 124.189 981.833 124.438 982.144 124.62C982.46 124.796 982.832 124.884 983.26 124.884C983.705 124.884 984.089 124.796 984.411 124.62C984.739 124.438 985.009 124.189 985.22 123.873C985.431 123.557 985.586 123.185 985.686 122.757C985.785 122.323 985.835 121.852 985.835 121.342C985.835 120.809 985.785 120.319 985.686 119.874C985.586 119.429 985.431 119.045 985.22 118.723C985.009 118.4 984.739 118.151 984.411 117.976C984.089 117.794 983.705 117.703 983.26 117.703C982.832 117.703 982.46 117.794 982.144 117.976C981.833 118.151 981.572 118.4 981.361 118.723C981.156 119.045 981.004 119.429 980.904 119.874C980.805 120.319 980.755 120.809 980.755 121.342ZM989.263 119.408C989.28 118.834 989.389 118.351 989.588 117.958C989.787 117.56 990.057 117.237 990.396 116.991C990.736 116.745 991.138 116.569 991.601 116.464C992.069 116.353 992.579 116.297 993.13 116.297C993.587 116.297 994.029 116.344 994.457 116.438C994.891 116.531 995.274 116.684 995.608 116.895C995.942 117.1 996.209 117.369 996.408 117.703C996.613 118.031 996.716 118.433 996.716 118.907V124.383C996.716 124.535 996.757 124.667 996.839 124.778C996.921 124.884 997.053 124.937 997.234 124.937C997.316 124.937 997.401 124.931 997.489 124.919C997.577 124.901 997.668 124.884 997.762 124.866V125.982C997.627 126.018 997.492 126.05 997.357 126.079C997.229 126.108 997.073 126.123 996.892 126.123C996.61 126.123 996.367 126.1 996.162 126.053C995.963 126.006 995.793 125.93 995.652 125.824C995.518 125.713 995.412 125.572 995.336 125.402C995.26 125.227 995.21 125.013 995.187 124.761C994.987 124.978 994.776 125.18 994.554 125.367C994.331 125.549 994.082 125.71 993.807 125.851C993.531 125.985 993.224 126.091 992.884 126.167C992.544 126.249 992.16 126.29 991.732 126.29C991.369 126.29 991.015 126.231 990.669 126.114C990.329 125.997 990.021 125.824 989.746 125.596C989.477 125.367 989.26 125.086 989.096 124.752C988.932 124.412 988.85 124.02 988.85 123.574C988.85 123.088 988.932 122.669 989.096 122.317C989.26 121.96 989.474 121.664 989.737 121.43C990.001 121.189 990.303 121.005 990.643 120.876C990.982 120.747 991.328 120.662 991.68 120.621L994.325 120.296C994.577 120.267 994.773 120.17 994.914 120.006C995.061 119.836 995.134 119.566 995.134 119.197C995.134 118.629 994.946 118.222 994.571 117.976C994.202 117.724 993.669 117.598 992.972 117.598C992.257 117.598 991.724 117.75 991.372 118.055C991.021 118.354 990.821 118.805 990.774 119.408H989.263ZM995.099 121.21C994.97 121.304 994.809 121.383 994.615 121.447C994.428 121.506 994.22 121.556 993.991 121.597C993.763 121.638 993.52 121.676 993.262 121.711C993.004 121.74 992.746 121.772 992.488 121.808C992.195 121.849 991.926 121.907 991.68 121.983C991.434 122.06 991.22 122.159 991.038 122.282C990.856 122.405 990.716 122.555 990.616 122.73C990.517 122.9 990.467 123.103 990.467 123.337C990.467 123.606 990.508 123.844 990.59 124.049C990.678 124.254 990.795 124.427 990.941 124.567C991.094 124.708 991.275 124.813 991.486 124.884C991.697 124.954 991.929 124.989 992.181 124.989C992.339 124.989 992.521 124.972 992.726 124.937C992.931 124.896 993.142 124.837 993.358 124.761C993.575 124.685 993.786 124.588 993.991 124.471C994.202 124.348 994.39 124.201 994.554 124.031C994.718 123.861 994.85 123.668 994.949 123.451C995.049 123.234 995.099 122.991 995.099 122.722V121.21ZM1006.61 112.966C1006.6 113.054 1006.58 113.162 1006.56 113.291C1006.54 113.414 1006.5 113.546 1006.45 113.687C1006.39 113.827 1006.3 113.971 1006.2 114.117C1006.1 114.258 1005.96 114.39 1005.79 114.513C1005.7 114.577 1005.62 114.633 1005.54 114.68C1005.46 114.727 1005.37 114.768 1005.25 114.803C1005.13 114.838 1004.98 114.867 1004.8 114.891C1004.62 114.914 1004.38 114.929 1004.07 114.935L1003.4 114.952C1002.95 114.964 1002.53 115.058 1002.17 115.233C1001.8 115.403 1001.48 115.644 1001.2 115.954C1000.92 116.259 1000.69 116.628 1000.51 117.062C1000.33 117.495 1000.2 117.979 1000.11 118.512C1000.23 118.277 1000.38 118.049 1000.57 117.826C1000.75 117.598 1000.97 117.396 1001.24 117.22C1001.51 117.038 1001.83 116.895 1002.19 116.789C1002.55 116.678 1002.98 116.622 1003.46 116.622C1004 116.622 1004.52 116.719 1005 116.912C1005.5 117.105 1005.92 117.396 1006.29 117.782C1006.66 118.169 1006.95 118.649 1007.17 119.224C1007.38 119.798 1007.49 120.466 1007.49 121.228C1007.49 121.468 1007.47 121.761 1007.44 122.106C1007.4 122.446 1007.33 122.804 1007.23 123.179C1007.12 123.554 1006.97 123.929 1006.77 124.304C1006.58 124.673 1006.32 125.004 1005.99 125.297C1005.67 125.59 1005.27 125.827 1004.8 126.009C1004.34 126.196 1003.78 126.29 1003.13 126.29C1002.86 126.29 1002.58 126.267 1002.27 126.22C1001.97 126.179 1001.67 126.1 1001.37 125.982C1001.07 125.865 1000.77 125.701 1000.49 125.49C1000.21 125.279 999.947 125.01 999.713 124.682C999.596 124.518 999.479 124.33 999.361 124.119C999.25 123.902 999.147 123.642 999.054 123.337C998.96 123.032 998.884 122.672 998.825 122.256C998.772 121.84 998.746 121.348 998.746 120.779C998.746 120.404 998.764 119.979 998.799 119.505C998.834 119.03 998.896 118.547 998.983 118.055C999.071 117.562 999.188 117.088 999.335 116.631C999.481 116.168 999.669 115.764 999.897 115.418C1000.14 115.043 1000.4 114.738 1000.67 114.504C1000.94 114.27 1001.23 114.085 1001.53 113.95C1001.84 113.815 1002.17 113.719 1002.52 113.66C1002.87 113.602 1003.25 113.563 1003.66 113.546L1004.23 113.528C1004.42 113.522 1004.58 113.514 1004.71 113.502C1004.84 113.484 1004.95 113.458 1005.04 113.423C1005.13 113.388 1005.2 113.335 1005.25 113.265C1005.3 113.194 1005.35 113.095 1005.38 112.966H1006.61ZM1000.36 121.465C1000.36 121.641 1000.37 121.849 1000.39 122.089C1000.41 122.329 1000.46 122.581 1000.52 122.845C1000.59 123.103 1000.68 123.36 1000.8 123.618C1000.93 123.876 1001.09 124.107 1001.29 124.312C1001.49 124.512 1001.74 124.676 1002.04 124.805C1002.34 124.928 1002.7 124.989 1003.11 124.989C1003.58 124.989 1003.97 124.916 1004.28 124.77C1004.6 124.617 1004.86 124.424 1005.07 124.189C1005.27 123.949 1005.43 123.686 1005.53 123.398C1005.64 123.111 1005.72 122.833 1005.77 122.563C1005.82 122.288 1005.85 122.039 1005.86 121.816C1005.87 121.588 1005.87 121.415 1005.87 121.298C1005.87 120.87 1005.82 120.451 1005.72 120.041C1005.63 119.631 1005.48 119.268 1005.26 118.951C1005.05 118.635 1004.77 118.38 1004.42 118.187C1004.08 117.993 1003.67 117.896 1003.17 117.896C1002.68 117.896 1002.26 117.993 1001.91 118.187C1001.56 118.374 1001.27 118.632 1001.04 118.96C1000.81 119.282 1000.64 119.66 1000.53 120.094C1000.42 120.521 1000.36 120.979 1000.36 121.465ZM1015.89 121.28C1015.89 120.759 1015.83 120.281 1015.72 119.848C1015.6 119.408 1015.42 119.03 1015.19 118.714C1014.96 118.397 1014.67 118.151 1014.32 117.976C1013.98 117.794 1013.58 117.703 1013.13 117.703C1012.68 117.703 1012.29 117.794 1011.95 117.976C1011.61 118.151 1011.32 118.397 1011.09 118.714C1010.85 119.03 1010.68 119.408 1010.56 119.848C1010.44 120.281 1010.38 120.759 1010.38 121.28C1010.38 121.808 1010.44 122.294 1010.56 122.739C1010.68 123.179 1010.85 123.557 1011.09 123.873C1011.32 124.189 1011.61 124.438 1011.95 124.62C1012.29 124.796 1012.68 124.884 1013.13 124.884C1013.58 124.884 1013.98 124.796 1014.32 124.62C1014.67 124.438 1014.96 124.189 1015.19 123.873C1015.42 123.557 1015.6 123.179 1015.72 122.739C1015.83 122.294 1015.89 121.808 1015.89 121.28ZM1017.51 121.28C1017.51 122.054 1017.41 122.751 1017.21 123.372C1017.01 123.987 1016.73 124.512 1016.35 124.945C1015.98 125.379 1015.52 125.713 1014.97 125.947C1014.43 126.176 1013.82 126.29 1013.13 126.29C1012.45 126.29 1011.84 126.176 1011.3 125.947C1010.76 125.713 1010.3 125.379 1009.93 124.945C1009.55 124.512 1009.26 123.987 1009.06 123.372C1008.87 122.751 1008.77 122.054 1008.77 121.28C1008.77 120.519 1008.87 119.83 1009.06 119.215C1009.26 118.6 1009.55 118.075 1009.93 117.642C1010.3 117.208 1010.76 116.877 1011.3 116.648C1011.84 116.414 1012.45 116.297 1013.13 116.297C1013.82 116.297 1014.43 116.414 1014.97 116.648C1015.52 116.877 1015.98 117.208 1016.35 117.642C1016.73 118.075 1017.01 118.6 1017.21 119.215C1017.41 119.83 1017.51 120.519 1017.51 121.28ZM1021.84 117.993H1018.6V116.587H1026.7V117.993H1023.46V126H1021.84V117.993ZM1037.34 116.587H1038.96V126H1037.34V116.587ZM1028.34 116.587H1029.96V120.129H1032.79C1033.3 120.129 1033.75 120.199 1034.16 120.34C1034.57 120.475 1034.91 120.671 1035.19 120.929C1035.48 121.181 1035.69 121.488 1035.84 121.852C1035.99 122.209 1036.06 122.613 1036.06 123.064C1036.06 123.521 1035.99 123.932 1035.84 124.295C1035.69 124.652 1035.48 124.96 1035.19 125.218C1034.91 125.47 1034.57 125.663 1034.16 125.798C1033.75 125.933 1033.3 126 1032.79 126H1028.34V116.587ZM1029.96 124.708H1032.46C1032.74 124.708 1033 124.679 1033.24 124.62C1033.49 124.562 1033.7 124.468 1033.88 124.339C1034.05 124.204 1034.19 124.034 1034.29 123.829C1034.39 123.618 1034.44 123.363 1034.44 123.064C1034.44 122.771 1034.39 122.522 1034.28 122.317C1034.18 122.112 1034.04 121.945 1033.85 121.816C1033.67 121.682 1033.45 121.585 1033.18 121.526C1032.92 121.462 1032.64 121.43 1032.32 121.43H1029.96V124.708Z" fill="#E8E8E8"/>
</svg>
