<svg width="222" height="79" viewBox="0 0 222 79" fill="none" xmlns="http://www.w3.org/2000/svg">
<rect width="222" height="79" fill="#740606"/>
<path d="M84.4434 46H80.6445L76.2012 39.6426L74.7363 41.1367V46H71.7383V31.6445H74.7363V37.4844L80.2246 31.6445H84.1016L78.2422 37.5234L84.4434 46ZM88.5645 43.6758C88.9746 43.6758 89.2969 43.5553 89.5312 43.3145C89.7656 43.0736 89.9284 42.7708 90.0195 42.4062L84.9316 31.6445H88.3105L91.5723 39.3594L94.4336 31.6445H97.6562L93.0762 42.2402C92.4772 43.64 91.8424 44.6784 91.1719 45.3555C90.5013 46.026 89.7526 46.3613 88.9258 46.3613C88.6654 46.3613 88.4375 46.3483 88.2422 46.3223C88.0534 46.2962 87.8874 46.2637 87.7441 46.2246C87.6074 46.1855 87.4837 46.1465 87.373 46.1074C87.2689 46.0684 87.168 46.0326 87.0703 46V43.2754C87.2591 43.3991 87.4772 43.4967 87.7246 43.5684C87.972 43.64 88.252 43.6758 88.5645 43.6758ZM99.1895 31.6445H110.83V46H107.832V34.1152H102.197V46H99.1895V31.6445ZM122.402 46V36.2832H122.363L116.689 46H113.643V31.6445H116.523V41.4199H116.562L122.246 31.6445H125.283V46H122.402ZM126.943 31.6445H138.701V34.1152H134.316V46H131.318V34.1152H126.943V31.6445ZM147.275 37.3184C147.607 37.3314 147.965 37.3802 148.35 37.4648C148.734 37.543 149.118 37.6699 149.502 37.8457C149.886 38.0215 150.234 38.2721 150.547 38.5977C150.859 38.9167 151.113 39.3268 151.309 39.8281C151.504 40.3229 151.602 40.9349 151.602 41.6641C151.602 42.3867 151.504 42.9954 151.309 43.4902C151.113 43.985 150.863 44.3952 150.557 44.7207C150.257 45.0397 149.922 45.2871 149.551 45.4629C149.186 45.6322 148.828 45.7591 148.477 45.8438C148.132 45.9219 147.812 45.9674 147.52 45.9805C147.233 45.9935 147.021 46 146.885 46H140.586V31.6445H143.584V37.2988H146.445C146.66 37.2988 146.937 37.3053 147.275 37.3184ZM146.943 39.7109C146.631 39.6784 146.318 39.6621 146.006 39.6621H143.584V43.5195H146.123C146.396 43.5195 146.676 43.5 146.963 43.4609C147.256 43.4219 147.523 43.3372 147.764 43.207C148.011 43.0768 148.213 42.8848 148.369 42.6309C148.525 42.3704 148.604 42.0254 148.604 41.5957C148.604 41.1465 148.525 40.7949 148.369 40.541C148.219 40.2806 148.021 40.0853 147.773 39.9551C147.526 39.8249 147.249 39.7435 146.943 39.7109Z" fill="#ECECEC"/>
</svg>
