<svg width="84" height="46" viewBox="0 0 84 46" fill="none" xmlns="http://www.w3.org/2000/svg">
<rect width="84" height="46" fill="black"/>
<path d="M57.2227 30.7773L72.779 15.221" stroke="white" stroke-width="1.5"/>
<path d="M57 15L72.5564 30.5564" stroke="white" stroke-width="1.5"/>
<path d="M9.12061 18.1099H11.3452L13.6943 25.3979H13.7275L16.1099 18.1099H18.2017V27H16.7739V19.8447H16.7407L14.3916 27H12.9307L10.5815 19.8447H10.5483V27H9.12061V18.1099ZM28.0132 24.1611C27.9523 24.5485 27.8195 24.9276 27.6147 25.2983C27.41 25.6691 27.1416 26.0011 26.8096 26.2944C26.4775 26.5877 26.0846 26.8229 25.6309 27C25.1826 27.1826 24.6846 27.2739 24.1367 27.2739C23.5391 27.2739 22.9857 27.1771 22.4766 26.9834C21.973 26.7842 21.5358 26.4881 21.165 26.0952C20.7998 25.6968 20.512 25.1987 20.3018 24.6011C20.0915 24.0034 19.9863 23.3006 19.9863 22.4927C19.9863 21.9504 20.0444 21.4606 20.1606 21.0234C20.2824 20.5807 20.4429 20.1878 20.6421 19.8447C20.8468 19.4961 21.082 19.1973 21.3477 18.9482C21.6133 18.6937 21.8927 18.4862 22.186 18.3257C22.4849 18.1597 22.7892 18.0379 23.0991 17.9604C23.409 17.8774 23.7078 17.8359 23.9956 17.8359C24.6043 17.8359 25.1605 17.9272 25.6641 18.1099C26.1676 18.2925 26.5993 18.5719 26.959 18.9482C27.3242 19.319 27.6064 19.7866 27.8057 20.3511C28.0104 20.91 28.1128 21.5685 28.1128 22.3267V23.0903H21.6133C21.6188 23.522 21.6797 23.9149 21.7959 24.269C21.9121 24.6177 22.0781 24.9165 22.2939 25.1655C22.5098 25.4146 22.7699 25.6082 23.0742 25.7466C23.3841 25.8794 23.7327 25.9458 24.1201 25.9458C24.513 25.9458 24.8451 25.8905 25.1162 25.7798C25.3874 25.6691 25.6143 25.528 25.7969 25.3564C25.9795 25.1849 26.1261 24.994 26.2368 24.7837C26.353 24.5734 26.4499 24.3659 26.5273 24.1611H28.0132ZM26.5771 21.8701C26.5661 21.4385 26.4997 21.0539 26.3779 20.7163C26.2617 20.3787 26.0957 20.0965 25.8799 19.8696C25.6696 19.6372 25.415 19.4629 25.1162 19.3467C24.8174 19.2249 24.4854 19.1641 24.1201 19.1641C23.7715 19.1641 23.4505 19.2332 23.1572 19.3716C22.8639 19.5044 22.6066 19.6925 22.3853 19.936C22.1639 20.174 21.9868 20.459 21.854 20.791C21.7212 21.1175 21.641 21.4772 21.6133 21.8701H26.5771ZM29.9058 18.1099H31.4331V21.6958H35.5835V18.1099H37.1191V27H35.5835V23.0239H31.4331V27H29.9058V18.1099ZM49.3462 22.5425C49.3462 22.05 49.2909 21.599 49.1802 21.1895C49.0695 20.7744 48.9035 20.4175 48.6821 20.1187C48.4663 19.8198 48.1951 19.5874 47.8687 19.4214C47.5477 19.2498 47.1742 19.1641 46.748 19.1641C46.3219 19.1641 45.9456 19.2498 45.6191 19.4214C45.2982 19.5874 45.027 19.8198 44.8057 20.1187C44.5898 20.4175 44.4266 20.7744 44.3159 21.1895C44.2052 21.599 44.1499 22.05 44.1499 22.5425C44.1499 23.0405 44.2052 23.4998 44.3159 23.9204C44.4266 24.3354 44.5898 24.6924 44.8057 24.9912C45.027 25.29 45.2982 25.5252 45.6191 25.6968C45.9456 25.8628 46.3219 25.9458 46.748 25.9458C47.1742 25.9458 47.5477 25.8628 47.8687 25.6968C48.1951 25.5252 48.4663 25.29 48.6821 24.9912C48.9035 24.6924 49.0695 24.3354 49.1802 23.9204C49.2909 23.4998 49.3462 23.0405 49.3462 22.5425ZM39.3687 18.1099H40.896V21.8701H42.6143C42.6751 21.2448 42.8135 20.6831 43.0293 20.1851C43.2451 19.687 43.5301 19.2637 43.8843 18.915C44.2384 18.5664 44.6562 18.3008 45.1377 18.1182C45.6191 17.93 46.1559 17.8359 46.748 17.8359C47.3955 17.8359 47.9738 17.9466 48.4829 18.168C48.992 18.3838 49.4237 18.6965 49.7778 19.106C50.1375 19.5155 50.4115 20.0107 50.5996 20.5918C50.7878 21.1729 50.8818 21.8231 50.8818 22.5425C50.8818 23.2729 50.7878 23.9315 50.5996 24.5181C50.4115 25.0991 50.1375 25.5944 49.7778 26.0039C49.4237 26.4134 48.992 26.7288 48.4829 26.9502C47.9738 27.166 47.3955 27.2739 46.748 27.2739C46.1449 27.2739 45.597 27.1799 45.1045 26.9917C44.6175 26.798 44.1969 26.5213 43.8428 26.1616C43.4886 25.7964 43.2064 25.3564 42.9961 24.8418C42.7858 24.3216 42.6585 23.7378 42.6143 23.0903H40.896V27H39.3687V18.1099Z" fill="white"/>
</svg>
