<svg width="1386" height="238" viewBox="0 0 1386 238" fill="none" xmlns="http://www.w3.org/2000/svg">
<rect width="1386" height="238" fill="#3D3D3D"/>
<path d="M1165.56 126C1165.62 124.916 1165.84 123.973 1166.23 123.17C1166.62 122.367 1167.38 121.638 1168.52 120.981L1170.2 120.006C1170.96 119.566 1171.49 119.191 1171.79 118.881C1172.27 118.395 1172.51 117.838 1172.51 117.211C1172.51 116.479 1172.29 115.898 1171.86 115.471C1171.42 115.037 1170.83 114.82 1170.1 114.82C1169.01 114.82 1168.26 115.23 1167.85 116.051C1167.62 116.49 1167.5 117.1 1167.48 117.879H1165.87C1165.89 116.783 1166.09 115.89 1166.48 115.198C1167.16 113.979 1168.37 113.37 1170.11 113.37C1171.55 113.37 1172.6 113.76 1173.26 114.539C1173.93 115.318 1174.26 116.186 1174.26 117.141C1174.26 118.148 1173.91 119.01 1173.2 119.725C1172.79 120.141 1172.05 120.645 1170.99 121.236L1169.79 121.904C1169.22 122.221 1168.76 122.522 1168.44 122.81C1167.85 123.319 1167.48 123.885 1167.33 124.506H1174.2V126H1165.56ZM1181.22 116.587H1187.06V117.993H1182.83V126H1181.22V116.587ZM1195.05 121.28C1195.05 120.759 1194.99 120.281 1194.87 119.848C1194.76 119.408 1194.58 119.03 1194.35 118.714C1194.11 118.397 1193.82 118.151 1193.48 117.976C1193.14 117.794 1192.74 117.703 1192.29 117.703C1191.84 117.703 1191.44 117.794 1191.1 117.976C1190.76 118.151 1190.48 118.397 1190.24 118.714C1190.01 119.03 1189.83 119.408 1189.71 119.848C1189.6 120.281 1189.54 120.759 1189.54 121.28C1189.54 121.808 1189.6 122.294 1189.71 122.739C1189.83 123.179 1190.01 123.557 1190.24 123.873C1190.48 124.189 1190.76 124.438 1191.1 124.62C1191.44 124.796 1191.84 124.884 1192.29 124.884C1192.74 124.884 1193.14 124.796 1193.48 124.62C1193.82 124.438 1194.11 124.189 1194.35 123.873C1194.58 123.557 1194.76 123.179 1194.87 122.739C1194.99 122.294 1195.05 121.808 1195.05 121.28ZM1196.67 121.28C1196.67 122.054 1196.57 122.751 1196.37 123.372C1196.17 123.987 1195.88 124.512 1195.51 124.945C1195.13 125.379 1194.67 125.713 1194.13 125.947C1193.59 126.176 1192.98 126.29 1192.29 126.29C1191.6 126.29 1190.99 126.176 1190.45 125.947C1189.91 125.713 1189.46 125.379 1189.08 124.945C1188.71 124.512 1188.42 123.987 1188.22 123.372C1188.02 122.751 1187.92 122.054 1187.92 121.28C1187.92 120.519 1188.02 119.83 1188.22 119.215C1188.42 118.6 1188.71 118.075 1189.08 117.642C1189.46 117.208 1189.91 116.877 1190.45 116.648C1190.99 116.414 1191.6 116.297 1192.29 116.297C1192.98 116.297 1193.59 116.414 1194.13 116.648C1194.67 116.877 1195.13 117.208 1195.51 117.642C1195.88 118.075 1196.17 118.6 1196.37 119.215C1196.57 119.83 1196.67 120.519 1196.67 121.28ZM1206.34 126H1199.07V128.303H1197.55V124.594H1198.79C1199.05 123.961 1199.26 123.316 1199.41 122.66C1199.56 121.998 1199.68 121.333 1199.76 120.665C1199.84 119.991 1199.9 119.314 1199.92 118.635C1199.94 117.955 1199.95 117.272 1199.95 116.587H1206.53V124.594H1207.86V128.303H1206.34V126ZM1204.91 124.594V117.993H1201.5C1201.46 118.526 1201.42 119.074 1201.37 119.637C1201.33 120.199 1201.27 120.765 1201.19 121.333C1201.12 121.896 1201.03 122.452 1200.9 123.003C1200.79 123.554 1200.63 124.084 1200.44 124.594H1204.91ZM1209.39 119.408C1209.41 118.834 1209.52 118.351 1209.72 117.958C1209.92 117.56 1210.19 117.237 1210.53 116.991C1210.87 116.745 1211.27 116.569 1211.73 116.464C1212.2 116.353 1212.71 116.297 1213.26 116.297C1213.72 116.297 1214.16 116.344 1214.59 116.438C1215.02 116.531 1215.41 116.684 1215.74 116.895C1216.07 117.1 1216.34 117.369 1216.54 117.703C1216.74 118.031 1216.85 118.433 1216.85 118.907V124.383C1216.85 124.535 1216.89 124.667 1216.97 124.778C1217.05 124.884 1217.18 124.937 1217.37 124.937C1217.45 124.937 1217.53 124.931 1217.62 124.919C1217.71 124.901 1217.8 124.884 1217.89 124.866V125.982C1217.76 126.018 1217.62 126.05 1217.49 126.079C1217.36 126.108 1217.2 126.123 1217.02 126.123C1216.74 126.123 1216.5 126.1 1216.29 126.053C1216.09 126.006 1215.92 125.93 1215.78 125.824C1215.65 125.713 1215.54 125.572 1215.47 125.402C1215.39 125.227 1215.34 125.013 1215.32 124.761C1215.12 124.978 1214.91 125.18 1214.68 125.367C1214.46 125.549 1214.21 125.71 1213.94 125.851C1213.66 125.985 1213.35 126.091 1213.01 126.167C1212.67 126.249 1212.29 126.29 1211.86 126.29C1211.5 126.29 1211.15 126.231 1210.8 126.114C1210.46 125.997 1210.15 125.824 1209.88 125.596C1209.61 125.367 1209.39 125.086 1209.23 124.752C1209.06 124.412 1208.98 124.02 1208.98 123.574C1208.98 123.088 1209.06 122.669 1209.23 122.317C1209.39 121.96 1209.6 121.664 1209.87 121.43C1210.13 121.189 1210.43 121.005 1210.77 120.876C1211.11 120.747 1211.46 120.662 1211.81 120.621L1214.46 120.296C1214.71 120.267 1214.9 120.17 1215.04 120.006C1215.19 119.836 1215.26 119.566 1215.26 119.197C1215.26 118.629 1215.08 118.222 1214.7 117.976C1214.33 117.724 1213.8 117.598 1213.1 117.598C1212.39 117.598 1211.85 117.75 1211.5 118.055C1211.15 118.354 1210.95 118.805 1210.91 119.408H1209.39ZM1215.23 121.21C1215.1 121.304 1214.94 121.383 1214.75 121.447C1214.56 121.506 1214.35 121.556 1214.12 121.597C1213.89 121.638 1213.65 121.676 1213.39 121.711C1213.13 121.74 1212.88 121.772 1212.62 121.808C1212.33 121.849 1212.06 121.907 1211.81 121.983C1211.56 122.06 1211.35 122.159 1211.17 122.282C1210.99 122.405 1210.85 122.555 1210.75 122.73C1210.65 122.9 1210.6 123.103 1210.6 123.337C1210.6 123.606 1210.64 123.844 1210.72 124.049C1210.81 124.254 1210.93 124.427 1211.07 124.567C1211.22 124.708 1211.41 124.813 1211.62 124.884C1211.83 124.954 1212.06 124.989 1212.31 124.989C1212.47 124.989 1212.65 124.972 1212.86 124.937C1213.06 124.896 1213.27 124.837 1213.49 124.761C1213.71 124.685 1213.92 124.588 1214.12 124.471C1214.33 124.348 1214.52 124.201 1214.68 124.031C1214.85 123.861 1214.98 123.668 1215.08 123.451C1215.18 123.234 1215.23 122.991 1215.23 122.722V121.21Z" fill="#E8E8E8"/>
<path d="M116.325 128.769V124.488H117.494C117.617 124.207 117.731 123.923 117.837 123.636C117.942 123.343 118.039 123.015 118.127 122.651C118.221 122.282 118.306 121.86 118.382 121.386C118.464 120.911 118.54 120.349 118.61 119.698C118.692 119.013 118.757 118.339 118.804 117.677C118.851 117.009 118.886 116.385 118.909 115.805C118.938 115.225 118.956 114.7 118.962 114.231C118.974 113.763 118.982 113.379 118.988 113.08H127.109V124.488H128.568V128.769H126.951V126H117.942V128.769H116.325ZM120.605 114.592C120.605 115.43 120.57 116.265 120.5 117.097C120.436 117.929 120.356 118.767 120.263 119.61C120.198 120.278 120.131 120.847 120.061 121.315C119.996 121.778 119.926 122.191 119.85 122.555C119.779 122.912 119.697 123.243 119.604 123.548C119.516 123.847 119.413 124.16 119.296 124.488H125.334V114.592H120.605ZM129.79 119.408C129.808 118.834 129.916 118.351 130.115 117.958C130.314 117.56 130.584 117.237 130.924 116.991C131.264 116.745 131.665 116.569 132.128 116.464C132.597 116.353 133.106 116.297 133.657 116.297C134.114 116.297 134.557 116.344 134.984 116.438C135.418 116.531 135.802 116.684 136.136 116.895C136.47 117.1 136.736 117.369 136.936 117.703C137.141 118.031 137.243 118.433 137.243 118.907V124.383C137.243 124.535 137.284 124.667 137.366 124.778C137.448 124.884 137.58 124.937 137.762 124.937C137.844 124.937 137.929 124.931 138.017 124.919C138.104 124.901 138.195 124.884 138.289 124.866V125.982C138.154 126.018 138.02 126.05 137.885 126.079C137.756 126.108 137.601 126.123 137.419 126.123C137.138 126.123 136.895 126.1 136.689 126.053C136.49 126.006 136.32 125.93 136.18 125.824C136.045 125.713 135.939 125.572 135.863 125.402C135.787 125.227 135.737 125.013 135.714 124.761C135.515 124.978 135.304 125.18 135.081 125.367C134.858 125.549 134.609 125.71 134.334 125.851C134.059 125.985 133.751 126.091 133.411 126.167C133.071 126.249 132.688 126.29 132.26 126.29C131.896 126.29 131.542 126.231 131.196 126.114C130.856 125.997 130.549 125.824 130.273 125.596C130.004 125.367 129.787 125.086 129.623 124.752C129.459 124.412 129.377 124.02 129.377 123.574C129.377 123.088 129.459 122.669 129.623 122.317C129.787 121.96 130.001 121.664 130.265 121.43C130.528 121.189 130.83 121.005 131.17 120.876C131.51 120.747 131.855 120.662 132.207 120.621L134.853 120.296C135.104 120.267 135.301 120.17 135.441 120.006C135.588 119.836 135.661 119.566 135.661 119.197C135.661 118.629 135.474 118.222 135.099 117.976C134.729 117.724 134.196 117.598 133.499 117.598C132.784 117.598 132.251 117.75 131.899 118.055C131.548 118.354 131.349 118.805 131.302 119.408H129.79ZM135.626 121.21C135.497 121.304 135.336 121.383 135.143 121.447C134.955 121.506 134.747 121.556 134.519 121.597C134.29 121.638 134.047 121.676 133.789 121.711C133.531 121.74 133.273 121.772 133.016 121.808C132.723 121.849 132.453 121.907 132.207 121.983C131.961 122.06 131.747 122.159 131.565 122.282C131.384 122.405 131.243 122.555 131.144 122.73C131.044 122.9 130.994 123.103 130.994 123.337C130.994 123.606 131.035 123.844 131.117 124.049C131.205 124.254 131.322 124.427 131.469 124.567C131.621 124.708 131.803 124.813 132.014 124.884C132.225 124.954 132.456 124.989 132.708 124.989C132.866 124.989 133.048 124.972 133.253 124.937C133.458 124.896 133.669 124.837 133.886 124.761C134.103 124.685 134.313 124.588 134.519 124.471C134.729 124.348 134.917 124.201 135.081 124.031C135.245 123.861 135.377 123.668 135.477 123.451C135.576 123.234 135.626 122.991 135.626 122.722V121.21ZM139.739 116.587H141.356V117.879H141.392C141.497 117.662 141.629 117.457 141.787 117.264C141.951 117.07 142.145 116.903 142.367 116.763C142.596 116.616 142.856 116.502 143.149 116.42C143.448 116.338 143.788 116.297 144.169 116.297C144.673 116.297 145.156 116.394 145.619 116.587C146.082 116.78 146.492 117.07 146.85 117.457C147.207 117.844 147.491 118.33 147.702 118.916C147.913 119.496 148.019 120.173 148.019 120.946C148.019 121.913 147.919 122.736 147.72 123.416C147.526 124.09 147.248 124.641 146.885 125.068C146.527 125.496 146.094 125.807 145.584 126C145.074 126.193 144.506 126.29 143.879 126.29C143.568 126.29 143.278 126.249 143.009 126.167C142.739 126.085 142.496 125.979 142.279 125.851C142.068 125.716 141.887 125.569 141.734 125.411C141.582 125.247 141.468 125.089 141.392 124.937H141.356V129.709H139.739V116.587ZM141.321 121.342C141.321 121.852 141.371 122.323 141.471 122.757C141.57 123.185 141.723 123.557 141.928 123.873C142.139 124.189 142.399 124.438 142.71 124.62C143.026 124.796 143.398 124.884 143.826 124.884C144.271 124.884 144.655 124.796 144.978 124.62C145.306 124.438 145.575 124.189 145.786 123.873C145.997 123.557 146.152 123.185 146.252 122.757C146.352 122.323 146.401 121.852 146.401 121.342C146.401 120.809 146.352 120.319 146.252 119.874C146.152 119.429 145.997 119.045 145.786 118.723C145.575 118.4 145.306 118.151 144.978 117.976C144.655 117.794 144.271 117.703 143.826 117.703C143.398 117.703 143.026 117.794 142.71 117.976C142.399 118.151 142.139 118.4 141.928 118.723C141.723 119.045 141.57 119.429 141.471 119.874C141.371 120.319 141.321 120.809 141.321 121.342ZM149.847 116.587H151.464V120.129H154.074C154.59 120.129 155.05 120.199 155.454 120.34C155.858 120.475 156.201 120.671 156.482 120.929C156.764 121.181 156.978 121.488 157.124 121.852C157.276 122.209 157.353 122.613 157.353 123.064C157.353 123.521 157.276 123.932 157.124 124.295C156.978 124.652 156.764 124.96 156.482 125.218C156.201 125.47 155.858 125.663 155.454 125.798C155.05 125.933 154.59 126 154.074 126H149.847V116.587ZM151.464 124.708H153.758C154.039 124.708 154.3 124.679 154.54 124.62C154.786 124.562 154.997 124.468 155.173 124.339C155.349 124.204 155.486 124.034 155.586 123.829C155.686 123.618 155.735 123.363 155.735 123.064C155.735 122.771 155.683 122.522 155.577 122.317C155.478 122.112 155.334 121.945 155.146 121.816C154.965 121.682 154.742 121.585 154.479 121.526C154.221 121.462 153.931 121.43 153.608 121.43H151.464V124.708ZM166.502 126H164.876V122.273H162.793C162.418 122.273 162.09 122.282 161.809 122.3C161.533 122.312 161.299 122.364 161.105 122.458C160.912 122.552 160.76 122.698 160.648 122.897C160.543 123.097 160.476 123.381 160.446 123.75L160.376 124.761C160.37 124.79 160.364 124.849 160.358 124.937C160.353 125.024 160.341 125.13 160.323 125.253C160.306 125.37 160.282 125.496 160.253 125.631C160.224 125.766 160.188 125.889 160.147 126H158.363C158.404 125.947 158.442 125.895 158.478 125.842C158.519 125.783 158.557 125.704 158.592 125.604C158.633 125.505 158.668 125.376 158.697 125.218C158.732 125.06 158.765 124.857 158.794 124.611L158.899 123.407C158.935 123.091 158.976 122.833 159.022 122.634C159.075 122.435 159.146 122.271 159.233 122.142C159.327 122.007 159.447 121.898 159.594 121.816C159.74 121.729 159.925 121.641 160.147 121.553C159.14 121.189 158.636 120.445 158.636 119.32C158.636 119.039 158.671 118.781 158.741 118.547C158.812 118.307 158.902 118.093 159.014 117.905C159.131 117.718 159.26 117.554 159.4 117.413C159.547 117.267 159.693 117.146 159.84 117.053C160.021 116.936 160.221 116.848 160.438 116.789C160.654 116.725 160.871 116.678 161.088 116.648C161.311 116.619 161.527 116.602 161.738 116.596C161.949 116.59 162.143 116.587 162.318 116.587H166.502V126ZM164.876 118.011H162.415C162.204 118.011 162.022 118.014 161.87 118.02C161.718 118.02 161.583 118.025 161.466 118.037C161.354 118.049 161.252 118.069 161.158 118.099C161.064 118.128 160.968 118.169 160.868 118.222C160.663 118.339 160.505 118.512 160.394 118.74C160.288 118.969 160.235 119.212 160.235 119.47C160.235 119.722 160.273 119.936 160.35 120.111C160.426 120.281 160.525 120.422 160.648 120.533C160.777 120.645 160.918 120.732 161.07 120.797C161.229 120.855 161.387 120.899 161.545 120.929C161.709 120.952 161.867 120.967 162.02 120.973C162.172 120.979 162.304 120.981 162.415 120.981H164.876V118.011ZM175.15 119.522C175.15 120.331 175.253 121.063 175.458 121.72C175.663 122.37 175.95 122.924 176.319 123.381C176.694 123.838 177.143 124.192 177.664 124.444C178.191 124.69 178.771 124.813 179.404 124.813C179.955 124.813 180.447 124.714 180.881 124.515C181.32 124.315 181.698 124.055 182.015 123.732C182.331 123.404 182.586 123.035 182.779 122.625C182.973 122.215 183.102 121.799 183.166 121.377H184.836C184.801 121.752 184.719 122.136 184.59 122.528C184.467 122.915 184.297 123.293 184.08 123.662C183.869 124.025 183.614 124.371 183.315 124.699C183.017 125.021 182.671 125.303 182.278 125.543C181.892 125.783 181.458 125.974 180.978 126.114C180.497 126.255 179.973 126.325 179.404 126.325C179.012 126.325 178.59 126.284 178.139 126.202C177.693 126.12 177.248 125.982 176.803 125.789C176.363 125.596 175.938 125.338 175.528 125.016C175.124 124.688 174.767 124.277 174.456 123.785C174.146 123.293 173.896 122.713 173.709 122.045C173.521 121.371 173.428 120.589 173.428 119.698C173.428 118.825 173.51 118.046 173.674 117.36C173.844 116.675 174.072 116.077 174.359 115.567C174.652 115.052 174.992 114.615 175.379 114.258C175.771 113.9 176.19 113.61 176.636 113.388C177.081 113.165 177.544 113.004 178.024 112.904C178.505 112.805 178.982 112.755 179.457 112.755C180.043 112.755 180.576 112.816 181.057 112.939C181.543 113.057 181.977 113.221 182.357 113.432C182.744 113.637 183.081 113.877 183.368 114.152C183.655 114.428 183.896 114.721 184.089 115.031C184.288 115.336 184.44 115.649 184.546 115.972C184.657 116.294 184.725 116.607 184.748 116.912H183.061C182.949 116.496 182.785 116.124 182.568 115.796C182.352 115.468 182.088 115.192 181.777 114.97C181.473 114.741 181.127 114.568 180.74 114.451C180.359 114.328 179.949 114.267 179.51 114.267C178.848 114.267 178.247 114.39 177.708 114.636C177.175 114.882 176.718 115.233 176.337 115.69C175.956 116.147 175.663 116.701 175.458 117.352C175.253 117.996 175.15 118.72 175.15 119.522ZM186.901 119.408C186.919 118.834 187.027 118.351 187.227 117.958C187.426 117.56 187.695 117.237 188.035 116.991C188.375 116.745 188.776 116.569 189.239 116.464C189.708 116.353 190.218 116.297 190.769 116.297C191.226 116.297 191.668 116.344 192.096 116.438C192.529 116.531 192.913 116.684 193.247 116.895C193.581 117.1 193.848 117.369 194.047 117.703C194.252 118.031 194.354 118.433 194.354 118.907V124.383C194.354 124.535 194.396 124.667 194.478 124.778C194.56 124.884 194.691 124.937 194.873 124.937C194.955 124.937 195.04 124.931 195.128 124.919C195.216 124.901 195.307 124.884 195.4 124.866V125.982C195.266 126.018 195.131 126.05 194.996 126.079C194.867 126.108 194.712 126.123 194.53 126.123C194.249 126.123 194.006 126.1 193.801 126.053C193.602 126.006 193.432 125.93 193.291 125.824C193.156 125.713 193.051 125.572 192.975 125.402C192.898 125.227 192.849 125.013 192.825 124.761C192.626 124.978 192.415 125.18 192.192 125.367C191.97 125.549 191.721 125.71 191.445 125.851C191.17 125.985 190.862 126.091 190.522 126.167C190.183 126.249 189.799 126.29 189.371 126.29C189.008 126.29 188.653 126.231 188.308 126.114C187.968 125.997 187.66 125.824 187.385 125.596C187.115 125.367 186.898 125.086 186.734 124.752C186.57 124.412 186.488 124.02 186.488 123.574C186.488 123.088 186.57 122.669 186.734 122.317C186.898 121.96 187.112 121.664 187.376 121.43C187.64 121.189 187.941 121.005 188.281 120.876C188.621 120.747 188.967 120.662 189.318 120.621L191.964 120.296C192.216 120.267 192.412 120.17 192.553 120.006C192.699 119.836 192.772 119.566 192.772 119.197C192.772 118.629 192.585 118.222 192.21 117.976C191.841 117.724 191.308 117.598 190.61 117.598C189.896 117.598 189.362 117.75 189.011 118.055C188.659 118.354 188.46 118.805 188.413 119.408H186.901ZM192.737 121.21C192.608 121.304 192.447 121.383 192.254 121.447C192.066 121.506 191.858 121.556 191.63 121.597C191.401 121.638 191.158 121.676 190.9 121.711C190.643 121.74 190.385 121.772 190.127 121.808C189.834 121.849 189.564 121.907 189.318 121.983C189.072 122.06 188.858 122.159 188.677 122.282C188.495 122.405 188.354 122.555 188.255 122.73C188.155 122.9 188.105 123.103 188.105 123.337C188.105 123.606 188.146 123.844 188.229 124.049C188.316 124.254 188.434 124.427 188.58 124.567C188.732 124.708 188.914 124.813 189.125 124.884C189.336 124.954 189.567 124.989 189.819 124.989C189.978 124.989 190.159 124.972 190.364 124.937C190.569 124.896 190.78 124.837 190.997 124.761C191.214 124.685 191.425 124.588 191.63 124.471C191.841 124.348 192.028 124.201 192.192 124.031C192.356 123.861 192.488 123.668 192.588 123.451C192.688 123.234 192.737 122.991 192.737 122.722V121.21ZM196.851 116.587H198.468V117.879H198.503C198.608 117.662 198.74 117.457 198.898 117.264C199.062 117.07 199.256 116.903 199.479 116.763C199.707 116.616 199.968 116.502 200.261 116.42C200.56 116.338 200.899 116.297 201.28 116.297C201.784 116.297 202.268 116.394 202.73 116.587C203.193 116.78 203.604 117.07 203.961 117.457C204.318 117.844 204.603 118.33 204.813 118.916C205.024 119.496 205.13 120.173 205.13 120.946C205.13 121.913 205.03 122.736 204.831 123.416C204.638 124.09 204.359 124.641 203.996 125.068C203.639 125.496 203.205 125.807 202.695 126C202.186 126.193 201.617 126.29 200.99 126.29C200.68 126.29 200.39 126.249 200.12 126.167C199.851 126.085 199.607 125.979 199.391 125.851C199.18 125.716 198.998 125.569 198.846 125.411C198.693 125.247 198.579 125.089 198.503 124.937H198.468V129.709H196.851V116.587ZM198.433 121.342C198.433 121.852 198.482 122.323 198.582 122.757C198.682 123.185 198.834 123.557 199.039 123.873C199.25 124.189 199.511 124.438 199.821 124.62C200.138 124.796 200.51 124.884 200.938 124.884C201.383 124.884 201.767 124.796 202.089 124.62C202.417 124.438 202.687 124.189 202.897 123.873C203.108 123.557 203.264 123.185 203.363 122.757C203.463 122.323 203.513 121.852 203.513 121.342C203.513 120.809 203.463 120.319 203.363 119.874C203.264 119.429 203.108 119.045 202.897 118.723C202.687 118.4 202.417 118.151 202.089 117.976C201.767 117.794 201.383 117.703 200.938 117.703C200.51 117.703 200.138 117.794 199.821 117.976C199.511 118.151 199.25 118.4 199.039 118.723C198.834 119.045 198.682 119.429 198.582 119.874C198.482 120.319 198.433 120.809 198.433 121.342ZM206.958 116.587H208.575V121.14L213.33 116.587H215.448L211.027 120.744L215.519 126H213.436L209.762 121.729L208.575 122.722V126H206.958V116.587ZM216.819 116.587H218.437V123.803H218.472L223.095 116.587H224.949V126H223.323V118.784H223.288L218.674 126H216.819V116.587ZM234.731 122.687C234.708 122.915 234.661 123.164 234.591 123.434C234.526 123.703 234.43 123.973 234.301 124.242C234.172 124.506 234.005 124.761 233.8 125.007C233.601 125.253 233.354 125.473 233.062 125.666C232.774 125.854 232.435 126.003 232.042 126.114C231.649 126.231 231.201 126.29 230.697 126.29C230.422 126.29 230.132 126.255 229.827 126.185C229.522 126.12 229.224 126.009 228.931 125.851C228.644 125.692 228.368 125.49 228.104 125.244C227.847 124.992 227.618 124.682 227.419 124.312C227.226 123.943 227.07 123.516 226.953 123.029C226.836 122.537 226.777 121.975 226.777 121.342C226.777 120.562 226.889 119.862 227.111 119.241C227.334 118.614 227.63 118.084 227.999 117.65C228.374 117.217 228.808 116.883 229.3 116.648C229.798 116.414 230.319 116.297 230.864 116.297C231.356 116.297 231.79 116.35 232.165 116.455C232.546 116.561 232.877 116.701 233.158 116.877C233.439 117.053 233.677 117.258 233.87 117.492C234.063 117.721 234.219 117.964 234.336 118.222C234.459 118.474 234.55 118.731 234.608 118.995C234.673 119.259 234.714 119.511 234.731 119.751H233.22C233.138 119.112 232.915 118.611 232.552 118.248C232.194 117.885 231.69 117.703 231.04 117.703C230.595 117.703 230.205 117.794 229.871 117.976C229.543 118.157 229.268 118.412 229.045 118.74C228.828 119.062 228.664 119.455 228.553 119.918C228.447 120.375 228.395 120.879 228.395 121.43C228.395 122.051 228.453 122.587 228.57 123.038C228.688 123.483 228.854 123.853 229.071 124.146C229.288 124.433 229.552 124.646 229.862 124.787C230.179 124.922 230.536 124.989 230.935 124.989C231.216 124.989 231.482 124.939 231.734 124.84C231.986 124.734 232.212 124.585 232.411 124.392C232.61 124.192 232.78 123.949 232.921 123.662C233.062 123.375 233.161 123.05 233.22 122.687H234.731ZM242.905 121.28C242.905 120.759 242.847 120.281 242.729 119.848C242.612 119.408 242.437 119.03 242.202 118.714C241.968 118.397 241.678 118.151 241.332 117.976C240.992 117.794 240.597 117.703 240.146 117.703C239.694 117.703 239.299 117.794 238.959 117.976C238.619 118.151 238.332 118.397 238.098 118.714C237.863 119.03 237.688 119.408 237.57 119.848C237.453 120.281 237.395 120.759 237.395 121.28C237.395 121.808 237.453 122.294 237.57 122.739C237.688 123.179 237.863 123.557 238.098 123.873C238.332 124.189 238.619 124.438 238.959 124.62C239.299 124.796 239.694 124.884 240.146 124.884C240.597 124.884 240.992 124.796 241.332 124.62C241.678 124.438 241.968 124.189 242.202 123.873C242.437 123.557 242.612 123.179 242.729 122.739C242.847 122.294 242.905 121.808 242.905 121.28ZM244.522 121.28C244.522 122.054 244.423 122.751 244.224 123.372C244.024 123.987 243.737 124.512 243.362 124.945C242.987 125.379 242.527 125.713 241.982 125.947C241.443 126.176 240.831 126.29 240.146 126.29C239.46 126.29 238.848 126.176 238.309 125.947C237.77 125.713 237.312 125.379 236.938 124.945C236.562 124.512 236.275 123.987 236.076 123.372C235.877 122.751 235.777 122.054 235.777 121.28C235.777 120.519 235.877 119.83 236.076 119.215C236.275 118.6 236.562 118.075 236.938 117.642C237.312 117.208 237.77 116.877 238.309 116.648C238.848 116.414 239.46 116.297 240.146 116.297C240.831 116.297 241.443 116.414 241.982 116.648C242.527 116.877 242.987 117.208 243.362 117.642C243.737 118.075 244.024 118.6 244.224 119.215C244.423 119.83 244.522 120.519 244.522 121.28ZM246.351 116.587H250.358C251.507 116.587 252.365 116.801 252.934 117.229C253.508 117.656 253.795 118.277 253.795 119.092C253.795 119.525 253.689 119.892 253.479 120.19C253.268 120.489 252.989 120.753 252.644 120.981C253.142 121.169 253.537 121.438 253.83 121.79C254.123 122.142 254.27 122.596 254.27 123.152C254.27 123.592 254.196 123.987 254.05 124.339C253.903 124.69 253.681 124.989 253.382 125.235C253.083 125.481 252.702 125.672 252.239 125.807C251.782 125.936 251.24 126 250.613 126H246.351V116.587ZM247.968 124.708H250.429C250.856 124.708 251.211 124.676 251.492 124.611C251.779 124.541 252.008 124.441 252.178 124.312C252.348 124.184 252.468 124.028 252.538 123.847C252.608 123.665 252.644 123.46 252.644 123.231C252.644 123.003 252.608 122.798 252.538 122.616C252.468 122.429 252.348 122.273 252.178 122.15C252.008 122.021 251.779 121.925 251.492 121.86C251.211 121.79 250.856 121.755 250.429 121.755H247.968V124.708ZM247.968 120.568H250.411C250.956 120.568 251.387 120.46 251.703 120.243C252.02 120.026 252.178 119.689 252.178 119.232C252.178 118.975 252.134 118.761 252.046 118.591C251.958 118.415 251.841 118.274 251.694 118.169C251.548 118.063 251.381 117.99 251.193 117.949C251.012 117.902 250.824 117.879 250.631 117.879H247.968V120.568ZM256.194 119.408C256.212 118.834 256.32 118.351 256.52 117.958C256.719 117.56 256.988 117.237 257.328 116.991C257.668 116.745 258.069 116.569 258.532 116.464C259.001 116.353 259.511 116.297 260.062 116.297C260.519 116.297 260.961 116.344 261.389 116.438C261.822 116.531 262.206 116.684 262.54 116.895C262.874 117.1 263.141 117.369 263.34 117.703C263.545 118.031 263.647 118.433 263.647 118.907V124.383C263.647 124.535 263.688 124.667 263.771 124.778C263.853 124.884 263.984 124.937 264.166 124.937C264.248 124.937 264.333 124.931 264.421 124.919C264.509 124.901 264.6 124.884 264.693 124.866V125.982C264.559 126.018 264.424 126.05 264.289 126.079C264.16 126.108 264.005 126.123 263.823 126.123C263.542 126.123 263.299 126.1 263.094 126.053C262.895 126.006 262.725 125.93 262.584 125.824C262.449 125.713 262.344 125.572 262.268 125.402C262.191 125.227 262.142 125.013 262.118 124.761C261.919 124.978 261.708 125.18 261.485 125.367C261.263 125.549 261.014 125.71 260.738 125.851C260.463 125.985 260.155 126.091 259.815 126.167C259.476 126.249 259.092 126.29 258.664 126.29C258.301 126.29 257.946 126.231 257.601 126.114C257.261 125.997 256.953 125.824 256.678 125.596C256.408 125.367 256.191 125.086 256.027 124.752C255.863 124.412 255.781 124.02 255.781 123.574C255.781 123.088 255.863 122.669 256.027 122.317C256.191 121.96 256.405 121.664 256.669 121.43C256.933 121.189 257.234 121.005 257.574 120.876C257.914 120.747 258.26 120.662 258.611 120.621L261.257 120.296C261.509 120.267 261.705 120.17 261.846 120.006C261.992 119.836 262.065 119.566 262.065 119.197C262.065 118.629 261.878 118.222 261.503 117.976C261.134 117.724 260.601 117.598 259.903 117.598C259.188 117.598 258.655 117.75 258.304 118.055C257.952 118.354 257.753 118.805 257.706 119.408H256.194ZM262.03 121.21C261.901 121.304 261.74 121.383 261.547 121.447C261.359 121.506 261.151 121.556 260.923 121.597C260.694 121.638 260.451 121.676 260.193 121.711C259.936 121.74 259.678 121.772 259.42 121.808C259.127 121.849 258.857 121.907 258.611 121.983C258.365 122.06 258.151 122.159 257.97 122.282C257.788 122.405 257.647 122.555 257.548 122.73C257.448 122.9 257.398 123.103 257.398 123.337C257.398 123.606 257.439 123.844 257.521 124.049C257.609 124.254 257.727 124.427 257.873 124.567C258.025 124.708 258.207 124.813 258.418 124.884C258.629 124.954 258.86 124.989 259.112 124.989C259.271 124.989 259.452 124.972 259.657 124.937C259.862 124.896 260.073 124.837 260.29 124.761C260.507 124.685 260.718 124.588 260.923 124.471C261.134 124.348 261.321 124.201 261.485 124.031C261.649 123.861 261.781 123.668 261.881 123.451C261.98 123.234 262.03 122.991 262.03 122.722V121.21ZM270.802 120.173H275.214V121.799H270.802V120.173ZM289.646 122.687C289.622 122.915 289.575 123.164 289.505 123.434C289.44 123.703 289.344 123.973 289.215 124.242C289.086 124.506 288.919 124.761 288.714 125.007C288.515 125.253 288.269 125.473 287.976 125.666C287.688 125.854 287.349 126.003 286.956 126.114C286.563 126.231 286.115 126.29 285.611 126.29C285.336 126.29 285.046 126.255 284.741 126.185C284.437 126.12 284.138 126.009 283.845 125.851C283.558 125.692 283.282 125.49 283.019 125.244C282.761 124.992 282.532 124.682 282.333 124.312C282.14 123.943 281.984 123.516 281.867 123.029C281.75 122.537 281.691 121.975 281.691 121.342C281.691 120.562 281.803 119.862 282.025 119.241C282.248 118.614 282.544 118.084 282.913 117.65C283.288 117.217 283.722 116.883 284.214 116.648C284.712 116.414 285.233 116.297 285.778 116.297C286.271 116.297 286.704 116.35 287.079 116.455C287.46 116.561 287.791 116.701 288.072 116.877C288.354 117.053 288.591 117.258 288.784 117.492C288.978 117.721 289.133 117.964 289.25 118.222C289.373 118.474 289.464 118.731 289.522 118.995C289.587 119.259 289.628 119.511 289.646 119.751H288.134C288.052 119.112 287.829 118.611 287.466 118.248C287.108 117.885 286.604 117.703 285.954 117.703C285.509 117.703 285.119 117.794 284.785 117.976C284.457 118.157 284.182 118.412 283.959 118.74C283.742 119.062 283.578 119.455 283.467 119.918C283.361 120.375 283.309 120.879 283.309 121.43C283.309 122.051 283.367 122.587 283.484 123.038C283.602 123.483 283.769 123.853 283.985 124.146C284.202 124.433 284.466 124.646 284.776 124.787C285.093 124.922 285.45 124.989 285.849 124.989C286.13 124.989 286.396 124.939 286.648 124.84C286.9 124.734 287.126 124.585 287.325 124.392C287.524 124.192 287.694 123.949 287.835 123.662C287.976 123.375 288.075 123.05 288.134 122.687H289.646ZM293.75 117.993H290.507V116.587H298.61V117.993H295.367V126H293.75V117.993ZM300.228 119.408C300.245 118.834 300.354 118.351 300.553 117.958C300.752 117.56 301.021 117.237 301.361 116.991C301.701 116.745 302.103 116.569 302.565 116.464C303.034 116.353 303.544 116.297 304.095 116.297C304.552 116.297 304.994 116.344 305.422 116.438C305.855 116.531 306.239 116.684 306.573 116.895C306.907 117.1 307.174 117.369 307.373 117.703C307.578 118.031 307.681 118.433 307.681 118.907V124.383C307.681 124.535 307.722 124.667 307.804 124.778C307.886 124.884 308.018 124.937 308.199 124.937C308.281 124.937 308.366 124.931 308.454 124.919C308.542 124.901 308.633 124.884 308.727 124.866V125.982C308.592 126.018 308.457 126.05 308.322 126.079C308.193 126.108 308.038 126.123 307.856 126.123C307.575 126.123 307.332 126.1 307.127 126.053C306.928 126.006 306.758 125.93 306.617 125.824C306.482 125.713 306.377 125.572 306.301 125.402C306.225 125.227 306.175 125.013 306.151 124.761C305.952 124.978 305.741 125.18 305.519 125.367C305.296 125.549 305.047 125.71 304.771 125.851C304.496 125.985 304.188 126.091 303.849 126.167C303.509 126.249 303.125 126.29 302.697 126.29C302.334 126.29 301.979 126.231 301.634 126.114C301.294 125.997 300.986 125.824 300.711 125.596C300.441 125.367 300.225 125.086 300.061 124.752C299.896 124.412 299.814 124.02 299.814 123.574C299.814 123.088 299.896 122.669 300.061 122.317C300.225 121.96 300.438 121.664 300.702 121.43C300.966 121.189 301.268 121.005 301.607 120.876C301.947 120.747 302.293 120.662 302.645 120.621L305.29 120.296C305.542 120.267 305.738 120.17 305.879 120.006C306.025 119.836 306.099 119.566 306.099 119.197C306.099 118.629 305.911 118.222 305.536 117.976C305.167 117.724 304.634 117.598 303.937 117.598C303.222 117.598 302.688 117.75 302.337 118.055C301.985 118.354 301.786 118.805 301.739 119.408H300.228ZM306.063 121.21C305.935 121.304 305.773 121.383 305.58 121.447C305.393 121.506 305.185 121.556 304.956 121.597C304.728 121.638 304.484 121.676 304.227 121.711C303.969 121.74 303.711 121.772 303.453 121.808C303.16 121.849 302.891 121.907 302.645 121.983C302.398 122.06 302.185 122.159 302.003 122.282C301.821 122.405 301.681 122.555 301.581 122.73C301.481 122.9 301.432 123.103 301.432 123.337C301.432 123.606 301.473 123.844 301.555 124.049C301.643 124.254 301.76 124.427 301.906 124.567C302.059 124.708 302.24 124.813 302.451 124.884C302.662 124.954 302.894 124.989 303.146 124.989C303.304 124.989 303.485 124.972 303.69 124.937C303.896 124.896 304.106 124.837 304.323 124.761C304.54 124.685 304.751 124.588 304.956 124.471C305.167 124.348 305.354 124.201 305.519 124.031C305.683 123.861 305.814 123.668 305.914 123.451C306.014 123.234 306.063 122.991 306.063 122.722V121.21ZM310.177 116.587H311.794V117.879H311.829C311.935 117.662 312.066 117.457 312.225 117.264C312.389 117.07 312.582 116.903 312.805 116.763C313.033 116.616 313.294 116.502 313.587 116.42C313.886 116.338 314.226 116.297 314.606 116.297C315.11 116.297 315.594 116.394 316.057 116.587C316.52 116.78 316.93 117.07 317.287 117.457C317.645 117.844 317.929 118.33 318.14 118.916C318.351 119.496 318.456 120.173 318.456 120.946C318.456 121.913 318.356 122.736 318.157 123.416C317.964 124.09 317.686 124.641 317.322 125.068C316.965 125.496 316.531 125.807 316.021 126C315.512 126.193 314.943 126.29 314.316 126.29C314.006 126.29 313.716 126.249 313.446 126.167C313.177 126.085 312.934 125.979 312.717 125.851C312.506 125.716 312.324 125.569 312.172 125.411C312.02 125.247 311.905 125.089 311.829 124.937H311.794V129.709H310.177V116.587ZM311.759 121.342C311.759 121.852 311.809 122.323 311.908 122.757C312.008 123.185 312.16 123.557 312.365 123.873C312.576 124.189 312.837 124.438 313.147 124.62C313.464 124.796 313.836 124.884 314.264 124.884C314.709 124.884 315.093 124.796 315.415 124.62C315.743 124.438 316.013 124.189 316.224 123.873C316.435 123.557 316.59 123.185 316.689 122.757C316.789 122.323 316.839 121.852 316.839 121.342C316.839 120.809 316.789 120.319 316.689 119.874C316.59 119.429 316.435 119.045 316.224 118.723C316.013 118.4 315.743 118.151 315.415 117.976C315.093 117.794 314.709 117.703 314.264 117.703C313.836 117.703 313.464 117.794 313.147 117.976C312.837 118.151 312.576 118.4 312.365 118.723C312.16 119.045 312.008 119.429 311.908 119.874C311.809 120.319 311.759 120.809 311.759 121.342ZM320.284 116.587H321.901V124.594H325.294V116.587H326.911V124.594H330.295V116.587H331.912V126H320.284V116.587ZM334.294 116.587H335.911V123.803H335.946L340.569 116.587H342.424V126H340.798V118.784H340.763L336.148 126H334.294V116.587ZM347.346 112.931C347.422 113.306 347.58 113.604 347.82 113.827C348.061 114.044 348.415 114.152 348.884 114.152C349.358 114.152 349.716 114.047 349.956 113.836C350.196 113.619 350.352 113.317 350.422 112.931H351.925C351.919 113.282 351.843 113.602 351.696 113.889C351.55 114.17 351.342 114.41 351.072 114.609C350.809 114.809 350.489 114.964 350.114 115.075C349.745 115.181 349.335 115.233 348.884 115.233C348.433 115.233 348.022 115.181 347.653 115.075C347.284 114.97 346.968 114.817 346.704 114.618C346.44 114.419 346.232 114.179 346.08 113.897C345.934 113.61 345.857 113.288 345.852 112.931H347.346ZM344.806 116.587H346.423V123.803H346.458L351.081 116.587H352.936V126H351.31V118.784H351.274L346.66 126H344.806V116.587ZM360.327 116.587H362.683L365.17 124.304H365.205L367.728 116.587H369.942V126H368.431V118.424H368.396L365.908 126H364.361L361.874 118.424H361.839V126H360.327V116.587ZM380.331 122.994C380.267 123.404 380.126 123.806 379.909 124.198C379.692 124.591 379.408 124.942 379.057 125.253C378.705 125.563 378.289 125.812 377.809 126C377.334 126.193 376.807 126.29 376.227 126.29C375.594 126.29 375.008 126.188 374.469 125.982C373.936 125.771 373.473 125.458 373.08 125.042C372.693 124.62 372.389 124.093 372.166 123.46C371.943 122.827 371.832 122.083 371.832 121.228C371.832 120.653 371.894 120.135 372.017 119.672C372.146 119.203 372.315 118.787 372.526 118.424C372.743 118.055 372.992 117.738 373.273 117.475C373.555 117.205 373.851 116.985 374.161 116.815C374.478 116.64 374.8 116.511 375.128 116.429C375.456 116.341 375.772 116.297 376.077 116.297C376.722 116.297 377.311 116.394 377.844 116.587C378.377 116.78 378.834 117.076 379.215 117.475C379.602 117.867 379.9 118.362 380.111 118.96C380.328 119.552 380.437 120.249 380.437 121.052V121.86H373.555C373.561 122.317 373.625 122.733 373.748 123.108C373.871 123.478 374.047 123.794 374.275 124.058C374.504 124.321 374.779 124.526 375.102 124.673C375.43 124.813 375.799 124.884 376.209 124.884C376.625 124.884 376.977 124.825 377.264 124.708C377.551 124.591 377.791 124.441 377.984 124.26C378.178 124.078 378.333 123.876 378.45 123.653C378.573 123.431 378.676 123.211 378.758 122.994H380.331ZM378.811 120.568C378.799 120.111 378.729 119.704 378.6 119.347C378.477 118.989 378.301 118.69 378.072 118.45C377.85 118.204 377.58 118.02 377.264 117.896C376.947 117.768 376.596 117.703 376.209 117.703C375.84 117.703 375.5 117.776 375.189 117.923C374.879 118.063 374.606 118.263 374.372 118.521C374.138 118.772 373.95 119.074 373.81 119.426C373.669 119.771 373.584 120.152 373.555 120.568H378.811ZM382.335 116.587H383.952V120.384H388.347V116.587H389.973V126H388.347V121.79H383.952V126H382.335V116.587ZM400.37 122.994C400.306 123.404 400.165 123.806 399.948 124.198C399.731 124.591 399.447 124.942 399.096 125.253C398.744 125.563 398.328 125.812 397.848 126C397.373 126.193 396.846 126.29 396.266 126.29C395.633 126.29 395.047 126.188 394.508 125.982C393.975 125.771 393.512 125.458 393.119 125.042C392.732 124.62 392.428 124.093 392.205 123.46C391.982 122.827 391.871 122.083 391.871 121.228C391.871 120.653 391.933 120.135 392.056 119.672C392.185 119.203 392.354 118.787 392.565 118.424C392.782 118.055 393.031 117.738 393.312 117.475C393.594 117.205 393.89 116.985 394.2 116.815C394.517 116.64 394.839 116.511 395.167 116.429C395.495 116.341 395.812 116.297 396.116 116.297C396.761 116.297 397.35 116.394 397.883 116.587C398.416 116.78 398.873 117.076 399.254 117.475C399.641 117.867 399.939 118.362 400.15 118.96C400.367 119.552 400.476 120.249 400.476 121.052V121.86H393.594C393.6 122.317 393.664 122.733 393.787 123.108C393.91 123.478 394.086 123.794 394.314 124.058C394.543 124.321 394.818 124.526 395.141 124.673C395.469 124.813 395.838 124.884 396.248 124.884C396.664 124.884 397.016 124.825 397.303 124.708C397.59 124.591 397.83 124.441 398.023 124.26C398.217 124.078 398.372 123.876 398.489 123.653C398.612 123.431 398.715 123.211 398.797 122.994H400.37ZM398.85 120.568C398.838 120.111 398.768 119.704 398.639 119.347C398.516 118.989 398.34 118.69 398.111 118.45C397.889 118.204 397.619 118.02 397.303 117.896C396.986 117.768 396.635 117.703 396.248 117.703C395.879 117.703 395.539 117.776 395.229 117.923C394.918 118.063 394.646 118.263 394.411 118.521C394.177 118.772 393.989 119.074 393.849 119.426C393.708 119.771 393.623 120.152 393.594 120.568H398.85ZM410.223 126H402.945V128.303H401.434V124.594H402.673C402.931 123.961 403.136 123.316 403.288 122.66C403.44 121.998 403.558 121.333 403.64 120.665C403.722 119.991 403.774 119.314 403.798 118.635C403.821 117.955 403.833 117.272 403.833 116.587H410.407V124.594H411.734V128.303H410.223V126ZM408.79 124.594V117.993H405.38C405.339 118.526 405.295 119.074 405.248 119.637C405.207 120.199 405.148 120.765 405.072 121.333C405.002 121.896 404.905 122.452 404.782 123.003C404.665 123.554 404.51 124.084 404.316 124.594H408.79ZM419.952 120.437H420.77L423.854 116.587H425.806L422.105 121.052L425.946 126H423.951L420.77 121.72H419.952V126H418.335V121.72H417.509L414.301 126H412.306L416.182 121.052L412.499 116.587H414.459L417.509 120.437H418.335V116.587H419.952V120.437ZM435.351 122.994C435.286 123.404 435.146 123.806 434.929 124.198C434.712 124.591 434.428 124.942 434.076 125.253C433.725 125.563 433.309 125.812 432.828 126C432.354 126.193 431.826 126.29 431.246 126.29C430.613 126.29 430.027 126.188 429.488 125.982C428.955 125.771 428.492 125.458 428.1 125.042C427.713 124.62 427.408 124.093 427.186 123.46C426.963 122.827 426.852 122.083 426.852 121.228C426.852 120.653 426.913 120.135 427.036 119.672C427.165 119.203 427.335 118.787 427.546 118.424C427.763 118.055 428.012 117.738 428.293 117.475C428.574 117.205 428.87 116.985 429.181 116.815C429.497 116.64 429.819 116.511 430.147 116.429C430.476 116.341 430.792 116.297 431.097 116.297C431.741 116.297 432.33 116.394 432.863 116.587C433.396 116.78 433.854 117.076 434.234 117.475C434.621 117.867 434.92 118.362 435.131 118.96C435.348 119.552 435.456 120.249 435.456 121.052V121.86H428.574C428.58 122.317 428.645 122.733 428.768 123.108C428.891 123.478 429.066 123.794 429.295 124.058C429.523 124.321 429.799 124.526 430.121 124.673C430.449 124.813 430.818 124.884 431.229 124.884C431.645 124.884 431.996 124.825 432.283 124.708C432.57 124.591 432.811 124.441 433.004 124.26C433.197 124.078 433.353 123.876 433.47 123.653C433.593 123.431 433.695 123.211 433.777 122.994H435.351ZM433.83 120.568C433.818 120.111 433.748 119.704 433.619 119.347C433.496 118.989 433.32 118.69 433.092 118.45C432.869 118.204 432.6 118.02 432.283 117.896C431.967 117.768 431.615 117.703 431.229 117.703C430.859 117.703 430.52 117.776 430.209 117.923C429.898 118.063 429.626 118.263 429.392 118.521C429.157 118.772 428.97 119.074 428.829 119.426C428.688 119.771 428.604 120.152 428.574 120.568H433.83ZM437.267 116.587H438.884V117.879H438.919C439.024 117.662 439.156 117.457 439.314 117.264C439.479 117.07 439.672 116.903 439.895 116.763C440.123 116.616 440.384 116.502 440.677 116.42C440.976 116.338 441.315 116.297 441.696 116.297C442.2 116.297 442.684 116.394 443.146 116.587C443.609 116.78 444.02 117.07 444.377 117.457C444.734 117.844 445.019 118.33 445.229 118.916C445.44 119.496 445.546 120.173 445.546 120.946C445.546 121.913 445.446 122.736 445.247 123.416C445.054 124.09 444.775 124.641 444.412 125.068C444.055 125.496 443.621 125.807 443.111 126C442.602 126.193 442.033 126.29 441.406 126.29C441.096 126.29 440.806 126.249 440.536 126.167C440.267 126.085 440.023 125.979 439.807 125.851C439.596 125.716 439.414 125.569 439.262 125.411C439.109 125.247 438.995 125.089 438.919 124.937H438.884V129.709H437.267V116.587ZM438.849 121.342C438.849 121.852 438.898 122.323 438.998 122.757C439.098 123.185 439.25 123.557 439.455 123.873C439.666 124.189 439.927 124.438 440.237 124.62C440.554 124.796 440.926 124.884 441.354 124.884C441.799 124.884 442.183 124.796 442.505 124.62C442.833 124.438 443.103 124.189 443.313 123.873C443.524 123.557 443.68 123.185 443.779 122.757C443.879 122.323 443.929 121.852 443.929 121.342C443.929 120.809 443.879 120.319 443.779 119.874C443.68 119.429 443.524 119.045 443.313 118.723C443.103 118.4 442.833 118.151 442.505 117.976C442.183 117.794 441.799 117.703 441.354 117.703C440.926 117.703 440.554 117.794 440.237 117.976C439.927 118.151 439.666 118.4 439.455 118.723C439.25 119.045 439.098 119.429 438.998 119.874C438.898 120.319 438.849 120.809 438.849 121.342Z" fill="#E8E8E8"/>
<path d="M939.587 122.687C939.563 122.915 939.517 123.164 939.446 123.434C939.382 123.703 939.285 123.973 939.156 124.242C939.027 124.506 938.86 124.761 938.655 125.007C938.456 125.253 938.21 125.473 937.917 125.666C937.63 125.854 937.29 126.003 936.897 126.114C936.505 126.231 936.057 126.29 935.553 126.29C935.277 126.29 934.987 126.255 934.683 126.185C934.378 126.12 934.079 126.009 933.786 125.851C933.499 125.692 933.224 125.49 932.96 125.244C932.702 124.992 932.474 124.682 932.274 124.312C932.081 123.943 931.926 123.516 931.809 123.029C931.691 122.537 931.633 121.975 931.633 121.342C931.633 120.562 931.744 119.862 931.967 119.241C932.189 118.614 932.485 118.084 932.854 117.65C933.229 117.217 933.663 116.883 934.155 116.648C934.653 116.414 935.175 116.297 935.72 116.297C936.212 116.297 936.646 116.35 937.021 116.455C937.401 116.561 937.732 116.701 938.014 116.877C938.295 117.053 938.532 117.258 938.726 117.492C938.919 117.721 939.074 117.964 939.191 118.222C939.314 118.474 939.405 118.731 939.464 118.995C939.528 119.259 939.569 119.511 939.587 119.751H938.075C937.993 119.112 937.771 118.611 937.407 118.248C937.05 117.885 936.546 117.703 935.896 117.703C935.45 117.703 935.061 117.794 934.727 117.976C934.398 118.157 934.123 118.412 933.9 118.74C933.684 119.062 933.52 119.455 933.408 119.918C933.303 120.375 933.25 120.879 933.25 121.43C933.25 122.051 933.309 122.587 933.426 123.038C933.543 123.483 933.71 123.853 933.927 124.146C934.144 124.433 934.407 124.646 934.718 124.787C935.034 124.922 935.392 124.989 935.79 124.989C936.071 124.989 936.338 124.939 936.59 124.84C936.842 124.734 937.067 124.585 937.267 124.392C937.466 124.192 937.636 123.949 937.776 123.662C937.917 123.375 938.017 123.05 938.075 122.687H939.587ZM943.691 117.993H940.448V116.587H948.552V117.993H945.309V126H943.691V117.993ZM950.169 119.408C950.187 118.834 950.295 118.351 950.494 117.958C950.693 117.56 950.963 117.237 951.303 116.991C951.643 116.745 952.044 116.569 952.507 116.464C952.976 116.353 953.485 116.297 954.036 116.297C954.493 116.297 954.936 116.344 955.363 116.438C955.797 116.531 956.181 116.684 956.515 116.895C956.849 117.1 957.115 117.369 957.314 117.703C957.52 118.031 957.622 118.433 957.622 118.907V124.383C957.622 124.535 957.663 124.667 957.745 124.778C957.827 124.884 957.959 124.937 958.141 124.937C958.223 124.937 958.308 124.931 958.396 124.919C958.483 124.901 958.574 124.884 958.668 124.866V125.982C958.533 126.018 958.398 126.05 958.264 126.079C958.135 126.108 957.979 126.123 957.798 126.123C957.517 126.123 957.273 126.1 957.068 126.053C956.869 126.006 956.699 125.93 956.559 125.824C956.424 125.713 956.318 125.572 956.242 125.402C956.166 125.227 956.116 125.013 956.093 124.761C955.894 124.978 955.683 125.18 955.46 125.367C955.237 125.549 954.988 125.71 954.713 125.851C954.438 125.985 954.13 126.091 953.79 126.167C953.45 126.249 953.066 126.29 952.639 126.29C952.275 126.29 951.921 126.231 951.575 126.114C951.235 125.997 950.928 125.824 950.652 125.596C950.383 125.367 950.166 125.086 950.002 124.752C949.838 124.412 949.756 124.02 949.756 123.574C949.756 123.088 949.838 122.669 950.002 122.317C950.166 121.96 950.38 121.664 950.644 121.43C950.907 121.189 951.209 121.005 951.549 120.876C951.889 120.747 952.234 120.662 952.586 120.621L955.231 120.296C955.483 120.267 955.68 120.17 955.82 120.006C955.967 119.836 956.04 119.566 956.04 119.197C956.04 118.629 955.853 118.222 955.478 117.976C955.108 117.724 954.575 117.598 953.878 117.598C953.163 117.598 952.63 117.75 952.278 118.055C951.927 118.354 951.728 118.805 951.681 119.408H950.169ZM956.005 121.21C955.876 121.304 955.715 121.383 955.521 121.447C955.334 121.506 955.126 121.556 954.897 121.597C954.669 121.638 954.426 121.676 954.168 121.711C953.91 121.74 953.652 121.772 953.395 121.808C953.102 121.849 952.832 121.907 952.586 121.983C952.34 122.06 952.126 122.159 951.944 122.282C951.763 122.405 951.622 122.555 951.522 122.73C951.423 122.9 951.373 123.103 951.373 123.337C951.373 123.606 951.414 123.844 951.496 124.049C951.584 124.254 951.701 124.427 951.848 124.567C952 124.708 952.182 124.813 952.393 124.884C952.604 124.954 952.835 124.989 953.087 124.989C953.245 124.989 953.427 124.972 953.632 124.937C953.837 124.896 954.048 124.837 954.265 124.761C954.481 124.685 954.692 124.588 954.897 124.471C955.108 124.348 955.296 124.201 955.46 124.031C955.624 123.861 955.756 123.668 955.855 123.451C955.955 123.234 956.005 122.991 956.005 122.722V121.21ZM966.868 120.437H967.686L970.771 116.587H972.722L969.021 121.052L972.862 126H970.867L967.686 121.72H966.868V126H965.251V121.72H964.425L961.217 126H959.222L963.098 121.052L959.415 116.587H961.375L964.425 120.437H965.251V116.587H966.868V120.437ZM979.173 116.587H980.79V117.879H980.825C980.931 117.662 981.062 117.457 981.221 117.264C981.385 117.07 981.578 116.903 981.801 116.763C982.029 116.616 982.29 116.502 982.583 116.42C982.882 116.338 983.222 116.297 983.603 116.297C984.106 116.297 984.59 116.394 985.053 116.587C985.516 116.78 985.926 117.07 986.283 117.457C986.641 117.844 986.925 118.33 987.136 118.916C987.347 119.496 987.452 120.173 987.452 120.946C987.452 121.913 987.353 122.736 987.153 123.416C986.96 124.09 986.682 124.641 986.318 125.068C985.961 125.496 985.527 125.807 985.018 126C984.508 126.193 983.939 126.29 983.312 126.29C983.002 126.29 982.712 126.249 982.442 126.167C982.173 126.085 981.93 125.979 981.713 125.851C981.502 125.716 981.32 125.569 981.168 125.411C981.016 125.247 980.901 125.089 980.825 124.937H980.79V129.709H979.173V116.587ZM980.755 121.342C980.755 121.852 980.805 122.323 980.904 122.757C981.004 123.185 981.156 123.557 981.361 123.873C981.572 124.189 981.833 124.438 982.144 124.62C982.46 124.796 982.832 124.884 983.26 124.884C983.705 124.884 984.089 124.796 984.411 124.62C984.739 124.438 985.009 124.189 985.22 123.873C985.431 123.557 985.586 123.185 985.686 122.757C985.785 122.323 985.835 121.852 985.835 121.342C985.835 120.809 985.785 120.319 985.686 119.874C985.586 119.429 985.431 119.045 985.22 118.723C985.009 118.4 984.739 118.151 984.411 117.976C984.089 117.794 983.705 117.703 983.26 117.703C982.832 117.703 982.46 117.794 982.144 117.976C981.833 118.151 981.572 118.4 981.361 118.723C981.156 119.045 981.004 119.429 980.904 119.874C980.805 120.319 980.755 120.809 980.755 121.342ZM989.263 119.408C989.28 118.834 989.389 118.351 989.588 117.958C989.787 117.56 990.057 117.237 990.396 116.991C990.736 116.745 991.138 116.569 991.601 116.464C992.069 116.353 992.579 116.297 993.13 116.297C993.587 116.297 994.029 116.344 994.457 116.438C994.891 116.531 995.274 116.684 995.608 116.895C995.942 117.1 996.209 117.369 996.408 117.703C996.613 118.031 996.716 118.433 996.716 118.907V124.383C996.716 124.535 996.757 124.667 996.839 124.778C996.921 124.884 997.053 124.937 997.234 124.937C997.316 124.937 997.401 124.931 997.489 124.919C997.577 124.901 997.668 124.884 997.762 124.866V125.982C997.627 126.018 997.492 126.05 997.357 126.079C997.229 126.108 997.073 126.123 996.892 126.123C996.61 126.123 996.367 126.1 996.162 126.053C995.963 126.006 995.793 125.93 995.652 125.824C995.518 125.713 995.412 125.572 995.336 125.402C995.26 125.227 995.21 125.013 995.187 124.761C994.987 124.978 994.776 125.18 994.554 125.367C994.331 125.549 994.082 125.71 993.807 125.851C993.531 125.985 993.224 126.091 992.884 126.167C992.544 126.249 992.16 126.29 991.732 126.29C991.369 126.29 991.015 126.231 990.669 126.114C990.329 125.997 990.021 125.824 989.746 125.596C989.477 125.367 989.26 125.086 989.096 124.752C988.932 124.412 988.85 124.02 988.85 123.574C988.85 123.088 988.932 122.669 989.096 122.317C989.26 121.96 989.474 121.664 989.737 121.43C990.001 121.189 990.303 121.005 990.643 120.876C990.982 120.747 991.328 120.662 991.68 120.621L994.325 120.296C994.577 120.267 994.773 120.17 994.914 120.006C995.061 119.836 995.134 119.566 995.134 119.197C995.134 118.629 994.946 118.222 994.571 117.976C994.202 117.724 993.669 117.598 992.972 117.598C992.257 117.598 991.724 117.75 991.372 118.055C991.021 118.354 990.821 118.805 990.774 119.408H989.263ZM995.099 121.21C994.97 121.304 994.809 121.383 994.615 121.447C994.428 121.506 994.22 121.556 993.991 121.597C993.763 121.638 993.52 121.676 993.262 121.711C993.004 121.74 992.746 121.772 992.488 121.808C992.195 121.849 991.926 121.907 991.68 121.983C991.434 122.06 991.22 122.159 991.038 122.282C990.856 122.405 990.716 122.555 990.616 122.73C990.517 122.9 990.467 123.103 990.467 123.337C990.467 123.606 990.508 123.844 990.59 124.049C990.678 124.254 990.795 124.427 990.941 124.567C991.094 124.708 991.275 124.813 991.486 124.884C991.697 124.954 991.929 124.989 992.181 124.989C992.339 124.989 992.521 124.972 992.726 124.937C992.931 124.896 993.142 124.837 993.358 124.761C993.575 124.685 993.786 124.588 993.991 124.471C994.202 124.348 994.39 124.201 994.554 124.031C994.718 123.861 994.85 123.668 994.949 123.451C995.049 123.234 995.099 122.991 995.099 122.722V121.21ZM1006.61 112.966C1006.6 113.054 1006.58 113.162 1006.56 113.291C1006.54 113.414 1006.5 113.546 1006.45 113.687C1006.39 113.827 1006.3 113.971 1006.2 114.117C1006.1 114.258 1005.96 114.39 1005.79 114.513C1005.7 114.577 1005.62 114.633 1005.54 114.68C1005.46 114.727 1005.37 114.768 1005.25 114.803C1005.13 114.838 1004.98 114.867 1004.8 114.891C1004.62 114.914 1004.38 114.929 1004.07 114.935L1003.4 114.952C1002.95 114.964 1002.53 115.058 1002.17 115.233C1001.8 115.403 1001.48 115.644 1001.2 115.954C1000.92 116.259 1000.69 116.628 1000.51 117.062C1000.33 117.495 1000.2 117.979 1000.11 118.512C1000.23 118.277 1000.38 118.049 1000.57 117.826C1000.75 117.598 1000.97 117.396 1001.24 117.22C1001.51 117.038 1001.83 116.895 1002.19 116.789C1002.55 116.678 1002.98 116.622 1003.46 116.622C1004 116.622 1004.52 116.719 1005 116.912C1005.5 117.105 1005.92 117.396 1006.29 117.782C1006.66 118.169 1006.95 118.649 1007.17 119.224C1007.38 119.798 1007.49 120.466 1007.49 121.228C1007.49 121.468 1007.47 121.761 1007.44 122.106C1007.4 122.446 1007.33 122.804 1007.23 123.179C1007.12 123.554 1006.97 123.929 1006.77 124.304C1006.58 124.673 1006.32 125.004 1005.99 125.297C1005.67 125.59 1005.27 125.827 1004.8 126.009C1004.34 126.196 1003.78 126.29 1003.13 126.29C1002.86 126.29 1002.58 126.267 1002.27 126.22C1001.97 126.179 1001.67 126.1 1001.37 125.982C1001.07 125.865 1000.77 125.701 1000.49 125.49C1000.21 125.279 999.947 125.01 999.713 124.682C999.596 124.518 999.479 124.33 999.361 124.119C999.25 123.902 999.147 123.642 999.054 123.337C998.96 123.032 998.884 122.672 998.825 122.256C998.772 121.84 998.746 121.348 998.746 120.779C998.746 120.404 998.764 119.979 998.799 119.505C998.834 119.03 998.896 118.547 998.983 118.055C999.071 117.562 999.188 117.088 999.335 116.631C999.481 116.168 999.669 115.764 999.897 115.418C1000.14 115.043 1000.4 114.738 1000.67 114.504C1000.94 114.27 1001.23 114.085 1001.53 113.95C1001.84 113.815 1002.17 113.719 1002.52 113.66C1002.87 113.602 1003.25 113.563 1003.66 113.546L1004.23 113.528C1004.42 113.522 1004.58 113.514 1004.71 113.502C1004.84 113.484 1004.95 113.458 1005.04 113.423C1005.13 113.388 1005.2 113.335 1005.25 113.265C1005.3 113.194 1005.35 113.095 1005.38 112.966H1006.61ZM1000.36 121.465C1000.36 121.641 1000.37 121.849 1000.39 122.089C1000.41 122.329 1000.46 122.581 1000.52 122.845C1000.59 123.103 1000.68 123.36 1000.8 123.618C1000.93 123.876 1001.09 124.107 1001.29 124.312C1001.49 124.512 1001.74 124.676 1002.04 124.805C1002.34 124.928 1002.7 124.989 1003.11 124.989C1003.58 124.989 1003.97 124.916 1004.28 124.77C1004.6 124.617 1004.86 124.424 1005.07 124.189C1005.27 123.949 1005.43 123.686 1005.53 123.398C1005.64 123.111 1005.72 122.833 1005.77 122.563C1005.82 122.288 1005.85 122.039 1005.86 121.816C1005.87 121.588 1005.87 121.415 1005.87 121.298C1005.87 120.87 1005.82 120.451 1005.72 120.041C1005.63 119.631 1005.48 119.268 1005.26 118.951C1005.05 118.635 1004.77 118.38 1004.42 118.187C1004.08 117.993 1003.67 117.896 1003.17 117.896C1002.68 117.896 1002.26 117.993 1001.91 118.187C1001.56 118.374 1001.27 118.632 1001.04 118.96C1000.81 119.282 1000.64 119.66 1000.53 120.094C1000.42 120.521 1000.36 120.979 1000.36 121.465ZM1015.89 121.28C1015.89 120.759 1015.83 120.281 1015.72 119.848C1015.6 119.408 1015.42 119.03 1015.19 118.714C1014.96 118.397 1014.67 118.151 1014.32 117.976C1013.98 117.794 1013.58 117.703 1013.13 117.703C1012.68 117.703 1012.29 117.794 1011.95 117.976C1011.61 118.151 1011.32 118.397 1011.09 118.714C1010.85 119.03 1010.68 119.408 1010.56 119.848C1010.44 120.281 1010.38 120.759 1010.38 121.28C1010.38 121.808 1010.44 122.294 1010.56 122.739C1010.68 123.179 1010.85 123.557 1011.09 123.873C1011.32 124.189 1011.61 124.438 1011.95 124.62C1012.29 124.796 1012.68 124.884 1013.13 124.884C1013.58 124.884 1013.98 124.796 1014.32 124.62C1014.67 124.438 1014.96 124.189 1015.19 123.873C1015.42 123.557 1015.6 123.179 1015.72 122.739C1015.83 122.294 1015.89 121.808 1015.89 121.28ZM1017.51 121.28C1017.51 122.054 1017.41 122.751 1017.21 123.372C1017.01 123.987 1016.73 124.512 1016.35 124.945C1015.98 125.379 1015.52 125.713 1014.97 125.947C1014.43 126.176 1013.82 126.29 1013.13 126.29C1012.45 126.29 1011.84 126.176 1011.3 125.947C1010.76 125.713 1010.3 125.379 1009.93 124.945C1009.55 124.512 1009.26 123.987 1009.06 123.372C1008.87 122.751 1008.77 122.054 1008.77 121.28C1008.77 120.519 1008.87 119.83 1009.06 119.215C1009.26 118.6 1009.55 118.075 1009.93 117.642C1010.3 117.208 1010.76 116.877 1011.3 116.648C1011.84 116.414 1012.45 116.297 1013.13 116.297C1013.82 116.297 1014.43 116.414 1014.97 116.648C1015.52 116.877 1015.98 117.208 1016.35 117.642C1016.73 118.075 1017.01 118.6 1017.21 119.215C1017.41 119.83 1017.51 120.519 1017.51 121.28ZM1021.84 117.993H1018.6V116.587H1026.7V117.993H1023.46V126H1021.84V117.993ZM1037.34 116.587H1038.96V126H1037.34V116.587ZM1028.34 116.587H1029.96V120.129H1032.79C1033.3 120.129 1033.75 120.199 1034.16 120.34C1034.57 120.475 1034.91 120.671 1035.19 120.929C1035.48 121.181 1035.69 121.488 1035.84 121.852C1035.99 122.209 1036.06 122.613 1036.06 123.064C1036.06 123.521 1035.99 123.932 1035.84 124.295C1035.69 124.652 1035.48 124.96 1035.19 125.218C1034.91 125.47 1034.57 125.663 1034.16 125.798C1033.75 125.933 1033.3 126 1032.79 126H1028.34V116.587ZM1029.96 124.708H1032.46C1032.74 124.708 1033 124.679 1033.24 124.62C1033.49 124.562 1033.7 124.468 1033.88 124.339C1034.05 124.204 1034.19 124.034 1034.29 123.829C1034.39 123.618 1034.44 123.363 1034.44 123.064C1034.44 122.771 1034.39 122.522 1034.28 122.317C1034.18 122.112 1034.04 121.945 1033.85 121.816C1033.67 121.682 1033.45 121.585 1033.18 121.526C1032.92 121.462 1032.64 121.43 1032.32 121.43H1029.96V124.708Z" fill="#E8E8E8"/>
</svg>
