<svg width="414" height="178" viewBox="0 0 414 178" fill="none" xmlns="http://www.w3.org/2000/svg">
<rect x="-1" width="415" height="178" fill="#454242"/>
<path d="M182.812 52.5615L181.171 47.7715L179.354 52.5615H182.812ZM176.264 57L180.299 46.0649H182.05L185.954 57H184.357L183.222 53.7041H178.988L177.787 57H176.264ZM187.096 49.1558H188.444V50.2324H188.473C188.561 50.0518 188.671 49.8809 188.803 49.7197C188.939 49.5586 189.101 49.4194 189.286 49.3022C189.477 49.1802 189.694 49.085 189.938 49.0166C190.187 48.9482 190.47 48.9141 190.788 48.9141C191.208 48.9141 191.61 48.9946 191.996 49.1558C192.382 49.3169 192.724 49.5586 193.021 49.8809C193.319 50.2031 193.556 50.6084 193.732 51.0967C193.908 51.5801 193.996 52.144 193.996 52.7886C193.996 53.5942 193.913 54.2803 193.747 54.8467C193.585 55.4082 193.354 55.8672 193.051 56.2236C192.753 56.5801 192.392 56.8389 191.967 57C191.542 57.1611 191.068 57.2417 190.546 57.2417C190.287 57.2417 190.045 57.2075 189.821 57.1392C189.596 57.0708 189.394 56.9829 189.213 56.8755C189.037 56.7632 188.886 56.6411 188.759 56.5093C188.632 56.3726 188.537 56.2407 188.473 56.1138H188.444V60.0908H187.096V49.1558ZM188.415 53.1182C188.415 53.543 188.456 53.936 188.539 54.2974C188.622 54.6538 188.749 54.9639 188.92 55.2275C189.096 55.4912 189.313 55.6987 189.572 55.8501C189.835 55.9966 190.146 56.0698 190.502 56.0698C190.873 56.0698 191.193 55.9966 191.461 55.8501C191.735 55.6987 191.959 55.4912 192.135 55.2275C192.311 54.9639 192.44 54.6538 192.523 54.2974C192.606 53.936 192.648 53.543 192.648 53.1182C192.648 52.6738 192.606 52.2661 192.523 51.895C192.44 51.5239 192.311 51.2041 192.135 50.9355C191.959 50.667 191.735 50.4595 191.461 50.313C191.193 50.1616 190.873 50.0859 190.502 50.0859C190.146 50.0859 189.835 50.1616 189.572 50.313C189.313 50.4595 189.096 50.667 188.92 50.9355C188.749 51.2041 188.622 51.5239 188.539 51.895C188.456 52.2661 188.415 52.6738 188.415 53.1182ZM195.519 49.1558H196.867V55.1689H196.896L200.749 49.1558H202.294V57H200.939V50.9868H200.91L197.064 57H195.519V49.1558ZM204.279 49.1558H205.626V52.3198H209.289V49.1558H210.644V57H209.289V53.4917H205.626V57H204.279V49.1558ZM212.614 51.5068C212.628 51.0283 212.719 50.6255 212.885 50.2983C213.051 49.9663 213.275 49.6978 213.559 49.4927C213.842 49.2876 214.176 49.1411 214.562 49.0532C214.953 48.9604 215.377 48.9141 215.836 48.9141C216.217 48.9141 216.586 48.9531 216.942 49.0312C217.304 49.1094 217.624 49.2363 217.902 49.4121C218.18 49.583 218.402 49.8076 218.568 50.0859C218.739 50.3594 218.825 50.6938 218.825 51.0894V55.6523C218.825 55.7793 218.859 55.8892 218.927 55.9819C218.996 56.0698 219.105 56.1138 219.257 56.1138C219.325 56.1138 219.396 56.1089 219.469 56.0991C219.542 56.0845 219.618 56.0698 219.696 56.0552V56.9854C219.584 57.0146 219.472 57.0415 219.359 57.0659C219.252 57.0903 219.123 57.1025 218.971 57.1025C218.737 57.1025 218.534 57.083 218.363 57.0439C218.197 57.0049 218.056 56.9414 217.938 56.8535C217.826 56.7607 217.738 56.6436 217.675 56.502C217.611 56.3555 217.57 56.1772 217.55 55.9673C217.384 56.1479 217.208 56.3164 217.023 56.4727C216.837 56.624 216.63 56.7583 216.4 56.8755C216.171 56.9878 215.915 57.0757 215.631 57.1392C215.348 57.2075 215.028 57.2417 214.672 57.2417C214.369 57.2417 214.074 57.1929 213.786 57.0952C213.502 56.9976 213.246 56.8535 213.017 56.6631C212.792 56.4727 212.611 56.2383 212.475 55.96C212.338 55.6768 212.27 55.3496 212.27 54.9785C212.27 54.5732 212.338 54.2241 212.475 53.9312C212.611 53.6333 212.79 53.3867 213.009 53.1914C213.229 52.9912 213.48 52.8374 213.764 52.73C214.047 52.6226 214.335 52.5518 214.628 52.5176L216.833 52.2466C217.042 52.2222 217.206 52.1416 217.323 52.0049C217.445 51.8633 217.506 51.6387 217.506 51.3311C217.506 50.8574 217.35 50.5181 217.038 50.313C216.73 50.103 216.286 49.998 215.705 49.998C215.109 49.998 214.665 50.125 214.372 50.3789C214.079 50.6279 213.913 51.0039 213.874 51.5068H212.614ZM217.477 53.0083C217.37 53.0864 217.235 53.1523 217.074 53.2061C216.918 53.2549 216.745 53.2964 216.554 53.3306C216.364 53.3647 216.161 53.3965 215.946 53.4258C215.731 53.4502 215.517 53.4771 215.302 53.5063C215.058 53.5405 214.833 53.5894 214.628 53.6528C214.423 53.7163 214.245 53.7993 214.093 53.9019C213.942 54.0044 213.825 54.1289 213.742 54.2754C213.659 54.417 213.617 54.5854 213.617 54.7808C213.617 55.0054 213.651 55.2031 213.72 55.374C213.793 55.5449 213.891 55.689 214.013 55.8062C214.14 55.9233 214.291 56.0112 214.467 56.0698C214.643 56.1284 214.835 56.1577 215.045 56.1577C215.177 56.1577 215.329 56.1431 215.5 56.1138C215.67 56.0796 215.846 56.0308 216.027 55.9673C216.208 55.9038 216.383 55.8232 216.554 55.7256C216.73 55.623 216.886 55.501 217.023 55.3594C217.16 55.2178 217.27 55.0566 217.353 54.876C217.436 54.6953 217.477 54.4927 217.477 54.2681V53.0083ZM225.277 46.2334H227.343L230.39 55.2935H230.419L233.466 46.2334H235.531V57H234.184V47.9399H234.154L231.122 57H229.687L226.654 47.9399H226.625V57H225.277V46.2334ZM237.633 51.5068C237.648 51.0283 237.738 50.6255 237.904 50.2983C238.07 49.9663 238.295 49.6978 238.578 49.4927C238.861 49.2876 239.196 49.1411 239.582 49.0532C239.972 48.9604 240.397 48.9141 240.856 48.9141C241.237 48.9141 241.605 48.9531 241.962 49.0312C242.323 49.1094 242.643 49.2363 242.921 49.4121C243.2 49.583 243.422 49.8076 243.588 50.0859C243.759 50.3594 243.844 50.6938 243.844 51.0894V55.6523C243.844 55.7793 243.878 55.8892 243.947 55.9819C244.015 56.0698 244.125 56.1138 244.276 56.1138C244.345 56.1138 244.416 56.1089 244.489 56.0991C244.562 56.0845 244.638 56.0698 244.716 56.0552V56.9854C244.604 57.0146 244.491 57.0415 244.379 57.0659C244.271 57.0903 244.142 57.1025 243.991 57.1025C243.756 57.1025 243.554 57.083 243.383 57.0439C243.217 57.0049 243.075 56.9414 242.958 56.8535C242.846 56.7607 242.758 56.6436 242.694 56.502C242.631 56.3555 242.589 56.1772 242.57 55.9673C242.404 56.1479 242.228 56.3164 242.042 56.4727C241.857 56.624 241.649 56.7583 241.42 56.8755C241.19 56.9878 240.934 57.0757 240.651 57.1392C240.368 57.2075 240.048 57.2417 239.691 57.2417C239.389 57.2417 239.093 57.1929 238.805 57.0952C238.522 56.9976 238.266 56.8535 238.036 56.6631C237.812 56.4727 237.631 56.2383 237.494 55.96C237.357 55.6768 237.289 55.3496 237.289 54.9785C237.289 54.5732 237.357 54.2241 237.494 53.9312C237.631 53.6333 237.809 53.3867 238.029 53.1914C238.249 52.9912 238.5 52.8374 238.783 52.73C239.066 52.6226 239.354 52.5518 239.647 52.5176L241.852 52.2466C242.062 52.2222 242.226 52.1416 242.343 52.0049C242.465 51.8633 242.526 51.6387 242.526 51.3311C242.526 50.8574 242.37 50.5181 242.057 50.313C241.75 50.103 241.305 49.998 240.724 49.998C240.128 49.998 239.684 50.125 239.391 50.3789C239.098 50.6279 238.932 51.0039 238.893 51.5068H237.633ZM242.497 53.0083C242.389 53.0864 242.255 53.1523 242.094 53.2061C241.938 53.2549 241.764 53.2964 241.574 53.3306C241.383 53.3647 241.181 53.3965 240.966 53.4258C240.751 53.4502 240.536 53.4771 240.321 53.5063C240.077 53.5405 239.853 53.5894 239.647 53.6528C239.442 53.7163 239.264 53.7993 239.113 53.9019C238.961 54.0044 238.844 54.1289 238.761 54.2754C238.678 54.417 238.637 54.5854 238.637 54.7808C238.637 55.0054 238.671 55.2031 238.739 55.374C238.812 55.5449 238.91 55.689 239.032 55.8062C239.159 55.9233 239.311 56.0112 239.486 56.0698C239.662 56.1284 239.855 56.1577 240.065 56.1577C240.197 56.1577 240.348 56.1431 240.519 56.1138C240.69 56.0796 240.866 56.0308 241.046 55.9673C241.227 55.9038 241.403 55.8232 241.574 55.7256C241.75 55.623 241.906 55.501 242.042 55.3594C242.179 55.2178 242.289 55.0566 242.372 54.876C242.455 54.6953 242.497 54.4927 242.497 54.2681V53.0083ZM245.924 49.1558H247.272V50.2324H247.301C247.389 50.0518 247.499 49.8809 247.631 49.7197C247.768 49.5586 247.929 49.4194 248.114 49.3022C248.305 49.1802 248.522 49.085 248.766 49.0166C249.015 48.9482 249.298 48.9141 249.616 48.9141C250.036 48.9141 250.438 48.9946 250.824 49.1558C251.21 49.3169 251.552 49.5586 251.85 49.8809C252.147 50.2031 252.384 50.6084 252.56 51.0967C252.736 51.5801 252.824 52.144 252.824 52.7886C252.824 53.5942 252.741 54.2803 252.575 54.8467C252.414 55.4082 252.182 55.8672 251.879 56.2236C251.581 56.5801 251.22 56.8389 250.795 57C250.37 57.1611 249.896 57.2417 249.374 57.2417C249.115 57.2417 248.874 57.2075 248.649 57.1392C248.424 57.0708 248.222 56.9829 248.041 56.8755C247.865 56.7632 247.714 56.6411 247.587 56.5093C247.46 56.3726 247.365 56.2407 247.301 56.1138H247.272V60.0908H245.924V49.1558ZM247.243 53.1182C247.243 53.543 247.284 53.936 247.367 54.2974C247.45 54.6538 247.577 54.9639 247.748 55.2275C247.924 55.4912 248.141 55.6987 248.4 55.8501C248.664 55.9966 248.974 56.0698 249.33 56.0698C249.701 56.0698 250.021 55.9966 250.29 55.8501C250.563 55.6987 250.788 55.4912 250.963 55.2275C251.139 54.9639 251.269 54.6538 251.352 54.2974C251.435 53.936 251.476 53.543 251.476 53.1182C251.476 52.6738 251.435 52.2661 251.352 51.895C251.269 51.5239 251.139 51.2041 250.963 50.9355C250.788 50.667 250.563 50.4595 250.29 50.313C250.021 50.1616 249.701 50.0859 249.33 50.0859C248.974 50.0859 248.664 50.1616 248.4 50.313C248.141 50.4595 247.924 50.667 247.748 50.9355C247.577 51.2041 247.45 51.5239 247.367 51.895C247.284 52.2661 247.243 52.6738 247.243 53.1182ZM254.347 49.1558H255.695V55.1689H255.724L259.577 49.1558H261.122V57H259.767V50.9868H259.738L255.893 57H254.347V49.1558ZM263.107 49.1558H264.455V52.3198H268.117V49.1558H269.472V57H268.117V53.4917H264.455V57H263.107V49.1558ZM276.935 53.0669C276.935 52.6323 276.886 52.2344 276.789 51.873C276.691 51.5068 276.544 51.1919 276.349 50.9282C276.154 50.6646 275.912 50.4595 275.624 50.313C275.341 50.1616 275.011 50.0859 274.635 50.0859C274.259 50.0859 273.93 50.1616 273.646 50.313C273.363 50.4595 273.124 50.6646 272.929 50.9282C272.733 51.1919 272.587 51.5068 272.489 51.873C272.392 52.2344 272.343 52.6323 272.343 53.0669C272.343 53.5063 272.392 53.9116 272.489 54.2827C272.587 54.6489 272.733 54.9639 272.929 55.2275C273.124 55.4912 273.363 55.6987 273.646 55.8501C273.93 55.9966 274.259 56.0698 274.635 56.0698C275.011 56.0698 275.341 55.9966 275.624 55.8501C275.912 55.6987 276.154 55.4912 276.349 55.2275C276.544 54.9639 276.691 54.6489 276.789 54.2827C276.886 53.9116 276.935 53.5063 276.935 53.0669ZM278.283 53.0669C278.283 53.7114 278.2 54.2925 278.034 54.8101C277.868 55.3228 277.628 55.7598 277.316 56.1211C277.003 56.4824 276.62 56.7607 276.166 56.9561C275.717 57.1465 275.207 57.2417 274.635 57.2417C274.064 57.2417 273.554 57.1465 273.104 56.9561C272.655 56.7607 272.274 56.4824 271.962 56.1211C271.649 55.7598 271.41 55.3228 271.244 54.8101C271.078 54.2925 270.995 53.7114 270.995 53.0669C270.995 52.4321 271.078 51.8584 271.244 51.3457C271.41 50.833 271.649 50.396 271.962 50.0347C272.274 49.6733 272.655 49.3975 273.104 49.207C273.554 49.0117 274.064 48.9141 274.635 48.9141C275.207 48.9141 275.717 49.0117 276.166 49.207C276.62 49.3975 277.003 49.6733 277.316 50.0347C277.628 50.396 277.868 50.833 278.034 51.3457C278.2 51.8584 278.283 52.4321 278.283 53.0669ZM279.806 49.1558H283.146C284.103 49.1558 284.818 49.334 285.292 49.6904C285.771 50.0469 286.01 50.5645 286.01 51.2432C286.01 51.6045 285.922 51.9097 285.746 52.1587C285.57 52.4077 285.338 52.6274 285.05 52.8179C285.465 52.9741 285.795 53.1987 286.039 53.4917C286.283 53.7847 286.405 54.1631 286.405 54.627C286.405 54.9932 286.344 55.3228 286.222 55.6157C286.1 55.9087 285.915 56.1577 285.666 56.3628C285.417 56.5679 285.099 56.7266 284.713 56.8389C284.333 56.9463 283.881 57 283.358 57H279.806V49.1558ZM281.154 55.9233H283.205C283.561 55.9233 283.856 55.8965 284.091 55.8428C284.33 55.7842 284.521 55.7012 284.662 55.5938C284.804 55.4863 284.904 55.3569 284.962 55.2056C285.021 55.0542 285.05 54.8833 285.05 54.6929C285.05 54.5024 285.021 54.3315 284.962 54.1802C284.904 54.0239 284.804 53.8945 284.662 53.792C284.521 53.6846 284.33 53.604 284.091 53.5503C283.856 53.4917 283.561 53.4624 283.205 53.4624H281.154V55.9233ZM281.154 52.4736H283.19C283.644 52.4736 284.003 52.3833 284.267 52.2026C284.53 52.022 284.662 51.7412 284.662 51.3604C284.662 51.1455 284.625 50.9673 284.552 50.8257C284.479 50.6792 284.381 50.562 284.259 50.4741C284.137 50.3862 283.998 50.3252 283.842 50.291C283.69 50.252 283.534 50.2324 283.373 50.2324H281.154V52.4736ZM288.009 51.5068C288.024 51.0283 288.114 50.6255 288.28 50.2983C288.446 49.9663 288.671 49.6978 288.954 49.4927C289.237 49.2876 289.572 49.1411 289.958 49.0532C290.348 48.9604 290.773 48.9141 291.232 48.9141C291.613 48.9141 291.981 48.9531 292.338 49.0312C292.699 49.1094 293.019 49.2363 293.297 49.4121C293.576 49.583 293.798 49.8076 293.964 50.0859C294.135 50.3594 294.22 50.6938 294.22 51.0894V55.6523C294.22 55.7793 294.254 55.8892 294.323 55.9819C294.391 56.0698 294.501 56.1138 294.652 56.1138C294.721 56.1138 294.792 56.1089 294.865 56.0991C294.938 56.0845 295.014 56.0698 295.092 56.0552V56.9854C294.979 57.0146 294.867 57.0415 294.755 57.0659C294.647 57.0903 294.518 57.1025 294.367 57.1025C294.132 57.1025 293.93 57.083 293.759 57.0439C293.593 57.0049 293.451 56.9414 293.334 56.8535C293.222 56.7607 293.134 56.6436 293.07 56.502C293.007 56.3555 292.965 56.1772 292.946 55.9673C292.78 56.1479 292.604 56.3164 292.418 56.4727C292.233 56.624 292.025 56.7583 291.796 56.8755C291.566 56.9878 291.31 57.0757 291.027 57.1392C290.744 57.2075 290.424 57.2417 290.067 57.2417C289.765 57.2417 289.469 57.1929 289.181 57.0952C288.898 56.9976 288.642 56.8535 288.412 56.6631C288.188 56.4727 288.007 56.2383 287.87 55.96C287.733 55.6768 287.665 55.3496 287.665 54.9785C287.665 54.5732 287.733 54.2241 287.87 53.9312C288.007 53.6333 288.185 53.3867 288.405 53.1914C288.625 52.9912 288.876 52.8374 289.159 52.73C289.442 52.6226 289.73 52.5518 290.023 52.5176L292.228 52.2466C292.438 52.2222 292.602 52.1416 292.719 52.0049C292.841 51.8633 292.902 51.6387 292.902 51.3311C292.902 50.8574 292.746 50.5181 292.433 50.313C292.125 50.103 291.681 49.998 291.1 49.998C290.504 49.998 290.06 50.125 289.767 50.3789C289.474 50.6279 289.308 51.0039 289.269 51.5068H288.009ZM292.873 53.0083C292.765 53.0864 292.631 53.1523 292.47 53.2061C292.313 53.2549 292.14 53.2964 291.95 53.3306C291.759 53.3647 291.557 53.3965 291.342 53.4258C291.127 53.4502 290.912 53.4771 290.697 53.5063C290.453 53.5405 290.229 53.5894 290.023 53.6528C289.818 53.7163 289.64 53.7993 289.489 53.9019C289.337 54.0044 289.22 54.1289 289.137 54.2754C289.054 54.417 289.013 54.5854 289.013 54.7808C289.013 55.0054 289.047 55.2031 289.115 55.374C289.188 55.5449 289.286 55.689 289.408 55.8062C289.535 55.9233 289.687 56.0112 289.862 56.0698C290.038 56.1284 290.231 56.1577 290.441 56.1577C290.573 56.1577 290.724 56.1431 290.895 56.1138C291.066 56.0796 291.242 56.0308 291.422 55.9673C291.603 55.9038 291.779 55.8232 291.95 55.7256C292.125 55.623 292.282 55.501 292.418 55.3594C292.555 55.2178 292.665 55.0566 292.748 54.876C292.831 54.6953 292.873 54.4927 292.873 54.2681V53.0083ZM301.325 52.3125H312.787V53.3892H301.325V52.3125ZM325.89 54.2388C325.871 54.4292 325.832 54.6367 325.773 54.8613C325.719 55.0859 325.639 55.3105 325.531 55.5352C325.424 55.7549 325.285 55.9673 325.114 56.1724C324.948 56.3774 324.743 56.5605 324.499 56.7217C324.259 56.8779 323.976 57.0024 323.649 57.0952C323.322 57.1929 322.948 57.2417 322.528 57.2417C322.299 57.2417 322.057 57.2124 321.803 57.1538C321.549 57.1001 321.3 57.0073 321.056 56.8755C320.817 56.7437 320.587 56.5752 320.368 56.3701C320.153 56.1602 319.962 55.9014 319.796 55.5938C319.635 55.2861 319.506 54.9297 319.408 54.5244C319.311 54.1143 319.262 53.6455 319.262 53.1182C319.262 52.4688 319.354 51.8853 319.54 51.3677C319.726 50.8452 319.972 50.4033 320.28 50.042C320.592 49.6807 320.954 49.4023 321.364 49.207C321.779 49.0117 322.213 48.9141 322.667 48.9141C323.078 48.9141 323.439 48.958 323.751 49.0459C324.069 49.1338 324.345 49.251 324.579 49.3975C324.813 49.5439 325.011 49.7148 325.172 49.9102C325.333 50.1006 325.463 50.3032 325.561 50.5181C325.663 50.728 325.739 50.9429 325.788 51.1626C325.841 51.3823 325.875 51.5923 325.89 51.7925H324.63C324.562 51.2603 324.376 50.8428 324.074 50.54C323.776 50.2373 323.356 50.0859 322.814 50.0859C322.443 50.0859 322.118 50.1616 321.84 50.313C321.566 50.4644 321.337 50.6768 321.151 50.9502C320.971 51.2188 320.834 51.5459 320.741 51.9316C320.653 52.3125 320.609 52.7324 320.609 53.1914C320.609 53.709 320.658 54.1558 320.756 54.5317C320.854 54.9028 320.993 55.2104 321.173 55.4546C321.354 55.6938 321.574 55.8721 321.833 55.9893C322.096 56.1016 322.394 56.1577 322.726 56.1577C322.96 56.1577 323.183 56.1162 323.393 56.0332C323.603 55.9453 323.791 55.8208 323.957 55.6597C324.123 55.4937 324.264 55.291 324.381 55.0518C324.499 54.8125 324.582 54.5415 324.63 54.2388H325.89ZM327.223 49.1558H328.571V55.8281H332.233V49.1558H333.588V55.8281H334.555V58.9189H333.295V57H327.223V49.1558ZM342.472 54.4951C342.418 54.8369 342.301 55.1714 342.121 55.4985C341.94 55.8257 341.703 56.1187 341.41 56.3774C341.117 56.6362 340.771 56.8438 340.37 57C339.975 57.1611 339.535 57.2417 339.052 57.2417C338.524 57.2417 338.036 57.1562 337.587 56.9854C337.143 56.8096 336.757 56.5483 336.43 56.2017C336.107 55.8501 335.854 55.4106 335.668 54.8833C335.482 54.356 335.39 53.7358 335.39 53.0229C335.39 52.5444 335.441 52.1123 335.543 51.7266C335.651 51.3359 335.792 50.9893 335.968 50.6865C336.149 50.3789 336.356 50.1152 336.591 49.8955C336.825 49.6709 337.072 49.4878 337.331 49.3462C337.594 49.1997 337.863 49.0923 338.136 49.0239C338.41 48.9507 338.673 48.9141 338.927 48.9141C339.464 48.9141 339.955 48.9946 340.399 49.1558C340.844 49.3169 341.225 49.5635 341.542 49.8955C341.864 50.2227 342.113 50.6353 342.289 51.1333C342.47 51.6265 342.56 52.2075 342.56 52.8765V53.5503H336.825C336.83 53.9312 336.884 54.2778 336.986 54.5903C337.089 54.8979 337.235 55.1616 337.426 55.3813C337.616 55.6011 337.846 55.772 338.114 55.894C338.388 56.0112 338.695 56.0698 339.037 56.0698C339.384 56.0698 339.677 56.021 339.916 55.9233C340.155 55.8257 340.355 55.7012 340.517 55.5498C340.678 55.3984 340.807 55.23 340.905 55.0444C341.007 54.8589 341.093 54.6758 341.161 54.4951H342.472ZM341.205 52.4736C341.195 52.0928 341.137 51.7534 341.029 51.4556C340.927 51.1577 340.78 50.9087 340.59 50.7085C340.404 50.5034 340.18 50.3496 339.916 50.2471C339.652 50.1396 339.359 50.0859 339.037 50.0859C338.729 50.0859 338.446 50.147 338.188 50.269C337.929 50.3862 337.702 50.5522 337.506 50.7671C337.311 50.9771 337.155 51.2285 337.038 51.5215C336.92 51.8096 336.85 52.127 336.825 52.4736H341.205ZM344.142 49.1558H345.49V52.3198H349.152V49.1558H350.507V57H349.152V53.4917H345.49V57H344.142V49.1558ZM352.477 51.5068C352.492 51.0283 352.582 50.6255 352.748 50.2983C352.914 49.9663 353.139 49.6978 353.422 49.4927C353.705 49.2876 354.04 49.1411 354.425 49.0532C354.816 48.9604 355.241 48.9141 355.7 48.9141C356.081 48.9141 356.449 48.9531 356.806 49.0312C357.167 49.1094 357.487 49.2363 357.765 49.4121C358.043 49.583 358.266 49.8076 358.432 50.0859C358.603 50.3594 358.688 50.6938 358.688 51.0894V55.6523C358.688 55.7793 358.722 55.8892 358.791 55.9819C358.859 56.0698 358.969 56.1138 359.12 56.1138C359.188 56.1138 359.259 56.1089 359.333 56.0991C359.406 56.0845 359.481 56.0698 359.56 56.0552V56.9854C359.447 57.0146 359.335 57.0415 359.223 57.0659C359.115 57.0903 358.986 57.1025 358.834 57.1025C358.6 57.1025 358.397 57.083 358.227 57.0439C358.061 57.0049 357.919 56.9414 357.802 56.8535C357.689 56.7607 357.602 56.6436 357.538 56.502C357.475 56.3555 357.433 56.1772 357.414 55.9673C357.248 56.1479 357.072 56.3164 356.886 56.4727C356.701 56.624 356.493 56.7583 356.264 56.8755C356.034 56.9878 355.778 57.0757 355.495 57.1392C355.211 57.2075 354.892 57.2417 354.535 57.2417C354.232 57.2417 353.937 57.1929 353.649 57.0952C353.366 56.9976 353.109 56.8535 352.88 56.6631C352.655 56.4727 352.475 56.2383 352.338 55.96C352.201 55.6768 352.133 55.3496 352.133 54.9785C352.133 54.5732 352.201 54.2241 352.338 53.9312C352.475 53.6333 352.653 53.3867 352.873 53.1914C353.092 52.9912 353.344 52.8374 353.627 52.73C353.91 52.6226 354.198 52.5518 354.491 52.5176L356.696 52.2466C356.906 52.2222 357.069 52.1416 357.187 52.0049C357.309 51.8633 357.37 51.6387 357.37 51.3311C357.37 50.8574 357.213 50.5181 356.901 50.313C356.593 50.103 356.149 49.998 355.568 49.998C354.972 49.998 354.528 50.125 354.235 50.3789C353.942 50.6279 353.776 51.0039 353.737 51.5068H352.477ZM357.34 53.0083C357.233 53.0864 357.099 53.1523 356.938 53.2061C356.781 53.2549 356.608 53.2964 356.417 53.3306C356.227 53.3647 356.024 53.3965 355.81 53.4258C355.595 53.4502 355.38 53.4771 355.165 53.5063C354.921 53.5405 354.696 53.5894 354.491 53.6528C354.286 53.7163 354.108 53.7993 353.957 53.9019C353.805 54.0044 353.688 54.1289 353.605 54.2754C353.522 54.417 353.48 54.5854 353.48 54.7808C353.48 55.0054 353.515 55.2031 353.583 55.374C353.656 55.5449 353.754 55.689 353.876 55.8062C354.003 55.9233 354.154 56.0112 354.33 56.0698C354.506 56.1284 354.699 56.1577 354.909 56.1577C355.041 56.1577 355.192 56.1431 355.363 56.1138C355.534 56.0796 355.709 56.0308 355.89 55.9673C356.071 55.9038 356.247 55.8232 356.417 55.7256C356.593 55.623 356.75 55.501 356.886 55.3594C357.023 55.2178 357.133 55.0566 357.216 54.876C357.299 54.6953 357.34 54.4927 357.34 54.2681V53.0083ZM360.768 49.1558H362.116V50.2324H362.145C362.233 50.0518 362.343 49.8809 362.475 49.7197C362.611 49.5586 362.772 49.4194 362.958 49.3022C363.148 49.1802 363.366 49.085 363.61 49.0166C363.859 48.9482 364.142 48.9141 364.459 48.9141C364.879 48.9141 365.282 48.9946 365.668 49.1558C366.054 49.3169 366.396 49.5586 366.693 49.8809C366.991 50.2031 367.228 50.6084 367.404 51.0967C367.58 51.5801 367.667 52.144 367.667 52.7886C367.667 53.5942 367.584 54.2803 367.418 54.8467C367.257 55.4082 367.025 55.8672 366.723 56.2236C366.425 56.5801 366.063 56.8389 365.639 57C365.214 57.1611 364.74 57.2417 364.218 57.2417C363.959 57.2417 363.717 57.2075 363.493 57.1392C363.268 57.0708 363.065 56.9829 362.885 56.8755C362.709 56.7632 362.558 56.6411 362.431 56.5093C362.304 56.3726 362.208 56.2407 362.145 56.1138H362.116V60.0908H360.768V49.1558ZM362.086 53.1182C362.086 53.543 362.128 53.936 362.211 54.2974C362.294 54.6538 362.421 54.9639 362.592 55.2275C362.768 55.4912 362.985 55.6987 363.244 55.8501C363.507 55.9966 363.817 56.0698 364.174 56.0698C364.545 56.0698 364.865 55.9966 365.133 55.8501C365.407 55.6987 365.631 55.4912 365.807 55.2275C365.983 54.9639 366.112 54.6538 366.195 54.2974C366.278 53.936 366.32 53.543 366.32 53.1182C366.32 52.6738 366.278 52.2661 366.195 51.895C366.112 51.5239 365.983 51.2041 365.807 50.9355C365.631 50.667 365.407 50.4595 365.133 50.313C364.865 50.1616 364.545 50.0859 364.174 50.0859C363.817 50.0859 363.507 50.1616 363.244 50.313C362.985 50.4595 362.768 50.667 362.592 50.9355C362.421 51.2041 362.294 51.5239 362.211 51.895C362.128 52.2661 362.086 52.6738 362.086 53.1182ZM369.191 49.1558H370.539V55.1689H370.568L374.42 49.1558H375.966V57H374.611V50.9868H374.582L370.736 57H369.191V49.1558ZM384.118 54.2388C384.098 54.4292 384.059 54.6367 384 54.8613C383.947 55.0859 383.866 55.3105 383.759 55.5352C383.651 55.7549 383.512 55.9673 383.341 56.1724C383.175 56.3774 382.97 56.5605 382.726 56.7217C382.487 56.8779 382.204 57.0024 381.876 57.0952C381.549 57.1929 381.176 57.2417 380.756 57.2417C380.526 57.2417 380.285 57.2124 380.031 57.1538C379.777 57.1001 379.528 57.0073 379.284 56.8755C379.044 56.7437 378.815 56.5752 378.595 56.3701C378.38 56.1602 378.19 55.9014 378.024 55.5938C377.863 55.2861 377.733 54.9297 377.636 54.5244C377.538 54.1143 377.489 53.6455 377.489 53.1182C377.489 52.4688 377.582 51.8853 377.768 51.3677C377.953 50.8452 378.2 50.4033 378.507 50.042C378.82 49.6807 379.181 49.4023 379.591 49.207C380.006 49.0117 380.441 48.9141 380.895 48.9141C381.305 48.9141 381.667 48.958 381.979 49.0459C382.296 49.1338 382.572 49.251 382.807 49.3975C383.041 49.5439 383.239 49.7148 383.4 49.9102C383.561 50.1006 383.69 50.3032 383.788 50.5181C383.891 50.728 383.966 50.9429 384.015 51.1626C384.069 51.3823 384.103 51.5923 384.118 51.7925H382.858C382.79 51.2603 382.604 50.8428 382.301 50.54C382.003 50.2373 381.583 50.0859 381.042 50.0859C380.67 50.0859 380.346 50.1616 380.067 50.313C379.794 50.4644 379.564 50.6768 379.379 50.9502C379.198 51.2188 379.062 51.5459 378.969 51.9316C378.881 52.3125 378.837 52.7324 378.837 53.1914C378.837 53.709 378.886 54.1558 378.983 54.5317C379.081 54.9028 379.22 55.2104 379.401 55.4546C379.582 55.6938 379.801 55.8721 380.06 55.9893C380.324 56.1016 380.622 56.1577 380.954 56.1577C381.188 56.1577 381.41 56.1162 381.62 56.0332C381.83 55.9453 382.018 55.8208 382.184 55.6597C382.35 55.4937 382.492 55.291 382.609 55.0518C382.726 54.8125 382.809 54.5415 382.858 54.2388H384.118ZM387.538 50.3276H384.835V49.1558H391.588V50.3276H388.886V57H387.538V50.3276ZM393.207 58.5308C393.544 58.4722 393.781 58.2354 393.917 57.8203C393.991 57.6006 394.027 57.3882 394.027 57.1831C394.027 57.1489 394.025 57.1172 394.02 57.0879C394.02 57.0635 394.015 57.0342 394.005 57H393.207V55.4033H394.774V56.8828C394.774 57.4639 394.657 57.9741 394.423 58.4136C394.188 58.853 393.783 59.124 393.207 59.2266V58.5308ZM176.989 66.1558H178.336V69.9497L182.299 66.1558H184.064L180.38 69.6201L184.123 74H182.387L179.325 70.4404L178.336 71.2681V74H176.989V66.1558ZM185.133 66.1558H186.481V67.2324H186.51C186.598 67.0518 186.708 66.8809 186.84 66.7197C186.977 66.5586 187.138 66.4194 187.323 66.3022C187.514 66.1802 187.731 66.085 187.975 66.0166C188.224 65.9482 188.507 65.9141 188.825 65.9141C189.245 65.9141 189.647 65.9946 190.033 66.1558C190.419 66.3169 190.761 66.5586 191.059 66.8809C191.356 67.2031 191.593 67.6084 191.769 68.0967C191.945 68.5801 192.033 69.144 192.033 69.7886C192.033 70.5942 191.95 71.2803 191.784 71.8467C191.623 72.4082 191.391 72.8672 191.088 73.2236C190.79 73.5801 190.429 73.8389 190.004 74C189.579 74.1611 189.105 74.2417 188.583 74.2417C188.324 74.2417 188.083 74.2075 187.858 74.1392C187.633 74.0708 187.431 73.9829 187.25 73.8755C187.074 73.7632 186.923 73.6411 186.796 73.5093C186.669 73.3726 186.574 73.2407 186.51 73.1138H186.481V77.0908H185.133V66.1558ZM186.452 70.1182C186.452 70.543 186.493 70.936 186.576 71.2974C186.659 71.6538 186.786 71.9639 186.957 72.2275C187.133 72.4912 187.35 72.6987 187.609 72.8501C187.873 72.9966 188.183 73.0698 188.539 73.0698C188.91 73.0698 189.23 72.9966 189.499 72.8501C189.772 72.6987 189.997 72.4912 190.172 72.2275C190.348 71.9639 190.478 71.6538 190.561 71.2974C190.644 70.936 190.685 70.543 190.685 70.1182C190.685 69.6738 190.644 69.2661 190.561 68.895C190.478 68.5239 190.348 68.2041 190.172 67.9355C189.997 67.667 189.772 67.4595 189.499 67.313C189.23 67.1616 188.91 67.0859 188.539 67.0859C188.183 67.0859 187.873 67.1616 187.609 67.313C187.35 67.4595 187.133 67.667 186.957 67.9355C186.786 68.2041 186.659 68.5239 186.576 68.895C186.493 69.2661 186.452 69.6738 186.452 70.1182ZM200.236 71.4951C200.182 71.8369 200.065 72.1714 199.884 72.4985C199.704 72.8257 199.467 73.1187 199.174 73.3774C198.881 73.6362 198.534 73.8438 198.134 74C197.738 74.1611 197.299 74.2417 196.815 74.2417C196.288 74.2417 195.8 74.1562 195.351 73.9854C194.906 73.8096 194.521 73.5483 194.193 73.2017C193.871 72.8501 193.617 72.4106 193.432 71.8833C193.246 71.356 193.153 70.7358 193.153 70.0229C193.153 69.5444 193.205 69.1123 193.307 68.7266C193.415 68.3359 193.556 67.9893 193.732 67.6865C193.913 67.3789 194.12 67.1152 194.354 66.8955C194.589 66.6709 194.835 66.4878 195.094 66.3462C195.358 66.1997 195.626 66.0923 195.9 66.0239C196.173 65.9507 196.437 65.9141 196.691 65.9141C197.228 65.9141 197.719 65.9946 198.163 66.1558C198.607 66.3169 198.988 66.5635 199.306 66.8955C199.628 67.2227 199.877 67.6353 200.053 68.1333C200.233 68.6265 200.324 69.2075 200.324 69.8765V70.5503H194.589C194.594 70.9312 194.647 71.2778 194.75 71.5903C194.853 71.8979 194.999 72.1616 195.189 72.3813C195.38 72.6011 195.609 72.772 195.878 72.894C196.151 73.0112 196.459 73.0698 196.801 73.0698C197.147 73.0698 197.44 73.021 197.68 72.9233C197.919 72.8257 198.119 72.7012 198.28 72.5498C198.441 72.3984 198.571 72.23 198.668 72.0444C198.771 71.8589 198.856 71.6758 198.925 71.4951H200.236ZM198.969 69.4736C198.959 69.0928 198.9 68.7534 198.793 68.4556C198.69 68.1577 198.544 67.9087 198.354 67.7085C198.168 67.5034 197.943 67.3496 197.68 67.2471C197.416 67.1396 197.123 67.0859 196.801 67.0859C196.493 67.0859 196.21 67.147 195.951 67.269C195.692 67.3862 195.465 67.5522 195.27 67.7671C195.075 67.9771 194.918 68.2285 194.801 68.5215C194.684 68.8096 194.613 69.127 194.589 69.4736H198.969ZM201.891 68.5068C201.906 68.0283 201.996 67.6255 202.162 67.2983C202.328 66.9663 202.553 66.6978 202.836 66.4927C203.119 66.2876 203.454 66.1411 203.839 66.0532C204.23 65.9604 204.655 65.9141 205.114 65.9141C205.495 65.9141 205.863 65.9531 206.22 66.0312C206.581 66.1094 206.901 66.2363 207.179 66.4121C207.458 66.583 207.68 66.8076 207.846 67.0859C208.017 67.3594 208.102 67.6938 208.102 68.0894V72.6523C208.102 72.7793 208.136 72.8892 208.205 72.9819C208.273 73.0698 208.383 73.1138 208.534 73.1138C208.603 73.1138 208.673 73.1089 208.747 73.0991C208.82 73.0845 208.896 73.0698 208.974 73.0552V73.9854C208.861 74.0146 208.749 74.0415 208.637 74.0659C208.529 74.0903 208.4 74.1025 208.249 74.1025C208.014 74.1025 207.812 74.083 207.641 74.0439C207.475 74.0049 207.333 73.9414 207.216 73.8535C207.104 73.7607 207.016 73.6436 206.952 73.502C206.889 73.3555 206.847 73.1772 206.828 72.9673C206.662 73.1479 206.486 73.3164 206.3 73.4727C206.115 73.624 205.907 73.7583 205.678 73.8755C205.448 73.9878 205.192 74.0757 204.909 74.1392C204.625 74.2075 204.306 74.2417 203.949 74.2417C203.646 74.2417 203.351 74.1929 203.063 74.0952C202.78 73.9976 202.523 73.8535 202.294 73.6631C202.069 73.4727 201.889 73.2383 201.752 72.96C201.615 72.6768 201.547 72.3496 201.547 71.9785C201.547 71.5732 201.615 71.2241 201.752 70.9312C201.889 70.6333 202.067 70.3867 202.287 70.1914C202.506 69.9912 202.758 69.8374 203.041 69.73C203.324 69.6226 203.612 69.5518 203.905 69.5176L206.11 69.2466C206.32 69.2222 206.483 69.1416 206.601 69.0049C206.723 68.8633 206.784 68.6387 206.784 68.3311C206.784 67.8574 206.627 67.5181 206.315 67.313C206.007 67.103 205.563 66.998 204.982 66.998C204.386 66.998 203.942 67.125 203.649 67.3789C203.356 67.6279 203.19 68.0039 203.151 68.5068H201.891ZM206.754 70.0083C206.647 70.0864 206.513 70.1523 206.352 70.2061C206.195 70.2549 206.022 70.2964 205.832 70.3306C205.641 70.3647 205.438 70.3965 205.224 70.4258C205.009 70.4502 204.794 70.4771 204.579 70.5063C204.335 70.5405 204.11 70.5894 203.905 70.6528C203.7 70.7163 203.522 70.7993 203.371 70.9019C203.219 71.0044 203.102 71.1289 203.019 71.2754C202.936 71.417 202.895 71.5854 202.895 71.7808C202.895 72.0054 202.929 72.2031 202.997 72.374C203.07 72.5449 203.168 72.689 203.29 72.8062C203.417 72.9233 203.568 73.0112 203.744 73.0698C203.92 73.1284 204.113 73.1577 204.323 73.1577C204.455 73.1577 204.606 73.1431 204.777 73.1138C204.948 73.0796 205.124 73.0308 205.304 72.9673C205.485 72.9038 205.661 72.8232 205.832 72.7256C206.007 72.623 206.164 72.501 206.3 72.3594C206.437 72.2178 206.547 72.0566 206.63 71.876C206.713 71.6953 206.754 71.4927 206.754 71.2681V70.0083ZM212.343 67.3276H209.64V66.1558H216.393V67.3276H213.69V74H212.343V67.3276ZM217.755 66.1558H219.103V72.1689H219.132L222.985 66.1558H224.53V74H223.175V67.9868H223.146L219.301 74H217.755V66.1558ZM226.515 66.1558H229.855C230.812 66.1558 231.527 66.334 232.001 66.6904C232.479 67.0469 232.719 67.5645 232.719 68.2432C232.719 68.6045 232.631 68.9097 232.455 69.1587C232.279 69.4077 232.047 69.6274 231.759 69.8179C232.174 69.9741 232.504 70.1987 232.748 70.4917C232.992 70.7847 233.114 71.1631 233.114 71.627C233.114 71.9932 233.053 72.3228 232.931 72.6157C232.809 72.9087 232.624 73.1577 232.375 73.3628C232.125 73.5679 231.808 73.7266 231.422 73.8389C231.042 73.9463 230.59 74 230.067 74H226.515V66.1558ZM227.863 72.9233H229.914C230.27 72.9233 230.565 72.8965 230.8 72.8428C231.039 72.7842 231.229 72.7012 231.371 72.5938C231.513 72.4863 231.613 72.3569 231.671 72.2056C231.73 72.0542 231.759 71.8833 231.759 71.6929C231.759 71.5024 231.73 71.3315 231.671 71.1802C231.613 71.0239 231.513 70.8945 231.371 70.792C231.229 70.6846 231.039 70.604 230.8 70.5503C230.565 70.4917 230.27 70.4624 229.914 70.4624H227.863V72.9233ZM227.863 69.4736H229.899C230.353 69.4736 230.712 69.3833 230.976 69.2026C231.239 69.022 231.371 68.7412 231.371 68.3604C231.371 68.1455 231.334 67.9673 231.261 67.8257C231.188 67.6792 231.09 67.562 230.968 67.4741C230.846 67.3862 230.707 67.3252 230.551 67.291C230.399 67.252 230.243 67.2324 230.082 67.2324H227.863V69.4736ZM244.137 74H234.733V66.1558H236.081V72.8281H238.908V66.1558H240.255V72.8281H243.075V66.1558H244.423V72.8281H245.397V75.9189H244.137V74ZM246.627 66.1558H247.975V72.1689H248.004L251.857 66.1558H253.402V74H252.047V67.9868H252.018L248.173 74H246.627V66.1558ZM255.387 66.1558H256.735V69.9497L260.697 66.1558H262.462L258.778 69.6201L262.521 74H260.785L257.724 70.4404L256.735 71.2681V74H255.387V66.1558Z" fill="#E8E8E8"/>
<path d="M375.989 124.156H380.859V125.328H377.336V132H375.989V124.156ZM387.517 128.067C387.517 127.632 387.468 127.234 387.371 126.873C387.273 126.507 387.126 126.192 386.931 125.928C386.736 125.665 386.494 125.459 386.206 125.313C385.923 125.162 385.593 125.086 385.217 125.086C384.841 125.086 384.512 125.162 384.229 125.313C383.945 125.459 383.706 125.665 383.511 125.928C383.315 126.192 383.169 126.507 383.071 126.873C382.974 127.234 382.925 127.632 382.925 128.067C382.925 128.506 382.974 128.912 383.071 129.283C383.169 129.649 383.315 129.964 383.511 130.228C383.706 130.491 383.945 130.699 384.229 130.85C384.512 130.997 384.841 131.07 385.217 131.07C385.593 131.07 385.923 130.997 386.206 130.85C386.494 130.699 386.736 130.491 386.931 130.228C387.126 129.964 387.273 129.649 387.371 129.283C387.468 128.912 387.517 128.506 387.517 128.067ZM388.865 128.067C388.865 128.711 388.782 129.292 388.616 129.81C388.45 130.323 388.21 130.76 387.898 131.121C387.585 131.482 387.202 131.761 386.748 131.956C386.299 132.146 385.789 132.242 385.217 132.242C384.646 132.242 384.136 132.146 383.687 131.956C383.237 131.761 382.856 131.482 382.544 131.121C382.231 130.76 381.992 130.323 381.826 129.81C381.66 129.292 381.577 128.711 381.577 128.067C381.577 127.432 381.66 126.858 381.826 126.346C381.992 125.833 382.231 125.396 382.544 125.035C382.856 124.673 383.237 124.397 383.687 124.207C384.136 124.012 384.646 123.914 385.217 123.914C385.789 123.914 386.299 124.012 386.748 124.207C387.202 124.397 387.585 124.673 387.898 125.035C388.21 125.396 388.45 125.833 388.616 126.346C388.782 126.858 388.865 127.432 388.865 128.067ZM396.929 132H390.864V133.919H389.604V130.828H390.637C390.852 130.301 391.023 129.764 391.15 129.217C391.277 128.665 391.375 128.111 391.443 127.554C391.511 126.993 391.555 126.429 391.575 125.862C391.594 125.296 391.604 124.727 391.604 124.156H397.083V130.828H398.188V133.919H396.929V132ZM395.735 130.828V125.328H392.893C392.859 125.772 392.822 126.229 392.783 126.697C392.749 127.166 392.7 127.637 392.637 128.111C392.578 128.58 392.498 129.043 392.395 129.502C392.297 129.961 392.168 130.403 392.007 130.828H395.735Z" fill="#E8E8E8"/>
<path d="M183.156 129.239C183.136 129.429 183.097 129.637 183.039 129.861C182.985 130.086 182.904 130.311 182.797 130.535C182.689 130.755 182.55 130.967 182.379 131.172C182.213 131.377 182.008 131.561 181.764 131.722C181.525 131.878 181.242 132.002 180.915 132.095C180.587 132.193 180.214 132.242 179.794 132.242C179.564 132.242 179.323 132.212 179.069 132.154C178.815 132.1 178.566 132.007 178.322 131.875C178.083 131.744 177.853 131.575 177.633 131.37C177.418 131.16 177.228 130.901 177.062 130.594C176.901 130.286 176.771 129.93 176.674 129.524C176.576 129.114 176.527 128.646 176.527 128.118C176.527 127.469 176.62 126.885 176.806 126.368C176.991 125.845 177.238 125.403 177.545 125.042C177.858 124.681 178.219 124.402 178.629 124.207C179.044 124.012 179.479 123.914 179.933 123.914C180.343 123.914 180.705 123.958 181.017 124.046C181.334 124.134 181.61 124.251 181.845 124.397C182.079 124.544 182.277 124.715 182.438 124.91C182.599 125.101 182.729 125.303 182.826 125.518C182.929 125.728 183.004 125.943 183.053 126.163C183.107 126.382 183.141 126.592 183.156 126.792H181.896C181.828 126.26 181.642 125.843 181.339 125.54C181.042 125.237 180.622 125.086 180.08 125.086C179.708 125.086 179.384 125.162 179.105 125.313C178.832 125.464 178.603 125.677 178.417 125.95C178.236 126.219 178.1 126.546 178.007 126.932C177.919 127.312 177.875 127.732 177.875 128.191C177.875 128.709 177.924 129.156 178.021 129.532C178.119 129.903 178.258 130.21 178.439 130.455C178.62 130.694 178.839 130.872 179.098 130.989C179.362 131.102 179.66 131.158 179.992 131.158C180.226 131.158 180.448 131.116 180.658 131.033C180.868 130.945 181.056 130.821 181.222 130.66C181.388 130.494 181.53 130.291 181.647 130.052C181.764 129.812 181.847 129.542 181.896 129.239H183.156ZM186.576 125.328H183.874V124.156H190.626V125.328H187.924V132H186.576V125.328ZM191.974 126.507C191.989 126.028 192.079 125.625 192.245 125.298C192.411 124.966 192.636 124.698 192.919 124.493C193.202 124.288 193.537 124.141 193.922 124.053C194.313 123.96 194.738 123.914 195.197 123.914C195.578 123.914 195.946 123.953 196.303 124.031C196.664 124.109 196.984 124.236 197.262 124.412C197.541 124.583 197.763 124.808 197.929 125.086C198.1 125.359 198.185 125.694 198.185 126.089V130.652C198.185 130.779 198.219 130.889 198.288 130.982C198.356 131.07 198.466 131.114 198.617 131.114C198.686 131.114 198.756 131.109 198.83 131.099C198.903 131.084 198.979 131.07 199.057 131.055V131.985C198.944 132.015 198.832 132.042 198.72 132.066C198.612 132.09 198.483 132.103 198.332 132.103C198.097 132.103 197.895 132.083 197.724 132.044C197.558 132.005 197.416 131.941 197.299 131.854C197.187 131.761 197.099 131.644 197.035 131.502C196.972 131.355 196.93 131.177 196.911 130.967C196.745 131.148 196.569 131.316 196.383 131.473C196.198 131.624 195.99 131.758 195.761 131.875C195.531 131.988 195.275 132.076 194.992 132.139C194.708 132.208 194.389 132.242 194.032 132.242C193.729 132.242 193.434 132.193 193.146 132.095C192.863 131.998 192.606 131.854 192.377 131.663C192.152 131.473 191.972 131.238 191.835 130.96C191.698 130.677 191.63 130.35 191.63 129.979C191.63 129.573 191.698 129.224 191.835 128.931C191.972 128.633 192.15 128.387 192.37 128.191C192.589 127.991 192.841 127.837 193.124 127.73C193.407 127.623 193.695 127.552 193.988 127.518L196.193 127.247C196.403 127.222 196.566 127.142 196.684 127.005C196.806 126.863 196.867 126.639 196.867 126.331C196.867 125.857 196.71 125.518 196.398 125.313C196.09 125.103 195.646 124.998 195.065 124.998C194.469 124.998 194.025 125.125 193.732 125.379C193.439 125.628 193.273 126.004 193.234 126.507H191.974ZM196.837 128.008C196.73 128.086 196.596 128.152 196.435 128.206C196.278 128.255 196.105 128.296 195.915 128.331C195.724 128.365 195.521 128.396 195.307 128.426C195.092 128.45 194.877 128.477 194.662 128.506C194.418 128.541 194.193 128.589 193.988 128.653C193.783 128.716 193.605 128.799 193.454 128.902C193.302 129.004 193.185 129.129 193.102 129.275C193.019 129.417 192.978 129.585 192.978 129.781C192.978 130.005 193.012 130.203 193.08 130.374C193.153 130.545 193.251 130.689 193.373 130.806C193.5 130.923 193.651 131.011 193.827 131.07C194.003 131.128 194.196 131.158 194.406 131.158C194.538 131.158 194.689 131.143 194.86 131.114C195.031 131.08 195.207 131.031 195.387 130.967C195.568 130.904 195.744 130.823 195.915 130.726C196.09 130.623 196.247 130.501 196.383 130.359C196.52 130.218 196.63 130.057 196.713 129.876C196.796 129.695 196.837 129.493 196.837 129.268V128.008ZM205.89 127.364H206.571L209.142 124.156H210.768L207.685 127.876L210.885 132H209.223L206.571 128.433H205.89V132H204.542V128.433H203.854L201.181 132H199.518L202.748 127.876L199.679 124.156H201.312L203.854 127.364H204.542V124.156H205.89V127.364ZM216.144 124.156H217.492V125.232H217.521C217.609 125.052 217.719 124.881 217.851 124.72C217.987 124.559 218.148 124.419 218.334 124.302C218.524 124.18 218.742 124.085 218.986 124.017C219.235 123.948 219.518 123.914 219.835 123.914C220.255 123.914 220.658 123.995 221.044 124.156C221.43 124.317 221.771 124.559 222.069 124.881C222.367 125.203 222.604 125.608 222.78 126.097C222.956 126.58 223.043 127.144 223.043 127.789C223.043 128.594 222.96 129.28 222.794 129.847C222.633 130.408 222.401 130.867 222.099 131.224C221.801 131.58 221.439 131.839 221.015 132C220.59 132.161 220.116 132.242 219.594 132.242C219.335 132.242 219.093 132.208 218.869 132.139C218.644 132.071 218.441 131.983 218.261 131.875C218.085 131.763 217.934 131.641 217.807 131.509C217.68 131.373 217.584 131.241 217.521 131.114H217.492V135.091H216.144V124.156ZM217.462 128.118C217.462 128.543 217.504 128.936 217.587 129.297C217.67 129.654 217.797 129.964 217.968 130.228C218.144 130.491 218.361 130.699 218.62 130.85C218.883 130.997 219.193 131.07 219.55 131.07C219.921 131.07 220.241 130.997 220.509 130.85C220.783 130.699 221.007 130.491 221.183 130.228C221.359 129.964 221.488 129.654 221.571 129.297C221.654 128.936 221.696 128.543 221.696 128.118C221.696 127.674 221.654 127.266 221.571 126.895C221.488 126.524 221.359 126.204 221.183 125.936C221.007 125.667 220.783 125.459 220.509 125.313C220.241 125.162 219.921 125.086 219.55 125.086C219.193 125.086 218.883 125.162 218.62 125.313C218.361 125.459 218.144 125.667 217.968 125.936C217.797 126.204 217.67 126.524 217.587 126.895C217.504 127.266 217.462 127.674 217.462 128.118ZM224.552 126.507C224.567 126.028 224.657 125.625 224.823 125.298C224.989 124.966 225.214 124.698 225.497 124.493C225.78 124.288 226.115 124.141 226.5 124.053C226.891 123.96 227.316 123.914 227.775 123.914C228.156 123.914 228.524 123.953 228.881 124.031C229.242 124.109 229.562 124.236 229.84 124.412C230.119 124.583 230.341 124.808 230.507 125.086C230.678 125.359 230.763 125.694 230.763 126.089V130.652C230.763 130.779 230.797 130.889 230.866 130.982C230.934 131.07 231.044 131.114 231.195 131.114C231.264 131.114 231.334 131.109 231.408 131.099C231.481 131.084 231.557 131.07 231.635 131.055V131.985C231.522 132.015 231.41 132.042 231.298 132.066C231.19 132.09 231.061 132.103 230.91 132.103C230.675 132.103 230.473 132.083 230.302 132.044C230.136 132.005 229.994 131.941 229.877 131.854C229.765 131.761 229.677 131.644 229.613 131.502C229.55 131.355 229.508 131.177 229.489 130.967C229.323 131.148 229.147 131.316 228.961 131.473C228.776 131.624 228.568 131.758 228.339 131.875C228.109 131.988 227.853 132.076 227.57 132.139C227.287 132.208 226.967 132.242 226.61 132.242C226.308 132.242 226.012 132.193 225.724 132.095C225.441 131.998 225.185 131.854 224.955 131.663C224.73 131.473 224.55 131.238 224.413 130.96C224.276 130.677 224.208 130.35 224.208 129.979C224.208 129.573 224.276 129.224 224.413 128.931C224.55 128.633 224.728 128.387 224.948 128.191C225.167 127.991 225.419 127.837 225.702 127.73C225.985 127.623 226.273 127.552 226.566 127.518L228.771 127.247C228.981 127.222 229.145 127.142 229.262 127.005C229.384 126.863 229.445 126.639 229.445 126.331C229.445 125.857 229.289 125.518 228.976 125.313C228.668 125.103 228.224 124.998 227.643 124.998C227.047 124.998 226.603 125.125 226.31 125.379C226.017 125.628 225.851 126.004 225.812 126.507H224.552ZM229.416 128.008C229.308 128.086 229.174 128.152 229.013 128.206C228.856 128.255 228.683 128.296 228.493 128.331C228.302 128.365 228.1 128.396 227.885 128.426C227.67 128.45 227.455 128.477 227.24 128.506C226.996 128.541 226.771 128.589 226.566 128.653C226.361 128.716 226.183 128.799 226.032 128.902C225.88 129.004 225.763 129.129 225.68 129.275C225.597 129.417 225.556 129.585 225.556 129.781C225.556 130.005 225.59 130.203 225.658 130.374C225.731 130.545 225.829 130.689 225.951 130.806C226.078 130.923 226.229 131.011 226.405 131.07C226.581 131.128 226.774 131.158 226.984 131.158C227.116 131.158 227.267 131.143 227.438 131.114C227.609 131.08 227.785 131.031 227.965 130.967C228.146 130.904 228.322 130.823 228.493 130.726C228.668 130.623 228.825 130.501 228.961 130.359C229.098 130.218 229.208 130.057 229.291 129.876C229.374 129.695 229.416 129.493 229.416 129.268V128.008ZM239.01 121.138C239 121.211 238.986 121.302 238.966 121.409C238.952 121.512 238.92 121.622 238.871 121.739C238.822 121.856 238.754 121.976 238.666 122.098C238.583 122.215 238.471 122.325 238.329 122.427C238.251 122.481 238.18 122.527 238.117 122.566C238.053 122.605 237.973 122.64 237.875 122.669C237.777 122.698 237.653 122.723 237.501 122.742C237.35 122.762 237.147 122.774 236.894 122.779L236.337 122.793C235.956 122.803 235.612 122.881 235.304 123.028C235.001 123.169 234.733 123.37 234.499 123.628C234.269 123.882 234.079 124.19 233.927 124.551C233.776 124.913 233.664 125.315 233.59 125.76C233.693 125.564 233.82 125.374 233.971 125.188C234.123 124.998 234.311 124.83 234.535 124.683C234.76 124.532 235.023 124.412 235.326 124.324C235.629 124.231 235.98 124.185 236.381 124.185C236.835 124.185 237.265 124.266 237.67 124.427C238.08 124.588 238.437 124.83 238.739 125.152C239.047 125.474 239.291 125.875 239.472 126.353C239.652 126.832 239.743 127.388 239.743 128.023C239.743 128.223 239.728 128.467 239.699 128.755C239.669 129.039 239.611 129.336 239.523 129.649C239.435 129.961 239.308 130.274 239.142 130.586C238.981 130.894 238.764 131.17 238.49 131.414C238.222 131.658 237.892 131.856 237.501 132.007C237.116 132.164 236.652 132.242 236.11 132.242C235.885 132.242 235.646 132.222 235.392 132.183C235.143 132.149 234.892 132.083 234.638 131.985C234.389 131.888 234.145 131.751 233.905 131.575C233.671 131.399 233.456 131.175 233.261 130.901C233.163 130.765 233.065 130.608 232.968 130.433C232.875 130.252 232.79 130.035 232.711 129.781C232.633 129.527 232.57 129.227 232.521 128.88C232.477 128.533 232.455 128.123 232.455 127.649C232.455 127.337 232.47 126.983 232.499 126.587C232.528 126.192 232.58 125.789 232.653 125.379C232.726 124.969 232.824 124.573 232.946 124.192C233.068 123.807 233.224 123.47 233.415 123.182C233.62 122.869 233.834 122.615 234.059 122.42C234.284 122.225 234.523 122.071 234.777 121.958C235.031 121.846 235.304 121.766 235.597 121.717C235.89 121.668 236.208 121.636 236.549 121.622L237.025 121.607C237.182 121.602 237.313 121.595 237.421 121.585C237.533 121.57 237.626 121.548 237.699 121.519C237.772 121.49 237.831 121.446 237.875 121.387C237.919 121.329 237.956 121.246 237.985 121.138H239.01ZM233.803 128.221C233.803 128.367 233.81 128.541 233.825 128.741C233.844 128.941 233.881 129.151 233.935 129.371C233.988 129.585 234.066 129.8 234.169 130.015C234.271 130.23 234.406 130.423 234.572 130.594C234.743 130.76 234.953 130.896 235.202 131.004C235.451 131.106 235.749 131.158 236.095 131.158C236.481 131.158 236.806 131.097 237.069 130.975C237.333 130.848 237.55 130.687 237.721 130.491C237.892 130.291 238.021 130.071 238.109 129.832C238.202 129.593 238.268 129.361 238.307 129.136C238.351 128.907 238.375 128.699 238.38 128.514C238.39 128.323 238.395 128.179 238.395 128.082C238.395 127.725 238.354 127.376 238.271 127.034C238.192 126.692 238.063 126.39 237.882 126.126C237.707 125.862 237.475 125.65 237.187 125.489C236.903 125.328 236.554 125.247 236.139 125.247C235.734 125.247 235.385 125.328 235.092 125.489C234.799 125.645 234.557 125.86 234.367 126.133C234.176 126.402 234.035 126.717 233.942 127.078C233.849 127.435 233.803 127.815 233.803 128.221ZM246.745 128.067C246.745 127.632 246.696 127.234 246.598 126.873C246.5 126.507 246.354 126.192 246.159 125.928C245.963 125.665 245.722 125.459 245.434 125.313C245.15 125.162 244.821 125.086 244.445 125.086C244.069 125.086 243.739 125.162 243.456 125.313C243.173 125.459 242.934 125.665 242.738 125.928C242.543 126.192 242.396 126.507 242.299 126.873C242.201 127.234 242.152 127.632 242.152 128.067C242.152 128.506 242.201 128.912 242.299 129.283C242.396 129.649 242.543 129.964 242.738 130.228C242.934 130.491 243.173 130.699 243.456 130.85C243.739 130.997 244.069 131.07 244.445 131.07C244.821 131.07 245.15 130.997 245.434 130.85C245.722 130.699 245.963 130.491 246.159 130.228C246.354 129.964 246.5 129.649 246.598 129.283C246.696 128.912 246.745 128.506 246.745 128.067ZM248.092 128.067C248.092 128.711 248.009 129.292 247.843 129.81C247.677 130.323 247.438 130.76 247.125 131.121C246.813 131.482 246.43 131.761 245.976 131.956C245.526 132.146 245.016 132.242 244.445 132.242C243.874 132.242 243.363 132.146 242.914 131.956C242.465 131.761 242.084 131.482 241.771 131.121C241.459 130.76 241.22 130.323 241.054 129.81C240.888 129.292 240.805 128.711 240.805 128.067C240.805 127.432 240.888 126.858 241.054 126.346C241.22 125.833 241.459 125.396 241.771 125.035C242.084 124.673 242.465 124.397 242.914 124.207C243.363 124.012 243.874 123.914 244.445 123.914C245.016 123.914 245.526 124.012 245.976 124.207C246.43 124.397 246.813 124.673 247.125 125.035C247.438 125.396 247.677 125.833 247.843 126.346C248.009 126.858 248.092 127.432 248.092 128.067ZM251.703 125.328H249V124.156H255.753V125.328H253.051V132H251.703V125.328ZM264.616 124.156H265.963V132H264.616V124.156ZM257.116 124.156H258.463V127.107H260.822C261.247 127.107 261.627 127.166 261.964 127.283C262.306 127.396 262.594 127.559 262.829 127.774C263.063 127.984 263.241 128.24 263.363 128.543C263.49 128.841 263.554 129.178 263.554 129.554C263.554 129.935 263.49 130.276 263.363 130.579C263.241 130.877 263.063 131.133 262.829 131.348C262.594 131.558 262.306 131.719 261.964 131.832C261.627 131.944 261.247 132 260.822 132H257.116V124.156ZM258.463 130.923H260.551C260.785 130.923 261.002 130.899 261.203 130.85C261.408 130.801 261.583 130.723 261.73 130.616C261.876 130.503 261.991 130.362 262.074 130.191C262.157 130.015 262.199 129.803 262.199 129.554C262.199 129.31 262.155 129.102 262.067 128.931C261.984 128.76 261.864 128.621 261.708 128.514C261.557 128.401 261.371 128.321 261.151 128.272C260.937 128.218 260.697 128.191 260.434 128.191H258.463V130.923ZM268.629 124.258H270.16V125.855H268.629V124.258ZM268.629 130.403H270.16V132H268.629V130.403Z" fill="#E8E8E8"/>
</svg>
