<svg width="1386" height="238" viewBox="0 0 1386 238" fill="none" xmlns="http://www.w3.org/2000/svg">
<rect width="1386" height="238" fill="#3D3D3D"/>
<path d="M1270.58 115.449H1278.38V117.324H1272.74V128H1270.58V115.449ZM1289.03 121.707C1289.03 121.012 1288.95 120.375 1288.79 119.797C1288.64 119.211 1288.4 118.707 1288.09 118.285C1287.78 117.863 1287.39 117.535 1286.93 117.301C1286.48 117.059 1285.95 116.938 1285.35 116.938C1284.75 116.938 1284.22 117.059 1283.77 117.301C1283.31 117.535 1282.93 117.863 1282.62 118.285C1282.3 118.707 1282.07 119.211 1281.91 119.797C1281.76 120.375 1281.68 121.012 1281.68 121.707C1281.68 122.41 1281.76 123.059 1281.91 123.652C1282.07 124.238 1282.3 124.742 1282.62 125.164C1282.93 125.586 1283.31 125.918 1283.77 126.16C1284.22 126.395 1284.75 126.512 1285.35 126.512C1285.95 126.512 1286.48 126.395 1286.93 126.16C1287.39 125.918 1287.78 125.586 1288.09 125.164C1288.4 124.742 1288.64 124.238 1288.79 123.652C1288.95 123.059 1289.03 122.41 1289.03 121.707ZM1291.18 121.707C1291.18 122.738 1291.05 123.668 1290.79 124.496C1290.52 125.316 1290.14 126.016 1289.64 126.594C1289.14 127.172 1288.52 127.617 1287.8 127.93C1287.08 128.234 1286.26 128.387 1285.35 128.387C1284.43 128.387 1283.62 128.234 1282.9 127.93C1282.18 127.617 1281.57 127.172 1281.07 126.594C1280.57 126.016 1280.19 125.316 1279.92 124.496C1279.66 123.668 1279.52 122.738 1279.52 121.707C1279.52 120.691 1279.66 119.773 1279.92 118.953C1280.19 118.133 1280.57 117.434 1281.07 116.855C1281.57 116.277 1282.18 115.836 1282.9 115.531C1283.62 115.219 1284.43 115.062 1285.35 115.062C1286.26 115.062 1287.08 115.219 1287.8 115.531C1288.52 115.836 1289.14 116.277 1289.64 116.855C1290.14 117.434 1290.52 118.133 1290.79 118.953C1291.05 119.773 1291.18 120.691 1291.18 121.707ZM1304.09 128H1294.38V131.07H1292.37V126.125H1294.02C1294.36 125.281 1294.64 124.422 1294.84 123.547C1295.04 122.664 1295.2 121.777 1295.31 120.887C1295.42 119.988 1295.49 119.086 1295.52 118.18C1295.55 117.273 1295.57 116.363 1295.57 115.449H1304.33V126.125H1306.1V131.07H1304.09V128ZM1302.18 126.125V117.324H1297.63C1297.57 118.035 1297.52 118.766 1297.45 119.516C1297.4 120.266 1297.32 121.02 1297.22 121.777C1297.12 122.527 1297 123.27 1296.83 124.004C1296.68 124.738 1296.47 125.445 1296.21 126.125H1302.18Z" fill="#E8E8E8"/>
<path d="M86.8984 118.898L84.2734 111.234L81.3672 118.898H86.8984ZM76.4219 126L82.8789 108.504H85.6797L91.9258 126H89.3711L87.5547 120.727H80.7812L78.8594 126H76.4219ZM93.7539 113.449H95.9102V115.172H95.957C96.0977 114.883 96.2734 114.609 96.4844 114.352C96.7031 114.094 96.9609 113.871 97.2578 113.684C97.5625 113.488 97.9102 113.336 98.3008 113.227C98.6992 113.117 99.1523 113.062 99.6602 113.062C100.332 113.062 100.977 113.191 101.594 113.449C102.211 113.707 102.758 114.094 103.234 114.609C103.711 115.125 104.09 115.773 104.371 116.555C104.652 117.328 104.793 118.23 104.793 119.262C104.793 120.551 104.66 121.648 104.395 122.555C104.137 123.453 103.766 124.188 103.281 124.758C102.805 125.328 102.227 125.742 101.547 126C100.867 126.258 100.109 126.387 99.2734 126.387C98.8594 126.387 98.4727 126.332 98.1133 126.223C97.7539 126.113 97.4297 125.973 97.1406 125.801C96.8594 125.621 96.6172 125.426 96.4141 125.215C96.2109 124.996 96.0586 124.785 95.957 124.582H95.9102V130.945H93.7539V113.449ZM95.8633 119.789C95.8633 120.469 95.9297 121.098 96.0625 121.676C96.1953 122.246 96.3984 122.742 96.6719 123.164C96.9531 123.586 97.3008 123.918 97.7148 124.16C98.1367 124.395 98.6328 124.512 99.2031 124.512C99.7969 124.512 100.309 124.395 100.738 124.16C101.176 123.918 101.535 123.586 101.816 123.164C102.098 122.742 102.305 122.246 102.438 121.676C102.57 121.098 102.637 120.469 102.637 119.789C102.637 119.078 102.57 118.426 102.438 117.832C102.305 117.238 102.098 116.727 101.816 116.297C101.535 115.867 101.176 115.535 100.738 115.301C100.309 115.059 99.7969 114.938 99.2031 114.938C98.6328 114.938 98.1367 115.059 97.7148 115.301C97.3008 115.535 96.9531 115.867 96.6719 116.297C96.3984 116.727 96.1953 117.238 96.0625 117.832C95.9297 118.426 95.8633 119.078 95.8633 119.789ZM107.23 113.449H109.387V123.07H109.434L115.598 113.449H118.07V126H115.902V116.379H115.855L109.703 126H107.23V113.449ZM121.246 113.449H123.402V118.512H129.262V113.449H131.43V126H129.262V120.387H123.402V126H121.246V113.449ZM134.582 117.211C134.605 116.445 134.75 115.801 135.016 115.277C135.281 114.746 135.641 114.316 136.094 113.988C136.547 113.66 137.082 113.426 137.699 113.285C138.324 113.137 139.004 113.062 139.738 113.062C140.348 113.062 140.938 113.125 141.508 113.25C142.086 113.375 142.598 113.578 143.043 113.859C143.488 114.133 143.844 114.492 144.109 114.938C144.383 115.375 144.52 115.91 144.52 116.543V123.844C144.52 124.047 144.574 124.223 144.684 124.371C144.793 124.512 144.969 124.582 145.211 124.582C145.32 124.582 145.434 124.574 145.551 124.559C145.668 124.535 145.789 124.512 145.914 124.488V125.977C145.734 126.023 145.555 126.066 145.375 126.105C145.203 126.145 144.996 126.164 144.754 126.164C144.379 126.164 144.055 126.133 143.781 126.07C143.516 126.008 143.289 125.906 143.102 125.766C142.922 125.617 142.781 125.43 142.68 125.203C142.578 124.969 142.512 124.684 142.48 124.348C142.215 124.637 141.934 124.906 141.637 125.156C141.34 125.398 141.008 125.613 140.641 125.801C140.273 125.98 139.863 126.121 139.41 126.223C138.957 126.332 138.445 126.387 137.875 126.387C137.391 126.387 136.918 126.309 136.457 126.152C136.004 125.996 135.594 125.766 135.227 125.461C134.867 125.156 134.578 124.781 134.359 124.336C134.141 123.883 134.031 123.359 134.031 122.766C134.031 122.117 134.141 121.559 134.359 121.09C134.578 120.613 134.863 120.219 135.215 119.906C135.566 119.586 135.969 119.34 136.422 119.168C136.875 118.996 137.336 118.883 137.805 118.828L141.332 118.395C141.668 118.355 141.93 118.227 142.117 118.008C142.312 117.781 142.41 117.422 142.41 116.93C142.41 116.172 142.16 115.629 141.66 115.301C141.168 114.965 140.457 114.797 139.527 114.797C138.574 114.797 137.863 115 137.395 115.406C136.926 115.805 136.66 116.406 136.598 117.211H134.582ZM142.363 119.613C142.191 119.738 141.977 119.844 141.719 119.93C141.469 120.008 141.191 120.074 140.887 120.129C140.582 120.184 140.258 120.234 139.914 120.281C139.57 120.32 139.227 120.363 138.883 120.41C138.492 120.465 138.133 120.543 137.805 120.645C137.477 120.746 137.191 120.879 136.949 121.043C136.707 121.207 136.52 121.406 136.387 121.641C136.254 121.867 136.188 122.137 136.188 122.449C136.188 122.809 136.242 123.125 136.352 123.398C136.469 123.672 136.625 123.902 136.82 124.09C137.023 124.277 137.266 124.418 137.547 124.512C137.828 124.605 138.137 124.652 138.473 124.652C138.684 124.652 138.926 124.629 139.199 124.582C139.473 124.527 139.754 124.449 140.043 124.348C140.332 124.246 140.613 124.117 140.887 123.961C141.168 123.797 141.418 123.602 141.637 123.375C141.855 123.148 142.031 122.891 142.164 122.602C142.297 122.312 142.363 121.988 142.363 121.629V119.613ZM154.844 108.773H158.148L163.023 123.27H163.07L167.945 108.773H171.25V126H169.094V111.504H169.047L164.195 126H161.898L157.047 111.504H157V126H154.844V108.773ZM174.613 117.211C174.637 116.445 174.781 115.801 175.047 115.277C175.312 114.746 175.672 114.316 176.125 113.988C176.578 113.66 177.113 113.426 177.73 113.285C178.355 113.137 179.035 113.062 179.77 113.062C180.379 113.062 180.969 113.125 181.539 113.25C182.117 113.375 182.629 113.578 183.074 113.859C183.52 114.133 183.875 114.492 184.141 114.938C184.414 115.375 184.551 115.91 184.551 116.543V123.844C184.551 124.047 184.605 124.223 184.715 124.371C184.824 124.512 185 124.582 185.242 124.582C185.352 124.582 185.465 124.574 185.582 124.559C185.699 124.535 185.82 124.512 185.945 124.488V125.977C185.766 126.023 185.586 126.066 185.406 126.105C185.234 126.145 185.027 126.164 184.785 126.164C184.41 126.164 184.086 126.133 183.812 126.07C183.547 126.008 183.32 125.906 183.133 125.766C182.953 125.617 182.812 125.43 182.711 125.203C182.609 124.969 182.543 124.684 182.512 124.348C182.246 124.637 181.965 124.906 181.668 125.156C181.371 125.398 181.039 125.613 180.672 125.801C180.305 125.98 179.895 126.121 179.441 126.223C178.988 126.332 178.477 126.387 177.906 126.387C177.422 126.387 176.949 126.309 176.488 126.152C176.035 125.996 175.625 125.766 175.258 125.461C174.898 125.156 174.609 124.781 174.391 124.336C174.172 123.883 174.062 123.359 174.062 122.766C174.062 122.117 174.172 121.559 174.391 121.09C174.609 120.613 174.895 120.219 175.246 119.906C175.598 119.586 176 119.34 176.453 119.168C176.906 118.996 177.367 118.883 177.836 118.828L181.363 118.395C181.699 118.355 181.961 118.227 182.148 118.008C182.344 117.781 182.441 117.422 182.441 116.93C182.441 116.172 182.191 115.629 181.691 115.301C181.199 114.965 180.488 114.797 179.559 114.797C178.605 114.797 177.895 115 177.426 115.406C176.957 115.805 176.691 116.406 176.629 117.211H174.613ZM182.395 119.613C182.223 119.738 182.008 119.844 181.75 119.93C181.5 120.008 181.223 120.074 180.918 120.129C180.613 120.184 180.289 120.234 179.945 120.281C179.602 120.32 179.258 120.363 178.914 120.41C178.523 120.465 178.164 120.543 177.836 120.645C177.508 120.746 177.223 120.879 176.98 121.043C176.738 121.207 176.551 121.406 176.418 121.641C176.285 121.867 176.219 122.137 176.219 122.449C176.219 122.809 176.273 123.125 176.383 123.398C176.5 123.672 176.656 123.902 176.852 124.09C177.055 124.277 177.297 124.418 177.578 124.512C177.859 124.605 178.168 124.652 178.504 124.652C178.715 124.652 178.957 124.629 179.23 124.582C179.504 124.527 179.785 124.449 180.074 124.348C180.363 124.246 180.645 124.117 180.918 123.961C181.199 123.797 181.449 123.602 181.668 123.375C181.887 123.148 182.062 122.891 182.195 122.602C182.328 122.312 182.395 121.988 182.395 121.629V119.613ZM187.879 113.449H190.035V115.172H190.082C190.223 114.883 190.398 114.609 190.609 114.352C190.828 114.094 191.086 113.871 191.383 113.684C191.688 113.488 192.035 113.336 192.426 113.227C192.824 113.117 193.277 113.062 193.785 113.062C194.457 113.062 195.102 113.191 195.719 113.449C196.336 113.707 196.883 114.094 197.359 114.609C197.836 115.125 198.215 115.773 198.496 116.555C198.777 117.328 198.918 118.23 198.918 119.262C198.918 120.551 198.785 121.648 198.52 122.555C198.262 123.453 197.891 124.188 197.406 124.758C196.93 125.328 196.352 125.742 195.672 126C194.992 126.258 194.234 126.387 193.398 126.387C192.984 126.387 192.598 126.332 192.238 126.223C191.879 126.113 191.555 125.973 191.266 125.801C190.984 125.621 190.742 125.426 190.539 125.215C190.336 124.996 190.184 124.785 190.082 124.582H190.035V130.945H187.879V113.449ZM189.988 119.789C189.988 120.469 190.055 121.098 190.188 121.676C190.32 122.246 190.523 122.742 190.797 123.164C191.078 123.586 191.426 123.918 191.84 124.16C192.262 124.395 192.758 124.512 193.328 124.512C193.922 124.512 194.434 124.395 194.863 124.16C195.301 123.918 195.66 123.586 195.941 123.164C196.223 122.742 196.43 122.246 196.562 121.676C196.695 121.098 196.762 120.469 196.762 119.789C196.762 119.078 196.695 118.426 196.562 117.832C196.43 117.238 196.223 116.727 195.941 116.297C195.66 115.867 195.301 115.535 194.863 115.301C194.434 115.059 193.922 114.938 193.328 114.938C192.758 114.938 192.262 115.059 191.84 115.301C191.426 115.535 191.078 115.867 190.797 116.297C190.523 116.727 190.32 117.238 190.188 117.832C190.055 118.426 189.988 119.078 189.988 119.789ZM201.355 113.449H203.512V123.07H203.559L209.723 113.449H212.195V126H210.027V116.379H209.98L203.828 126H201.355V113.449ZM215.371 113.449H217.527V118.512H223.387V113.449H225.555V126H223.387V120.387H217.527V126H215.371V113.449ZM237.496 119.707C237.496 119.012 237.418 118.375 237.262 117.797C237.105 117.211 236.871 116.707 236.559 116.285C236.246 115.863 235.859 115.535 235.398 115.301C234.945 115.059 234.418 114.938 233.816 114.938C233.215 114.938 232.688 115.059 232.234 115.301C231.781 115.535 231.398 115.863 231.086 116.285C230.773 116.707 230.539 117.211 230.383 117.797C230.227 118.375 230.148 119.012 230.148 119.707C230.148 120.41 230.227 121.059 230.383 121.652C230.539 122.238 230.773 122.742 231.086 123.164C231.398 123.586 231.781 123.918 232.234 124.16C232.688 124.395 233.215 124.512 233.816 124.512C234.418 124.512 234.945 124.395 235.398 124.16C235.859 123.918 236.246 123.586 236.559 123.164C236.871 122.742 237.105 122.238 237.262 121.652C237.418 121.059 237.496 120.41 237.496 119.707ZM239.652 119.707C239.652 120.738 239.52 121.668 239.254 122.496C238.988 123.316 238.605 124.016 238.105 124.594C237.605 125.172 236.992 125.617 236.266 125.93C235.547 126.234 234.73 126.387 233.816 126.387C232.902 126.387 232.086 126.234 231.367 125.93C230.648 125.617 230.039 125.172 229.539 124.594C229.039 124.016 228.656 123.316 228.391 122.496C228.125 121.668 227.992 120.738 227.992 119.707C227.992 118.691 228.125 117.773 228.391 116.953C228.656 116.133 229.039 115.434 229.539 114.855C230.039 114.277 230.648 113.836 231.367 113.531C232.086 113.219 232.902 113.062 233.816 113.062C234.73 113.062 235.547 113.219 236.266 113.531C236.992 113.836 237.605 114.277 238.105 114.855C238.605 115.434 238.988 116.133 239.254 116.953C239.52 117.773 239.652 118.691 239.652 119.707ZM242.09 113.449H247.434C248.965 113.449 250.109 113.734 250.867 114.305C251.633 114.875 252.016 115.703 252.016 116.789C252.016 117.367 251.875 117.855 251.594 118.254C251.312 118.652 250.941 119.004 250.48 119.309C251.145 119.559 251.672 119.918 252.062 120.387C252.453 120.855 252.648 121.461 252.648 122.203C252.648 122.789 252.551 123.316 252.355 123.785C252.16 124.254 251.863 124.652 251.465 124.98C251.066 125.309 250.559 125.562 249.941 125.742C249.332 125.914 248.609 126 247.773 126H242.09V113.449ZM244.246 124.277H247.527C248.098 124.277 248.57 124.234 248.945 124.148C249.328 124.055 249.633 123.922 249.859 123.75C250.086 123.578 250.246 123.371 250.34 123.129C250.434 122.887 250.48 122.613 250.48 122.309C250.48 122.004 250.434 121.73 250.34 121.488C250.246 121.238 250.086 121.031 249.859 120.867C249.633 120.695 249.328 120.566 248.945 120.48C248.57 120.387 248.098 120.34 247.527 120.34H244.246V124.277ZM244.246 118.758H247.504C248.23 118.758 248.805 118.613 249.227 118.324C249.648 118.035 249.859 117.586 249.859 116.977C249.859 116.633 249.801 116.348 249.684 116.121C249.566 115.887 249.41 115.699 249.215 115.559C249.02 115.418 248.797 115.32 248.547 115.266C248.305 115.203 248.055 115.172 247.797 115.172H244.246V118.758ZM255.215 117.211C255.238 116.445 255.383 115.801 255.648 115.277C255.914 114.746 256.273 114.316 256.727 113.988C257.18 113.66 257.715 113.426 258.332 113.285C258.957 113.137 259.637 113.062 260.371 113.062C260.98 113.062 261.57 113.125 262.141 113.25C262.719 113.375 263.23 113.578 263.676 113.859C264.121 114.133 264.477 114.492 264.742 114.938C265.016 115.375 265.152 115.91 265.152 116.543V123.844C265.152 124.047 265.207 124.223 265.316 124.371C265.426 124.512 265.602 124.582 265.844 124.582C265.953 124.582 266.066 124.574 266.184 124.559C266.301 124.535 266.422 124.512 266.547 124.488V125.977C266.367 126.023 266.188 126.066 266.008 126.105C265.836 126.145 265.629 126.164 265.387 126.164C265.012 126.164 264.688 126.133 264.414 126.07C264.148 126.008 263.922 125.906 263.734 125.766C263.555 125.617 263.414 125.43 263.312 125.203C263.211 124.969 263.145 124.684 263.113 124.348C262.848 124.637 262.566 124.906 262.27 125.156C261.973 125.398 261.641 125.613 261.273 125.801C260.906 125.98 260.496 126.121 260.043 126.223C259.59 126.332 259.078 126.387 258.508 126.387C258.023 126.387 257.551 126.309 257.09 126.152C256.637 125.996 256.227 125.766 255.859 125.461C255.5 125.156 255.211 124.781 254.992 124.336C254.773 123.883 254.664 123.359 254.664 122.766C254.664 122.117 254.773 121.559 254.992 121.09C255.211 120.613 255.496 120.219 255.848 119.906C256.199 119.586 256.602 119.34 257.055 119.168C257.508 118.996 257.969 118.883 258.438 118.828L261.965 118.395C262.301 118.355 262.562 118.227 262.75 118.008C262.945 117.781 263.043 117.422 263.043 116.93C263.043 116.172 262.793 115.629 262.293 115.301C261.801 114.965 261.09 114.797 260.16 114.797C259.207 114.797 258.496 115 258.027 115.406C257.559 115.805 257.293 116.406 257.23 117.211H255.215ZM262.996 119.613C262.824 119.738 262.609 119.844 262.352 119.93C262.102 120.008 261.824 120.074 261.52 120.129C261.215 120.184 260.891 120.234 260.547 120.281C260.203 120.32 259.859 120.363 259.516 120.41C259.125 120.465 258.766 120.543 258.438 120.645C258.109 120.746 257.824 120.879 257.582 121.043C257.34 121.207 257.152 121.406 257.02 121.641C256.887 121.867 256.82 122.137 256.82 122.449C256.82 122.809 256.875 123.125 256.984 123.398C257.102 123.672 257.258 123.902 257.453 124.09C257.656 124.277 257.898 124.418 258.18 124.512C258.461 124.605 258.77 124.652 259.105 124.652C259.316 124.652 259.559 124.629 259.832 124.582C260.105 124.527 260.387 124.449 260.676 124.348C260.965 124.246 261.246 124.117 261.52 123.961C261.801 123.797 262.051 123.602 262.27 123.375C262.488 123.148 262.664 122.891 262.797 122.602C262.93 122.312 262.996 121.988 262.996 121.629V119.613ZM276.52 118.5H294.859V120.223H276.52V118.5ZM315.824 121.582C315.793 121.887 315.73 122.219 315.637 122.578C315.551 122.938 315.422 123.297 315.25 123.656C315.078 124.008 314.855 124.348 314.582 124.676C314.316 125.004 313.988 125.297 313.598 125.555C313.215 125.805 312.762 126.004 312.238 126.152C311.715 126.309 311.117 126.387 310.445 126.387C310.078 126.387 309.691 126.34 309.285 126.246C308.879 126.16 308.48 126.012 308.09 125.801C307.707 125.59 307.34 125.32 306.988 124.992C306.645 124.656 306.34 124.242 306.074 123.75C305.816 123.258 305.609 122.688 305.453 122.039C305.297 121.383 305.219 120.633 305.219 119.789C305.219 118.75 305.367 117.816 305.664 116.988C305.961 116.152 306.355 115.445 306.848 114.867C307.348 114.289 307.926 113.844 308.582 113.531C309.246 113.219 309.941 113.062 310.668 113.062C311.324 113.062 311.902 113.133 312.402 113.273C312.91 113.414 313.352 113.602 313.727 113.836C314.102 114.07 314.418 114.344 314.676 114.656C314.934 114.961 315.141 115.285 315.297 115.629C315.461 115.965 315.582 116.309 315.66 116.66C315.746 117.012 315.801 117.348 315.824 117.668H313.809C313.699 116.816 313.402 116.148 312.918 115.664C312.441 115.18 311.77 114.938 310.902 114.938C310.309 114.938 309.789 115.059 309.344 115.301C308.906 115.543 308.539 115.883 308.242 116.32C307.953 116.75 307.734 117.273 307.586 117.891C307.445 118.5 307.375 119.172 307.375 119.906C307.375 120.734 307.453 121.449 307.609 122.051C307.766 122.645 307.988 123.137 308.277 123.527C308.566 123.91 308.918 124.195 309.332 124.383C309.754 124.562 310.23 124.652 310.762 124.652C311.137 124.652 311.492 124.586 311.828 124.453C312.164 124.312 312.465 124.113 312.73 123.855C312.996 123.59 313.223 123.266 313.41 122.883C313.598 122.5 313.73 122.066 313.809 121.582H315.824ZM317.957 113.449H320.113V124.125H325.973V113.449H328.141V124.125H329.688V129.07H327.672V126H317.957V113.449ZM342.355 121.992C342.27 122.539 342.082 123.074 341.793 123.598C341.504 124.121 341.125 124.59 340.656 125.004C340.188 125.418 339.633 125.75 338.992 126C338.359 126.258 337.656 126.387 336.883 126.387C336.039 126.387 335.258 126.25 334.539 125.977C333.828 125.695 333.211 125.277 332.688 124.723C332.172 124.16 331.766 123.457 331.469 122.613C331.172 121.77 331.023 120.777 331.023 119.637C331.023 118.871 331.105 118.18 331.27 117.562C331.441 116.938 331.668 116.383 331.949 115.898C332.238 115.406 332.57 114.984 332.945 114.633C333.32 114.273 333.715 113.98 334.129 113.754C334.551 113.52 334.98 113.348 335.418 113.238C335.855 113.121 336.277 113.062 336.684 113.062C337.543 113.062 338.328 113.191 339.039 113.449C339.75 113.707 340.359 114.102 340.867 114.633C341.383 115.156 341.781 115.816 342.062 116.613C342.352 117.402 342.496 118.332 342.496 119.402V120.48H333.32C333.328 121.09 333.414 121.645 333.578 122.145C333.742 122.637 333.977 123.059 334.281 123.41C334.586 123.762 334.953 124.035 335.383 124.23C335.82 124.418 336.312 124.512 336.859 124.512C337.414 124.512 337.883 124.434 338.266 124.277C338.648 124.121 338.969 123.922 339.227 123.68C339.484 123.438 339.691 123.168 339.848 122.871C340.012 122.574 340.148 122.281 340.258 121.992H342.355ZM340.328 118.758C340.312 118.148 340.219 117.605 340.047 117.129C339.883 116.652 339.648 116.254 339.344 115.934C339.047 115.605 338.688 115.359 338.266 115.195C337.844 115.023 337.375 114.938 336.859 114.938C336.367 114.938 335.914 115.035 335.5 115.23C335.086 115.418 334.723 115.684 334.41 116.027C334.098 116.363 333.848 116.766 333.66 117.234C333.473 117.695 333.359 118.203 333.32 118.758H340.328ZM345.027 113.449H347.184V118.512H353.043V113.449H355.211V126H353.043V120.387H347.184V126H345.027V113.449ZM358.363 117.211C358.387 116.445 358.531 115.801 358.797 115.277C359.062 114.746 359.422 114.316 359.875 113.988C360.328 113.66 360.863 113.426 361.48 113.285C362.105 113.137 362.785 113.062 363.52 113.062C364.129 113.062 364.719 113.125 365.289 113.25C365.867 113.375 366.379 113.578 366.824 113.859C367.27 114.133 367.625 114.492 367.891 114.938C368.164 115.375 368.301 115.91 368.301 116.543V123.844C368.301 124.047 368.355 124.223 368.465 124.371C368.574 124.512 368.75 124.582 368.992 124.582C369.102 124.582 369.215 124.574 369.332 124.559C369.449 124.535 369.57 124.512 369.695 124.488V125.977C369.516 126.023 369.336 126.066 369.156 126.105C368.984 126.145 368.777 126.164 368.535 126.164C368.16 126.164 367.836 126.133 367.562 126.07C367.297 126.008 367.07 125.906 366.883 125.766C366.703 125.617 366.562 125.43 366.461 125.203C366.359 124.969 366.293 124.684 366.262 124.348C365.996 124.637 365.715 124.906 365.418 125.156C365.121 125.398 364.789 125.613 364.422 125.801C364.055 125.98 363.645 126.121 363.191 126.223C362.738 126.332 362.227 126.387 361.656 126.387C361.172 126.387 360.699 126.309 360.238 126.152C359.785 125.996 359.375 125.766 359.008 125.461C358.648 125.156 358.359 124.781 358.141 124.336C357.922 123.883 357.812 123.359 357.812 122.766C357.812 122.117 357.922 121.559 358.141 121.09C358.359 120.613 358.645 120.219 358.996 119.906C359.348 119.586 359.75 119.34 360.203 119.168C360.656 118.996 361.117 118.883 361.586 118.828L365.113 118.395C365.449 118.355 365.711 118.227 365.898 118.008C366.094 117.781 366.191 117.422 366.191 116.93C366.191 116.172 365.941 115.629 365.441 115.301C364.949 114.965 364.238 114.797 363.309 114.797C362.355 114.797 361.645 115 361.176 115.406C360.707 115.805 360.441 116.406 360.379 117.211H358.363ZM366.145 119.613C365.973 119.738 365.758 119.844 365.5 119.93C365.25 120.008 364.973 120.074 364.668 120.129C364.363 120.184 364.039 120.234 363.695 120.281C363.352 120.32 363.008 120.363 362.664 120.41C362.273 120.465 361.914 120.543 361.586 120.645C361.258 120.746 360.973 120.879 360.73 121.043C360.488 121.207 360.301 121.406 360.168 121.641C360.035 121.867 359.969 122.137 359.969 122.449C359.969 122.809 360.023 123.125 360.133 123.398C360.25 123.672 360.406 123.902 360.602 124.09C360.805 124.277 361.047 124.418 361.328 124.512C361.609 124.605 361.918 124.652 362.254 124.652C362.465 124.652 362.707 124.629 362.98 124.582C363.254 124.527 363.535 124.449 363.824 124.348C364.113 124.246 364.395 124.117 364.668 123.961C364.949 123.797 365.199 123.602 365.418 123.375C365.637 123.148 365.812 122.891 365.945 122.602C366.078 122.312 366.145 121.988 366.145 121.629V119.613ZM371.629 113.449H373.785V115.172H373.832C373.973 114.883 374.148 114.609 374.359 114.352C374.578 114.094 374.836 113.871 375.133 113.684C375.438 113.488 375.785 113.336 376.176 113.227C376.574 113.117 377.027 113.062 377.535 113.062C378.207 113.062 378.852 113.191 379.469 113.449C380.086 113.707 380.633 114.094 381.109 114.609C381.586 115.125 381.965 115.773 382.246 116.555C382.527 117.328 382.668 118.23 382.668 119.262C382.668 120.551 382.535 121.648 382.27 122.555C382.012 123.453 381.641 124.188 381.156 124.758C380.68 125.328 380.102 125.742 379.422 126C378.742 126.258 377.984 126.387 377.148 126.387C376.734 126.387 376.348 126.332 375.988 126.223C375.629 126.113 375.305 125.973 375.016 125.801C374.734 125.621 374.492 125.426 374.289 125.215C374.086 124.996 373.934 124.785 373.832 124.582H373.785V130.945H371.629V113.449ZM373.738 119.789C373.738 120.469 373.805 121.098 373.938 121.676C374.07 122.246 374.273 122.742 374.547 123.164C374.828 123.586 375.176 123.918 375.59 124.16C376.012 124.395 376.508 124.512 377.078 124.512C377.672 124.512 378.184 124.395 378.613 124.16C379.051 123.918 379.41 123.586 379.691 123.164C379.973 122.742 380.18 122.246 380.312 121.676C380.445 121.098 380.512 120.469 380.512 119.789C380.512 119.078 380.445 118.426 380.312 117.832C380.18 117.238 379.973 116.727 379.691 116.297C379.41 115.867 379.051 115.535 378.613 115.301C378.184 115.059 377.672 114.938 377.078 114.938C376.508 114.938 376.012 115.059 375.59 115.301C375.176 115.535 374.828 115.867 374.547 116.297C374.273 116.727 374.07 117.238 373.938 117.832C373.805 118.426 373.738 119.078 373.738 119.789ZM385.105 113.449H387.262V123.07H387.309L393.473 113.449H395.945V126H393.777V116.379H393.73L387.578 126H385.105V113.449ZM408.988 121.582C408.957 121.887 408.895 122.219 408.801 122.578C408.715 122.938 408.586 123.297 408.414 123.656C408.242 124.008 408.02 124.348 407.746 124.676C407.48 125.004 407.152 125.297 406.762 125.555C406.379 125.805 405.926 126.004 405.402 126.152C404.879 126.309 404.281 126.387 403.609 126.387C403.242 126.387 402.855 126.34 402.449 126.246C402.043 126.16 401.645 126.012 401.254 125.801C400.871 125.59 400.504 125.32 400.152 124.992C399.809 124.656 399.504 124.242 399.238 123.75C398.98 123.258 398.773 122.688 398.617 122.039C398.461 121.383 398.383 120.633 398.383 119.789C398.383 118.75 398.531 117.816 398.828 116.988C399.125 116.152 399.52 115.445 400.012 114.867C400.512 114.289 401.09 113.844 401.746 113.531C402.41 113.219 403.105 113.062 403.832 113.062C404.488 113.062 405.066 113.133 405.566 113.273C406.074 113.414 406.516 113.602 406.891 113.836C407.266 114.07 407.582 114.344 407.84 114.656C408.098 114.961 408.305 115.285 408.461 115.629C408.625 115.965 408.746 116.309 408.824 116.66C408.91 117.012 408.965 117.348 408.988 117.668H406.973C406.863 116.816 406.566 116.148 406.082 115.664C405.605 115.18 404.934 114.938 404.066 114.938C403.473 114.938 402.953 115.059 402.508 115.301C402.07 115.543 401.703 115.883 401.406 116.32C401.117 116.75 400.898 117.273 400.75 117.891C400.609 118.5 400.539 119.172 400.539 119.906C400.539 120.734 400.617 121.449 400.773 122.051C400.93 122.645 401.152 123.137 401.441 123.527C401.73 123.91 402.082 124.195 402.496 124.383C402.918 124.562 403.395 124.652 403.926 124.652C404.301 124.652 404.656 124.586 404.992 124.453C405.328 124.312 405.629 124.113 405.895 123.855C406.16 123.59 406.387 123.266 406.574 122.883C406.762 122.5 406.895 122.066 406.973 121.582H408.988ZM414.461 115.324H410.137V113.449H420.941V115.324H416.617V126H414.461V115.324ZM423.531 128.449C424.07 128.355 424.449 127.977 424.668 127.312C424.785 126.961 424.844 126.621 424.844 126.293C424.844 126.238 424.84 126.188 424.832 126.141C424.832 126.102 424.824 126.055 424.809 126H423.531V123.445H426.039V125.812C426.039 126.742 425.852 127.559 425.477 128.262C425.102 128.965 424.453 129.398 423.531 129.562V128.449ZM436.48 113.449H438.637V119.52L444.977 113.449H447.801L441.906 118.992L447.895 126H445.117L440.219 120.305L438.637 121.629V126H436.48V113.449ZM449.512 113.449H451.668V115.172H451.715C451.855 114.883 452.031 114.609 452.242 114.352C452.461 114.094 452.719 113.871 453.016 113.684C453.32 113.488 453.668 113.336 454.059 113.227C454.457 113.117 454.91 113.062 455.418 113.062C456.09 113.062 456.734 113.191 457.352 113.449C457.969 113.707 458.516 114.094 458.992 114.609C459.469 115.125 459.848 115.773 460.129 116.555C460.41 117.328 460.551 118.23 460.551 119.262C460.551 120.551 460.418 121.648 460.152 122.555C459.895 123.453 459.523 124.188 459.039 124.758C458.562 125.328 457.984 125.742 457.305 126C456.625 126.258 455.867 126.387 455.031 126.387C454.617 126.387 454.23 126.332 453.871 126.223C453.512 126.113 453.188 125.973 452.898 125.801C452.617 125.621 452.375 125.426 452.172 125.215C451.969 124.996 451.816 124.785 451.715 124.582H451.668V130.945H449.512V113.449ZM451.621 119.789C451.621 120.469 451.688 121.098 451.82 121.676C451.953 122.246 452.156 122.742 452.43 123.164C452.711 123.586 453.059 123.918 453.473 124.16C453.895 124.395 454.391 124.512 454.961 124.512C455.555 124.512 456.066 124.395 456.496 124.16C456.934 123.918 457.293 123.586 457.574 123.164C457.855 122.742 458.062 122.246 458.195 121.676C458.328 121.098 458.395 120.469 458.395 119.789C458.395 119.078 458.328 118.426 458.195 117.832C458.062 117.238 457.855 116.727 457.574 116.297C457.293 115.867 456.934 115.535 456.496 115.301C456.066 115.059 455.555 114.938 454.961 114.938C454.391 114.938 453.895 115.059 453.473 115.301C453.059 115.535 452.711 115.867 452.43 116.297C452.156 116.727 451.953 117.238 451.82 117.832C451.688 118.426 451.621 119.078 451.621 119.789ZM473.676 121.992C473.59 122.539 473.402 123.074 473.113 123.598C472.824 124.121 472.445 124.59 471.977 125.004C471.508 125.418 470.953 125.75 470.312 126C469.68 126.258 468.977 126.387 468.203 126.387C467.359 126.387 466.578 126.25 465.859 125.977C465.148 125.695 464.531 125.277 464.008 124.723C463.492 124.16 463.086 123.457 462.789 122.613C462.492 121.77 462.344 120.777 462.344 119.637C462.344 118.871 462.426 118.18 462.59 117.562C462.762 116.938 462.988 116.383 463.27 115.898C463.559 115.406 463.891 114.984 464.266 114.633C464.641 114.273 465.035 113.98 465.449 113.754C465.871 113.52 466.301 113.348 466.738 113.238C467.176 113.121 467.598 113.062 468.004 113.062C468.863 113.062 469.648 113.191 470.359 113.449C471.07 113.707 471.68 114.102 472.188 114.633C472.703 115.156 473.102 115.816 473.383 116.613C473.672 117.402 473.816 118.332 473.816 119.402V120.48H464.641C464.648 121.09 464.734 121.645 464.898 122.145C465.062 122.637 465.297 123.059 465.602 123.41C465.906 123.762 466.273 124.035 466.703 124.23C467.141 124.418 467.633 124.512 468.18 124.512C468.734 124.512 469.203 124.434 469.586 124.277C469.969 124.121 470.289 123.922 470.547 123.68C470.805 123.438 471.012 123.168 471.168 122.871C471.332 122.574 471.469 122.281 471.578 121.992H473.676ZM471.648 118.758C471.633 118.148 471.539 117.605 471.367 117.129C471.203 116.652 470.969 116.254 470.664 115.934C470.367 115.605 470.008 115.359 469.586 115.195C469.164 115.023 468.695 114.938 468.18 114.938C467.688 114.938 467.234 115.035 466.82 115.23C466.406 115.418 466.043 115.684 465.73 116.027C465.418 116.363 465.168 116.766 464.98 117.234C464.793 117.695 464.68 118.203 464.641 118.758H471.648ZM476.324 117.211C476.348 116.445 476.492 115.801 476.758 115.277C477.023 114.746 477.383 114.316 477.836 113.988C478.289 113.66 478.824 113.426 479.441 113.285C480.066 113.137 480.746 113.062 481.48 113.062C482.09 113.062 482.68 113.125 483.25 113.25C483.828 113.375 484.34 113.578 484.785 113.859C485.23 114.133 485.586 114.492 485.852 114.938C486.125 115.375 486.262 115.91 486.262 116.543V123.844C486.262 124.047 486.316 124.223 486.426 124.371C486.535 124.512 486.711 124.582 486.953 124.582C487.062 124.582 487.176 124.574 487.293 124.559C487.41 124.535 487.531 124.512 487.656 124.488V125.977C487.477 126.023 487.297 126.066 487.117 126.105C486.945 126.145 486.738 126.164 486.496 126.164C486.121 126.164 485.797 126.133 485.523 126.07C485.258 126.008 485.031 125.906 484.844 125.766C484.664 125.617 484.523 125.43 484.422 125.203C484.32 124.969 484.254 124.684 484.223 124.348C483.957 124.637 483.676 124.906 483.379 125.156C483.082 125.398 482.75 125.613 482.383 125.801C482.016 125.98 481.605 126.121 481.152 126.223C480.699 126.332 480.188 126.387 479.617 126.387C479.133 126.387 478.66 126.309 478.199 126.152C477.746 125.996 477.336 125.766 476.969 125.461C476.609 125.156 476.32 124.781 476.102 124.336C475.883 123.883 475.773 123.359 475.773 122.766C475.773 122.117 475.883 121.559 476.102 121.09C476.32 120.613 476.605 120.219 476.957 119.906C477.309 119.586 477.711 119.34 478.164 119.168C478.617 118.996 479.078 118.883 479.547 118.828L483.074 118.395C483.41 118.355 483.672 118.227 483.859 118.008C484.055 117.781 484.152 117.422 484.152 116.93C484.152 116.172 483.902 115.629 483.402 115.301C482.91 114.965 482.199 114.797 481.27 114.797C480.316 114.797 479.605 115 479.137 115.406C478.668 115.805 478.402 116.406 478.34 117.211H476.324ZM484.105 119.613C483.934 119.738 483.719 119.844 483.461 119.93C483.211 120.008 482.934 120.074 482.629 120.129C482.324 120.184 482 120.234 481.656 120.281C481.312 120.32 480.969 120.363 480.625 120.41C480.234 120.465 479.875 120.543 479.547 120.645C479.219 120.746 478.934 120.879 478.691 121.043C478.449 121.207 478.262 121.406 478.129 121.641C477.996 121.867 477.93 122.137 477.93 122.449C477.93 122.809 477.984 123.125 478.094 123.398C478.211 123.672 478.367 123.902 478.562 124.09C478.766 124.277 479.008 124.418 479.289 124.512C479.57 124.605 479.879 124.652 480.215 124.652C480.426 124.652 480.668 124.629 480.941 124.582C481.215 124.527 481.496 124.449 481.785 124.348C482.074 124.246 482.355 124.117 482.629 123.961C482.91 123.797 483.16 123.602 483.379 123.375C483.598 123.148 483.773 122.891 483.906 122.602C484.039 122.312 484.105 121.988 484.105 121.629V119.613ZM493.047 115.324H488.723V113.449H499.527V115.324H495.203V126H493.047V115.324ZM501.707 113.449H503.863V123.07H503.91L510.074 113.449H512.547V126H510.379V116.379H510.332L504.18 126H501.707V113.449ZM515.723 113.449H521.066C522.598 113.449 523.742 113.734 524.5 114.305C525.266 114.875 525.648 115.703 525.648 116.789C525.648 117.367 525.508 117.855 525.227 118.254C524.945 118.652 524.574 119.004 524.113 119.309C524.777 119.559 525.305 119.918 525.695 120.387C526.086 120.855 526.281 121.461 526.281 122.203C526.281 122.789 526.184 123.316 525.988 123.785C525.793 124.254 525.496 124.652 525.098 124.98C524.699 125.309 524.191 125.562 523.574 125.742C522.965 125.914 522.242 126 521.406 126H515.723V113.449ZM517.879 124.277H521.16C521.73 124.277 522.203 124.234 522.578 124.148C522.961 124.055 523.266 123.922 523.492 123.75C523.719 123.578 523.879 123.371 523.973 123.129C524.066 122.887 524.113 122.613 524.113 122.309C524.113 122.004 524.066 121.73 523.973 121.488C523.879 121.238 523.719 121.031 523.492 120.867C523.266 120.695 522.961 120.566 522.578 120.48C522.203 120.387 521.73 120.34 521.16 120.34H517.879V124.277ZM517.879 118.758H521.137C521.863 118.758 522.438 118.613 522.859 118.324C523.281 118.035 523.492 117.586 523.492 116.977C523.492 116.633 523.434 116.348 523.316 116.121C523.199 115.887 523.043 115.699 522.848 115.559C522.652 115.418 522.43 115.32 522.18 115.266C521.938 115.203 521.688 115.172 521.43 115.172H517.879V118.758ZM543.918 126H528.871V113.449H531.027V124.125H535.551V113.449H537.707V124.125H542.219V113.449H544.375V124.125H545.934V129.07H543.918V126ZM547.902 113.449H550.059V123.07H550.105L556.27 113.449H558.742V126H556.574V116.379H556.527L550.375 126H547.902V113.449ZM561.918 113.449H564.074V119.52L570.414 113.449H573.238L567.344 118.992L573.332 126H570.555L565.656 120.305L564.074 121.629V126H561.918V113.449Z" fill="#E8E8E8"/>
<path d="M974.449 123.582C974.418 123.887 974.355 124.219 974.262 124.578C974.176 124.938 974.047 125.297 973.875 125.656C973.703 126.008 973.48 126.348 973.207 126.676C972.941 127.004 972.613 127.297 972.223 127.555C971.84 127.805 971.387 128.004 970.863 128.152C970.34 128.309 969.742 128.387 969.07 128.387C968.703 128.387 968.316 128.34 967.91 128.246C967.504 128.16 967.105 128.012 966.715 127.801C966.332 127.59 965.965 127.32 965.613 126.992C965.27 126.656 964.965 126.242 964.699 125.75C964.441 125.258 964.234 124.688 964.078 124.039C963.922 123.383 963.844 122.633 963.844 121.789C963.844 120.75 963.992 119.816 964.289 118.988C964.586 118.152 964.98 117.445 965.473 116.867C965.973 116.289 966.551 115.844 967.207 115.531C967.871 115.219 968.566 115.062 969.293 115.062C969.949 115.062 970.527 115.133 971.027 115.273C971.535 115.414 971.977 115.602 972.352 115.836C972.727 116.07 973.043 116.344 973.301 116.656C973.559 116.961 973.766 117.285 973.922 117.629C974.086 117.965 974.207 118.309 974.285 118.66C974.371 119.012 974.426 119.348 974.449 119.668H972.434C972.324 118.816 972.027 118.148 971.543 117.664C971.066 117.18 970.395 116.938 969.527 116.938C968.934 116.938 968.414 117.059 967.969 117.301C967.531 117.543 967.164 117.883 966.867 118.32C966.578 118.75 966.359 119.273 966.211 119.891C966.07 120.5 966 121.172 966 121.906C966 122.734 966.078 123.449 966.234 124.051C966.391 124.645 966.613 125.137 966.902 125.527C967.191 125.91 967.543 126.195 967.957 126.383C968.379 126.562 968.855 126.652 969.387 126.652C969.762 126.652 970.117 126.586 970.453 126.453C970.789 126.312 971.09 126.113 971.355 125.855C971.621 125.59 971.848 125.266 972.035 124.883C972.223 124.5 972.355 124.066 972.434 123.582H974.449ZM979.922 117.324H975.598V115.449H986.402V117.324H982.078V128H979.922V117.324ZM988.559 119.211C988.582 118.445 988.727 117.801 988.992 117.277C989.258 116.746 989.617 116.316 990.07 115.988C990.523 115.66 991.059 115.426 991.676 115.285C992.301 115.137 992.98 115.062 993.715 115.062C994.324 115.062 994.914 115.125 995.484 115.25C996.062 115.375 996.574 115.578 997.02 115.859C997.465 116.133 997.82 116.492 998.086 116.938C998.359 117.375 998.496 117.91 998.496 118.543V125.844C998.496 126.047 998.551 126.223 998.66 126.371C998.77 126.512 998.945 126.582 999.188 126.582C999.297 126.582 999.41 126.574 999.527 126.559C999.645 126.535 999.766 126.512 999.891 126.488V127.977C999.711 128.023 999.531 128.066 999.352 128.105C999.18 128.145 998.973 128.164 998.73 128.164C998.355 128.164 998.031 128.133 997.758 128.07C997.492 128.008 997.266 127.906 997.078 127.766C996.898 127.617 996.758 127.43 996.656 127.203C996.555 126.969 996.488 126.684 996.457 126.348C996.191 126.637 995.91 126.906 995.613 127.156C995.316 127.398 994.984 127.613 994.617 127.801C994.25 127.98 993.84 128.121 993.387 128.223C992.934 128.332 992.422 128.387 991.852 128.387C991.367 128.387 990.895 128.309 990.434 128.152C989.98 127.996 989.57 127.766 989.203 127.461C988.844 127.156 988.555 126.781 988.336 126.336C988.117 125.883 988.008 125.359 988.008 124.766C988.008 124.117 988.117 123.559 988.336 123.09C988.555 122.613 988.84 122.219 989.191 121.906C989.543 121.586 989.945 121.34 990.398 121.168C990.852 120.996 991.312 120.883 991.781 120.828L995.309 120.395C995.645 120.355 995.906 120.227 996.094 120.008C996.289 119.781 996.387 119.422 996.387 118.93C996.387 118.172 996.137 117.629 995.637 117.301C995.145 116.965 994.434 116.797 993.504 116.797C992.551 116.797 991.84 117 991.371 117.406C990.902 117.805 990.637 118.406 990.574 119.211H988.559ZM996.34 121.613C996.168 121.738 995.953 121.844 995.695 121.93C995.445 122.008 995.168 122.074 994.863 122.129C994.559 122.184 994.234 122.234 993.891 122.281C993.547 122.32 993.203 122.363 992.859 122.41C992.469 122.465 992.109 122.543 991.781 122.645C991.453 122.746 991.168 122.879 990.926 123.043C990.684 123.207 990.496 123.406 990.363 123.641C990.23 123.867 990.164 124.137 990.164 124.449C990.164 124.809 990.219 125.125 990.328 125.398C990.445 125.672 990.602 125.902 990.797 126.09C991 126.277 991.242 126.418 991.523 126.512C991.805 126.605 992.113 126.652 992.449 126.652C992.66 126.652 992.902 126.629 993.176 126.582C993.449 126.527 993.73 126.449 994.02 126.348C994.309 126.246 994.59 126.117 994.863 125.961C995.145 125.797 995.395 125.602 995.613 125.375C995.832 125.148 996.008 124.891 996.141 124.602C996.273 124.312 996.34 123.988 996.34 123.629V121.613ZM1010.82 120.582H1011.91L1016.03 115.449H1018.63L1013.7 121.402L1018.82 128H1016.16L1011.91 122.293H1010.82V128H1008.67V122.293H1007.57L1003.29 128H1000.63L1005.8 121.402L1000.89 115.449H1003.5L1007.57 120.582H1008.67V115.449H1010.82V120.582ZM1027.23 115.449H1029.39V117.172H1029.43C1029.57 116.883 1029.75 116.609 1029.96 116.352C1030.18 116.094 1030.44 115.871 1030.73 115.684C1031.04 115.488 1031.39 115.336 1031.78 115.227C1032.18 115.117 1032.63 115.062 1033.14 115.062C1033.81 115.062 1034.45 115.191 1035.07 115.449C1035.69 115.707 1036.23 116.094 1036.71 116.609C1037.19 117.125 1037.57 117.773 1037.85 118.555C1038.13 119.328 1038.27 120.23 1038.27 121.262C1038.27 122.551 1038.14 123.648 1037.87 124.555C1037.61 125.453 1037.24 126.188 1036.76 126.758C1036.28 127.328 1035.7 127.742 1035.02 128C1034.34 128.258 1033.59 128.387 1032.75 128.387C1032.34 128.387 1031.95 128.332 1031.59 128.223C1031.23 128.113 1030.91 127.973 1030.62 127.801C1030.34 127.621 1030.09 127.426 1029.89 127.215C1029.69 126.996 1029.54 126.785 1029.43 126.582H1029.39V132.945H1027.23V115.449ZM1029.34 121.789C1029.34 122.469 1029.41 123.098 1029.54 123.676C1029.67 124.246 1029.88 124.742 1030.15 125.164C1030.43 125.586 1030.78 125.918 1031.19 126.16C1031.61 126.395 1032.11 126.512 1032.68 126.512C1033.27 126.512 1033.79 126.395 1034.21 126.16C1034.65 125.918 1035.01 125.586 1035.29 125.164C1035.57 124.742 1035.78 124.246 1035.91 123.676C1036.05 123.098 1036.11 122.469 1036.11 121.789C1036.11 121.078 1036.05 120.426 1035.91 119.832C1035.78 119.238 1035.57 118.727 1035.29 118.297C1035.01 117.867 1034.65 117.535 1034.21 117.301C1033.79 117.059 1033.27 116.938 1032.68 116.938C1032.11 116.938 1031.61 117.059 1031.19 117.301C1030.78 117.535 1030.43 117.867 1030.15 118.297C1029.88 118.727 1029.67 119.238 1029.54 119.832C1029.41 120.426 1029.34 121.078 1029.34 121.789ZM1040.68 119.211C1040.71 118.445 1040.85 117.801 1041.12 117.277C1041.38 116.746 1041.74 116.316 1042.2 115.988C1042.65 115.66 1043.18 115.426 1043.8 115.285C1044.43 115.137 1045.11 115.062 1045.84 115.062C1046.45 115.062 1047.04 115.125 1047.61 115.25C1048.19 115.375 1048.7 115.578 1049.14 115.859C1049.59 116.133 1049.95 116.492 1050.21 116.938C1050.48 117.375 1050.62 117.91 1050.62 118.543V125.844C1050.62 126.047 1050.68 126.223 1050.79 126.371C1050.89 126.512 1051.07 126.582 1051.31 126.582C1051.42 126.582 1051.54 126.574 1051.65 126.559C1051.77 126.535 1051.89 126.512 1052.02 126.488V127.977C1051.84 128.023 1051.66 128.066 1051.48 128.105C1051.3 128.145 1051.1 128.164 1050.86 128.164C1050.48 128.164 1050.16 128.133 1049.88 128.07C1049.62 128.008 1049.39 127.906 1049.2 127.766C1049.02 127.617 1048.88 127.43 1048.78 127.203C1048.68 126.969 1048.61 126.684 1048.58 126.348C1048.32 126.637 1048.04 126.906 1047.74 127.156C1047.44 127.398 1047.11 127.613 1046.74 127.801C1046.38 127.98 1045.96 128.121 1045.51 128.223C1045.06 128.332 1044.55 128.387 1043.98 128.387C1043.49 128.387 1043.02 128.309 1042.56 128.152C1042.11 127.996 1041.7 127.766 1041.33 127.461C1040.97 127.156 1040.68 126.781 1040.46 126.336C1040.24 125.883 1040.13 125.359 1040.13 124.766C1040.13 124.117 1040.24 123.559 1040.46 123.09C1040.68 122.613 1040.96 122.219 1041.32 121.906C1041.67 121.586 1042.07 121.34 1042.52 121.168C1042.98 120.996 1043.44 120.883 1043.91 120.828L1047.43 120.395C1047.77 120.355 1048.03 120.227 1048.22 120.008C1048.41 119.781 1048.51 119.422 1048.51 118.93C1048.51 118.172 1048.26 117.629 1047.76 117.301C1047.27 116.965 1046.56 116.797 1045.63 116.797C1044.68 116.797 1043.96 117 1043.5 117.406C1043.03 117.805 1042.76 118.406 1042.7 119.211H1040.68ZM1048.46 121.613C1048.29 121.738 1048.08 121.844 1047.82 121.93C1047.57 122.008 1047.29 122.074 1046.99 122.129C1046.68 122.184 1046.36 122.234 1046.02 122.281C1045.67 122.32 1045.33 122.363 1044.98 122.41C1044.59 122.465 1044.23 122.543 1043.91 122.645C1043.58 122.746 1043.29 122.879 1043.05 123.043C1042.81 123.207 1042.62 123.406 1042.49 123.641C1042.36 123.867 1042.29 124.137 1042.29 124.449C1042.29 124.809 1042.34 125.125 1042.45 125.398C1042.57 125.672 1042.73 125.902 1042.92 126.09C1043.12 126.277 1043.37 126.418 1043.65 126.512C1043.93 126.605 1044.24 126.652 1044.57 126.652C1044.79 126.652 1045.03 126.629 1045.3 126.582C1045.57 126.527 1045.86 126.449 1046.14 126.348C1046.43 126.246 1046.71 126.117 1046.99 125.961C1047.27 125.797 1047.52 125.602 1047.74 125.375C1047.96 125.148 1048.13 124.891 1048.27 124.602C1048.4 124.312 1048.46 123.988 1048.46 123.629V121.613ZM1063.82 110.621C1063.8 110.738 1063.78 110.883 1063.75 111.055C1063.72 111.219 1063.67 111.395 1063.59 111.582C1063.52 111.77 1063.41 111.961 1063.27 112.156C1063.13 112.344 1062.95 112.52 1062.73 112.684C1062.6 112.77 1062.49 112.844 1062.39 112.906C1062.29 112.969 1062.16 113.023 1062 113.07C1061.84 113.117 1061.64 113.156 1061.4 113.188C1061.16 113.219 1060.84 113.238 1060.43 113.246L1059.54 113.27C1058.93 113.285 1058.38 113.41 1057.89 113.645C1057.4 113.871 1056.97 114.191 1056.6 114.605C1056.23 115.012 1055.93 115.504 1055.68 116.082C1055.44 116.66 1055.26 117.305 1055.14 118.016C1055.31 117.703 1055.51 117.398 1055.75 117.102C1056 116.797 1056.3 116.527 1056.66 116.293C1057.02 116.051 1057.44 115.859 1057.92 115.719C1058.41 115.57 1058.97 115.496 1059.61 115.496C1060.34 115.496 1061.02 115.625 1061.67 115.883C1062.33 116.141 1062.9 116.527 1063.38 117.043C1063.88 117.559 1064.27 118.199 1064.55 118.965C1064.84 119.73 1064.99 120.621 1064.99 121.637C1064.99 121.957 1064.96 122.348 1064.92 122.809C1064.87 123.262 1064.78 123.738 1064.64 124.238C1064.5 124.738 1064.29 125.238 1064.03 125.738C1063.77 126.23 1063.42 126.672 1062.98 127.062C1062.55 127.453 1062.03 127.77 1061.4 128.012C1060.79 128.262 1060.04 128.387 1059.18 128.387C1058.82 128.387 1058.43 128.355 1058.03 128.293C1057.63 128.238 1057.23 128.133 1056.82 127.977C1056.42 127.82 1056.03 127.602 1055.65 127.32C1055.27 127.039 1054.93 126.68 1054.62 126.242C1054.46 126.023 1054.3 125.773 1054.15 125.492C1054 125.203 1053.86 124.855 1053.74 124.449C1053.61 124.043 1053.51 123.562 1053.43 123.008C1053.36 122.453 1053.33 121.797 1053.33 121.039C1053.33 120.539 1053.35 119.973 1053.4 119.34C1053.45 118.707 1053.53 118.062 1053.64 117.406C1053.76 116.75 1053.92 116.117 1054.11 115.508C1054.31 114.891 1054.56 114.352 1054.86 113.891C1055.19 113.391 1055.54 112.984 1055.89 112.672C1056.25 112.359 1056.64 112.113 1057.04 111.934C1057.45 111.754 1057.89 111.625 1058.36 111.547C1058.82 111.469 1059.33 111.418 1059.88 111.395L1060.64 111.371C1060.89 111.363 1061.1 111.352 1061.27 111.336C1061.45 111.312 1061.6 111.277 1061.72 111.23C1061.84 111.184 1061.93 111.113 1062 111.02C1062.07 110.926 1062.13 110.793 1062.18 110.621H1063.82ZM1055.48 121.953C1055.48 122.188 1055.5 122.465 1055.52 122.785C1055.55 123.105 1055.61 123.441 1055.7 123.793C1055.78 124.137 1055.91 124.48 1056.07 124.824C1056.23 125.168 1056.45 125.477 1056.71 125.75C1056.99 126.016 1057.32 126.234 1057.72 126.406C1058.12 126.57 1058.6 126.652 1059.15 126.652C1059.77 126.652 1060.29 126.555 1060.71 126.359C1061.13 126.156 1061.48 125.898 1061.75 125.586C1062.03 125.266 1062.23 124.914 1062.38 124.531C1062.52 124.148 1062.63 123.777 1062.69 123.418C1062.76 123.051 1062.8 122.719 1062.81 122.422C1062.82 122.117 1062.83 121.887 1062.83 121.73C1062.83 121.16 1062.77 120.602 1062.63 120.055C1062.51 119.508 1062.3 119.023 1062.01 118.602C1061.73 118.18 1061.36 117.84 1060.9 117.582C1060.45 117.324 1059.89 117.195 1059.22 117.195C1058.57 117.195 1058.02 117.324 1057.55 117.582C1057.08 117.832 1056.69 118.176 1056.39 118.613C1056.08 119.043 1055.86 119.547 1055.71 120.125C1055.56 120.695 1055.48 121.305 1055.48 121.953ZM1076.19 121.707C1076.19 121.012 1076.11 120.375 1075.96 119.797C1075.8 119.211 1075.57 118.707 1075.25 118.285C1074.94 117.863 1074.55 117.535 1074.09 117.301C1073.64 117.059 1073.11 116.938 1072.51 116.938C1071.91 116.938 1071.38 117.059 1070.93 117.301C1070.48 117.535 1070.09 117.863 1069.78 118.285C1069.47 118.707 1069.23 119.211 1069.08 119.797C1068.92 120.375 1068.84 121.012 1068.84 121.707C1068.84 122.41 1068.92 123.059 1069.08 123.652C1069.23 124.238 1069.47 124.742 1069.78 125.164C1070.09 125.586 1070.48 125.918 1070.93 126.16C1071.38 126.395 1071.91 126.512 1072.51 126.512C1073.11 126.512 1073.64 126.395 1074.09 126.16C1074.55 125.918 1074.94 125.586 1075.25 125.164C1075.57 124.742 1075.8 124.238 1075.96 123.652C1076.11 123.059 1076.19 122.41 1076.19 121.707ZM1078.35 121.707C1078.35 122.738 1078.21 123.668 1077.95 124.496C1077.68 125.316 1077.3 126.016 1076.8 126.594C1076.3 127.172 1075.69 127.617 1074.96 127.93C1074.24 128.234 1073.43 128.387 1072.51 128.387C1071.6 128.387 1070.78 128.234 1070.06 127.93C1069.34 127.617 1068.73 127.172 1068.23 126.594C1067.73 126.016 1067.35 125.316 1067.09 124.496C1066.82 123.668 1066.69 122.738 1066.69 121.707C1066.69 120.691 1066.82 119.773 1067.09 118.953C1067.35 118.133 1067.73 117.434 1068.23 116.855C1068.73 116.277 1069.34 115.836 1070.06 115.531C1070.78 115.219 1071.6 115.062 1072.51 115.062C1073.43 115.062 1074.24 115.219 1074.96 115.531C1075.69 115.836 1076.3 116.277 1076.8 116.855C1077.3 117.434 1077.68 118.133 1077.95 118.953C1078.21 119.773 1078.35 120.691 1078.35 121.707ZM1084.12 117.324H1079.8V115.449H1090.61V117.324H1086.28V128H1084.12V117.324ZM1104.79 115.449H1106.94V128H1104.79V115.449ZM1092.79 115.449H1094.94V120.172H1098.71C1099.39 120.172 1100 120.266 1100.54 120.453C1101.09 120.633 1101.55 120.895 1101.93 121.238C1102.3 121.574 1102.59 121.984 1102.78 122.469C1102.98 122.945 1103.09 123.484 1103.09 124.086C1103.09 124.695 1102.98 125.242 1102.78 125.727C1102.59 126.203 1102.3 126.613 1101.93 126.957C1101.55 127.293 1101.09 127.551 1100.54 127.73C1100 127.91 1099.39 128 1098.71 128H1092.79V115.449ZM1094.94 126.277H1098.28C1098.66 126.277 1099 126.238 1099.32 126.16C1099.65 126.082 1099.93 125.957 1100.17 125.785C1100.4 125.605 1100.59 125.379 1100.72 125.105C1100.85 124.824 1100.92 124.484 1100.92 124.086C1100.92 123.695 1100.85 123.363 1100.71 123.09C1100.57 122.816 1100.38 122.594 1100.13 122.422C1099.89 122.242 1099.59 122.113 1099.24 122.035C1098.9 121.949 1098.52 121.906 1098.09 121.906H1094.94V126.277Z" fill="#E8E8E8"/>
</svg>
