<svg width="1386" height="238" viewBox="0 0 1386 238" fill="none" xmlns="http://www.w3.org/2000/svg">
<rect width="1386" height="238" fill="#3D3D3D"/>
<path d="M1279.58 114.449H1287.38V116.324H1281.74V127H1279.58V114.449ZM1298.03 120.707C1298.03 120.012 1297.95 119.375 1297.79 118.797C1297.64 118.211 1297.4 117.707 1297.09 117.285C1296.78 116.863 1296.39 116.535 1295.93 116.301C1295.48 116.059 1294.95 115.938 1294.35 115.938C1293.75 115.938 1293.22 116.059 1292.77 116.301C1292.31 116.535 1291.93 116.863 1291.62 117.285C1291.3 117.707 1291.07 118.211 1290.91 118.797C1290.76 119.375 1290.68 120.012 1290.68 120.707C1290.68 121.41 1290.76 122.059 1290.91 122.652C1291.07 123.238 1291.3 123.742 1291.62 124.164C1291.93 124.586 1292.31 124.918 1292.77 125.16C1293.22 125.395 1293.75 125.512 1294.35 125.512C1294.95 125.512 1295.48 125.395 1295.93 125.16C1296.39 124.918 1296.78 124.586 1297.09 124.164C1297.4 123.742 1297.64 123.238 1297.79 122.652C1297.95 122.059 1298.03 121.41 1298.03 120.707ZM1300.18 120.707C1300.18 121.738 1300.05 122.668 1299.79 123.496C1299.52 124.316 1299.14 125.016 1298.64 125.594C1298.14 126.172 1297.52 126.617 1296.8 126.93C1296.08 127.234 1295.26 127.387 1294.35 127.387C1293.43 127.387 1292.62 127.234 1291.9 126.93C1291.18 126.617 1290.57 126.172 1290.07 125.594C1289.57 125.016 1289.19 124.316 1288.92 123.496C1288.66 122.668 1288.52 121.738 1288.52 120.707C1288.52 119.691 1288.66 118.773 1288.92 117.953C1289.19 117.133 1289.57 116.434 1290.07 115.855C1290.57 115.277 1291.18 114.836 1291.9 114.531C1292.62 114.219 1293.43 114.062 1294.35 114.062C1295.26 114.062 1296.08 114.219 1296.8 114.531C1297.52 114.836 1298.14 115.277 1298.64 115.855C1299.14 116.434 1299.52 117.133 1299.79 117.953C1300.05 118.773 1300.18 119.691 1300.18 120.707ZM1313.09 127H1303.38V130.07H1301.37V125.125H1303.02C1303.36 124.281 1303.64 123.422 1303.84 122.547C1304.04 121.664 1304.2 120.777 1304.31 119.887C1304.42 118.988 1304.49 118.086 1304.52 117.18C1304.55 116.273 1304.57 115.363 1304.57 114.449H1313.33V125.125H1315.1V130.07H1313.09V127ZM1311.18 125.125V116.324H1306.63C1306.57 117.035 1306.52 117.766 1306.45 118.516C1306.4 119.266 1306.32 120.02 1306.22 120.777C1306.12 121.527 1306 122.27 1305.83 123.004C1305.68 123.738 1305.47 124.445 1305.21 125.125H1311.18Z" fill="#E8E8E8"/>
<path d="M70.4336 129.691V123.984H71.9922C72.1562 123.609 72.3086 123.23 72.4492 122.848C72.5898 122.457 72.7188 122.02 72.8359 121.535C72.9609 121.043 73.0742 120.48 73.1758 119.848C73.2852 119.215 73.3867 118.465 73.4805 117.598C73.5898 116.684 73.6758 115.785 73.7383 114.902C73.8008 114.012 73.8477 113.18 73.8789 112.406C73.918 111.633 73.9414 110.934 73.9492 110.309C73.9648 109.684 73.9766 109.172 73.9844 108.773H84.8125V123.984H86.7578V129.691H84.6016V126H72.5898V129.691H70.4336ZM76.1406 110.789C76.1406 111.906 76.0938 113.02 76 114.129C75.9141 115.238 75.8086 116.355 75.6836 117.48C75.5977 118.371 75.5078 119.129 75.4141 119.754C75.3281 120.371 75.2344 120.922 75.1328 121.406C75.0391 121.883 74.9297 122.324 74.8047 122.73C74.6875 123.129 74.5508 123.547 74.3945 123.984H82.4453V110.789H76.1406ZM88.3867 117.211C88.4102 116.445 88.5547 115.801 88.8203 115.277C89.0859 114.746 89.4453 114.316 89.8984 113.988C90.3516 113.66 90.8867 113.426 91.5039 113.285C92.1289 113.137 92.8086 113.062 93.543 113.062C94.1523 113.062 94.7422 113.125 95.3125 113.25C95.8906 113.375 96.4023 113.578 96.8477 113.859C97.293 114.133 97.6484 114.492 97.9141 114.938C98.1875 115.375 98.3242 115.91 98.3242 116.543V123.844C98.3242 124.047 98.3789 124.223 98.4883 124.371C98.5977 124.512 98.7734 124.582 99.0156 124.582C99.125 124.582 99.2383 124.574 99.3555 124.559C99.4727 124.535 99.5938 124.512 99.7188 124.488V125.977C99.5391 126.023 99.3594 126.066 99.1797 126.105C99.0078 126.145 98.8008 126.164 98.5586 126.164C98.1836 126.164 97.8594 126.133 97.5859 126.07C97.3203 126.008 97.0938 125.906 96.9062 125.766C96.7266 125.617 96.5859 125.43 96.4844 125.203C96.3828 124.969 96.3164 124.684 96.2852 124.348C96.0195 124.637 95.7383 124.906 95.4414 125.156C95.1445 125.398 94.8125 125.613 94.4453 125.801C94.0781 125.98 93.668 126.121 93.2148 126.223C92.7617 126.332 92.25 126.387 91.6797 126.387C91.1953 126.387 90.7227 126.309 90.2617 126.152C89.8086 125.996 89.3984 125.766 89.0312 125.461C88.6719 125.156 88.3828 124.781 88.1641 124.336C87.9453 123.883 87.8359 123.359 87.8359 122.766C87.8359 122.117 87.9453 121.559 88.1641 121.09C88.3828 120.613 88.668 120.219 89.0195 119.906C89.3711 119.586 89.7734 119.34 90.2266 119.168C90.6797 118.996 91.1406 118.883 91.6094 118.828L95.1367 118.395C95.4727 118.355 95.7344 118.227 95.9219 118.008C96.1172 117.781 96.2148 117.422 96.2148 116.93C96.2148 116.172 95.9648 115.629 95.4648 115.301C94.9727 114.965 94.2617 114.797 93.332 114.797C92.3789 114.797 91.668 115 91.1992 115.406C90.7305 115.805 90.4648 116.406 90.4023 117.211H88.3867ZM96.168 119.613C95.9961 119.738 95.7812 119.844 95.5234 119.93C95.2734 120.008 94.9961 120.074 94.6914 120.129C94.3867 120.184 94.0625 120.234 93.7188 120.281C93.375 120.32 93.0312 120.363 92.6875 120.41C92.2969 120.465 91.9375 120.543 91.6094 120.645C91.2812 120.746 90.9961 120.879 90.7539 121.043C90.5117 121.207 90.3242 121.406 90.1914 121.641C90.0586 121.867 89.9922 122.137 89.9922 122.449C89.9922 122.809 90.0469 123.125 90.1562 123.398C90.2734 123.672 90.4297 123.902 90.625 124.09C90.8281 124.277 91.0703 124.418 91.3516 124.512C91.6328 124.605 91.9414 124.652 92.2773 124.652C92.4883 124.652 92.7305 124.629 93.0039 124.582C93.2773 124.527 93.5586 124.449 93.8477 124.348C94.1367 124.246 94.418 124.117 94.6914 123.961C94.9727 123.797 95.2227 123.602 95.4414 123.375C95.6602 123.148 95.8359 122.891 95.9688 122.602C96.1016 122.312 96.168 121.988 96.168 121.629V119.613ZM101.652 113.449H103.809V115.172H103.855C103.996 114.883 104.172 114.609 104.383 114.352C104.602 114.094 104.859 113.871 105.156 113.684C105.461 113.488 105.809 113.336 106.199 113.227C106.598 113.117 107.051 113.062 107.559 113.062C108.23 113.062 108.875 113.191 109.492 113.449C110.109 113.707 110.656 114.094 111.133 114.609C111.609 115.125 111.988 115.773 112.27 116.555C112.551 117.328 112.691 118.23 112.691 119.262C112.691 120.551 112.559 121.648 112.293 122.555C112.035 123.453 111.664 124.188 111.18 124.758C110.703 125.328 110.125 125.742 109.445 126C108.766 126.258 108.008 126.387 107.172 126.387C106.758 126.387 106.371 126.332 106.012 126.223C105.652 126.113 105.328 125.973 105.039 125.801C104.758 125.621 104.516 125.426 104.312 125.215C104.109 124.996 103.957 124.785 103.855 124.582H103.809V130.945H101.652V113.449ZM103.762 119.789C103.762 120.469 103.828 121.098 103.961 121.676C104.094 122.246 104.297 122.742 104.57 123.164C104.852 123.586 105.199 123.918 105.613 124.16C106.035 124.395 106.531 124.512 107.102 124.512C107.695 124.512 108.207 124.395 108.637 124.16C109.074 123.918 109.434 123.586 109.715 123.164C109.996 122.742 110.203 122.246 110.336 121.676C110.469 121.098 110.535 120.469 110.535 119.789C110.535 119.078 110.469 118.426 110.336 117.832C110.203 117.238 109.996 116.727 109.715 116.297C109.434 115.867 109.074 115.535 108.637 115.301C108.207 115.059 107.695 114.938 107.102 114.938C106.531 114.938 106.035 115.059 105.613 115.301C105.199 115.535 104.852 115.867 104.57 116.297C104.297 116.727 104.094 117.238 103.961 117.832C103.828 118.426 103.762 119.078 103.762 119.789ZM115.129 113.449H117.285V118.172H120.766C121.453 118.172 122.066 118.266 122.605 118.453C123.145 118.633 123.602 118.895 123.977 119.238C124.352 119.574 124.637 119.984 124.832 120.469C125.035 120.945 125.137 121.484 125.137 122.086C125.137 122.695 125.035 123.242 124.832 123.727C124.637 124.203 124.352 124.613 123.977 124.957C123.602 125.293 123.145 125.551 122.605 125.73C122.066 125.91 121.453 126 120.766 126H115.129V113.449ZM117.285 124.277H120.344C120.719 124.277 121.066 124.238 121.387 124.16C121.715 124.082 121.996 123.957 122.23 123.785C122.465 123.605 122.648 123.379 122.781 123.105C122.914 122.824 122.98 122.484 122.98 122.086C122.98 121.695 122.91 121.363 122.77 121.09C122.637 120.816 122.445 120.594 122.195 120.422C121.953 120.242 121.656 120.113 121.305 120.035C120.961 119.949 120.574 119.906 120.145 119.906H117.285V124.277ZM137.336 126H135.168V121.031H132.391C131.891 121.031 131.453 121.043 131.078 121.066C130.711 121.082 130.398 121.152 130.141 121.277C129.883 121.402 129.68 121.598 129.531 121.863C129.391 122.129 129.301 122.508 129.262 123L129.168 124.348C129.16 124.387 129.152 124.465 129.145 124.582C129.137 124.699 129.121 124.84 129.098 125.004C129.074 125.16 129.043 125.328 129.004 125.508C128.965 125.688 128.918 125.852 128.863 126H126.484C126.539 125.93 126.59 125.859 126.637 125.789C126.691 125.711 126.742 125.605 126.789 125.473C126.844 125.34 126.891 125.168 126.93 124.957C126.977 124.746 127.02 124.477 127.059 124.148L127.199 122.543C127.246 122.121 127.301 121.777 127.363 121.512C127.434 121.246 127.527 121.027 127.645 120.855C127.77 120.676 127.93 120.531 128.125 120.422C128.32 120.305 128.566 120.188 128.863 120.07C127.52 119.586 126.848 118.594 126.848 117.094C126.848 116.719 126.895 116.375 126.988 116.062C127.082 115.742 127.203 115.457 127.352 115.207C127.508 114.957 127.68 114.738 127.867 114.551C128.062 114.355 128.258 114.195 128.453 114.07C128.695 113.914 128.961 113.797 129.25 113.719C129.539 113.633 129.828 113.57 130.117 113.531C130.414 113.492 130.703 113.469 130.984 113.461C131.266 113.453 131.523 113.449 131.758 113.449H137.336V126ZM135.168 115.348H131.887C131.605 115.348 131.363 115.352 131.16 115.359C130.957 115.359 130.777 115.367 130.621 115.383C130.473 115.398 130.336 115.426 130.211 115.465C130.086 115.504 129.957 115.559 129.824 115.629C129.551 115.785 129.34 116.016 129.191 116.32C129.051 116.625 128.98 116.949 128.98 117.293C128.98 117.629 129.031 117.914 129.133 118.148C129.234 118.375 129.367 118.562 129.531 118.711C129.703 118.859 129.891 118.977 130.094 119.062C130.305 119.141 130.516 119.199 130.727 119.238C130.945 119.27 131.156 119.289 131.359 119.297C131.562 119.305 131.738 119.309 131.887 119.309H135.168V115.348ZM148.867 117.363C148.867 118.441 149.004 119.418 149.277 120.293C149.551 121.16 149.934 121.898 150.426 122.508C150.926 123.117 151.523 123.59 152.219 123.926C152.922 124.254 153.695 124.418 154.539 124.418C155.273 124.418 155.93 124.285 156.508 124.02C157.094 123.754 157.598 123.406 158.02 122.977C158.441 122.539 158.781 122.047 159.039 121.5C159.297 120.953 159.469 120.398 159.555 119.836H161.781C161.734 120.336 161.625 120.848 161.453 121.371C161.289 121.887 161.062 122.391 160.773 122.883C160.492 123.367 160.152 123.828 159.754 124.266C159.355 124.695 158.895 125.07 158.371 125.391C157.855 125.711 157.277 125.965 156.637 126.152C155.996 126.34 155.297 126.434 154.539 126.434C154.016 126.434 153.453 126.379 152.852 126.27C152.258 126.16 151.664 125.977 151.07 125.719C150.484 125.461 149.918 125.117 149.371 124.688C148.832 124.25 148.355 123.703 147.941 123.047C147.527 122.391 147.195 121.617 146.945 120.727C146.695 119.828 146.57 118.785 146.57 117.598C146.57 116.434 146.68 115.395 146.898 114.48C147.125 113.566 147.43 112.77 147.812 112.09C148.203 111.402 148.656 110.82 149.172 110.344C149.695 109.867 150.254 109.48 150.848 109.184C151.441 108.887 152.059 108.672 152.699 108.539C153.34 108.406 153.977 108.34 154.609 108.34C155.391 108.34 156.102 108.422 156.742 108.586C157.391 108.742 157.969 108.961 158.477 109.242C158.992 109.516 159.441 109.836 159.824 110.203C160.207 110.57 160.527 110.961 160.785 111.375C161.051 111.781 161.254 112.199 161.395 112.629C161.543 113.059 161.633 113.477 161.664 113.883H159.414C159.266 113.328 159.047 112.832 158.758 112.395C158.469 111.957 158.117 111.59 157.703 111.293C157.297 110.988 156.836 110.758 156.32 110.602C155.812 110.438 155.266 110.355 154.68 110.355C153.797 110.355 152.996 110.52 152.277 110.848C151.566 111.176 150.957 111.645 150.449 112.254C149.941 112.863 149.551 113.602 149.277 114.469C149.004 115.328 148.867 116.293 148.867 117.363ZM164.535 117.211C164.559 116.445 164.703 115.801 164.969 115.277C165.234 114.746 165.594 114.316 166.047 113.988C166.5 113.66 167.035 113.426 167.652 113.285C168.277 113.137 168.957 113.062 169.691 113.062C170.301 113.062 170.891 113.125 171.461 113.25C172.039 113.375 172.551 113.578 172.996 113.859C173.441 114.133 173.797 114.492 174.062 114.938C174.336 115.375 174.473 115.91 174.473 116.543V123.844C174.473 124.047 174.527 124.223 174.637 124.371C174.746 124.512 174.922 124.582 175.164 124.582C175.273 124.582 175.387 124.574 175.504 124.559C175.621 124.535 175.742 124.512 175.867 124.488V125.977C175.688 126.023 175.508 126.066 175.328 126.105C175.156 126.145 174.949 126.164 174.707 126.164C174.332 126.164 174.008 126.133 173.734 126.07C173.469 126.008 173.242 125.906 173.055 125.766C172.875 125.617 172.734 125.43 172.633 125.203C172.531 124.969 172.465 124.684 172.434 124.348C172.168 124.637 171.887 124.906 171.59 125.156C171.293 125.398 170.961 125.613 170.594 125.801C170.227 125.98 169.816 126.121 169.363 126.223C168.91 126.332 168.398 126.387 167.828 126.387C167.344 126.387 166.871 126.309 166.41 126.152C165.957 125.996 165.547 125.766 165.18 125.461C164.82 125.156 164.531 124.781 164.312 124.336C164.094 123.883 163.984 123.359 163.984 122.766C163.984 122.117 164.094 121.559 164.312 121.09C164.531 120.613 164.816 120.219 165.168 119.906C165.52 119.586 165.922 119.34 166.375 119.168C166.828 118.996 167.289 118.883 167.758 118.828L171.285 118.395C171.621 118.355 171.883 118.227 172.07 118.008C172.266 117.781 172.363 117.422 172.363 116.93C172.363 116.172 172.113 115.629 171.613 115.301C171.121 114.965 170.41 114.797 169.48 114.797C168.527 114.797 167.816 115 167.348 115.406C166.879 115.805 166.613 116.406 166.551 117.211H164.535ZM172.316 119.613C172.145 119.738 171.93 119.844 171.672 119.93C171.422 120.008 171.145 120.074 170.84 120.129C170.535 120.184 170.211 120.234 169.867 120.281C169.523 120.32 169.18 120.363 168.836 120.41C168.445 120.465 168.086 120.543 167.758 120.645C167.43 120.746 167.145 120.879 166.902 121.043C166.66 121.207 166.473 121.406 166.34 121.641C166.207 121.867 166.141 122.137 166.141 122.449C166.141 122.809 166.195 123.125 166.305 123.398C166.422 123.672 166.578 123.902 166.773 124.09C166.977 124.277 167.219 124.418 167.5 124.512C167.781 124.605 168.09 124.652 168.426 124.652C168.637 124.652 168.879 124.629 169.152 124.582C169.426 124.527 169.707 124.449 169.996 124.348C170.285 124.246 170.566 124.117 170.84 123.961C171.121 123.797 171.371 123.602 171.59 123.375C171.809 123.148 171.984 122.891 172.117 122.602C172.25 122.312 172.316 121.988 172.316 121.629V119.613ZM177.801 113.449H179.957V115.172H180.004C180.145 114.883 180.32 114.609 180.531 114.352C180.75 114.094 181.008 113.871 181.305 113.684C181.609 113.488 181.957 113.336 182.348 113.227C182.746 113.117 183.199 113.062 183.707 113.062C184.379 113.062 185.023 113.191 185.641 113.449C186.258 113.707 186.805 114.094 187.281 114.609C187.758 115.125 188.137 115.773 188.418 116.555C188.699 117.328 188.84 118.23 188.84 119.262C188.84 120.551 188.707 121.648 188.441 122.555C188.184 123.453 187.812 124.188 187.328 124.758C186.852 125.328 186.273 125.742 185.594 126C184.914 126.258 184.156 126.387 183.32 126.387C182.906 126.387 182.52 126.332 182.16 126.223C181.801 126.113 181.477 125.973 181.188 125.801C180.906 125.621 180.664 125.426 180.461 125.215C180.258 124.996 180.105 124.785 180.004 124.582H179.957V130.945H177.801V113.449ZM179.91 119.789C179.91 120.469 179.977 121.098 180.109 121.676C180.242 122.246 180.445 122.742 180.719 123.164C181 123.586 181.348 123.918 181.762 124.16C182.184 124.395 182.68 124.512 183.25 124.512C183.844 124.512 184.355 124.395 184.785 124.16C185.223 123.918 185.582 123.586 185.863 123.164C186.145 122.742 186.352 122.246 186.484 121.676C186.617 121.098 186.684 120.469 186.684 119.789C186.684 119.078 186.617 118.426 186.484 117.832C186.352 117.238 186.145 116.727 185.863 116.297C185.582 115.867 185.223 115.535 184.785 115.301C184.355 115.059 183.844 114.938 183.25 114.938C182.68 114.938 182.184 115.059 181.762 115.301C181.348 115.535 181 115.867 180.719 116.297C180.445 116.727 180.242 117.238 180.109 117.832C179.977 118.426 179.91 119.078 179.91 119.789ZM191.277 113.449H193.434V119.52L199.773 113.449H202.598L196.703 118.992L202.691 126H199.914L195.016 120.305L193.434 121.629V126H191.277V113.449ZM204.426 113.449H206.582V123.07H206.629L212.793 113.449H215.266V126H213.098V116.379H213.051L206.898 126H204.426V113.449ZM228.309 121.582C228.277 121.887 228.215 122.219 228.121 122.578C228.035 122.938 227.906 123.297 227.734 123.656C227.562 124.008 227.34 124.348 227.066 124.676C226.801 125.004 226.473 125.297 226.082 125.555C225.699 125.805 225.246 126.004 224.723 126.152C224.199 126.309 223.602 126.387 222.93 126.387C222.562 126.387 222.176 126.34 221.77 126.246C221.363 126.16 220.965 126.012 220.574 125.801C220.191 125.59 219.824 125.32 219.473 124.992C219.129 124.656 218.824 124.242 218.559 123.75C218.301 123.258 218.094 122.688 217.938 122.039C217.781 121.383 217.703 120.633 217.703 119.789C217.703 118.75 217.852 117.816 218.148 116.988C218.445 116.152 218.84 115.445 219.332 114.867C219.832 114.289 220.41 113.844 221.066 113.531C221.73 113.219 222.426 113.062 223.152 113.062C223.809 113.062 224.387 113.133 224.887 113.273C225.395 113.414 225.836 113.602 226.211 113.836C226.586 114.07 226.902 114.344 227.16 114.656C227.418 114.961 227.625 115.285 227.781 115.629C227.945 115.965 228.066 116.309 228.145 116.66C228.23 117.012 228.285 117.348 228.309 117.668H226.293C226.184 116.816 225.887 116.148 225.402 115.664C224.926 115.18 224.254 114.938 223.387 114.938C222.793 114.938 222.273 115.059 221.828 115.301C221.391 115.543 221.023 115.883 220.727 116.32C220.438 116.75 220.219 117.273 220.07 117.891C219.93 118.5 219.859 119.172 219.859 119.906C219.859 120.734 219.938 121.449 220.094 122.051C220.25 122.645 220.473 123.137 220.762 123.527C221.051 123.91 221.402 124.195 221.816 124.383C222.238 124.562 222.715 124.652 223.246 124.652C223.621 124.652 223.977 124.586 224.312 124.453C224.648 124.312 224.949 124.113 225.215 123.855C225.48 123.59 225.707 123.266 225.895 122.883C226.082 122.5 226.215 122.066 226.293 121.582H228.309ZM239.207 119.707C239.207 119.012 239.129 118.375 238.973 117.797C238.816 117.211 238.582 116.707 238.27 116.285C237.957 115.863 237.57 115.535 237.109 115.301C236.656 115.059 236.129 114.938 235.527 114.938C234.926 114.938 234.398 115.059 233.945 115.301C233.492 115.535 233.109 115.863 232.797 116.285C232.484 116.707 232.25 117.211 232.094 117.797C231.938 118.375 231.859 119.012 231.859 119.707C231.859 120.41 231.938 121.059 232.094 121.652C232.25 122.238 232.484 122.742 232.797 123.164C233.109 123.586 233.492 123.918 233.945 124.16C234.398 124.395 234.926 124.512 235.527 124.512C236.129 124.512 236.656 124.395 237.109 124.16C237.57 123.918 237.957 123.586 238.27 123.164C238.582 122.742 238.816 122.238 238.973 121.652C239.129 121.059 239.207 120.41 239.207 119.707ZM241.363 119.707C241.363 120.738 241.23 121.668 240.965 122.496C240.699 123.316 240.316 124.016 239.816 124.594C239.316 125.172 238.703 125.617 237.977 125.93C237.258 126.234 236.441 126.387 235.527 126.387C234.613 126.387 233.797 126.234 233.078 125.93C232.359 125.617 231.75 125.172 231.25 124.594C230.75 124.016 230.367 123.316 230.102 122.496C229.836 121.668 229.703 120.738 229.703 119.707C229.703 118.691 229.836 117.773 230.102 116.953C230.367 116.133 230.75 115.434 231.25 114.855C231.75 114.277 232.359 113.836 233.078 113.531C233.797 113.219 234.613 113.062 235.527 113.062C236.441 113.062 237.258 113.219 237.977 113.531C238.703 113.836 239.316 114.277 239.816 114.855C240.316 115.434 240.699 116.133 240.965 116.953C241.23 117.773 241.363 118.691 241.363 119.707ZM243.801 113.449H249.145C250.676 113.449 251.82 113.734 252.578 114.305C253.344 114.875 253.727 115.703 253.727 116.789C253.727 117.367 253.586 117.855 253.305 118.254C253.023 118.652 252.652 119.004 252.191 119.309C252.855 119.559 253.383 119.918 253.773 120.387C254.164 120.855 254.359 121.461 254.359 122.203C254.359 122.789 254.262 123.316 254.066 123.785C253.871 124.254 253.574 124.652 253.176 124.98C252.777 125.309 252.27 125.562 251.652 125.742C251.043 125.914 250.32 126 249.484 126H243.801V113.449ZM245.957 124.277H249.238C249.809 124.277 250.281 124.234 250.656 124.148C251.039 124.055 251.344 123.922 251.57 123.75C251.797 123.578 251.957 123.371 252.051 123.129C252.145 122.887 252.191 122.613 252.191 122.309C252.191 122.004 252.145 121.73 252.051 121.488C251.957 121.238 251.797 121.031 251.57 120.867C251.344 120.695 251.039 120.566 250.656 120.48C250.281 120.387 249.809 120.34 249.238 120.34H245.957V124.277ZM245.957 118.758H249.215C249.941 118.758 250.516 118.613 250.938 118.324C251.359 118.035 251.57 117.586 251.57 116.977C251.57 116.633 251.512 116.348 251.395 116.121C251.277 115.887 251.121 115.699 250.926 115.559C250.73 115.418 250.508 115.32 250.258 115.266C250.016 115.203 249.766 115.172 249.508 115.172H245.957V118.758ZM256.926 117.211C256.949 116.445 257.094 115.801 257.359 115.277C257.625 114.746 257.984 114.316 258.438 113.988C258.891 113.66 259.426 113.426 260.043 113.285C260.668 113.137 261.348 113.062 262.082 113.062C262.691 113.062 263.281 113.125 263.852 113.25C264.43 113.375 264.941 113.578 265.387 113.859C265.832 114.133 266.188 114.492 266.453 114.938C266.727 115.375 266.863 115.91 266.863 116.543V123.844C266.863 124.047 266.918 124.223 267.027 124.371C267.137 124.512 267.312 124.582 267.555 124.582C267.664 124.582 267.777 124.574 267.895 124.559C268.012 124.535 268.133 124.512 268.258 124.488V125.977C268.078 126.023 267.898 126.066 267.719 126.105C267.547 126.145 267.34 126.164 267.098 126.164C266.723 126.164 266.398 126.133 266.125 126.07C265.859 126.008 265.633 125.906 265.445 125.766C265.266 125.617 265.125 125.43 265.023 125.203C264.922 124.969 264.855 124.684 264.824 124.348C264.559 124.637 264.277 124.906 263.98 125.156C263.684 125.398 263.352 125.613 262.984 125.801C262.617 125.98 262.207 126.121 261.754 126.223C261.301 126.332 260.789 126.387 260.219 126.387C259.734 126.387 259.262 126.309 258.801 126.152C258.348 125.996 257.938 125.766 257.57 125.461C257.211 125.156 256.922 124.781 256.703 124.336C256.484 123.883 256.375 123.359 256.375 122.766C256.375 122.117 256.484 121.559 256.703 121.09C256.922 120.613 257.207 120.219 257.559 119.906C257.91 119.586 258.312 119.34 258.766 119.168C259.219 118.996 259.68 118.883 260.148 118.828L263.676 118.395C264.012 118.355 264.273 118.227 264.461 118.008C264.656 117.781 264.754 117.422 264.754 116.93C264.754 116.172 264.504 115.629 264.004 115.301C263.512 114.965 262.801 114.797 261.871 114.797C260.918 114.797 260.207 115 259.738 115.406C259.27 115.805 259.004 116.406 258.941 117.211H256.926ZM264.707 119.613C264.535 119.738 264.32 119.844 264.062 119.93C263.812 120.008 263.535 120.074 263.23 120.129C262.926 120.184 262.602 120.234 262.258 120.281C261.914 120.32 261.57 120.363 261.227 120.41C260.836 120.465 260.477 120.543 260.148 120.645C259.82 120.746 259.535 120.879 259.293 121.043C259.051 121.207 258.863 121.406 258.73 121.641C258.598 121.867 258.531 122.137 258.531 122.449C258.531 122.809 258.586 123.125 258.695 123.398C258.812 123.672 258.969 123.902 259.164 124.09C259.367 124.277 259.609 124.418 259.891 124.512C260.172 124.605 260.48 124.652 260.816 124.652C261.027 124.652 261.27 124.629 261.543 124.582C261.816 124.527 262.098 124.449 262.387 124.348C262.676 124.246 262.957 124.117 263.23 123.961C263.512 123.797 263.762 123.602 263.98 123.375C264.199 123.148 264.375 122.891 264.508 122.602C264.641 122.312 264.707 121.988 264.707 121.629V119.613ZM278.23 118.5H296.57V120.223H278.23V118.5ZM317.535 121.582C317.504 121.887 317.441 122.219 317.348 122.578C317.262 122.938 317.133 123.297 316.961 123.656C316.789 124.008 316.566 124.348 316.293 124.676C316.027 125.004 315.699 125.297 315.309 125.555C314.926 125.805 314.473 126.004 313.949 126.152C313.426 126.309 312.828 126.387 312.156 126.387C311.789 126.387 311.402 126.34 310.996 126.246C310.59 126.16 310.191 126.012 309.801 125.801C309.418 125.59 309.051 125.32 308.699 124.992C308.355 124.656 308.051 124.242 307.785 123.75C307.527 123.258 307.32 122.688 307.164 122.039C307.008 121.383 306.93 120.633 306.93 119.789C306.93 118.75 307.078 117.816 307.375 116.988C307.672 116.152 308.066 115.445 308.559 114.867C309.059 114.289 309.637 113.844 310.293 113.531C310.957 113.219 311.652 113.062 312.379 113.062C313.035 113.062 313.613 113.133 314.113 113.273C314.621 113.414 315.062 113.602 315.438 113.836C315.812 114.07 316.129 114.344 316.387 114.656C316.645 114.961 316.852 115.285 317.008 115.629C317.172 115.965 317.293 116.309 317.371 116.66C317.457 117.012 317.512 117.348 317.535 117.668H315.52C315.41 116.816 315.113 116.148 314.629 115.664C314.152 115.18 313.48 114.938 312.613 114.938C312.02 114.938 311.5 115.059 311.055 115.301C310.617 115.543 310.25 115.883 309.953 116.32C309.664 116.75 309.445 117.273 309.297 117.891C309.156 118.5 309.086 119.172 309.086 119.906C309.086 120.734 309.164 121.449 309.32 122.051C309.477 122.645 309.699 123.137 309.988 123.527C310.277 123.91 310.629 124.195 311.043 124.383C311.465 124.562 311.941 124.652 312.473 124.652C312.848 124.652 313.203 124.586 313.539 124.453C313.875 124.312 314.176 124.113 314.441 123.855C314.707 123.59 314.934 123.266 315.121 122.883C315.309 122.5 315.441 122.066 315.52 121.582H317.535ZM323.008 115.324H318.684V113.449H329.488V115.324H325.164V126H323.008V115.324ZM331.645 117.211C331.668 116.445 331.812 115.801 332.078 115.277C332.344 114.746 332.703 114.316 333.156 113.988C333.609 113.66 334.145 113.426 334.762 113.285C335.387 113.137 336.066 113.062 336.801 113.062C337.41 113.062 338 113.125 338.57 113.25C339.148 113.375 339.66 113.578 340.105 113.859C340.551 114.133 340.906 114.492 341.172 114.938C341.445 115.375 341.582 115.91 341.582 116.543V123.844C341.582 124.047 341.637 124.223 341.746 124.371C341.855 124.512 342.031 124.582 342.273 124.582C342.383 124.582 342.496 124.574 342.613 124.559C342.73 124.535 342.852 124.512 342.977 124.488V125.977C342.797 126.023 342.617 126.066 342.438 126.105C342.266 126.145 342.059 126.164 341.816 126.164C341.441 126.164 341.117 126.133 340.844 126.07C340.578 126.008 340.352 125.906 340.164 125.766C339.984 125.617 339.844 125.43 339.742 125.203C339.641 124.969 339.574 124.684 339.543 124.348C339.277 124.637 338.996 124.906 338.699 125.156C338.402 125.398 338.07 125.613 337.703 125.801C337.336 125.98 336.926 126.121 336.473 126.223C336.02 126.332 335.508 126.387 334.938 126.387C334.453 126.387 333.98 126.309 333.52 126.152C333.066 125.996 332.656 125.766 332.289 125.461C331.93 125.156 331.641 124.781 331.422 124.336C331.203 123.883 331.094 123.359 331.094 122.766C331.094 122.117 331.203 121.559 331.422 121.09C331.641 120.613 331.926 120.219 332.277 119.906C332.629 119.586 333.031 119.34 333.484 119.168C333.938 118.996 334.398 118.883 334.867 118.828L338.395 118.395C338.73 118.355 338.992 118.227 339.18 118.008C339.375 117.781 339.473 117.422 339.473 116.93C339.473 116.172 339.223 115.629 338.723 115.301C338.23 114.965 337.52 114.797 336.59 114.797C335.637 114.797 334.926 115 334.457 115.406C333.988 115.805 333.723 116.406 333.66 117.211H331.645ZM339.426 119.613C339.254 119.738 339.039 119.844 338.781 119.93C338.531 120.008 338.254 120.074 337.949 120.129C337.645 120.184 337.32 120.234 336.977 120.281C336.633 120.32 336.289 120.363 335.945 120.41C335.555 120.465 335.195 120.543 334.867 120.645C334.539 120.746 334.254 120.879 334.012 121.043C333.77 121.207 333.582 121.406 333.449 121.641C333.316 121.867 333.25 122.137 333.25 122.449C333.25 122.809 333.305 123.125 333.414 123.398C333.531 123.672 333.688 123.902 333.883 124.09C334.086 124.277 334.328 124.418 334.609 124.512C334.891 124.605 335.199 124.652 335.535 124.652C335.746 124.652 335.988 124.629 336.262 124.582C336.535 124.527 336.816 124.449 337.105 124.348C337.395 124.246 337.676 124.117 337.949 123.961C338.23 123.797 338.48 123.602 338.699 123.375C338.918 123.148 339.094 122.891 339.227 122.602C339.359 122.312 339.426 121.988 339.426 121.629V119.613ZM344.91 113.449H347.066V115.172H347.113C347.254 114.883 347.43 114.609 347.641 114.352C347.859 114.094 348.117 113.871 348.414 113.684C348.719 113.488 349.066 113.336 349.457 113.227C349.855 113.117 350.309 113.062 350.816 113.062C351.488 113.062 352.133 113.191 352.75 113.449C353.367 113.707 353.914 114.094 354.391 114.609C354.867 115.125 355.246 115.773 355.527 116.555C355.809 117.328 355.949 118.23 355.949 119.262C355.949 120.551 355.816 121.648 355.551 122.555C355.293 123.453 354.922 124.188 354.438 124.758C353.961 125.328 353.383 125.742 352.703 126C352.023 126.258 351.266 126.387 350.43 126.387C350.016 126.387 349.629 126.332 349.27 126.223C348.91 126.113 348.586 125.973 348.297 125.801C348.016 125.621 347.773 125.426 347.57 125.215C347.367 124.996 347.215 124.785 347.113 124.582H347.066V130.945H344.91V113.449ZM347.02 119.789C347.02 120.469 347.086 121.098 347.219 121.676C347.352 122.246 347.555 122.742 347.828 123.164C348.109 123.586 348.457 123.918 348.871 124.16C349.293 124.395 349.789 124.512 350.359 124.512C350.953 124.512 351.465 124.395 351.895 124.16C352.332 123.918 352.691 123.586 352.973 123.164C353.254 122.742 353.461 122.246 353.594 121.676C353.727 121.098 353.793 120.469 353.793 119.789C353.793 119.078 353.727 118.426 353.594 117.832C353.461 117.238 353.254 116.727 352.973 116.297C352.691 115.867 352.332 115.535 351.895 115.301C351.465 115.059 350.953 114.938 350.359 114.938C349.789 114.938 349.293 115.059 348.871 115.301C348.457 115.535 348.109 115.867 347.828 116.297C347.555 116.727 347.352 117.238 347.219 117.832C347.086 118.426 347.02 119.078 347.02 119.789ZM358.387 113.449H360.543V124.125H365.066V113.449H367.223V124.125H371.734V113.449H373.891V126H358.387V113.449ZM377.066 113.449H379.223V123.07H379.27L385.434 113.449H387.906V126H385.738V116.379H385.691L379.539 126H377.066V113.449ZM394.469 108.574C394.57 109.074 394.781 109.473 395.102 109.77C395.422 110.059 395.895 110.203 396.52 110.203C397.152 110.203 397.629 110.062 397.949 109.781C398.27 109.492 398.477 109.09 398.57 108.574H400.574C400.566 109.043 400.465 109.469 400.27 109.852C400.074 110.227 399.797 110.547 399.438 110.812C399.086 111.078 398.66 111.285 398.16 111.434C397.668 111.574 397.121 111.645 396.52 111.645C395.918 111.645 395.371 111.574 394.879 111.434C394.387 111.293 393.965 111.09 393.613 110.824C393.262 110.559 392.984 110.238 392.781 109.863C392.586 109.48 392.484 109.051 392.477 108.574H394.469ZM391.082 113.449H393.238V123.07H393.285L399.449 113.449H401.922V126H399.754V116.379H399.707L393.555 126H391.082V113.449ZM411.777 113.449H414.918L418.234 123.738H418.281L421.645 113.449H424.598V126H422.582V115.898H422.535L419.219 126H417.156L413.84 115.898H413.793V126H411.777V113.449ZM438.449 121.992C438.363 122.539 438.176 123.074 437.887 123.598C437.598 124.121 437.219 124.59 436.75 125.004C436.281 125.418 435.727 125.75 435.086 126C434.453 126.258 433.75 126.387 432.977 126.387C432.133 126.387 431.352 126.25 430.633 125.977C429.922 125.695 429.305 125.277 428.781 124.723C428.266 124.16 427.859 123.457 427.562 122.613C427.266 121.77 427.117 120.777 427.117 119.637C427.117 118.871 427.199 118.18 427.363 117.562C427.535 116.938 427.762 116.383 428.043 115.898C428.332 115.406 428.664 114.984 429.039 114.633C429.414 114.273 429.809 113.98 430.223 113.754C430.645 113.52 431.074 113.348 431.512 113.238C431.949 113.121 432.371 113.062 432.777 113.062C433.637 113.062 434.422 113.191 435.133 113.449C435.844 113.707 436.453 114.102 436.961 114.633C437.477 115.156 437.875 115.816 438.156 116.613C438.445 117.402 438.59 118.332 438.59 119.402V120.48H429.414C429.422 121.09 429.508 121.645 429.672 122.145C429.836 122.637 430.07 123.059 430.375 123.41C430.68 123.762 431.047 124.035 431.477 124.23C431.914 124.418 432.406 124.512 432.953 124.512C433.508 124.512 433.977 124.434 434.359 124.277C434.742 124.121 435.062 123.922 435.32 123.68C435.578 123.438 435.785 123.168 435.941 122.871C436.105 122.574 436.242 122.281 436.352 121.992H438.449ZM436.422 118.758C436.406 118.148 436.312 117.605 436.141 117.129C435.977 116.652 435.742 116.254 435.438 115.934C435.141 115.605 434.781 115.359 434.359 115.195C433.938 115.023 433.469 114.938 432.953 114.938C432.461 114.938 432.008 115.035 431.594 115.23C431.18 115.418 430.816 115.684 430.504 116.027C430.191 116.363 429.941 116.766 429.754 117.234C429.566 117.695 429.453 118.203 429.414 118.758H436.422ZM441.121 113.449H443.277V118.512H449.137V113.449H451.305V126H449.137V120.387H443.277V126H441.121V113.449ZM465.168 121.992C465.082 122.539 464.895 123.074 464.605 123.598C464.316 124.121 463.938 124.59 463.469 125.004C463 125.418 462.445 125.75 461.805 126C461.172 126.258 460.469 126.387 459.695 126.387C458.852 126.387 458.07 126.25 457.352 125.977C456.641 125.695 456.023 125.277 455.5 124.723C454.984 124.16 454.578 123.457 454.281 122.613C453.984 121.77 453.836 120.777 453.836 119.637C453.836 118.871 453.918 118.18 454.082 117.562C454.254 116.938 454.48 116.383 454.762 115.898C455.051 115.406 455.383 114.984 455.758 114.633C456.133 114.273 456.527 113.98 456.941 113.754C457.363 113.52 457.793 113.348 458.23 113.238C458.668 113.121 459.09 113.062 459.496 113.062C460.355 113.062 461.141 113.191 461.852 113.449C462.562 113.707 463.172 114.102 463.68 114.633C464.195 115.156 464.594 115.816 464.875 116.613C465.164 117.402 465.309 118.332 465.309 119.402V120.48H456.133C456.141 121.09 456.227 121.645 456.391 122.145C456.555 122.637 456.789 123.059 457.094 123.41C457.398 123.762 457.766 124.035 458.195 124.23C458.633 124.418 459.125 124.512 459.672 124.512C460.227 124.512 460.695 124.434 461.078 124.277C461.461 124.121 461.781 123.922 462.039 123.68C462.297 123.438 462.504 123.168 462.66 122.871C462.824 122.574 462.961 122.281 463.07 121.992H465.168ZM463.141 118.758C463.125 118.148 463.031 117.605 462.859 117.129C462.695 116.652 462.461 116.254 462.156 115.934C461.859 115.605 461.5 115.359 461.078 115.195C460.656 115.023 460.188 114.938 459.672 114.938C459.18 114.938 458.727 115.035 458.312 115.23C457.898 115.418 457.535 115.684 457.223 116.027C456.91 116.363 456.66 116.766 456.473 117.234C456.285 117.695 456.172 118.203 456.133 118.758H463.141ZM478.305 126H468.602V129.07H466.586V124.125H468.238C468.582 123.281 468.855 122.422 469.059 121.547C469.262 120.664 469.418 119.777 469.527 118.887C469.637 117.988 469.707 117.086 469.738 116.18C469.77 115.273 469.785 114.363 469.785 113.449H478.551V124.125H480.32V129.07H478.305V126ZM476.395 124.125V115.324H471.848C471.793 116.035 471.734 116.766 471.672 117.516C471.617 118.266 471.539 119.02 471.438 119.777C471.344 120.527 471.215 121.27 471.051 122.004C470.895 122.738 470.688 123.445 470.43 124.125H476.395ZM491.277 118.582H492.367L496.48 113.449H499.082L494.148 119.402L499.27 126H496.609L492.367 120.293H491.277V126H489.121V120.293H488.02L483.742 126H481.082L486.25 119.402L481.34 113.449H483.953L488.02 118.582H489.121V113.449H491.277V118.582ZM511.809 121.992C511.723 122.539 511.535 123.074 511.246 123.598C510.957 124.121 510.578 124.59 510.109 125.004C509.641 125.418 509.086 125.75 508.445 126C507.812 126.258 507.109 126.387 506.336 126.387C505.492 126.387 504.711 126.25 503.992 125.977C503.281 125.695 502.664 125.277 502.141 124.723C501.625 124.16 501.219 123.457 500.922 122.613C500.625 121.77 500.477 120.777 500.477 119.637C500.477 118.871 500.559 118.18 500.723 117.562C500.895 116.938 501.121 116.383 501.402 115.898C501.691 115.406 502.023 114.984 502.398 114.633C502.773 114.273 503.168 113.98 503.582 113.754C504.004 113.52 504.434 113.348 504.871 113.238C505.309 113.121 505.73 113.062 506.137 113.062C506.996 113.062 507.781 113.191 508.492 113.449C509.203 113.707 509.812 114.102 510.32 114.633C510.836 115.156 511.234 115.816 511.516 116.613C511.805 117.402 511.949 118.332 511.949 119.402V120.48H502.773C502.781 121.09 502.867 121.645 503.031 122.145C503.195 122.637 503.43 123.059 503.734 123.41C504.039 123.762 504.406 124.035 504.836 124.23C505.273 124.418 505.766 124.512 506.312 124.512C506.867 124.512 507.336 124.434 507.719 124.277C508.102 124.121 508.422 123.922 508.68 123.68C508.938 123.438 509.145 123.168 509.301 122.871C509.465 122.574 509.602 122.281 509.711 121.992H511.809ZM509.781 118.758C509.766 118.148 509.672 117.605 509.5 117.129C509.336 116.652 509.102 116.254 508.797 115.934C508.5 115.605 508.141 115.359 507.719 115.195C507.297 115.023 506.828 114.938 506.312 114.938C505.82 114.938 505.367 115.035 504.953 115.23C504.539 115.418 504.176 115.684 503.863 116.027C503.551 116.363 503.301 116.766 503.113 117.234C502.926 117.695 502.812 118.203 502.773 118.758H509.781ZM514.363 113.449H516.52V115.172H516.566C516.707 114.883 516.883 114.609 517.094 114.352C517.312 114.094 517.57 113.871 517.867 113.684C518.172 113.488 518.52 113.336 518.91 113.227C519.309 113.117 519.762 113.062 520.27 113.062C520.941 113.062 521.586 113.191 522.203 113.449C522.82 113.707 523.367 114.094 523.844 114.609C524.32 115.125 524.699 115.773 524.98 116.555C525.262 117.328 525.402 118.23 525.402 119.262C525.402 120.551 525.27 121.648 525.004 122.555C524.746 123.453 524.375 124.188 523.891 124.758C523.414 125.328 522.836 125.742 522.156 126C521.477 126.258 520.719 126.387 519.883 126.387C519.469 126.387 519.082 126.332 518.723 126.223C518.363 126.113 518.039 125.973 517.75 125.801C517.469 125.621 517.227 125.426 517.023 125.215C516.82 124.996 516.668 124.785 516.566 124.582H516.52V130.945H514.363V113.449ZM516.473 119.789C516.473 120.469 516.539 121.098 516.672 121.676C516.805 122.246 517.008 122.742 517.281 123.164C517.562 123.586 517.91 123.918 518.324 124.16C518.746 124.395 519.242 124.512 519.812 124.512C520.406 124.512 520.918 124.395 521.348 124.16C521.785 123.918 522.145 123.586 522.426 123.164C522.707 122.742 522.914 122.246 523.047 121.676C523.18 121.098 523.246 120.469 523.246 119.789C523.246 119.078 523.18 118.426 523.047 117.832C522.914 117.238 522.707 116.727 522.426 116.297C522.145 115.867 521.785 115.535 521.348 115.301C520.918 115.059 520.406 114.938 519.812 114.938C519.242 114.938 518.746 115.059 518.324 115.301C517.91 115.535 517.562 115.867 517.281 116.297C517.008 116.727 516.805 117.238 516.672 117.832C516.539 118.426 516.473 119.078 516.473 119.789Z" fill="#E8E8E8"/>
<path d="M968.449 122.582C968.418 122.887 968.355 123.219 968.262 123.578C968.176 123.938 968.047 124.297 967.875 124.656C967.703 125.008 967.48 125.348 967.207 125.676C966.941 126.004 966.613 126.297 966.223 126.555C965.84 126.805 965.387 127.004 964.863 127.152C964.34 127.309 963.742 127.387 963.07 127.387C962.703 127.387 962.316 127.34 961.91 127.246C961.504 127.16 961.105 127.012 960.715 126.801C960.332 126.59 959.965 126.32 959.613 125.992C959.27 125.656 958.965 125.242 958.699 124.75C958.441 124.258 958.234 123.688 958.078 123.039C957.922 122.383 957.844 121.633 957.844 120.789C957.844 119.75 957.992 118.816 958.289 117.988C958.586 117.152 958.98 116.445 959.473 115.867C959.973 115.289 960.551 114.844 961.207 114.531C961.871 114.219 962.566 114.062 963.293 114.062C963.949 114.062 964.527 114.133 965.027 114.273C965.535 114.414 965.977 114.602 966.352 114.836C966.727 115.07 967.043 115.344 967.301 115.656C967.559 115.961 967.766 116.285 967.922 116.629C968.086 116.965 968.207 117.309 968.285 117.66C968.371 118.012 968.426 118.348 968.449 118.668H966.434C966.324 117.816 966.027 117.148 965.543 116.664C965.066 116.18 964.395 115.938 963.527 115.938C962.934 115.938 962.414 116.059 961.969 116.301C961.531 116.543 961.164 116.883 960.867 117.32C960.578 117.75 960.359 118.273 960.211 118.891C960.07 119.5 960 120.172 960 120.906C960 121.734 960.078 122.449 960.234 123.051C960.391 123.645 960.613 124.137 960.902 124.527C961.191 124.91 961.543 125.195 961.957 125.383C962.379 125.562 962.855 125.652 963.387 125.652C963.762 125.652 964.117 125.586 964.453 125.453C964.789 125.312 965.09 125.113 965.355 124.855C965.621 124.59 965.848 124.266 966.035 123.883C966.223 123.5 966.355 123.066 966.434 122.582H968.449ZM973.922 116.324H969.598V114.449H980.402V116.324H976.078V127H973.922V116.324ZM982.559 118.211C982.582 117.445 982.727 116.801 982.992 116.277C983.258 115.746 983.617 115.316 984.07 114.988C984.523 114.66 985.059 114.426 985.676 114.285C986.301 114.137 986.98 114.062 987.715 114.062C988.324 114.062 988.914 114.125 989.484 114.25C990.062 114.375 990.574 114.578 991.02 114.859C991.465 115.133 991.82 115.492 992.086 115.938C992.359 116.375 992.496 116.91 992.496 117.543V124.844C992.496 125.047 992.551 125.223 992.66 125.371C992.77 125.512 992.945 125.582 993.188 125.582C993.297 125.582 993.41 125.574 993.527 125.559C993.645 125.535 993.766 125.512 993.891 125.488V126.977C993.711 127.023 993.531 127.066 993.352 127.105C993.18 127.145 992.973 127.164 992.73 127.164C992.355 127.164 992.031 127.133 991.758 127.07C991.492 127.008 991.266 126.906 991.078 126.766C990.898 126.617 990.758 126.43 990.656 126.203C990.555 125.969 990.488 125.684 990.457 125.348C990.191 125.637 989.91 125.906 989.613 126.156C989.316 126.398 988.984 126.613 988.617 126.801C988.25 126.98 987.84 127.121 987.387 127.223C986.934 127.332 986.422 127.387 985.852 127.387C985.367 127.387 984.895 127.309 984.434 127.152C983.98 126.996 983.57 126.766 983.203 126.461C982.844 126.156 982.555 125.781 982.336 125.336C982.117 124.883 982.008 124.359 982.008 123.766C982.008 123.117 982.117 122.559 982.336 122.09C982.555 121.613 982.84 121.219 983.191 120.906C983.543 120.586 983.945 120.34 984.398 120.168C984.852 119.996 985.312 119.883 985.781 119.828L989.309 119.395C989.645 119.355 989.906 119.227 990.094 119.008C990.289 118.781 990.387 118.422 990.387 117.93C990.387 117.172 990.137 116.629 989.637 116.301C989.145 115.965 988.434 115.797 987.504 115.797C986.551 115.797 985.84 116 985.371 116.406C984.902 116.805 984.637 117.406 984.574 118.211H982.559ZM990.34 120.613C990.168 120.738 989.953 120.844 989.695 120.93C989.445 121.008 989.168 121.074 988.863 121.129C988.559 121.184 988.234 121.234 987.891 121.281C987.547 121.32 987.203 121.363 986.859 121.41C986.469 121.465 986.109 121.543 985.781 121.645C985.453 121.746 985.168 121.879 984.926 122.043C984.684 122.207 984.496 122.406 984.363 122.641C984.23 122.867 984.164 123.137 984.164 123.449C984.164 123.809 984.219 124.125 984.328 124.398C984.445 124.672 984.602 124.902 984.797 125.09C985 125.277 985.242 125.418 985.523 125.512C985.805 125.605 986.113 125.652 986.449 125.652C986.66 125.652 986.902 125.629 987.176 125.582C987.449 125.527 987.73 125.449 988.02 125.348C988.309 125.246 988.59 125.117 988.863 124.961C989.145 124.797 989.395 124.602 989.613 124.375C989.832 124.148 990.008 123.891 990.141 123.602C990.273 123.312 990.34 122.988 990.34 122.629V120.613ZM1004.82 119.582H1005.91L1010.03 114.449H1012.63L1007.7 120.402L1012.82 127H1010.16L1005.91 121.293H1004.82V127H1002.67V121.293H1001.57L997.289 127H994.629L999.797 120.402L994.887 114.449H997.5L1001.57 119.582H1002.67V114.449H1004.82V119.582ZM1021.23 114.449H1023.39V116.172H1023.43C1023.57 115.883 1023.75 115.609 1023.96 115.352C1024.18 115.094 1024.44 114.871 1024.73 114.684C1025.04 114.488 1025.39 114.336 1025.78 114.227C1026.18 114.117 1026.63 114.062 1027.14 114.062C1027.81 114.062 1028.45 114.191 1029.07 114.449C1029.69 114.707 1030.23 115.094 1030.71 115.609C1031.19 116.125 1031.57 116.773 1031.85 117.555C1032.13 118.328 1032.27 119.23 1032.27 120.262C1032.27 121.551 1032.14 122.648 1031.87 123.555C1031.61 124.453 1031.24 125.188 1030.76 125.758C1030.28 126.328 1029.7 126.742 1029.02 127C1028.34 127.258 1027.59 127.387 1026.75 127.387C1026.34 127.387 1025.95 127.332 1025.59 127.223C1025.23 127.113 1024.91 126.973 1024.62 126.801C1024.34 126.621 1024.09 126.426 1023.89 126.215C1023.69 125.996 1023.54 125.785 1023.43 125.582H1023.39V131.945H1021.23V114.449ZM1023.34 120.789C1023.34 121.469 1023.41 122.098 1023.54 122.676C1023.67 123.246 1023.88 123.742 1024.15 124.164C1024.43 124.586 1024.78 124.918 1025.19 125.16C1025.61 125.395 1026.11 125.512 1026.68 125.512C1027.27 125.512 1027.79 125.395 1028.21 125.16C1028.65 124.918 1029.01 124.586 1029.29 124.164C1029.57 123.742 1029.78 123.246 1029.91 122.676C1030.05 122.098 1030.11 121.469 1030.11 120.789C1030.11 120.078 1030.05 119.426 1029.91 118.832C1029.78 118.238 1029.57 117.727 1029.29 117.297C1029.01 116.867 1028.65 116.535 1028.21 116.301C1027.79 116.059 1027.27 115.938 1026.68 115.938C1026.11 115.938 1025.61 116.059 1025.19 116.301C1024.78 116.535 1024.43 116.867 1024.15 117.297C1023.88 117.727 1023.67 118.238 1023.54 118.832C1023.41 119.426 1023.34 120.078 1023.34 120.789ZM1034.68 118.211C1034.71 117.445 1034.85 116.801 1035.12 116.277C1035.38 115.746 1035.74 115.316 1036.2 114.988C1036.65 114.66 1037.18 114.426 1037.8 114.285C1038.43 114.137 1039.11 114.062 1039.84 114.062C1040.45 114.062 1041.04 114.125 1041.61 114.25C1042.19 114.375 1042.7 114.578 1043.14 114.859C1043.59 115.133 1043.95 115.492 1044.21 115.938C1044.48 116.375 1044.62 116.91 1044.62 117.543V124.844C1044.62 125.047 1044.68 125.223 1044.79 125.371C1044.89 125.512 1045.07 125.582 1045.31 125.582C1045.42 125.582 1045.54 125.574 1045.65 125.559C1045.77 125.535 1045.89 125.512 1046.02 125.488V126.977C1045.84 127.023 1045.66 127.066 1045.48 127.105C1045.3 127.145 1045.1 127.164 1044.86 127.164C1044.48 127.164 1044.16 127.133 1043.88 127.07C1043.62 127.008 1043.39 126.906 1043.2 126.766C1043.02 126.617 1042.88 126.43 1042.78 126.203C1042.68 125.969 1042.61 125.684 1042.58 125.348C1042.32 125.637 1042.04 125.906 1041.74 126.156C1041.44 126.398 1041.11 126.613 1040.74 126.801C1040.38 126.98 1039.96 127.121 1039.51 127.223C1039.06 127.332 1038.55 127.387 1037.98 127.387C1037.49 127.387 1037.02 127.309 1036.56 127.152C1036.11 126.996 1035.7 126.766 1035.33 126.461C1034.97 126.156 1034.68 125.781 1034.46 125.336C1034.24 124.883 1034.13 124.359 1034.13 123.766C1034.13 123.117 1034.24 122.559 1034.46 122.09C1034.68 121.613 1034.96 121.219 1035.32 120.906C1035.67 120.586 1036.07 120.34 1036.52 120.168C1036.98 119.996 1037.44 119.883 1037.91 119.828L1041.43 119.395C1041.77 119.355 1042.03 119.227 1042.22 119.008C1042.41 118.781 1042.51 118.422 1042.51 117.93C1042.51 117.172 1042.26 116.629 1041.76 116.301C1041.27 115.965 1040.56 115.797 1039.63 115.797C1038.68 115.797 1037.96 116 1037.5 116.406C1037.03 116.805 1036.76 117.406 1036.7 118.211H1034.68ZM1042.46 120.613C1042.29 120.738 1042.08 120.844 1041.82 120.93C1041.57 121.008 1041.29 121.074 1040.99 121.129C1040.68 121.184 1040.36 121.234 1040.02 121.281C1039.67 121.32 1039.33 121.363 1038.98 121.41C1038.59 121.465 1038.23 121.543 1037.91 121.645C1037.58 121.746 1037.29 121.879 1037.05 122.043C1036.81 122.207 1036.62 122.406 1036.49 122.641C1036.36 122.867 1036.29 123.137 1036.29 123.449C1036.29 123.809 1036.34 124.125 1036.45 124.398C1036.57 124.672 1036.73 124.902 1036.92 125.09C1037.12 125.277 1037.37 125.418 1037.65 125.512C1037.93 125.605 1038.24 125.652 1038.57 125.652C1038.79 125.652 1039.03 125.629 1039.3 125.582C1039.57 125.527 1039.86 125.449 1040.14 125.348C1040.43 125.246 1040.71 125.117 1040.99 124.961C1041.27 124.797 1041.52 124.602 1041.74 124.375C1041.96 124.148 1042.13 123.891 1042.27 123.602C1042.4 123.312 1042.46 122.988 1042.46 122.629V120.613ZM1057.82 109.621C1057.8 109.738 1057.78 109.883 1057.75 110.055C1057.72 110.219 1057.67 110.395 1057.59 110.582C1057.52 110.77 1057.41 110.961 1057.27 111.156C1057.13 111.344 1056.95 111.52 1056.73 111.684C1056.6 111.77 1056.49 111.844 1056.39 111.906C1056.29 111.969 1056.16 112.023 1056 112.07C1055.84 112.117 1055.64 112.156 1055.4 112.188C1055.16 112.219 1054.84 112.238 1054.43 112.246L1053.54 112.27C1052.93 112.285 1052.38 112.41 1051.89 112.645C1051.4 112.871 1050.97 113.191 1050.6 113.605C1050.23 114.012 1049.93 114.504 1049.68 115.082C1049.44 115.66 1049.26 116.305 1049.14 117.016C1049.31 116.703 1049.51 116.398 1049.75 116.102C1050 115.797 1050.3 115.527 1050.66 115.293C1051.02 115.051 1051.44 114.859 1051.92 114.719C1052.41 114.57 1052.97 114.496 1053.61 114.496C1054.34 114.496 1055.02 114.625 1055.67 114.883C1056.33 115.141 1056.9 115.527 1057.38 116.043C1057.88 116.559 1058.27 117.199 1058.55 117.965C1058.84 118.73 1058.99 119.621 1058.99 120.637C1058.99 120.957 1058.96 121.348 1058.92 121.809C1058.87 122.262 1058.78 122.738 1058.64 123.238C1058.5 123.738 1058.29 124.238 1058.03 124.738C1057.77 125.23 1057.42 125.672 1056.98 126.062C1056.55 126.453 1056.03 126.77 1055.4 127.012C1054.79 127.262 1054.04 127.387 1053.18 127.387C1052.82 127.387 1052.43 127.355 1052.03 127.293C1051.63 127.238 1051.23 127.133 1050.82 126.977C1050.42 126.82 1050.03 126.602 1049.65 126.32C1049.27 126.039 1048.93 125.68 1048.62 125.242C1048.46 125.023 1048.3 124.773 1048.15 124.492C1048 124.203 1047.86 123.855 1047.74 123.449C1047.61 123.043 1047.51 122.562 1047.43 122.008C1047.36 121.453 1047.33 120.797 1047.33 120.039C1047.33 119.539 1047.35 118.973 1047.4 118.34C1047.45 117.707 1047.53 117.062 1047.64 116.406C1047.76 115.75 1047.92 115.117 1048.11 114.508C1048.31 113.891 1048.56 113.352 1048.86 112.891C1049.19 112.391 1049.54 111.984 1049.89 111.672C1050.25 111.359 1050.64 111.113 1051.04 110.934C1051.45 110.754 1051.89 110.625 1052.36 110.547C1052.82 110.469 1053.33 110.418 1053.88 110.395L1054.64 110.371C1054.89 110.363 1055.1 110.352 1055.27 110.336C1055.45 110.312 1055.6 110.277 1055.72 110.23C1055.84 110.184 1055.93 110.113 1056 110.02C1056.07 109.926 1056.13 109.793 1056.18 109.621H1057.82ZM1049.48 120.953C1049.48 121.188 1049.5 121.465 1049.52 121.785C1049.55 122.105 1049.61 122.441 1049.7 122.793C1049.78 123.137 1049.91 123.48 1050.07 123.824C1050.23 124.168 1050.45 124.477 1050.71 124.75C1050.99 125.016 1051.32 125.234 1051.72 125.406C1052.12 125.57 1052.6 125.652 1053.15 125.652C1053.77 125.652 1054.29 125.555 1054.71 125.359C1055.13 125.156 1055.48 124.898 1055.75 124.586C1056.03 124.266 1056.23 123.914 1056.38 123.531C1056.52 123.148 1056.63 122.777 1056.69 122.418C1056.76 122.051 1056.8 121.719 1056.81 121.422C1056.82 121.117 1056.83 120.887 1056.83 120.73C1056.83 120.16 1056.77 119.602 1056.63 119.055C1056.51 118.508 1056.3 118.023 1056.01 117.602C1055.73 117.18 1055.36 116.84 1054.9 116.582C1054.45 116.324 1053.89 116.195 1053.22 116.195C1052.57 116.195 1052.02 116.324 1051.55 116.582C1051.08 116.832 1050.69 117.176 1050.39 117.613C1050.08 118.043 1049.86 118.547 1049.71 119.125C1049.56 119.695 1049.48 120.305 1049.48 120.953ZM1070.19 120.707C1070.19 120.012 1070.11 119.375 1069.96 118.797C1069.8 118.211 1069.57 117.707 1069.25 117.285C1068.94 116.863 1068.55 116.535 1068.09 116.301C1067.64 116.059 1067.11 115.938 1066.51 115.938C1065.91 115.938 1065.38 116.059 1064.93 116.301C1064.48 116.535 1064.09 116.863 1063.78 117.285C1063.47 117.707 1063.23 118.211 1063.08 118.797C1062.92 119.375 1062.84 120.012 1062.84 120.707C1062.84 121.41 1062.92 122.059 1063.08 122.652C1063.23 123.238 1063.47 123.742 1063.78 124.164C1064.09 124.586 1064.48 124.918 1064.93 125.16C1065.38 125.395 1065.91 125.512 1066.51 125.512C1067.11 125.512 1067.64 125.395 1068.09 125.16C1068.55 124.918 1068.94 124.586 1069.25 124.164C1069.57 123.742 1069.8 123.238 1069.96 122.652C1070.11 122.059 1070.19 121.41 1070.19 120.707ZM1072.35 120.707C1072.35 121.738 1072.21 122.668 1071.95 123.496C1071.68 124.316 1071.3 125.016 1070.8 125.594C1070.3 126.172 1069.69 126.617 1068.96 126.93C1068.24 127.234 1067.43 127.387 1066.51 127.387C1065.6 127.387 1064.78 127.234 1064.06 126.93C1063.34 126.617 1062.73 126.172 1062.23 125.594C1061.73 125.016 1061.35 124.316 1061.09 123.496C1060.82 122.668 1060.69 121.738 1060.69 120.707C1060.69 119.691 1060.82 118.773 1061.09 117.953C1061.35 117.133 1061.73 116.434 1062.23 115.855C1062.73 115.277 1063.34 114.836 1064.06 114.531C1064.78 114.219 1065.6 114.062 1066.51 114.062C1067.43 114.062 1068.24 114.219 1068.96 114.531C1069.69 114.836 1070.3 115.277 1070.8 115.855C1071.3 116.434 1071.68 117.133 1071.95 117.953C1072.21 118.773 1072.35 119.691 1072.35 120.707ZM1078.12 116.324H1073.8V114.449H1084.61V116.324H1080.28V127H1078.12V116.324ZM1098.79 114.449H1100.94V127H1098.79V114.449ZM1086.79 114.449H1088.94V119.172H1092.71C1093.39 119.172 1094 119.266 1094.54 119.453C1095.09 119.633 1095.55 119.895 1095.93 120.238C1096.3 120.574 1096.59 120.984 1096.78 121.469C1096.98 121.945 1097.09 122.484 1097.09 123.086C1097.09 123.695 1096.98 124.242 1096.78 124.727C1096.59 125.203 1096.3 125.613 1095.93 125.957C1095.55 126.293 1095.09 126.551 1094.54 126.73C1094 126.91 1093.39 127 1092.71 127H1086.79V114.449ZM1088.94 125.277H1092.28C1092.66 125.277 1093 125.238 1093.32 125.16C1093.65 125.082 1093.93 124.957 1094.17 124.785C1094.4 124.605 1094.59 124.379 1094.72 124.105C1094.85 123.824 1094.92 123.484 1094.92 123.086C1094.92 122.695 1094.85 122.363 1094.71 122.09C1094.57 121.816 1094.38 121.594 1094.13 121.422C1093.89 121.242 1093.59 121.113 1093.24 121.035C1092.9 120.949 1092.52 120.906 1092.09 120.906H1088.94V125.277Z" fill="#E8E8E8"/>
</svg>
