<svg width="414" height="178" viewBox="0 0 414 178" fill="none" xmlns="http://www.w3.org/2000/svg">
<rect width="415" height="178" fill="#454242"/>
<path d="M176.271 59.3071V55.7402H177.245C177.348 55.5059 177.443 55.269 177.531 55.0298C177.619 54.7856 177.699 54.5122 177.772 54.2095C177.851 53.9019 177.921 53.5503 177.985 53.1548C178.053 52.7593 178.117 52.2905 178.175 51.7485C178.244 51.1772 178.297 50.6157 178.336 50.064C178.375 49.5073 178.405 48.9873 178.424 48.5039C178.449 48.0205 178.463 47.5835 178.468 47.1929C178.478 46.8022 178.485 46.4824 178.49 46.2334H185.258V55.7402H186.474V59.3071H185.126V57H177.619V59.3071H176.271ZM179.838 47.4932C179.838 48.1914 179.809 48.8872 179.75 49.5806C179.696 50.2739 179.63 50.9722 179.552 51.6753C179.499 52.2319 179.442 52.7056 179.384 53.0962C179.33 53.4819 179.271 53.8262 179.208 54.1289C179.149 54.4268 179.081 54.7026 179.003 54.9565C178.93 55.2056 178.844 55.4668 178.747 55.7402H183.778V47.4932H179.838ZM187.492 51.5068C187.506 51.0283 187.597 50.6255 187.763 50.2983C187.929 49.9663 188.153 49.6978 188.437 49.4927C188.72 49.2876 189.054 49.1411 189.44 49.0532C189.831 48.9604 190.255 48.9141 190.714 48.9141C191.095 48.9141 191.464 48.9531 191.82 49.0312C192.182 49.1094 192.501 49.2363 192.78 49.4121C193.058 49.583 193.28 49.8076 193.446 50.0859C193.617 50.3594 193.703 50.6938 193.703 51.0894V55.6523C193.703 55.7793 193.737 55.8892 193.805 55.9819C193.874 56.0698 193.983 56.1138 194.135 56.1138C194.203 56.1138 194.274 56.1089 194.347 56.0991C194.42 56.0845 194.496 56.0698 194.574 56.0552V56.9854C194.462 57.0146 194.35 57.0415 194.237 57.0659C194.13 57.0903 194 57.1025 193.849 57.1025C193.615 57.1025 193.412 57.083 193.241 57.0439C193.075 57.0049 192.934 56.9414 192.816 56.8535C192.704 56.7607 192.616 56.6436 192.553 56.502C192.489 56.3555 192.448 56.1772 192.428 55.9673C192.262 56.1479 192.086 56.3164 191.901 56.4727C191.715 56.624 191.508 56.7583 191.278 56.8755C191.049 56.9878 190.792 57.0757 190.509 57.1392C190.226 57.2075 189.906 57.2417 189.55 57.2417C189.247 57.2417 188.952 57.1929 188.664 57.0952C188.38 56.9976 188.124 56.8535 187.895 56.6631C187.67 56.4727 187.489 56.2383 187.353 55.96C187.216 55.6768 187.147 55.3496 187.147 54.9785C187.147 54.5732 187.216 54.2241 187.353 53.9312C187.489 53.6333 187.667 53.3867 187.887 53.1914C188.107 52.9912 188.358 52.8374 188.642 52.73C188.925 52.6226 189.213 52.5518 189.506 52.5176L191.71 52.2466C191.92 52.2222 192.084 52.1416 192.201 52.0049C192.323 51.8633 192.384 51.6387 192.384 51.3311C192.384 50.8574 192.228 50.5181 191.916 50.313C191.608 50.103 191.164 49.998 190.583 49.998C189.987 49.998 189.542 50.125 189.25 50.3789C188.957 50.6279 188.791 51.0039 188.751 51.5068H187.492ZM192.355 53.0083C192.248 53.0864 192.113 53.1523 191.952 53.2061C191.796 53.2549 191.623 53.2964 191.432 53.3306C191.242 53.3647 191.039 53.3965 190.824 53.4258C190.609 53.4502 190.395 53.4771 190.18 53.5063C189.936 53.5405 189.711 53.5894 189.506 53.6528C189.301 53.7163 189.123 53.7993 188.971 53.9019C188.82 54.0044 188.703 54.1289 188.62 54.2754C188.537 54.417 188.495 54.5854 188.495 54.7808C188.495 55.0054 188.529 55.2031 188.598 55.374C188.671 55.5449 188.769 55.689 188.891 55.8062C189.018 55.9233 189.169 56.0112 189.345 56.0698C189.521 56.1284 189.713 56.1577 189.923 56.1577C190.055 56.1577 190.207 56.1431 190.377 56.1138C190.548 56.0796 190.724 56.0308 190.905 55.9673C191.085 55.9038 191.261 55.8232 191.432 55.7256C191.608 55.623 191.764 55.501 191.901 55.3594C192.038 55.2178 192.147 55.0566 192.23 54.876C192.313 54.6953 192.355 54.4927 192.355 54.2681V53.0083ZM195.783 49.1558H197.13V50.2324H197.16C197.248 50.0518 197.357 49.8809 197.489 49.7197C197.626 49.5586 197.787 49.4194 197.973 49.3022C198.163 49.1802 198.38 49.085 198.625 49.0166C198.874 48.9482 199.157 48.9141 199.474 48.9141C199.894 48.9141 200.297 48.9946 200.683 49.1558C201.068 49.3169 201.41 49.5586 201.708 49.8809C202.006 50.2031 202.243 50.6084 202.418 51.0967C202.594 51.5801 202.682 52.144 202.682 52.7886C202.682 53.5942 202.599 54.2803 202.433 54.8467C202.272 55.4082 202.04 55.8672 201.737 56.2236C201.439 56.5801 201.078 56.8389 200.653 57C200.229 57.1611 199.755 57.2417 199.232 57.2417C198.974 57.2417 198.732 57.2075 198.507 57.1392C198.283 57.0708 198.08 56.9829 197.899 56.8755C197.724 56.7632 197.572 56.6411 197.445 56.5093C197.318 56.3726 197.223 56.2407 197.16 56.1138H197.13V60.0908H195.783V49.1558ZM197.101 53.1182C197.101 53.543 197.143 53.936 197.226 54.2974C197.309 54.6538 197.436 54.9639 197.606 55.2275C197.782 55.4912 198 55.6987 198.258 55.8501C198.522 55.9966 198.832 56.0698 199.188 56.0698C199.56 56.0698 199.879 55.9966 200.148 55.8501C200.421 55.6987 200.646 55.4912 200.822 55.2275C200.998 54.9639 201.127 54.6538 201.21 54.2974C201.293 53.936 201.334 53.543 201.334 53.1182C201.334 52.6738 201.293 52.2661 201.21 51.895C201.127 51.5239 200.998 51.2041 200.822 50.9355C200.646 50.667 200.421 50.4595 200.148 50.313C199.879 50.1616 199.56 50.0859 199.188 50.0859C198.832 50.0859 198.522 50.1616 198.258 50.313C198 50.4595 197.782 50.667 197.606 50.9355C197.436 51.2041 197.309 51.5239 197.226 51.895C197.143 52.2661 197.101 52.6738 197.101 53.1182ZM204.206 49.1558H205.553V52.1074H207.729C208.158 52.1074 208.542 52.166 208.878 52.2832C209.215 52.3955 209.501 52.5591 209.735 52.7739C209.97 52.9839 210.148 53.2402 210.27 53.543C210.397 53.8408 210.46 54.1777 210.46 54.5537C210.46 54.9346 210.397 55.2764 210.27 55.5791C210.148 55.877 209.97 56.1333 209.735 56.3481C209.501 56.5581 209.215 56.7192 208.878 56.8315C208.542 56.9438 208.158 57 207.729 57H204.206V49.1558ZM205.553 55.9233H207.465C207.699 55.9233 207.917 55.8989 208.117 55.8501C208.322 55.8013 208.498 55.7231 208.644 55.6157C208.791 55.5034 208.905 55.3618 208.988 55.1909C209.071 55.0151 209.113 54.8027 209.113 54.5537C209.113 54.3096 209.069 54.1021 208.981 53.9312C208.898 53.7603 208.778 53.6211 208.622 53.5137C208.471 53.4014 208.285 53.3208 208.065 53.272C207.851 53.2183 207.609 53.1914 207.34 53.1914H205.553V55.9233ZM218.085 57H216.73V53.8945H214.994C214.682 53.8945 214.408 53.9019 214.174 53.9165C213.944 53.9263 213.749 53.9702 213.588 54.0483C213.427 54.1265 213.3 54.2485 213.207 54.4146C213.119 54.5806 213.063 54.8174 213.039 55.125L212.98 55.9673C212.975 55.9917 212.97 56.0405 212.965 56.1138C212.96 56.187 212.951 56.2749 212.936 56.3774C212.921 56.4751 212.902 56.5801 212.877 56.6924C212.853 56.8047 212.824 56.9072 212.79 57H211.303C211.337 56.9561 211.369 56.9121 211.398 56.8682C211.432 56.8193 211.464 56.7534 211.493 56.6704C211.527 56.5874 211.557 56.48 211.581 56.3481C211.61 56.2163 211.637 56.0479 211.662 55.8428L211.75 54.8394C211.779 54.5757 211.813 54.3608 211.852 54.1948C211.896 54.0288 211.955 53.8921 212.028 53.7847C212.106 53.6724 212.206 53.582 212.328 53.5137C212.45 53.4404 212.604 53.3672 212.79 53.2939C211.95 52.9912 211.53 52.3711 211.53 51.4336C211.53 51.1992 211.559 50.9844 211.618 50.7891C211.676 50.5889 211.752 50.4106 211.845 50.2544C211.942 50.0981 212.05 49.9614 212.167 49.8442C212.289 49.7222 212.411 49.6221 212.533 49.5439C212.685 49.4463 212.851 49.373 213.031 49.3242C213.212 49.2705 213.393 49.2314 213.573 49.207C213.759 49.1826 213.939 49.168 214.115 49.1631C214.291 49.1582 214.452 49.1558 214.599 49.1558H218.085V57ZM216.73 50.3423H214.679C214.503 50.3423 214.352 50.3447 214.225 50.3496C214.098 50.3496 213.986 50.3545 213.888 50.3643C213.795 50.374 213.71 50.3911 213.632 50.4155C213.554 50.4399 213.473 50.4741 213.39 50.5181C213.219 50.6157 213.087 50.7598 212.995 50.9502C212.907 51.1406 212.863 51.3433 212.863 51.5581C212.863 51.7681 212.895 51.9463 212.958 52.0928C213.021 52.2344 213.104 52.3516 213.207 52.4443C213.314 52.5371 213.432 52.6104 213.559 52.6641C213.69 52.7129 213.822 52.7495 213.954 52.7739C214.091 52.7935 214.223 52.8057 214.35 52.8105C214.477 52.8154 214.586 52.8179 214.679 52.8179H216.73V50.3423ZM225.292 51.6021C225.292 52.2759 225.377 52.8862 225.548 53.4331C225.719 53.9751 225.958 54.4365 226.266 54.8174C226.579 55.1982 226.952 55.4937 227.387 55.7036C227.826 55.9087 228.31 56.0112 228.837 56.0112C229.296 56.0112 229.706 55.9282 230.067 55.7622C230.434 55.5962 230.749 55.3789 231.012 55.1104C231.276 54.8369 231.488 54.5293 231.649 54.1875C231.811 53.8457 231.918 53.499 231.972 53.1475H233.363C233.334 53.46 233.266 53.7798 233.158 54.1069C233.056 54.4292 232.914 54.7441 232.733 55.0518C232.558 55.3545 232.345 55.6426 232.096 55.916C231.847 56.1846 231.559 56.4189 231.232 56.6191C230.91 56.8193 230.548 56.978 230.148 57.0952C229.748 57.2124 229.311 57.271 228.837 57.271C228.51 57.271 228.158 57.2368 227.782 57.1685C227.411 57.1001 227.04 56.9854 226.669 56.8242C226.303 56.6631 225.949 56.4482 225.607 56.1797C225.27 55.9062 224.972 55.5645 224.713 55.1543C224.455 54.7441 224.247 54.2607 224.091 53.7041C223.935 53.1426 223.856 52.4907 223.856 51.7485C223.856 51.021 223.925 50.3716 224.062 49.8003C224.203 49.229 224.394 48.731 224.633 48.3062C224.877 47.8765 225.16 47.5127 225.482 47.2148C225.81 46.917 226.159 46.6753 226.53 46.4897C226.901 46.3042 227.287 46.1699 227.687 46.0869C228.087 46.0039 228.485 45.9624 228.881 45.9624C229.369 45.9624 229.813 46.0137 230.214 46.1162C230.619 46.2139 230.98 46.3506 231.298 46.5264C231.62 46.6973 231.901 46.8975 232.14 47.127C232.379 47.3564 232.58 47.6006 232.741 47.8594C232.907 48.1133 233.034 48.3745 233.122 48.6431C233.214 48.9116 233.271 49.1729 233.29 49.4268H231.884C231.791 49.0801 231.654 48.77 231.474 48.4966C231.293 48.2231 231.073 47.9937 230.814 47.8081C230.561 47.6177 230.272 47.4736 229.95 47.376C229.633 47.2734 229.291 47.2222 228.925 47.2222C228.373 47.2222 227.873 47.3247 227.423 47.5298C226.979 47.7349 226.598 48.0278 226.281 48.4087C225.963 48.7896 225.719 49.251 225.548 49.793C225.377 50.3301 225.292 50.9331 225.292 51.6021ZM235.084 51.5068C235.099 51.0283 235.189 50.6255 235.355 50.2983C235.521 49.9663 235.746 49.6978 236.029 49.4927C236.312 49.2876 236.647 49.1411 237.033 49.0532C237.423 48.9604 237.848 48.9141 238.307 48.9141C238.688 48.9141 239.057 48.9531 239.413 49.0312C239.774 49.1094 240.094 49.2363 240.373 49.4121C240.651 49.583 240.873 49.8076 241.039 50.0859C241.21 50.3594 241.295 50.6938 241.295 51.0894V55.6523C241.295 55.7793 241.33 55.8892 241.398 55.9819C241.466 56.0698 241.576 56.1138 241.728 56.1138C241.796 56.1138 241.867 56.1089 241.94 56.0991C242.013 56.0845 242.089 56.0698 242.167 56.0552V56.9854C242.055 57.0146 241.942 57.0415 241.83 57.0659C241.723 57.0903 241.593 57.1025 241.442 57.1025C241.208 57.1025 241.005 57.083 240.834 57.0439C240.668 57.0049 240.526 56.9414 240.409 56.8535C240.297 56.7607 240.209 56.6436 240.146 56.502C240.082 56.3555 240.041 56.1772 240.021 55.9673C239.855 56.1479 239.679 56.3164 239.494 56.4727C239.308 56.624 239.101 56.7583 238.871 56.8755C238.642 56.9878 238.385 57.0757 238.102 57.1392C237.819 57.2075 237.499 57.2417 237.143 57.2417C236.84 57.2417 236.544 57.1929 236.256 57.0952C235.973 56.9976 235.717 56.8535 235.487 56.6631C235.263 56.4727 235.082 56.2383 234.945 55.96C234.809 55.6768 234.74 55.3496 234.74 54.9785C234.74 54.5732 234.809 54.2241 234.945 53.9312C235.082 53.6333 235.26 53.3867 235.48 53.1914C235.7 52.9912 235.951 52.8374 236.234 52.73C236.518 52.6226 236.806 52.5518 237.099 52.5176L239.303 52.2466C239.513 52.2222 239.677 52.1416 239.794 52.0049C239.916 51.8633 239.977 51.6387 239.977 51.3311C239.977 50.8574 239.821 50.5181 239.508 50.313C239.201 50.103 238.756 49.998 238.175 49.998C237.58 49.998 237.135 50.125 236.842 50.3789C236.549 50.6279 236.383 51.0039 236.344 51.5068H235.084ZM239.948 53.0083C239.84 53.0864 239.706 53.1523 239.545 53.2061C239.389 53.2549 239.215 53.2964 239.025 53.3306C238.834 53.3647 238.632 53.3965 238.417 53.4258C238.202 53.4502 237.987 53.4771 237.772 53.5063C237.528 53.5405 237.304 53.5894 237.099 53.6528C236.894 53.7163 236.715 53.7993 236.564 53.9019C236.413 54.0044 236.295 54.1289 236.212 54.2754C236.129 54.417 236.088 54.5854 236.088 54.7808C236.088 55.0054 236.122 55.2031 236.19 55.374C236.264 55.5449 236.361 55.689 236.483 55.8062C236.61 55.9233 236.762 56.0112 236.938 56.0698C237.113 56.1284 237.306 56.1577 237.516 56.1577C237.648 56.1577 237.799 56.1431 237.97 56.1138C238.141 56.0796 238.317 56.0308 238.498 55.9673C238.678 55.9038 238.854 55.8232 239.025 55.7256C239.201 55.623 239.357 55.501 239.494 55.3594C239.63 55.2178 239.74 55.0566 239.823 54.876C239.906 54.6953 239.948 54.4927 239.948 54.2681V53.0083ZM243.375 49.1558H244.723V50.2324H244.752C244.84 50.0518 244.95 49.8809 245.082 49.7197C245.219 49.5586 245.38 49.4194 245.565 49.3022C245.756 49.1802 245.973 49.085 246.217 49.0166C246.466 48.9482 246.75 48.9141 247.067 48.9141C247.487 48.9141 247.89 48.9946 248.275 49.1558C248.661 49.3169 249.003 49.5586 249.301 49.8809C249.599 50.2031 249.835 50.6084 250.011 51.0967C250.187 51.5801 250.275 52.144 250.275 52.7886C250.275 53.5942 250.192 54.2803 250.026 54.8467C249.865 55.4082 249.633 55.8672 249.33 56.2236C249.032 56.5801 248.671 56.8389 248.246 57C247.821 57.1611 247.348 57.2417 246.825 57.2417C246.566 57.2417 246.325 57.2075 246.1 57.1392C245.875 57.0708 245.673 56.9829 245.492 56.8755C245.316 56.7632 245.165 56.6411 245.038 56.5093C244.911 56.3726 244.816 56.2407 244.752 56.1138H244.723V60.0908H243.375V49.1558ZM244.694 53.1182C244.694 53.543 244.735 53.936 244.818 54.2974C244.901 54.6538 245.028 54.9639 245.199 55.2275C245.375 55.4912 245.592 55.6987 245.851 55.8501C246.115 55.9966 246.425 56.0698 246.781 56.0698C247.152 56.0698 247.472 55.9966 247.741 55.8501C248.014 55.6987 248.239 55.4912 248.415 55.2275C248.59 54.9639 248.72 54.6538 248.803 54.2974C248.886 53.936 248.927 53.543 248.927 53.1182C248.927 52.6738 248.886 52.2661 248.803 51.895C248.72 51.5239 248.59 51.2041 248.415 50.9355C248.239 50.667 248.014 50.4595 247.741 50.313C247.472 50.1616 247.152 50.0859 246.781 50.0859C246.425 50.0859 246.115 50.1616 245.851 50.313C245.592 50.4595 245.375 50.667 245.199 50.9355C245.028 51.2041 244.901 51.5239 244.818 51.895C244.735 52.2661 244.694 52.6738 244.694 53.1182ZM251.798 49.1558H253.146V52.9497L257.108 49.1558H258.874L255.189 52.6201L258.932 57H257.196L254.135 53.4404L253.146 54.2681V57H251.798V49.1558ZM260.016 49.1558H261.364V55.1689H261.393L265.246 49.1558H266.791V57H265.436V50.9868H265.407L261.562 57H260.016V49.1558ZM274.943 54.2388C274.923 54.4292 274.884 54.6367 274.826 54.8613C274.772 55.0859 274.691 55.3105 274.584 55.5352C274.477 55.7549 274.337 55.9673 274.167 56.1724C274 56.3774 273.795 56.5605 273.551 56.7217C273.312 56.8779 273.029 57.0024 272.702 57.0952C272.375 57.1929 272.001 57.2417 271.581 57.2417C271.352 57.2417 271.11 57.2124 270.856 57.1538C270.602 57.1001 270.353 57.0073 270.109 56.8755C269.87 56.7437 269.64 56.5752 269.42 56.3701C269.206 56.1602 269.015 55.9014 268.849 55.5938C268.688 55.2861 268.559 54.9297 268.461 54.5244C268.363 54.1143 268.314 53.6455 268.314 53.1182C268.314 52.4688 268.407 51.8853 268.593 51.3677C268.778 50.8452 269.025 50.4033 269.333 50.042C269.645 49.6807 270.006 49.4023 270.417 49.207C270.832 49.0117 271.266 48.9141 271.72 48.9141C272.13 48.9141 272.492 48.958 272.804 49.0459C273.122 49.1338 273.397 49.251 273.632 49.3975C273.866 49.5439 274.064 49.7148 274.225 49.9102C274.386 50.1006 274.516 50.3032 274.613 50.5181C274.716 50.728 274.792 50.9429 274.84 51.1626C274.894 51.3823 274.928 51.5923 274.943 51.7925H273.683C273.615 51.2603 273.429 50.8428 273.126 50.54C272.829 50.2373 272.409 50.0859 271.867 50.0859C271.496 50.0859 271.171 50.1616 270.893 50.313C270.619 50.4644 270.39 50.6768 270.204 50.9502C270.023 51.2188 269.887 51.5459 269.794 51.9316C269.706 52.3125 269.662 52.7324 269.662 53.1914C269.662 53.709 269.711 54.1558 269.809 54.5317C269.906 54.9028 270.045 55.2104 270.226 55.4546C270.407 55.6938 270.626 55.8721 270.885 55.9893C271.149 56.1016 271.447 56.1577 271.779 56.1577C272.013 56.1577 272.235 56.1162 272.445 56.0332C272.655 55.9453 272.843 55.8208 273.009 55.6597C273.175 55.4937 273.317 55.291 273.434 55.0518C273.551 54.8125 273.634 54.5415 273.683 54.2388H274.943ZM281.754 53.0669C281.754 52.6323 281.706 52.2344 281.608 51.873C281.51 51.5068 281.364 51.1919 281.168 50.9282C280.973 50.6646 280.731 50.4595 280.443 50.313C280.16 50.1616 279.831 50.0859 279.455 50.0859C279.079 50.0859 278.749 50.1616 278.466 50.313C278.183 50.4595 277.943 50.6646 277.748 50.9282C277.553 51.1919 277.406 51.5068 277.309 51.873C277.211 52.2344 277.162 52.6323 277.162 53.0669C277.162 53.5063 277.211 53.9116 277.309 54.2827C277.406 54.6489 277.553 54.9639 277.748 55.2275C277.943 55.4912 278.183 55.6987 278.466 55.8501C278.749 55.9966 279.079 56.0698 279.455 56.0698C279.831 56.0698 280.16 55.9966 280.443 55.8501C280.731 55.6987 280.973 55.4912 281.168 55.2275C281.364 54.9639 281.51 54.6489 281.608 54.2827C281.706 53.9116 281.754 53.5063 281.754 53.0669ZM283.102 53.0669C283.102 53.7114 283.019 54.2925 282.853 54.8101C282.687 55.3228 282.448 55.7598 282.135 56.1211C281.823 56.4824 281.439 56.7607 280.985 56.9561C280.536 57.1465 280.026 57.2417 279.455 57.2417C278.883 57.2417 278.373 57.1465 277.924 56.9561C277.475 56.7607 277.094 56.4824 276.781 56.1211C276.469 55.7598 276.229 55.3228 276.063 54.8101C275.897 54.2925 275.814 53.7114 275.814 53.0669C275.814 52.4321 275.897 51.8584 276.063 51.3457C276.229 50.833 276.469 50.396 276.781 50.0347C277.094 49.6733 277.475 49.3975 277.924 49.207C278.373 49.0117 278.883 48.9141 279.455 48.9141C280.026 48.9141 280.536 49.0117 280.985 49.207C281.439 49.3975 281.823 49.6733 282.135 50.0347C282.448 50.396 282.687 50.833 282.853 51.3457C283.019 51.8584 283.102 52.4321 283.102 53.0669ZM284.625 49.1558H287.965C288.922 49.1558 289.638 49.334 290.111 49.6904C290.59 50.0469 290.829 50.5645 290.829 51.2432C290.829 51.6045 290.741 51.9097 290.565 52.1587C290.39 52.4077 290.158 52.6274 289.87 52.8179C290.285 52.9741 290.614 53.1987 290.858 53.4917C291.103 53.7847 291.225 54.1631 291.225 54.627C291.225 54.9932 291.164 55.3228 291.042 55.6157C290.919 55.9087 290.734 56.1577 290.485 56.3628C290.236 56.5679 289.918 56.7266 289.533 56.8389C289.152 56.9463 288.7 57 288.178 57H284.625V49.1558ZM285.973 55.9233H288.024C288.38 55.9233 288.676 55.8965 288.91 55.8428C289.149 55.7842 289.34 55.7012 289.481 55.5938C289.623 55.4863 289.723 55.3569 289.782 55.2056C289.84 55.0542 289.87 54.8833 289.87 54.6929C289.87 54.5024 289.84 54.3315 289.782 54.1802C289.723 54.0239 289.623 53.8945 289.481 53.792C289.34 53.6846 289.149 53.604 288.91 53.5503C288.676 53.4917 288.38 53.4624 288.024 53.4624H285.973V55.9233ZM285.973 52.4736H288.009C288.463 52.4736 288.822 52.3833 289.086 52.2026C289.35 52.022 289.481 51.7412 289.481 51.3604C289.481 51.1455 289.445 50.9673 289.372 50.8257C289.298 50.6792 289.201 50.562 289.079 50.4741C288.957 50.3862 288.817 50.3252 288.661 50.291C288.51 50.252 288.354 50.2324 288.192 50.2324H285.973V52.4736ZM292.829 51.5068C292.843 51.0283 292.934 50.6255 293.1 50.2983C293.266 49.9663 293.49 49.6978 293.773 49.4927C294.057 49.2876 294.391 49.1411 294.777 49.0532C295.167 48.9604 295.592 48.9141 296.051 48.9141C296.432 48.9141 296.801 48.9531 297.157 49.0312C297.519 49.1094 297.838 49.2363 298.117 49.4121C298.395 49.583 298.617 49.8076 298.783 50.0859C298.954 50.3594 299.04 50.6938 299.04 51.0894V55.6523C299.04 55.7793 299.074 55.8892 299.142 55.9819C299.21 56.0698 299.32 56.1138 299.472 56.1138C299.54 56.1138 299.611 56.1089 299.684 56.0991C299.757 56.0845 299.833 56.0698 299.911 56.0552V56.9854C299.799 57.0146 299.687 57.0415 299.574 57.0659C299.467 57.0903 299.337 57.1025 299.186 57.1025C298.952 57.1025 298.749 57.083 298.578 57.0439C298.412 57.0049 298.271 56.9414 298.153 56.8535C298.041 56.7607 297.953 56.6436 297.89 56.502C297.826 56.3555 297.785 56.1772 297.765 55.9673C297.599 56.1479 297.423 56.3164 297.238 56.4727C297.052 56.624 296.845 56.7583 296.615 56.8755C296.386 56.9878 296.129 57.0757 295.846 57.1392C295.563 57.2075 295.243 57.2417 294.887 57.2417C294.584 57.2417 294.289 57.1929 294 57.0952C293.717 56.9976 293.461 56.8535 293.231 56.6631C293.007 56.4727 292.826 56.2383 292.689 55.96C292.553 55.6768 292.484 55.3496 292.484 54.9785C292.484 54.5732 292.553 54.2241 292.689 53.9312C292.826 53.6333 293.004 53.3867 293.224 53.1914C293.444 52.9912 293.695 52.8374 293.979 52.73C294.262 52.6226 294.55 52.5518 294.843 52.5176L297.047 52.2466C297.257 52.2222 297.421 52.1416 297.538 52.0049C297.66 51.8633 297.721 51.6387 297.721 51.3311C297.721 50.8574 297.565 50.5181 297.252 50.313C296.945 50.103 296.5 49.998 295.919 49.998C295.324 49.998 294.879 50.125 294.586 50.3789C294.293 50.6279 294.127 51.0039 294.088 51.5068H292.829ZM297.692 53.0083C297.584 53.0864 297.45 53.1523 297.289 53.2061C297.133 53.2549 296.959 53.2964 296.769 53.3306C296.579 53.3647 296.376 53.3965 296.161 53.4258C295.946 53.4502 295.731 53.4771 295.517 53.5063C295.272 53.5405 295.048 53.5894 294.843 53.6528C294.638 53.7163 294.459 53.7993 294.308 53.9019C294.157 54.0044 294.04 54.1289 293.957 54.2754C293.874 54.417 293.832 54.5854 293.832 54.7808C293.832 55.0054 293.866 55.2031 293.935 55.374C294.008 55.5449 294.105 55.689 294.228 55.8062C294.354 55.9233 294.506 56.0112 294.682 56.0698C294.857 56.1284 295.05 56.1577 295.26 56.1577C295.392 56.1577 295.543 56.1431 295.714 56.1138C295.885 56.0796 296.061 56.0308 296.242 55.9673C296.422 55.9038 296.598 55.8232 296.769 55.7256C296.945 55.623 297.101 55.501 297.238 55.3594C297.375 55.2178 297.484 55.0566 297.567 54.876C297.65 54.6953 297.692 54.4927 297.692 54.2681V53.0083ZM306.144 52.3125H317.606V53.3892H306.144V52.3125ZM330.709 54.2388C330.69 54.4292 330.651 54.6367 330.592 54.8613C330.539 55.0859 330.458 55.3105 330.351 55.5352C330.243 55.7549 330.104 55.9673 329.933 56.1724C329.767 56.3774 329.562 56.5605 329.318 56.7217C329.079 56.8779 328.795 57.0024 328.468 57.0952C328.141 57.1929 327.768 57.2417 327.348 57.2417C327.118 57.2417 326.876 57.2124 326.623 57.1538C326.369 57.1001 326.12 57.0073 325.875 56.8755C325.636 56.7437 325.407 56.5752 325.187 56.3701C324.972 56.1602 324.782 55.9014 324.616 55.5938C324.455 55.2861 324.325 54.9297 324.228 54.5244C324.13 54.1143 324.081 53.6455 324.081 53.1182C324.081 52.4688 324.174 51.8853 324.359 51.3677C324.545 50.8452 324.792 50.4033 325.099 50.042C325.412 49.6807 325.773 49.4023 326.183 49.207C326.598 49.0117 327.033 48.9141 327.487 48.9141C327.897 48.9141 328.258 48.958 328.571 49.0459C328.888 49.1338 329.164 49.251 329.398 49.3975C329.633 49.5439 329.831 49.7148 329.992 49.9102C330.153 50.1006 330.282 50.3032 330.38 50.5181C330.482 50.728 330.558 50.9429 330.607 51.1626C330.661 51.3823 330.695 51.5923 330.709 51.7925H329.45C329.381 51.2603 329.196 50.8428 328.893 50.54C328.595 50.2373 328.175 50.0859 327.633 50.0859C327.262 50.0859 326.938 50.1616 326.659 50.313C326.386 50.4644 326.156 50.6768 325.971 50.9502C325.79 51.2188 325.653 51.5459 325.561 51.9316C325.473 52.3125 325.429 52.7324 325.429 53.1914C325.429 53.709 325.478 54.1558 325.575 54.5317C325.673 54.9028 325.812 55.2104 325.993 55.4546C326.173 55.6938 326.393 55.8721 326.652 55.9893C326.916 56.1016 327.213 56.1577 327.545 56.1577C327.78 56.1577 328.002 56.1162 328.212 56.0332C328.422 55.9453 328.61 55.8208 328.776 55.6597C328.942 55.4937 329.083 55.291 329.201 55.0518C329.318 54.8125 329.401 54.5415 329.45 54.2388H330.709ZM334.13 50.3276H331.427V49.1558H338.18V50.3276H335.478V57H334.13V50.3276ZM339.528 51.5068C339.542 51.0283 339.633 50.6255 339.799 50.2983C339.965 49.9663 340.189 49.6978 340.473 49.4927C340.756 49.2876 341.09 49.1411 341.476 49.0532C341.867 48.9604 342.292 48.9141 342.75 48.9141C343.131 48.9141 343.5 48.9531 343.856 49.0312C344.218 49.1094 344.538 49.2363 344.816 49.4121C345.094 49.583 345.316 49.8076 345.482 50.0859C345.653 50.3594 345.739 50.6938 345.739 51.0894V55.6523C345.739 55.7793 345.773 55.8892 345.841 55.9819C345.91 56.0698 346.02 56.1138 346.171 56.1138C346.239 56.1138 346.31 56.1089 346.383 56.0991C346.457 56.0845 346.532 56.0698 346.61 56.0552V56.9854C346.498 57.0146 346.386 57.0415 346.273 57.0659C346.166 57.0903 346.037 57.1025 345.885 57.1025C345.651 57.1025 345.448 57.083 345.277 57.0439C345.111 57.0049 344.97 56.9414 344.853 56.8535C344.74 56.7607 344.652 56.6436 344.589 56.502C344.525 56.3555 344.484 56.1772 344.464 55.9673C344.298 56.1479 344.123 56.3164 343.937 56.4727C343.751 56.624 343.544 56.7583 343.314 56.8755C343.085 56.9878 342.829 57.0757 342.545 57.1392C342.262 57.2075 341.942 57.2417 341.586 57.2417C341.283 57.2417 340.988 57.1929 340.7 57.0952C340.417 56.9976 340.16 56.8535 339.931 56.6631C339.706 56.4727 339.525 56.2383 339.389 55.96C339.252 55.6768 339.184 55.3496 339.184 54.9785C339.184 54.5732 339.252 54.2241 339.389 53.9312C339.525 53.6333 339.704 53.3867 339.923 53.1914C340.143 52.9912 340.395 52.8374 340.678 52.73C340.961 52.6226 341.249 52.5518 341.542 52.5176L343.747 52.2466C343.957 52.2222 344.12 52.1416 344.237 52.0049C344.359 51.8633 344.42 51.6387 344.42 51.3311C344.42 50.8574 344.264 50.5181 343.952 50.313C343.644 50.103 343.2 49.998 342.619 49.998C342.023 49.998 341.579 50.125 341.286 50.3789C340.993 50.6279 340.827 51.0039 340.788 51.5068H339.528ZM344.391 53.0083C344.284 53.0864 344.149 53.1523 343.988 53.2061C343.832 53.2549 343.659 53.2964 343.468 53.3306C343.278 53.3647 343.075 53.3965 342.86 53.4258C342.646 53.4502 342.431 53.4771 342.216 53.5063C341.972 53.5405 341.747 53.5894 341.542 53.6528C341.337 53.7163 341.159 53.7993 341.007 53.9019C340.856 54.0044 340.739 54.1289 340.656 54.2754C340.573 54.417 340.531 54.5854 340.531 54.7808C340.531 55.0054 340.565 55.2031 340.634 55.374C340.707 55.5449 340.805 55.689 340.927 55.8062C341.054 55.9233 341.205 56.0112 341.381 56.0698C341.557 56.1284 341.75 56.1577 341.959 56.1577C342.091 56.1577 342.243 56.1431 342.414 56.1138C342.584 56.0796 342.76 56.0308 342.941 55.9673C343.122 55.9038 343.297 55.8232 343.468 55.7256C343.644 55.623 343.8 55.501 343.937 55.3594C344.074 55.2178 344.184 55.0566 344.267 54.876C344.35 54.6953 344.391 54.4927 344.391 54.2681V53.0083ZM347.819 49.1558H349.167V50.2324H349.196C349.284 50.0518 349.394 49.8809 349.525 49.7197C349.662 49.5586 349.823 49.4194 350.009 49.3022C350.199 49.1802 350.417 49.085 350.661 49.0166C350.91 48.9482 351.193 48.9141 351.51 48.9141C351.93 48.9141 352.333 48.9946 352.719 49.1558C353.104 49.3169 353.446 49.5586 353.744 49.8809C354.042 50.2031 354.279 50.6084 354.455 51.0967C354.63 51.5801 354.718 52.144 354.718 52.7886C354.718 53.5942 354.635 54.2803 354.469 54.8467C354.308 55.4082 354.076 55.8672 353.773 56.2236C353.476 56.5801 353.114 56.8389 352.689 57C352.265 57.1611 351.791 57.2417 351.269 57.2417C351.01 57.2417 350.768 57.2075 350.543 57.1392C350.319 57.0708 350.116 56.9829 349.936 56.8755C349.76 56.7632 349.608 56.6411 349.481 56.5093C349.354 56.3726 349.259 56.2407 349.196 56.1138H349.167V60.0908H347.819V49.1558ZM349.137 53.1182C349.137 53.543 349.179 53.936 349.262 54.2974C349.345 54.6538 349.472 54.9639 349.643 55.2275C349.818 55.4912 350.036 55.6987 350.294 55.8501C350.558 55.9966 350.868 56.0698 351.225 56.0698C351.596 56.0698 351.916 55.9966 352.184 55.8501C352.458 55.6987 352.682 55.4912 352.858 55.2275C353.034 54.9639 353.163 54.6538 353.246 54.2974C353.329 53.936 353.371 53.543 353.371 53.1182C353.371 52.6738 353.329 52.2661 353.246 51.895C353.163 51.5239 353.034 51.2041 352.858 50.9355C352.682 50.667 352.458 50.4595 352.184 50.313C351.916 50.1616 351.596 50.0859 351.225 50.0859C350.868 50.0859 350.558 50.1616 350.294 50.313C350.036 50.4595 349.818 50.667 349.643 50.9355C349.472 51.2041 349.345 51.5239 349.262 51.895C349.179 52.2661 349.137 52.6738 349.137 53.1182ZM356.242 49.1558H357.589V55.8281H360.417V49.1558H361.764V55.8281H364.584V49.1558H365.932V57H356.242V49.1558ZM367.917 49.1558H369.264V55.1689H369.293L373.146 49.1558H374.691V57H373.336V50.9868H373.307L369.462 57H367.917V49.1558ZM378.793 46.1089C378.856 46.4214 378.988 46.6704 379.188 46.856C379.389 47.0366 379.684 47.127 380.075 47.127C380.47 47.127 380.768 47.0391 380.968 46.8633C381.168 46.6826 381.298 46.4312 381.356 46.1089H382.609C382.604 46.4019 382.541 46.668 382.418 46.9072C382.296 47.1416 382.123 47.3418 381.898 47.5078C381.679 47.6738 381.413 47.8032 381.1 47.896C380.792 47.9839 380.451 48.0278 380.075 48.0278C379.699 48.0278 379.357 47.9839 379.049 47.896C378.742 47.8081 378.478 47.6812 378.258 47.5151C378.039 47.3491 377.865 47.1489 377.738 46.9146C377.616 46.6753 377.553 46.4067 377.548 46.1089H378.793ZM376.676 49.1558H378.024V55.1689H378.053L381.906 49.1558H383.451V57H382.096V50.9868H382.067L378.222 57H376.676V49.1558ZM176.989 66.1558H178.952L181.024 72.5864H181.054L183.156 66.1558H185.001V74H183.742V67.6865H183.712L181.64 74H180.351L178.278 67.6865H178.249V74H176.989V66.1558ZM193.659 71.4951C193.605 71.8369 193.488 72.1714 193.307 72.4985C193.126 72.8257 192.89 73.1187 192.597 73.3774C192.304 73.6362 191.957 73.8438 191.557 74C191.161 74.1611 190.722 74.2417 190.238 74.2417C189.711 74.2417 189.223 74.1562 188.773 73.9854C188.329 73.8096 187.943 73.5483 187.616 73.2017C187.294 72.8501 187.04 72.4106 186.854 71.8833C186.669 71.356 186.576 70.7358 186.576 70.0229C186.576 69.5444 186.627 69.1123 186.73 68.7266C186.837 68.3359 186.979 67.9893 187.155 67.6865C187.335 67.3789 187.543 67.1152 187.777 66.8955C188.012 66.6709 188.258 66.4878 188.517 66.3462C188.781 66.1997 189.049 66.0923 189.323 66.0239C189.596 65.9507 189.86 65.9141 190.114 65.9141C190.651 65.9141 191.142 65.9946 191.586 66.1558C192.03 66.3169 192.411 66.5635 192.729 66.8955C193.051 67.2227 193.3 67.6353 193.476 68.1333C193.656 68.6265 193.747 69.2075 193.747 69.8765V70.5503H188.012C188.017 70.9312 188.07 71.2778 188.173 71.5903C188.275 71.8979 188.422 72.1616 188.612 72.3813C188.803 72.6011 189.032 72.772 189.301 72.894C189.574 73.0112 189.882 73.0698 190.224 73.0698C190.57 73.0698 190.863 73.021 191.103 72.9233C191.342 72.8257 191.542 72.7012 191.703 72.5498C191.864 72.3984 191.994 72.23 192.091 72.0444C192.194 71.8589 192.279 71.6758 192.348 71.4951H193.659ZM192.392 69.4736C192.382 69.0928 192.323 68.7534 192.216 68.4556C192.113 68.1577 191.967 67.9087 191.776 67.7085C191.591 67.5034 191.366 67.3496 191.103 67.2471C190.839 67.1396 190.546 67.0859 190.224 67.0859C189.916 67.0859 189.633 67.147 189.374 67.269C189.115 67.3862 188.888 67.5522 188.693 67.7671C188.498 67.9771 188.341 68.2285 188.224 68.5215C188.107 68.8096 188.036 69.127 188.012 69.4736H192.392ZM195.329 66.1558H196.676V69.3198H200.338V66.1558H201.693V74H200.338V70.4917H196.676V74H195.329V66.1558ZM210.358 71.4951C210.304 71.8369 210.187 72.1714 210.006 72.4985C209.826 72.8257 209.589 73.1187 209.296 73.3774C209.003 73.6362 208.656 73.8438 208.256 74C207.86 74.1611 207.421 74.2417 206.938 74.2417C206.41 74.2417 205.922 74.1562 205.473 73.9854C205.028 73.8096 204.643 73.5483 204.315 73.2017C203.993 72.8501 203.739 72.4106 203.554 71.8833C203.368 71.356 203.275 70.7358 203.275 70.0229C203.275 69.5444 203.327 69.1123 203.429 68.7266C203.537 68.3359 203.678 67.9893 203.854 67.6865C204.035 67.3789 204.242 67.1152 204.477 66.8955C204.711 66.6709 204.958 66.4878 205.216 66.3462C205.48 66.1997 205.749 66.0923 206.022 66.0239C206.295 65.9507 206.559 65.9141 206.813 65.9141C207.35 65.9141 207.841 65.9946 208.285 66.1558C208.729 66.3169 209.11 66.5635 209.428 66.8955C209.75 67.2227 209.999 67.6353 210.175 68.1333C210.355 68.6265 210.446 69.2075 210.446 69.8765V70.5503H204.711C204.716 70.9312 204.77 71.2778 204.872 71.5903C204.975 71.8979 205.121 72.1616 205.312 72.3813C205.502 72.6011 205.731 72.772 206 72.894C206.273 73.0112 206.581 73.0698 206.923 73.0698C207.27 73.0698 207.562 73.021 207.802 72.9233C208.041 72.8257 208.241 72.7012 208.402 72.5498C208.563 72.3984 208.693 72.23 208.791 72.0444C208.893 71.8589 208.979 71.6758 209.047 71.4951H210.358ZM209.091 69.4736C209.081 69.0928 209.022 68.7534 208.915 68.4556C208.812 68.1577 208.666 67.9087 208.476 67.7085C208.29 67.5034 208.065 67.3496 207.802 67.2471C207.538 67.1396 207.245 67.0859 206.923 67.0859C206.615 67.0859 206.332 67.147 206.073 67.269C205.814 67.3862 205.587 67.5522 205.392 67.7671C205.197 67.9771 205.041 68.2285 204.923 68.5215C204.806 68.8096 204.735 69.127 204.711 69.4736H209.091ZM218.568 74H212.504V75.9189H211.244V72.8281H212.277C212.492 72.3008 212.663 71.7637 212.79 71.2168C212.917 70.665 213.014 70.1108 213.083 69.5542C213.151 68.9927 213.195 68.4287 213.214 67.8623C213.234 67.2959 213.244 66.7271 213.244 66.1558H218.722V72.8281H219.828V75.9189H218.568V74ZM217.375 72.8281V67.3276H214.533C214.499 67.772 214.462 68.2285 214.423 68.6973C214.389 69.166 214.34 69.6372 214.276 70.1108C214.218 70.5796 214.137 71.0435 214.035 71.5024C213.937 71.9614 213.808 72.4033 213.646 72.8281H217.375ZM226.676 69.3638H227.357L229.928 66.1558H231.554L228.471 69.8765L231.671 74H230.009L227.357 70.4331H226.676V74H225.329V70.4331H224.64L221.967 74H220.304L223.534 69.8765L220.465 66.1558H222.099L224.64 69.3638H225.329V66.1558H226.676V69.3638ZM239.508 71.4951C239.455 71.8369 239.337 72.1714 239.157 72.4985C238.976 72.8257 238.739 73.1187 238.446 73.3774C238.153 73.6362 237.807 73.8438 237.406 74C237.011 74.1611 236.571 74.2417 236.088 74.2417C235.561 74.2417 235.072 74.1562 234.623 73.9854C234.179 73.8096 233.793 73.5483 233.466 73.2017C233.144 72.8501 232.89 72.4106 232.704 71.8833C232.519 71.356 232.426 70.7358 232.426 70.0229C232.426 69.5444 232.477 69.1123 232.58 68.7266C232.687 68.3359 232.829 67.9893 233.004 67.6865C233.185 67.3789 233.393 67.1152 233.627 66.8955C233.861 66.6709 234.108 66.4878 234.367 66.3462C234.63 66.1997 234.899 66.0923 235.172 66.0239C235.446 65.9507 235.709 65.9141 235.963 65.9141C236.5 65.9141 236.991 65.9946 237.436 66.1558C237.88 66.3169 238.261 66.5635 238.578 66.8955C238.9 67.2227 239.149 67.6353 239.325 68.1333C239.506 68.6265 239.596 69.2075 239.596 69.8765V70.5503H233.861C233.866 70.9312 233.92 71.2778 234.022 71.5903C234.125 71.8979 234.271 72.1616 234.462 72.3813C234.652 72.6011 234.882 72.772 235.15 72.894C235.424 73.0112 235.731 73.0698 236.073 73.0698C236.42 73.0698 236.713 73.021 236.952 72.9233C237.191 72.8257 237.392 72.7012 237.553 72.5498C237.714 72.3984 237.843 72.23 237.941 72.0444C238.043 71.8589 238.129 71.6758 238.197 71.4951H239.508ZM238.241 69.4736C238.231 69.0928 238.173 68.7534 238.065 68.4556C237.963 68.1577 237.816 67.9087 237.626 67.7085C237.44 67.5034 237.216 67.3496 236.952 67.2471C236.688 67.1396 236.396 67.0859 236.073 67.0859C235.766 67.0859 235.482 67.147 235.224 67.269C234.965 67.3862 234.738 67.5522 234.542 67.7671C234.347 67.9771 234.191 68.2285 234.074 68.5215C233.957 68.8096 233.886 69.127 233.861 69.4736H238.241ZM241.105 66.1558H242.453V67.2324H242.482C242.57 67.0518 242.68 66.8809 242.812 66.7197C242.948 66.5586 243.109 66.4194 243.295 66.3022C243.485 66.1802 243.703 66.085 243.947 66.0166C244.196 65.9482 244.479 65.9141 244.796 65.9141C245.216 65.9141 245.619 65.9946 246.005 66.1558C246.391 66.3169 246.732 66.5586 247.03 66.8809C247.328 67.2031 247.565 67.6084 247.741 68.0967C247.917 68.5801 248.004 69.144 248.004 69.7886C248.004 70.5942 247.921 71.2803 247.755 71.8467C247.594 72.4082 247.362 72.8672 247.06 73.2236C246.762 73.5801 246.4 73.8389 245.976 74C245.551 74.1611 245.077 74.2417 244.555 74.2417C244.296 74.2417 244.054 74.2075 243.83 74.1392C243.605 74.0708 243.402 73.9829 243.222 73.8755C243.046 73.7632 242.895 73.6411 242.768 73.5093C242.641 73.3726 242.545 73.2407 242.482 73.1138H242.453V77.0908H241.105V66.1558ZM242.423 70.1182C242.423 70.543 242.465 70.936 242.548 71.2974C242.631 71.6538 242.758 71.9639 242.929 72.2275C243.104 72.4912 243.322 72.6987 243.581 72.8501C243.844 72.9966 244.154 73.0698 244.511 73.0698C244.882 73.0698 245.202 72.9966 245.47 72.8501C245.744 72.6987 245.968 72.4912 246.144 72.2275C246.32 71.9639 246.449 71.6538 246.532 71.2974C246.615 70.936 246.657 70.543 246.657 70.1182C246.657 69.6738 246.615 69.2661 246.532 68.895C246.449 68.5239 246.32 68.2041 246.144 67.9355C245.968 67.667 245.744 67.4595 245.47 67.313C245.202 67.1616 244.882 67.0859 244.511 67.0859C244.154 67.0859 243.844 67.1616 243.581 67.313C243.322 67.4595 243.104 67.667 242.929 67.9355C242.758 68.2041 242.631 68.5239 242.548 68.895C242.465 69.2661 242.423 69.6738 242.423 70.1182Z" fill="#E8E8E8"/>
<path d="M375.989 124.156H380.859V125.328H377.336V132H375.989V124.156ZM387.517 128.067C387.517 127.632 387.468 127.234 387.371 126.873C387.273 126.507 387.126 126.192 386.931 125.928C386.736 125.665 386.494 125.459 386.206 125.313C385.923 125.162 385.593 125.086 385.217 125.086C384.841 125.086 384.512 125.162 384.229 125.313C383.945 125.459 383.706 125.665 383.511 125.928C383.315 126.192 383.169 126.507 383.071 126.873C382.974 127.234 382.925 127.632 382.925 128.067C382.925 128.506 382.974 128.912 383.071 129.283C383.169 129.649 383.315 129.964 383.511 130.228C383.706 130.491 383.945 130.699 384.229 130.85C384.512 130.997 384.841 131.07 385.217 131.07C385.593 131.07 385.923 130.997 386.206 130.85C386.494 130.699 386.736 130.491 386.931 130.228C387.126 129.964 387.273 129.649 387.371 129.283C387.468 128.912 387.517 128.506 387.517 128.067ZM388.865 128.067C388.865 128.711 388.782 129.292 388.616 129.81C388.45 130.323 388.21 130.76 387.898 131.121C387.585 131.482 387.202 131.761 386.748 131.956C386.299 132.146 385.789 132.242 385.217 132.242C384.646 132.242 384.136 132.146 383.687 131.956C383.237 131.761 382.856 131.482 382.544 131.121C382.231 130.76 381.992 130.323 381.826 129.81C381.66 129.292 381.577 128.711 381.577 128.067C381.577 127.432 381.66 126.858 381.826 126.346C381.992 125.833 382.231 125.396 382.544 125.035C382.856 124.673 383.237 124.397 383.687 124.207C384.136 124.012 384.646 123.914 385.217 123.914C385.789 123.914 386.299 124.012 386.748 124.207C387.202 124.397 387.585 124.673 387.898 125.035C388.21 125.396 388.45 125.833 388.616 126.346C388.782 126.858 388.865 127.432 388.865 128.067ZM396.929 132H390.864V133.919H389.604V130.828H390.637C390.852 130.301 391.023 129.764 391.15 129.217C391.277 128.665 391.375 128.111 391.443 127.554C391.511 126.993 391.555 126.429 391.575 125.862C391.594 125.296 391.604 124.727 391.604 124.156H397.083V130.828H398.188V133.919H396.929V132ZM395.735 130.828V125.328H392.893C392.859 125.772 392.822 126.229 392.783 126.697C392.749 127.166 392.7 127.637 392.637 128.111C392.578 128.58 392.498 129.043 392.395 129.502C392.297 129.961 392.168 130.403 392.007 130.828H395.735Z" fill="#E8E8E8"/>
<path d="M183.156 129.239C183.136 129.429 183.097 129.637 183.039 129.861C182.985 130.086 182.904 130.311 182.797 130.535C182.689 130.755 182.55 130.967 182.379 131.172C182.213 131.377 182.008 131.561 181.764 131.722C181.525 131.878 181.242 132.002 180.915 132.095C180.587 132.193 180.214 132.242 179.794 132.242C179.564 132.242 179.323 132.212 179.069 132.154C178.815 132.1 178.566 132.007 178.322 131.875C178.083 131.744 177.853 131.575 177.633 131.37C177.418 131.16 177.228 130.901 177.062 130.594C176.901 130.286 176.771 129.93 176.674 129.524C176.576 129.114 176.527 128.646 176.527 128.118C176.527 127.469 176.62 126.885 176.806 126.368C176.991 125.845 177.238 125.403 177.545 125.042C177.858 124.681 178.219 124.402 178.629 124.207C179.044 124.012 179.479 123.914 179.933 123.914C180.343 123.914 180.705 123.958 181.017 124.046C181.334 124.134 181.61 124.251 181.845 124.397C182.079 124.544 182.277 124.715 182.438 124.91C182.599 125.101 182.729 125.303 182.826 125.518C182.929 125.728 183.004 125.943 183.053 126.163C183.107 126.382 183.141 126.592 183.156 126.792H181.896C181.828 126.26 181.642 125.843 181.339 125.54C181.042 125.237 180.622 125.086 180.08 125.086C179.708 125.086 179.384 125.162 179.105 125.313C178.832 125.464 178.603 125.677 178.417 125.95C178.236 126.219 178.1 126.546 178.007 126.932C177.919 127.312 177.875 127.732 177.875 128.191C177.875 128.709 177.924 129.156 178.021 129.532C178.119 129.903 178.258 130.21 178.439 130.455C178.62 130.694 178.839 130.872 179.098 130.989C179.362 131.102 179.66 131.158 179.992 131.158C180.226 131.158 180.448 131.116 180.658 131.033C180.868 130.945 181.056 130.821 181.222 130.66C181.388 130.494 181.53 130.291 181.647 130.052C181.764 129.812 181.847 129.542 181.896 129.239H183.156ZM186.576 125.328H183.874V124.156H190.626V125.328H187.924V132H186.576V125.328ZM191.974 126.507C191.989 126.028 192.079 125.625 192.245 125.298C192.411 124.966 192.636 124.698 192.919 124.493C193.202 124.288 193.537 124.141 193.922 124.053C194.313 123.96 194.738 123.914 195.197 123.914C195.578 123.914 195.946 123.953 196.303 124.031C196.664 124.109 196.984 124.236 197.262 124.412C197.541 124.583 197.763 124.808 197.929 125.086C198.1 125.359 198.185 125.694 198.185 126.089V130.652C198.185 130.779 198.219 130.889 198.288 130.982C198.356 131.07 198.466 131.114 198.617 131.114C198.686 131.114 198.756 131.109 198.83 131.099C198.903 131.084 198.979 131.07 199.057 131.055V131.985C198.944 132.015 198.832 132.042 198.72 132.066C198.612 132.09 198.483 132.103 198.332 132.103C198.097 132.103 197.895 132.083 197.724 132.044C197.558 132.005 197.416 131.941 197.299 131.854C197.187 131.761 197.099 131.644 197.035 131.502C196.972 131.355 196.93 131.177 196.911 130.967C196.745 131.148 196.569 131.316 196.383 131.473C196.198 131.624 195.99 131.758 195.761 131.875C195.531 131.988 195.275 132.076 194.992 132.139C194.708 132.208 194.389 132.242 194.032 132.242C193.729 132.242 193.434 132.193 193.146 132.095C192.863 131.998 192.606 131.854 192.377 131.663C192.152 131.473 191.972 131.238 191.835 130.96C191.698 130.677 191.63 130.35 191.63 129.979C191.63 129.573 191.698 129.224 191.835 128.931C191.972 128.633 192.15 128.387 192.37 128.191C192.589 127.991 192.841 127.837 193.124 127.73C193.407 127.623 193.695 127.552 193.988 127.518L196.193 127.247C196.403 127.222 196.566 127.142 196.684 127.005C196.806 126.863 196.867 126.639 196.867 126.331C196.867 125.857 196.71 125.518 196.398 125.313C196.09 125.103 195.646 124.998 195.065 124.998C194.469 124.998 194.025 125.125 193.732 125.379C193.439 125.628 193.273 126.004 193.234 126.507H191.974ZM196.837 128.008C196.73 128.086 196.596 128.152 196.435 128.206C196.278 128.255 196.105 128.296 195.915 128.331C195.724 128.365 195.521 128.396 195.307 128.426C195.092 128.45 194.877 128.477 194.662 128.506C194.418 128.541 194.193 128.589 193.988 128.653C193.783 128.716 193.605 128.799 193.454 128.902C193.302 129.004 193.185 129.129 193.102 129.275C193.019 129.417 192.978 129.585 192.978 129.781C192.978 130.005 193.012 130.203 193.08 130.374C193.153 130.545 193.251 130.689 193.373 130.806C193.5 130.923 193.651 131.011 193.827 131.07C194.003 131.128 194.196 131.158 194.406 131.158C194.538 131.158 194.689 131.143 194.86 131.114C195.031 131.08 195.207 131.031 195.387 130.967C195.568 130.904 195.744 130.823 195.915 130.726C196.09 130.623 196.247 130.501 196.383 130.359C196.52 130.218 196.63 130.057 196.713 129.876C196.796 129.695 196.837 129.493 196.837 129.268V128.008ZM205.89 127.364H206.571L209.142 124.156H210.768L207.685 127.876L210.885 132H209.223L206.571 128.433H205.89V132H204.542V128.433H203.854L201.181 132H199.518L202.748 127.876L199.679 124.156H201.312L203.854 127.364H204.542V124.156H205.89V127.364ZM216.144 124.156H217.492V125.232H217.521C217.609 125.052 217.719 124.881 217.851 124.72C217.987 124.559 218.148 124.419 218.334 124.302C218.524 124.18 218.742 124.085 218.986 124.017C219.235 123.948 219.518 123.914 219.835 123.914C220.255 123.914 220.658 123.995 221.044 124.156C221.43 124.317 221.771 124.559 222.069 124.881C222.367 125.203 222.604 125.608 222.78 126.097C222.956 126.58 223.043 127.144 223.043 127.789C223.043 128.594 222.96 129.28 222.794 129.847C222.633 130.408 222.401 130.867 222.099 131.224C221.801 131.58 221.439 131.839 221.015 132C220.59 132.161 220.116 132.242 219.594 132.242C219.335 132.242 219.093 132.208 218.869 132.139C218.644 132.071 218.441 131.983 218.261 131.875C218.085 131.763 217.934 131.641 217.807 131.509C217.68 131.373 217.584 131.241 217.521 131.114H217.492V135.091H216.144V124.156ZM217.462 128.118C217.462 128.543 217.504 128.936 217.587 129.297C217.67 129.654 217.797 129.964 217.968 130.228C218.144 130.491 218.361 130.699 218.62 130.85C218.883 130.997 219.193 131.07 219.55 131.07C219.921 131.07 220.241 130.997 220.509 130.85C220.783 130.699 221.007 130.491 221.183 130.228C221.359 129.964 221.488 129.654 221.571 129.297C221.654 128.936 221.696 128.543 221.696 128.118C221.696 127.674 221.654 127.266 221.571 126.895C221.488 126.524 221.359 126.204 221.183 125.936C221.007 125.667 220.783 125.459 220.509 125.313C220.241 125.162 219.921 125.086 219.55 125.086C219.193 125.086 218.883 125.162 218.62 125.313C218.361 125.459 218.144 125.667 217.968 125.936C217.797 126.204 217.67 126.524 217.587 126.895C217.504 127.266 217.462 127.674 217.462 128.118ZM224.552 126.507C224.567 126.028 224.657 125.625 224.823 125.298C224.989 124.966 225.214 124.698 225.497 124.493C225.78 124.288 226.115 124.141 226.5 124.053C226.891 123.96 227.316 123.914 227.775 123.914C228.156 123.914 228.524 123.953 228.881 124.031C229.242 124.109 229.562 124.236 229.84 124.412C230.119 124.583 230.341 124.808 230.507 125.086C230.678 125.359 230.763 125.694 230.763 126.089V130.652C230.763 130.779 230.797 130.889 230.866 130.982C230.934 131.07 231.044 131.114 231.195 131.114C231.264 131.114 231.334 131.109 231.408 131.099C231.481 131.084 231.557 131.07 231.635 131.055V131.985C231.522 132.015 231.41 132.042 231.298 132.066C231.19 132.09 231.061 132.103 230.91 132.103C230.675 132.103 230.473 132.083 230.302 132.044C230.136 132.005 229.994 131.941 229.877 131.854C229.765 131.761 229.677 131.644 229.613 131.502C229.55 131.355 229.508 131.177 229.489 130.967C229.323 131.148 229.147 131.316 228.961 131.473C228.776 131.624 228.568 131.758 228.339 131.875C228.109 131.988 227.853 132.076 227.57 132.139C227.287 132.208 226.967 132.242 226.61 132.242C226.308 132.242 226.012 132.193 225.724 132.095C225.441 131.998 225.185 131.854 224.955 131.663C224.73 131.473 224.55 131.238 224.413 130.96C224.276 130.677 224.208 130.35 224.208 129.979C224.208 129.573 224.276 129.224 224.413 128.931C224.55 128.633 224.728 128.387 224.948 128.191C225.167 127.991 225.419 127.837 225.702 127.73C225.985 127.623 226.273 127.552 226.566 127.518L228.771 127.247C228.981 127.222 229.145 127.142 229.262 127.005C229.384 126.863 229.445 126.639 229.445 126.331C229.445 125.857 229.289 125.518 228.976 125.313C228.668 125.103 228.224 124.998 227.643 124.998C227.047 124.998 226.603 125.125 226.31 125.379C226.017 125.628 225.851 126.004 225.812 126.507H224.552ZM229.416 128.008C229.308 128.086 229.174 128.152 229.013 128.206C228.856 128.255 228.683 128.296 228.493 128.331C228.302 128.365 228.1 128.396 227.885 128.426C227.67 128.45 227.455 128.477 227.24 128.506C226.996 128.541 226.771 128.589 226.566 128.653C226.361 128.716 226.183 128.799 226.032 128.902C225.88 129.004 225.763 129.129 225.68 129.275C225.597 129.417 225.556 129.585 225.556 129.781C225.556 130.005 225.59 130.203 225.658 130.374C225.731 130.545 225.829 130.689 225.951 130.806C226.078 130.923 226.229 131.011 226.405 131.07C226.581 131.128 226.774 131.158 226.984 131.158C227.116 131.158 227.267 131.143 227.438 131.114C227.609 131.08 227.785 131.031 227.965 130.967C228.146 130.904 228.322 130.823 228.493 130.726C228.668 130.623 228.825 130.501 228.961 130.359C229.098 130.218 229.208 130.057 229.291 129.876C229.374 129.695 229.416 129.493 229.416 129.268V128.008ZM239.01 121.138C239 121.211 238.986 121.302 238.966 121.409C238.952 121.512 238.92 121.622 238.871 121.739C238.822 121.856 238.754 121.976 238.666 122.098C238.583 122.215 238.471 122.325 238.329 122.427C238.251 122.481 238.18 122.527 238.117 122.566C238.053 122.605 237.973 122.64 237.875 122.669C237.777 122.698 237.653 122.723 237.501 122.742C237.35 122.762 237.147 122.774 236.894 122.779L236.337 122.793C235.956 122.803 235.612 122.881 235.304 123.028C235.001 123.169 234.733 123.37 234.499 123.628C234.269 123.882 234.079 124.19 233.927 124.551C233.776 124.913 233.664 125.315 233.59 125.76C233.693 125.564 233.82 125.374 233.971 125.188C234.123 124.998 234.311 124.83 234.535 124.683C234.76 124.532 235.023 124.412 235.326 124.324C235.629 124.231 235.98 124.185 236.381 124.185C236.835 124.185 237.265 124.266 237.67 124.427C238.08 124.588 238.437 124.83 238.739 125.152C239.047 125.474 239.291 125.875 239.472 126.353C239.652 126.832 239.743 127.388 239.743 128.023C239.743 128.223 239.728 128.467 239.699 128.755C239.669 129.039 239.611 129.336 239.523 129.649C239.435 129.961 239.308 130.274 239.142 130.586C238.981 130.894 238.764 131.17 238.49 131.414C238.222 131.658 237.892 131.856 237.501 132.007C237.116 132.164 236.652 132.242 236.11 132.242C235.885 132.242 235.646 132.222 235.392 132.183C235.143 132.149 234.892 132.083 234.638 131.985C234.389 131.888 234.145 131.751 233.905 131.575C233.671 131.399 233.456 131.175 233.261 130.901C233.163 130.765 233.065 130.608 232.968 130.433C232.875 130.252 232.79 130.035 232.711 129.781C232.633 129.527 232.57 129.227 232.521 128.88C232.477 128.533 232.455 128.123 232.455 127.649C232.455 127.337 232.47 126.983 232.499 126.587C232.528 126.192 232.58 125.789 232.653 125.379C232.726 124.969 232.824 124.573 232.946 124.192C233.068 123.807 233.224 123.47 233.415 123.182C233.62 122.869 233.834 122.615 234.059 122.42C234.284 122.225 234.523 122.071 234.777 121.958C235.031 121.846 235.304 121.766 235.597 121.717C235.89 121.668 236.208 121.636 236.549 121.622L237.025 121.607C237.182 121.602 237.313 121.595 237.421 121.585C237.533 121.57 237.626 121.548 237.699 121.519C237.772 121.49 237.831 121.446 237.875 121.387C237.919 121.329 237.956 121.246 237.985 121.138H239.01ZM233.803 128.221C233.803 128.367 233.81 128.541 233.825 128.741C233.844 128.941 233.881 129.151 233.935 129.371C233.988 129.585 234.066 129.8 234.169 130.015C234.271 130.23 234.406 130.423 234.572 130.594C234.743 130.76 234.953 130.896 235.202 131.004C235.451 131.106 235.749 131.158 236.095 131.158C236.481 131.158 236.806 131.097 237.069 130.975C237.333 130.848 237.55 130.687 237.721 130.491C237.892 130.291 238.021 130.071 238.109 129.832C238.202 129.593 238.268 129.361 238.307 129.136C238.351 128.907 238.375 128.699 238.38 128.514C238.39 128.323 238.395 128.179 238.395 128.082C238.395 127.725 238.354 127.376 238.271 127.034C238.192 126.692 238.063 126.39 237.882 126.126C237.707 125.862 237.475 125.65 237.187 125.489C236.903 125.328 236.554 125.247 236.139 125.247C235.734 125.247 235.385 125.328 235.092 125.489C234.799 125.645 234.557 125.86 234.367 126.133C234.176 126.402 234.035 126.717 233.942 127.078C233.849 127.435 233.803 127.815 233.803 128.221ZM246.745 128.067C246.745 127.632 246.696 127.234 246.598 126.873C246.5 126.507 246.354 126.192 246.159 125.928C245.963 125.665 245.722 125.459 245.434 125.313C245.15 125.162 244.821 125.086 244.445 125.086C244.069 125.086 243.739 125.162 243.456 125.313C243.173 125.459 242.934 125.665 242.738 125.928C242.543 126.192 242.396 126.507 242.299 126.873C242.201 127.234 242.152 127.632 242.152 128.067C242.152 128.506 242.201 128.912 242.299 129.283C242.396 129.649 242.543 129.964 242.738 130.228C242.934 130.491 243.173 130.699 243.456 130.85C243.739 130.997 244.069 131.07 244.445 131.07C244.821 131.07 245.15 130.997 245.434 130.85C245.722 130.699 245.963 130.491 246.159 130.228C246.354 129.964 246.5 129.649 246.598 129.283C246.696 128.912 246.745 128.506 246.745 128.067ZM248.092 128.067C248.092 128.711 248.009 129.292 247.843 129.81C247.677 130.323 247.438 130.76 247.125 131.121C246.813 131.482 246.43 131.761 245.976 131.956C245.526 132.146 245.016 132.242 244.445 132.242C243.874 132.242 243.363 132.146 242.914 131.956C242.465 131.761 242.084 131.482 241.771 131.121C241.459 130.76 241.22 130.323 241.054 129.81C240.888 129.292 240.805 128.711 240.805 128.067C240.805 127.432 240.888 126.858 241.054 126.346C241.22 125.833 241.459 125.396 241.771 125.035C242.084 124.673 242.465 124.397 242.914 124.207C243.363 124.012 243.874 123.914 244.445 123.914C245.016 123.914 245.526 124.012 245.976 124.207C246.43 124.397 246.813 124.673 247.125 125.035C247.438 125.396 247.677 125.833 247.843 126.346C248.009 126.858 248.092 127.432 248.092 128.067ZM251.703 125.328H249V124.156H255.753V125.328H253.051V132H251.703V125.328ZM264.616 124.156H265.963V132H264.616V124.156ZM257.116 124.156H258.463V127.107H260.822C261.247 127.107 261.627 127.166 261.964 127.283C262.306 127.396 262.594 127.559 262.829 127.774C263.063 127.984 263.241 128.24 263.363 128.543C263.49 128.841 263.554 129.178 263.554 129.554C263.554 129.935 263.49 130.276 263.363 130.579C263.241 130.877 263.063 131.133 262.829 131.348C262.594 131.558 262.306 131.719 261.964 131.832C261.627 131.944 261.247 132 260.822 132H257.116V124.156ZM258.463 130.923H260.551C260.785 130.923 261.002 130.899 261.203 130.85C261.408 130.801 261.583 130.723 261.73 130.616C261.876 130.503 261.991 130.362 262.074 130.191C262.157 130.015 262.199 129.803 262.199 129.554C262.199 129.31 262.155 129.102 262.067 128.931C261.984 128.76 261.864 128.621 261.708 128.514C261.557 128.401 261.371 128.321 261.151 128.272C260.937 128.218 260.697 128.191 260.434 128.191H258.463V130.923ZM268.629 124.258H270.16V125.855H268.629V124.258ZM268.629 130.403H270.16V132H268.629V130.403Z" fill="#E8E8E8"/>
</svg>
