<svg width="1386" height="238" viewBox="0 0 1386 238" fill="none" xmlns="http://www.w3.org/2000/svg">
<rect width="1386" height="238" fill="#3D3D3D"/>
<path d="M1270.58 114.449H1278.38V116.324H1272.74V127H1270.58V114.449ZM1289.03 120.707C1289.03 120.012 1288.95 119.375 1288.79 118.797C1288.64 118.211 1288.4 117.707 1288.09 117.285C1287.78 116.863 1287.39 116.535 1286.93 116.301C1286.48 116.059 1285.95 115.938 1285.35 115.938C1284.75 115.938 1284.22 116.059 1283.77 116.301C1283.31 116.535 1282.93 116.863 1282.62 117.285C1282.3 117.707 1282.07 118.211 1281.91 118.797C1281.76 119.375 1281.68 120.012 1281.68 120.707C1281.68 121.41 1281.76 122.059 1281.91 122.652C1282.07 123.238 1282.3 123.742 1282.62 124.164C1282.93 124.586 1283.31 124.918 1283.77 125.16C1284.22 125.395 1284.75 125.512 1285.35 125.512C1285.95 125.512 1286.48 125.395 1286.93 125.16C1287.39 124.918 1287.78 124.586 1288.09 124.164C1288.4 123.742 1288.64 123.238 1288.79 122.652C1288.95 122.059 1289.03 121.41 1289.03 120.707ZM1291.18 120.707C1291.18 121.738 1291.05 122.668 1290.79 123.496C1290.52 124.316 1290.14 125.016 1289.64 125.594C1289.14 126.172 1288.52 126.617 1287.8 126.93C1287.08 127.234 1286.26 127.387 1285.35 127.387C1284.43 127.387 1283.62 127.234 1282.9 126.93C1282.18 126.617 1281.57 126.172 1281.07 125.594C1280.57 125.016 1280.19 124.316 1279.92 123.496C1279.66 122.668 1279.52 121.738 1279.52 120.707C1279.52 119.691 1279.66 118.773 1279.92 117.953C1280.19 117.133 1280.57 116.434 1281.07 115.855C1281.57 115.277 1282.18 114.836 1282.9 114.531C1283.62 114.219 1284.43 114.062 1285.35 114.062C1286.26 114.062 1287.08 114.219 1287.8 114.531C1288.52 114.836 1289.14 115.277 1289.64 115.855C1290.14 116.434 1290.52 117.133 1290.79 117.953C1291.05 118.773 1291.18 119.691 1291.18 120.707ZM1304.09 127H1294.38V130.07H1292.37V125.125H1294.02C1294.36 124.281 1294.64 123.422 1294.84 122.547C1295.04 121.664 1295.2 120.777 1295.31 119.887C1295.42 118.988 1295.49 118.086 1295.52 117.18C1295.55 116.273 1295.57 115.363 1295.57 114.449H1304.33V125.125H1306.1V130.07H1304.09V127ZM1302.18 125.125V116.324H1297.63C1297.57 117.035 1297.52 117.766 1297.45 118.516C1297.4 119.266 1297.32 120.02 1297.22 120.777C1297.12 121.527 1297 122.27 1296.83 123.004C1296.68 123.738 1296.47 124.445 1296.21 125.125H1302.18Z" fill="#E8E8E8"/>
<path d="M76.7812 108.773H79.0781V115.875H88.2422V108.773H90.5508V126H88.2422V117.891H79.0781V126H76.7812V108.773ZM93.9023 117.211C93.9258 116.445 94.0703 115.801 94.3359 115.277C94.6016 114.746 94.9609 114.316 95.4141 113.988C95.8672 113.66 96.4023 113.426 97.0195 113.285C97.6445 113.137 98.3242 113.062 99.0586 113.062C99.668 113.062 100.258 113.125 100.828 113.25C101.406 113.375 101.918 113.578 102.363 113.859C102.809 114.133 103.164 114.492 103.43 114.938C103.703 115.375 103.84 115.91 103.84 116.543V123.844C103.84 124.047 103.895 124.223 104.004 124.371C104.113 124.512 104.289 124.582 104.531 124.582C104.641 124.582 104.754 124.574 104.871 124.559C104.988 124.535 105.109 124.512 105.234 124.488V125.977C105.055 126.023 104.875 126.066 104.695 126.105C104.523 126.145 104.316 126.164 104.074 126.164C103.699 126.164 103.375 126.133 103.102 126.07C102.836 126.008 102.609 125.906 102.422 125.766C102.242 125.617 102.102 125.43 102 125.203C101.898 124.969 101.832 124.684 101.801 124.348C101.535 124.637 101.254 124.906 100.957 125.156C100.66 125.398 100.328 125.613 99.9609 125.801C99.5938 125.98 99.1836 126.121 98.7305 126.223C98.2773 126.332 97.7656 126.387 97.1953 126.387C96.7109 126.387 96.2383 126.309 95.7773 126.152C95.3242 125.996 94.9141 125.766 94.5469 125.461C94.1875 125.156 93.8984 124.781 93.6797 124.336C93.4609 123.883 93.3516 123.359 93.3516 122.766C93.3516 122.117 93.4609 121.559 93.6797 121.09C93.8984 120.613 94.1836 120.219 94.5352 119.906C94.8867 119.586 95.2891 119.34 95.7422 119.168C96.1953 118.996 96.6562 118.883 97.125 118.828L100.652 118.395C100.988 118.355 101.25 118.227 101.438 118.008C101.633 117.781 101.73 117.422 101.73 116.93C101.73 116.172 101.48 115.629 100.98 115.301C100.488 114.965 99.7773 114.797 98.8477 114.797C97.8945 114.797 97.1836 115 96.7148 115.406C96.2461 115.805 95.9805 116.406 95.918 117.211H93.9023ZM101.684 119.613C101.512 119.738 101.297 119.844 101.039 119.93C100.789 120.008 100.512 120.074 100.207 120.129C99.9023 120.184 99.5781 120.234 99.2344 120.281C98.8906 120.32 98.5469 120.363 98.2031 120.41C97.8125 120.465 97.4531 120.543 97.125 120.645C96.7969 120.746 96.5117 120.879 96.2695 121.043C96.0273 121.207 95.8398 121.406 95.707 121.641C95.5742 121.867 95.5078 122.137 95.5078 122.449C95.5078 122.809 95.5625 123.125 95.6719 123.398C95.7891 123.672 95.9453 123.902 96.1406 124.09C96.3438 124.277 96.5859 124.418 96.8672 124.512C97.1484 124.605 97.457 124.652 97.793 124.652C98.0039 124.652 98.2461 124.629 98.5195 124.582C98.793 124.527 99.0742 124.449 99.3633 124.348C99.6523 124.246 99.9336 124.117 100.207 123.961C100.488 123.797 100.738 123.602 100.957 123.375C101.176 123.148 101.352 122.891 101.484 122.602C101.617 122.312 101.684 121.988 101.684 121.629V119.613ZM117.152 121.582C117.121 121.887 117.059 122.219 116.965 122.578C116.879 122.938 116.75 123.297 116.578 123.656C116.406 124.008 116.184 124.348 115.91 124.676C115.645 125.004 115.316 125.297 114.926 125.555C114.543 125.805 114.09 126.004 113.566 126.152C113.043 126.309 112.445 126.387 111.773 126.387C111.406 126.387 111.02 126.34 110.613 126.246C110.207 126.16 109.809 126.012 109.418 125.801C109.035 125.59 108.668 125.32 108.316 124.992C107.973 124.656 107.668 124.242 107.402 123.75C107.145 123.258 106.938 122.688 106.781 122.039C106.625 121.383 106.547 120.633 106.547 119.789C106.547 118.75 106.695 117.816 106.992 116.988C107.289 116.152 107.684 115.445 108.176 114.867C108.676 114.289 109.254 113.844 109.91 113.531C110.574 113.219 111.27 113.062 111.996 113.062C112.652 113.062 113.23 113.133 113.73 113.273C114.238 113.414 114.68 113.602 115.055 113.836C115.43 114.07 115.746 114.344 116.004 114.656C116.262 114.961 116.469 115.285 116.625 115.629C116.789 115.965 116.91 116.309 116.988 116.66C117.074 117.012 117.129 117.348 117.152 117.668H115.137C115.027 116.816 114.73 116.148 114.246 115.664C113.77 115.18 113.098 114.938 112.23 114.938C111.637 114.938 111.117 115.059 110.672 115.301C110.234 115.543 109.867 115.883 109.57 116.32C109.281 116.75 109.062 117.273 108.914 117.891C108.773 118.5 108.703 119.172 108.703 119.906C108.703 120.734 108.781 121.449 108.938 122.051C109.094 122.645 109.316 123.137 109.605 123.527C109.895 123.91 110.246 124.195 110.66 124.383C111.082 124.562 111.559 124.652 112.09 124.652C112.465 124.652 112.82 124.586 113.156 124.453C113.492 124.312 113.793 124.113 114.059 123.855C114.324 123.59 114.551 123.266 114.738 122.883C114.926 122.5 115.059 122.066 115.137 121.582H117.152ZM122.625 115.324H118.301V113.449H129.105V115.324H124.781V126H122.625V115.324ZM141.492 126H139.324V121.031H136.547C136.047 121.031 135.609 121.043 135.234 121.066C134.867 121.082 134.555 121.152 134.297 121.277C134.039 121.402 133.836 121.598 133.688 121.863C133.547 122.129 133.457 122.508 133.418 123L133.324 124.348C133.316 124.387 133.309 124.465 133.301 124.582C133.293 124.699 133.277 124.84 133.254 125.004C133.23 125.16 133.199 125.328 133.16 125.508C133.121 125.688 133.074 125.852 133.02 126H130.641C130.695 125.93 130.746 125.859 130.793 125.789C130.848 125.711 130.898 125.605 130.945 125.473C131 125.34 131.047 125.168 131.086 124.957C131.133 124.746 131.176 124.477 131.215 124.148L131.355 122.543C131.402 122.121 131.457 121.777 131.52 121.512C131.59 121.246 131.684 121.027 131.801 120.855C131.926 120.676 132.086 120.531 132.281 120.422C132.477 120.305 132.723 120.188 133.02 120.07C131.676 119.586 131.004 118.594 131.004 117.094C131.004 116.719 131.051 116.375 131.145 116.062C131.238 115.742 131.359 115.457 131.508 115.207C131.664 114.957 131.836 114.738 132.023 114.551C132.219 114.355 132.414 114.195 132.609 114.07C132.852 113.914 133.117 113.797 133.406 113.719C133.695 113.633 133.984 113.57 134.273 113.531C134.57 113.492 134.859 113.469 135.141 113.461C135.422 113.453 135.68 113.449 135.914 113.449H141.492V126ZM139.324 115.348H136.043C135.762 115.348 135.52 115.352 135.316 115.359C135.113 115.359 134.934 115.367 134.777 115.383C134.629 115.398 134.492 115.426 134.367 115.465C134.242 115.504 134.113 115.559 133.98 115.629C133.707 115.785 133.496 116.016 133.348 116.32C133.207 116.625 133.137 116.949 133.137 117.293C133.137 117.629 133.188 117.914 133.289 118.148C133.391 118.375 133.523 118.562 133.688 118.711C133.859 118.859 134.047 118.977 134.25 119.062C134.461 119.141 134.672 119.199 134.883 119.238C135.102 119.27 135.312 119.289 135.516 119.297C135.719 119.305 135.895 119.309 136.043 119.309H139.324V115.348ZM151.57 108.773H165.34V126H163.031V110.789H153.867V126H151.57V108.773ZM177.48 119.707C177.48 119.012 177.402 118.375 177.246 117.797C177.09 117.211 176.855 116.707 176.543 116.285C176.23 115.863 175.844 115.535 175.383 115.301C174.93 115.059 174.402 114.938 173.801 114.938C173.199 114.938 172.672 115.059 172.219 115.301C171.766 115.535 171.383 115.863 171.07 116.285C170.758 116.707 170.523 117.211 170.367 117.797C170.211 118.375 170.133 119.012 170.133 119.707C170.133 120.41 170.211 121.059 170.367 121.652C170.523 122.238 170.758 122.742 171.07 123.164C171.383 123.586 171.766 123.918 172.219 124.16C172.672 124.395 173.199 124.512 173.801 124.512C174.402 124.512 174.93 124.395 175.383 124.16C175.844 123.918 176.23 123.586 176.543 123.164C176.855 122.742 177.09 122.238 177.246 121.652C177.402 121.059 177.48 120.41 177.48 119.707ZM179.637 119.707C179.637 120.738 179.504 121.668 179.238 122.496C178.973 123.316 178.59 124.016 178.09 124.594C177.59 125.172 176.977 125.617 176.25 125.93C175.531 126.234 174.715 126.387 173.801 126.387C172.887 126.387 172.07 126.234 171.352 125.93C170.633 125.617 170.023 125.172 169.523 124.594C169.023 124.016 168.641 123.316 168.375 122.496C168.109 121.668 167.977 120.738 167.977 119.707C167.977 118.691 168.109 117.773 168.375 116.953C168.641 116.133 169.023 115.434 169.523 114.855C170.023 114.277 170.633 113.836 171.352 113.531C172.07 113.219 172.887 113.062 173.801 113.062C174.715 113.062 175.531 113.219 176.25 113.531C176.977 113.836 177.59 114.277 178.09 114.855C178.59 115.434 178.973 116.133 179.238 116.953C179.504 117.773 179.637 118.691 179.637 119.707ZM189.633 120.938C189.164 121.062 188.648 121.168 188.086 121.254C187.531 121.34 187.012 121.383 186.527 121.383C184.848 121.383 183.602 121.062 182.789 120.422C181.977 119.773 181.57 118.754 181.57 117.363V113.449H183.727V116.93C183.727 117.398 183.781 117.805 183.891 118.148C184.008 118.492 184.195 118.777 184.453 119.004C184.711 119.223 185.051 119.387 185.473 119.496C185.895 119.605 186.414 119.66 187.031 119.66C187.195 119.66 187.391 119.645 187.617 119.613C187.852 119.582 188.09 119.543 188.332 119.496C188.574 119.449 188.809 119.398 189.035 119.344C189.27 119.281 189.469 119.219 189.633 119.156V113.449H191.801V126H189.633V120.938ZM205.676 121.992C205.59 122.539 205.402 123.074 205.113 123.598C204.824 124.121 204.445 124.59 203.977 125.004C203.508 125.418 202.953 125.75 202.312 126C201.68 126.258 200.977 126.387 200.203 126.387C199.359 126.387 198.578 126.25 197.859 125.977C197.148 125.695 196.531 125.277 196.008 124.723C195.492 124.16 195.086 123.457 194.789 122.613C194.492 121.77 194.344 120.777 194.344 119.637C194.344 118.871 194.426 118.18 194.59 117.562C194.762 116.938 194.988 116.383 195.27 115.898C195.559 115.406 195.891 114.984 196.266 114.633C196.641 114.273 197.035 113.98 197.449 113.754C197.871 113.52 198.301 113.348 198.738 113.238C199.176 113.121 199.598 113.062 200.004 113.062C200.863 113.062 201.648 113.191 202.359 113.449C203.07 113.707 203.68 114.102 204.188 114.633C204.703 115.156 205.102 115.816 205.383 116.613C205.672 117.402 205.816 118.332 205.816 119.402V120.48H196.641C196.648 121.09 196.734 121.645 196.898 122.145C197.062 122.637 197.297 123.059 197.602 123.41C197.906 123.762 198.273 124.035 198.703 124.23C199.141 124.418 199.633 124.512 200.18 124.512C200.734 124.512 201.203 124.434 201.586 124.277C201.969 124.121 202.289 123.922 202.547 123.68C202.805 123.438 203.012 123.168 203.168 122.871C203.332 122.574 203.469 122.281 203.578 121.992H205.676ZM203.648 118.758C203.633 118.148 203.539 117.605 203.367 117.129C203.203 116.652 202.969 116.254 202.664 115.934C202.367 115.605 202.008 115.359 201.586 115.195C201.164 115.023 200.695 114.938 200.18 114.938C199.688 114.938 199.234 115.035 198.82 115.23C198.406 115.418 198.043 115.684 197.73 116.027C197.418 116.363 197.168 116.766 196.98 117.234C196.793 117.695 196.68 118.203 196.641 118.758H203.648ZM208.23 113.449H210.387V115.172H210.434C210.574 114.883 210.75 114.609 210.961 114.352C211.18 114.094 211.438 113.871 211.734 113.684C212.039 113.488 212.387 113.336 212.777 113.227C213.176 113.117 213.629 113.062 214.137 113.062C214.809 113.062 215.453 113.191 216.07 113.449C216.688 113.707 217.234 114.094 217.711 114.609C218.188 115.125 218.566 115.773 218.848 116.555C219.129 117.328 219.27 118.23 219.27 119.262C219.27 120.551 219.137 121.648 218.871 122.555C218.613 123.453 218.242 124.188 217.758 124.758C217.281 125.328 216.703 125.742 216.023 126C215.344 126.258 214.586 126.387 213.75 126.387C213.336 126.387 212.949 126.332 212.59 126.223C212.23 126.113 211.906 125.973 211.617 125.801C211.336 125.621 211.094 125.426 210.891 125.215C210.688 124.996 210.535 124.785 210.434 124.582H210.387V130.945H208.23V113.449ZM210.34 119.789C210.34 120.469 210.406 121.098 210.539 121.676C210.672 122.246 210.875 122.742 211.148 123.164C211.43 123.586 211.777 123.918 212.191 124.16C212.613 124.395 213.109 124.512 213.68 124.512C214.273 124.512 214.785 124.395 215.215 124.16C215.652 123.918 216.012 123.586 216.293 123.164C216.574 122.742 216.781 122.246 216.914 121.676C217.047 121.098 217.113 120.469 217.113 119.789C217.113 119.078 217.047 118.426 216.914 117.832C216.781 117.238 216.574 116.727 216.293 116.297C216.012 115.867 215.652 115.535 215.215 115.301C214.785 115.059 214.273 114.938 213.68 114.938C213.109 114.938 212.613 115.059 212.191 115.301C211.777 115.535 211.43 115.867 211.148 116.297C210.875 116.727 210.672 117.238 210.539 117.832C210.406 118.426 210.34 119.078 210.34 119.789ZM221.707 113.449H223.863V118.512H229.723V113.449H231.891V126H229.723V120.387H223.863V126H221.707V113.449ZM245.273 126H243.105V121.031H240.328C239.828 121.031 239.391 121.043 239.016 121.066C238.648 121.082 238.336 121.152 238.078 121.277C237.82 121.402 237.617 121.598 237.469 121.863C237.328 122.129 237.238 122.508 237.199 123L237.105 124.348C237.098 124.387 237.09 124.465 237.082 124.582C237.074 124.699 237.059 124.84 237.035 125.004C237.012 125.16 236.98 125.328 236.941 125.508C236.902 125.688 236.855 125.852 236.801 126H234.422C234.477 125.93 234.527 125.859 234.574 125.789C234.629 125.711 234.68 125.605 234.727 125.473C234.781 125.34 234.828 125.168 234.867 124.957C234.914 124.746 234.957 124.477 234.996 124.148L235.137 122.543C235.184 122.121 235.238 121.777 235.301 121.512C235.371 121.246 235.465 121.027 235.582 120.855C235.707 120.676 235.867 120.531 236.062 120.422C236.258 120.305 236.504 120.188 236.801 120.07C235.457 119.586 234.785 118.594 234.785 117.094C234.785 116.719 234.832 116.375 234.926 116.062C235.02 115.742 235.141 115.457 235.289 115.207C235.445 114.957 235.617 114.738 235.805 114.551C236 114.355 236.195 114.195 236.391 114.07C236.633 113.914 236.898 113.797 237.188 113.719C237.477 113.633 237.766 113.57 238.055 113.531C238.352 113.492 238.641 113.469 238.922 113.461C239.203 113.453 239.461 113.449 239.695 113.449H245.273V126ZM243.105 115.348H239.824C239.543 115.348 239.301 115.352 239.098 115.359C238.895 115.359 238.715 115.367 238.559 115.383C238.41 115.398 238.273 115.426 238.148 115.465C238.023 115.504 237.895 115.559 237.762 115.629C237.488 115.785 237.277 116.016 237.129 116.32C236.988 116.625 236.918 116.949 236.918 117.293C236.918 117.629 236.969 117.914 237.07 118.148C237.172 118.375 237.305 118.562 237.469 118.711C237.641 118.859 237.828 118.977 238.031 119.062C238.242 119.141 238.453 119.199 238.664 119.238C238.883 119.27 239.094 119.289 239.297 119.297C239.5 119.305 239.676 119.309 239.824 119.309H243.105V115.348ZM259.16 121.992C259.074 122.539 258.887 123.074 258.598 123.598C258.309 124.121 257.93 124.59 257.461 125.004C256.992 125.418 256.438 125.75 255.797 126C255.164 126.258 254.461 126.387 253.688 126.387C252.844 126.387 252.062 126.25 251.344 125.977C250.633 125.695 250.016 125.277 249.492 124.723C248.977 124.16 248.57 123.457 248.273 122.613C247.977 121.77 247.828 120.777 247.828 119.637C247.828 118.871 247.91 118.18 248.074 117.562C248.246 116.938 248.473 116.383 248.754 115.898C249.043 115.406 249.375 114.984 249.75 114.633C250.125 114.273 250.52 113.98 250.934 113.754C251.355 113.52 251.785 113.348 252.223 113.238C252.66 113.121 253.082 113.062 253.488 113.062C254.348 113.062 255.133 113.191 255.844 113.449C256.555 113.707 257.164 114.102 257.672 114.633C258.188 115.156 258.586 115.816 258.867 116.613C259.156 117.402 259.301 118.332 259.301 119.402V120.48H250.125C250.133 121.09 250.219 121.645 250.383 122.145C250.547 122.637 250.781 123.059 251.086 123.41C251.391 123.762 251.758 124.035 252.188 124.23C252.625 124.418 253.117 124.512 253.664 124.512C254.219 124.512 254.688 124.434 255.07 124.277C255.453 124.121 255.773 123.922 256.031 123.68C256.289 123.438 256.496 123.168 256.652 122.871C256.816 122.574 256.953 122.281 257.062 121.992H259.16ZM257.133 118.758C257.117 118.148 257.023 117.605 256.852 117.129C256.688 116.652 256.453 116.254 256.148 115.934C255.852 115.605 255.492 115.359 255.07 115.195C254.648 115.023 254.18 114.938 253.664 114.938C253.172 114.938 252.719 115.035 252.305 115.23C251.891 115.418 251.527 115.684 251.215 116.027C250.902 116.363 250.652 116.766 250.465 117.234C250.277 117.695 250.164 118.203 250.125 118.758H257.133ZM261.832 113.449H267.176C268.707 113.449 269.852 113.734 270.609 114.305C271.375 114.875 271.758 115.703 271.758 116.789C271.758 117.367 271.617 117.855 271.336 118.254C271.055 118.652 270.684 119.004 270.223 119.309C270.887 119.559 271.414 119.918 271.805 120.387C272.195 120.855 272.391 121.461 272.391 122.203C272.391 122.789 272.293 123.316 272.098 123.785C271.902 124.254 271.605 124.652 271.207 124.98C270.809 125.309 270.301 125.562 269.684 125.742C269.074 125.914 268.352 126 267.516 126H261.832V113.449ZM263.988 124.277H267.27C267.84 124.277 268.312 124.234 268.688 124.148C269.07 124.055 269.375 123.922 269.602 123.75C269.828 123.578 269.988 123.371 270.082 123.129C270.176 122.887 270.223 122.613 270.223 122.309C270.223 122.004 270.176 121.73 270.082 121.488C269.988 121.238 269.828 121.031 269.602 120.867C269.375 120.695 269.07 120.566 268.688 120.48C268.312 120.387 267.84 120.34 267.27 120.34H263.988V124.277ZM263.988 118.758H267.246C267.973 118.758 268.547 118.613 268.969 118.324C269.391 118.035 269.602 117.586 269.602 116.977C269.602 116.633 269.543 116.348 269.426 116.121C269.309 115.887 269.152 115.699 268.957 115.559C268.762 115.418 268.539 115.32 268.289 115.266C268.047 115.203 267.797 115.172 267.539 115.172H263.988V118.758ZM274.957 117.211C274.98 116.445 275.125 115.801 275.391 115.277C275.656 114.746 276.016 114.316 276.469 113.988C276.922 113.66 277.457 113.426 278.074 113.285C278.699 113.137 279.379 113.062 280.113 113.062C280.723 113.062 281.312 113.125 281.883 113.25C282.461 113.375 282.973 113.578 283.418 113.859C283.863 114.133 284.219 114.492 284.484 114.938C284.758 115.375 284.895 115.91 284.895 116.543V123.844C284.895 124.047 284.949 124.223 285.059 124.371C285.168 124.512 285.344 124.582 285.586 124.582C285.695 124.582 285.809 124.574 285.926 124.559C286.043 124.535 286.164 124.512 286.289 124.488V125.977C286.109 126.023 285.93 126.066 285.75 126.105C285.578 126.145 285.371 126.164 285.129 126.164C284.754 126.164 284.43 126.133 284.156 126.07C283.891 126.008 283.664 125.906 283.477 125.766C283.297 125.617 283.156 125.43 283.055 125.203C282.953 124.969 282.887 124.684 282.855 124.348C282.59 124.637 282.309 124.906 282.012 125.156C281.715 125.398 281.383 125.613 281.016 125.801C280.648 125.98 280.238 126.121 279.785 126.223C279.332 126.332 278.82 126.387 278.25 126.387C277.766 126.387 277.293 126.309 276.832 126.152C276.379 125.996 275.969 125.766 275.602 125.461C275.242 125.156 274.953 124.781 274.734 124.336C274.516 123.883 274.406 123.359 274.406 122.766C274.406 122.117 274.516 121.559 274.734 121.09C274.953 120.613 275.238 120.219 275.59 119.906C275.941 119.586 276.344 119.34 276.797 119.168C277.25 118.996 277.711 118.883 278.18 118.828L281.707 118.395C282.043 118.355 282.305 118.227 282.492 118.008C282.688 117.781 282.785 117.422 282.785 116.93C282.785 116.172 282.535 115.629 282.035 115.301C281.543 114.965 280.832 114.797 279.902 114.797C278.949 114.797 278.238 115 277.77 115.406C277.301 115.805 277.035 116.406 276.973 117.211H274.957ZM282.738 119.613C282.566 119.738 282.352 119.844 282.094 119.93C281.844 120.008 281.566 120.074 281.262 120.129C280.957 120.184 280.633 120.234 280.289 120.281C279.945 120.32 279.602 120.363 279.258 120.41C278.867 120.465 278.508 120.543 278.18 120.645C277.852 120.746 277.566 120.879 277.324 121.043C277.082 121.207 276.895 121.406 276.762 121.641C276.629 121.867 276.562 122.137 276.562 122.449C276.562 122.809 276.617 123.125 276.727 123.398C276.844 123.672 277 123.902 277.195 124.09C277.398 124.277 277.641 124.418 277.922 124.512C278.203 124.605 278.512 124.652 278.848 124.652C279.059 124.652 279.301 124.629 279.574 124.582C279.848 124.527 280.129 124.449 280.418 124.348C280.707 124.246 280.988 124.117 281.262 123.961C281.543 123.797 281.793 123.602 282.012 123.375C282.23 123.148 282.406 122.891 282.539 122.602C282.672 122.312 282.738 121.988 282.738 121.629V119.613ZM296.262 118.5H314.602V120.223H296.262V118.5ZM325.582 113.449H327.738V115.172H327.785C327.926 114.883 328.102 114.609 328.312 114.352C328.531 114.094 328.789 113.871 329.086 113.684C329.391 113.488 329.738 113.336 330.129 113.227C330.527 113.117 330.98 113.062 331.488 113.062C332.16 113.062 332.805 113.191 333.422 113.449C334.039 113.707 334.586 114.094 335.062 114.609C335.539 115.125 335.918 115.773 336.199 116.555C336.48 117.328 336.621 118.23 336.621 119.262C336.621 120.551 336.488 121.648 336.223 122.555C335.965 123.453 335.594 124.188 335.109 124.758C334.633 125.328 334.055 125.742 333.375 126C332.695 126.258 331.938 126.387 331.102 126.387C330.688 126.387 330.301 126.332 329.941 126.223C329.582 126.113 329.258 125.973 328.969 125.801C328.688 125.621 328.445 125.426 328.242 125.215C328.039 124.996 327.887 124.785 327.785 124.582H327.738V130.945H325.582V113.449ZM327.691 119.789C327.691 120.469 327.758 121.098 327.891 121.676C328.023 122.246 328.227 122.742 328.5 123.164C328.781 123.586 329.129 123.918 329.543 124.16C329.965 124.395 330.461 124.512 331.031 124.512C331.625 124.512 332.137 124.395 332.566 124.16C333.004 123.918 333.363 123.586 333.645 123.164C333.926 122.742 334.133 122.246 334.266 121.676C334.398 121.098 334.465 120.469 334.465 119.789C334.465 119.078 334.398 118.426 334.266 117.832C334.133 117.238 333.926 116.727 333.645 116.297C333.363 115.867 333.004 115.535 332.566 115.301C332.137 115.059 331.625 114.938 331.031 114.938C330.461 114.938 329.965 115.059 329.543 115.301C329.129 115.535 328.781 115.867 328.5 116.297C328.227 116.727 328.023 117.238 327.891 117.832C327.758 118.426 327.691 119.078 327.691 119.789ZM349.746 121.992C349.66 122.539 349.473 123.074 349.184 123.598C348.895 124.121 348.516 124.59 348.047 125.004C347.578 125.418 347.023 125.75 346.383 126C345.75 126.258 345.047 126.387 344.273 126.387C343.43 126.387 342.648 126.25 341.93 125.977C341.219 125.695 340.602 125.277 340.078 124.723C339.562 124.16 339.156 123.457 338.859 122.613C338.562 121.77 338.414 120.777 338.414 119.637C338.414 118.871 338.496 118.18 338.66 117.562C338.832 116.938 339.059 116.383 339.34 115.898C339.629 115.406 339.961 114.984 340.336 114.633C340.711 114.273 341.105 113.98 341.52 113.754C341.941 113.52 342.371 113.348 342.809 113.238C343.246 113.121 343.668 113.062 344.074 113.062C344.934 113.062 345.719 113.191 346.43 113.449C347.141 113.707 347.75 114.102 348.258 114.633C348.773 115.156 349.172 115.816 349.453 116.613C349.742 117.402 349.887 118.332 349.887 119.402V120.48H340.711C340.719 121.09 340.805 121.645 340.969 122.145C341.133 122.637 341.367 123.059 341.672 123.41C341.977 123.762 342.344 124.035 342.773 124.23C343.211 124.418 343.703 124.512 344.25 124.512C344.805 124.512 345.273 124.434 345.656 124.277C346.039 124.121 346.359 123.922 346.617 123.68C346.875 123.438 347.082 123.168 347.238 122.871C347.402 122.574 347.539 122.281 347.648 121.992H349.746ZM347.719 118.758C347.703 118.148 347.609 117.605 347.438 117.129C347.273 116.652 347.039 116.254 346.734 115.934C346.438 115.605 346.078 115.359 345.656 115.195C345.234 115.023 344.766 114.938 344.25 114.938C343.758 114.938 343.305 115.035 342.891 115.23C342.477 115.418 342.113 115.684 341.801 116.027C341.488 116.363 341.238 116.766 341.051 117.234C340.863 117.695 340.75 118.203 340.711 118.758H347.719ZM361.301 118.582H362.391L366.504 113.449H369.105L364.172 119.402L369.293 126H366.633L362.391 120.293H361.301V126H359.145V120.293H358.043L353.766 126H351.105L356.273 119.402L351.363 113.449H353.977L358.043 118.582H359.145V113.449H361.301V118.582ZM371.145 113.449H373.301V123.07H373.348L379.512 113.449H381.984V126H379.816V116.379H379.77L373.617 126H371.145V113.449ZM395.027 121.582C394.996 121.887 394.934 122.219 394.84 122.578C394.754 122.938 394.625 123.297 394.453 123.656C394.281 124.008 394.059 124.348 393.785 124.676C393.52 125.004 393.191 125.297 392.801 125.555C392.418 125.805 391.965 126.004 391.441 126.152C390.918 126.309 390.32 126.387 389.648 126.387C389.281 126.387 388.895 126.34 388.488 126.246C388.082 126.16 387.684 126.012 387.293 125.801C386.91 125.59 386.543 125.32 386.191 124.992C385.848 124.656 385.543 124.242 385.277 123.75C385.02 123.258 384.812 122.688 384.656 122.039C384.5 121.383 384.422 120.633 384.422 119.789C384.422 118.75 384.57 117.816 384.867 116.988C385.164 116.152 385.559 115.445 386.051 114.867C386.551 114.289 387.129 113.844 387.785 113.531C388.449 113.219 389.145 113.062 389.871 113.062C390.527 113.062 391.105 113.133 391.605 113.273C392.113 113.414 392.555 113.602 392.93 113.836C393.305 114.07 393.621 114.344 393.879 114.656C394.137 114.961 394.344 115.285 394.5 115.629C394.664 115.965 394.785 116.309 394.863 116.66C394.949 117.012 395.004 117.348 395.027 117.668H393.012C392.902 116.816 392.605 116.148 392.121 115.664C391.645 115.18 390.973 114.938 390.105 114.938C389.512 114.938 388.992 115.059 388.547 115.301C388.109 115.543 387.742 115.883 387.445 116.32C387.156 116.75 386.938 117.273 386.789 117.891C386.648 118.5 386.578 119.172 386.578 119.906C386.578 120.734 386.656 121.449 386.812 122.051C386.969 122.645 387.191 123.137 387.48 123.527C387.77 123.91 388.121 124.195 388.535 124.383C388.957 124.562 389.434 124.652 389.965 124.652C390.34 124.652 390.695 124.586 391.031 124.453C391.367 124.312 391.668 124.113 391.934 123.855C392.199 123.59 392.426 123.266 392.613 122.883C392.801 122.5 392.934 122.066 393.012 121.582H395.027ZM407.027 121.582C406.996 121.887 406.934 122.219 406.84 122.578C406.754 122.938 406.625 123.297 406.453 123.656C406.281 124.008 406.059 124.348 405.785 124.676C405.52 125.004 405.191 125.297 404.801 125.555C404.418 125.805 403.965 126.004 403.441 126.152C402.918 126.309 402.32 126.387 401.648 126.387C401.281 126.387 400.895 126.34 400.488 126.246C400.082 126.16 399.684 126.012 399.293 125.801C398.91 125.59 398.543 125.32 398.191 124.992C397.848 124.656 397.543 124.242 397.277 123.75C397.02 123.258 396.812 122.688 396.656 122.039C396.5 121.383 396.422 120.633 396.422 119.789C396.422 118.75 396.57 117.816 396.867 116.988C397.164 116.152 397.559 115.445 398.051 114.867C398.551 114.289 399.129 113.844 399.785 113.531C400.449 113.219 401.145 113.062 401.871 113.062C402.527 113.062 403.105 113.133 403.605 113.273C404.113 113.414 404.555 113.602 404.93 113.836C405.305 114.07 405.621 114.344 405.879 114.656C406.137 114.961 406.344 115.285 406.5 115.629C406.664 115.965 406.785 116.309 406.863 116.66C406.949 117.012 407.004 117.348 407.027 117.668H405.012C404.902 116.816 404.605 116.148 404.121 115.664C403.645 115.18 402.973 114.938 402.105 114.938C401.512 114.938 400.992 115.059 400.547 115.301C400.109 115.543 399.742 115.883 399.445 116.32C399.156 116.75 398.938 117.273 398.789 117.891C398.648 118.5 398.578 119.172 398.578 119.906C398.578 120.734 398.656 121.449 398.812 122.051C398.969 122.645 399.191 123.137 399.48 123.527C399.77 123.91 400.121 124.195 400.535 124.383C400.957 124.562 401.434 124.652 401.965 124.652C402.34 124.652 402.695 124.586 403.031 124.453C403.367 124.312 403.668 124.113 403.934 123.855C404.199 123.59 404.426 123.266 404.613 122.883C404.801 122.5 404.934 122.066 405.012 121.582H407.027ZM419.848 121.992C419.762 122.539 419.574 123.074 419.285 123.598C418.996 124.121 418.617 124.59 418.148 125.004C417.68 125.418 417.125 125.75 416.484 126C415.852 126.258 415.148 126.387 414.375 126.387C413.531 126.387 412.75 126.25 412.031 125.977C411.32 125.695 410.703 125.277 410.18 124.723C409.664 124.16 409.258 123.457 408.961 122.613C408.664 121.77 408.516 120.777 408.516 119.637C408.516 118.871 408.598 118.18 408.762 117.562C408.934 116.938 409.16 116.383 409.441 115.898C409.73 115.406 410.062 114.984 410.438 114.633C410.812 114.273 411.207 113.98 411.621 113.754C412.043 113.52 412.473 113.348 412.91 113.238C413.348 113.121 413.77 113.062 414.176 113.062C415.035 113.062 415.82 113.191 416.531 113.449C417.242 113.707 417.852 114.102 418.359 114.633C418.875 115.156 419.273 115.816 419.555 116.613C419.844 117.402 419.988 118.332 419.988 119.402V120.48H410.812C410.82 121.09 410.906 121.645 411.07 122.145C411.234 122.637 411.469 123.059 411.773 123.41C412.078 123.762 412.445 124.035 412.875 124.23C413.312 124.418 413.805 124.512 414.352 124.512C414.906 124.512 415.375 124.434 415.758 124.277C416.141 124.121 416.461 123.922 416.719 123.68C416.977 123.438 417.184 123.168 417.34 122.871C417.504 122.574 417.641 122.281 417.75 121.992H419.848ZM417.82 118.758C417.805 118.148 417.711 117.605 417.539 117.129C417.375 116.652 417.141 116.254 416.836 115.934C416.539 115.605 416.18 115.359 415.758 115.195C415.336 115.023 414.867 114.938 414.352 114.938C413.859 114.938 413.406 115.035 412.992 115.23C412.578 115.418 412.215 115.684 411.902 116.027C411.59 116.363 411.34 116.766 411.152 117.234C410.965 117.695 410.852 118.203 410.812 118.758H417.82ZM422.402 113.449H424.559V115.172H424.605C424.746 114.883 424.922 114.609 425.133 114.352C425.352 114.094 425.609 113.871 425.906 113.684C426.211 113.488 426.559 113.336 426.949 113.227C427.348 113.117 427.801 113.062 428.309 113.062C428.98 113.062 429.625 113.191 430.242 113.449C430.859 113.707 431.406 114.094 431.883 114.609C432.359 115.125 432.738 115.773 433.02 116.555C433.301 117.328 433.441 118.23 433.441 119.262C433.441 120.551 433.309 121.648 433.043 122.555C432.785 123.453 432.414 124.188 431.93 124.758C431.453 125.328 430.875 125.742 430.195 126C429.516 126.258 428.758 126.387 427.922 126.387C427.508 126.387 427.121 126.332 426.762 126.223C426.402 126.113 426.078 125.973 425.789 125.801C425.508 125.621 425.266 125.426 425.062 125.215C424.859 124.996 424.707 124.785 424.605 124.582H424.559V130.945H422.402V113.449ZM424.512 119.789C424.512 120.469 424.578 121.098 424.711 121.676C424.844 122.246 425.047 122.742 425.32 123.164C425.602 123.586 425.949 123.918 426.363 124.16C426.785 124.395 427.281 124.512 427.852 124.512C428.445 124.512 428.957 124.395 429.387 124.16C429.824 123.918 430.184 123.586 430.465 123.164C430.746 122.742 430.953 122.246 431.086 121.676C431.219 121.098 431.285 120.469 431.285 119.789C431.285 119.078 431.219 118.426 431.086 117.832C430.953 117.238 430.746 116.727 430.465 116.297C430.184 115.867 429.824 115.535 429.387 115.301C428.957 115.059 428.445 114.938 427.852 114.938C427.281 114.938 426.785 115.059 426.363 115.301C425.949 115.535 425.602 115.867 425.32 116.297C425.047 116.727 424.844 117.238 424.711 117.832C424.578 118.426 424.512 119.078 424.512 119.789Z" fill="#E8E8E8"/>
<path d="M973.449 122.582C973.418 122.887 973.355 123.219 973.262 123.578C973.176 123.938 973.047 124.297 972.875 124.656C972.703 125.008 972.48 125.348 972.207 125.676C971.941 126.004 971.613 126.297 971.223 126.555C970.84 126.805 970.387 127.004 969.863 127.152C969.34 127.309 968.742 127.387 968.07 127.387C967.703 127.387 967.316 127.34 966.91 127.246C966.504 127.16 966.105 127.012 965.715 126.801C965.332 126.59 964.965 126.32 964.613 125.992C964.27 125.656 963.965 125.242 963.699 124.75C963.441 124.258 963.234 123.688 963.078 123.039C962.922 122.383 962.844 121.633 962.844 120.789C962.844 119.75 962.992 118.816 963.289 117.988C963.586 117.152 963.98 116.445 964.473 115.867C964.973 115.289 965.551 114.844 966.207 114.531C966.871 114.219 967.566 114.062 968.293 114.062C968.949 114.062 969.527 114.133 970.027 114.273C970.535 114.414 970.977 114.602 971.352 114.836C971.727 115.07 972.043 115.344 972.301 115.656C972.559 115.961 972.766 116.285 972.922 116.629C973.086 116.965 973.207 117.309 973.285 117.66C973.371 118.012 973.426 118.348 973.449 118.668H971.434C971.324 117.816 971.027 117.148 970.543 116.664C970.066 116.18 969.395 115.938 968.527 115.938C967.934 115.938 967.414 116.059 966.969 116.301C966.531 116.543 966.164 116.883 965.867 117.32C965.578 117.75 965.359 118.273 965.211 118.891C965.07 119.5 965 120.172 965 120.906C965 121.734 965.078 122.449 965.234 123.051C965.391 123.645 965.613 124.137 965.902 124.527C966.191 124.91 966.543 125.195 966.957 125.383C967.379 125.562 967.855 125.652 968.387 125.652C968.762 125.652 969.117 125.586 969.453 125.453C969.789 125.312 970.09 125.113 970.355 124.855C970.621 124.59 970.848 124.266 971.035 123.883C971.223 123.5 971.355 123.066 971.434 122.582H973.449ZM978.922 116.324H974.598V114.449H985.402V116.324H981.078V127H978.922V116.324ZM987.559 118.211C987.582 117.445 987.727 116.801 987.992 116.277C988.258 115.746 988.617 115.316 989.07 114.988C989.523 114.66 990.059 114.426 990.676 114.285C991.301 114.137 991.98 114.062 992.715 114.062C993.324 114.062 993.914 114.125 994.484 114.25C995.062 114.375 995.574 114.578 996.02 114.859C996.465 115.133 996.82 115.492 997.086 115.938C997.359 116.375 997.496 116.91 997.496 117.543V124.844C997.496 125.047 997.551 125.223 997.66 125.371C997.77 125.512 997.945 125.582 998.188 125.582C998.297 125.582 998.41 125.574 998.527 125.559C998.645 125.535 998.766 125.512 998.891 125.488V126.977C998.711 127.023 998.531 127.066 998.352 127.105C998.18 127.145 997.973 127.164 997.73 127.164C997.355 127.164 997.031 127.133 996.758 127.07C996.492 127.008 996.266 126.906 996.078 126.766C995.898 126.617 995.758 126.43 995.656 126.203C995.555 125.969 995.488 125.684 995.457 125.348C995.191 125.637 994.91 125.906 994.613 126.156C994.316 126.398 993.984 126.613 993.617 126.801C993.25 126.98 992.84 127.121 992.387 127.223C991.934 127.332 991.422 127.387 990.852 127.387C990.367 127.387 989.895 127.309 989.434 127.152C988.98 126.996 988.57 126.766 988.203 126.461C987.844 126.156 987.555 125.781 987.336 125.336C987.117 124.883 987.008 124.359 987.008 123.766C987.008 123.117 987.117 122.559 987.336 122.09C987.555 121.613 987.84 121.219 988.191 120.906C988.543 120.586 988.945 120.34 989.398 120.168C989.852 119.996 990.312 119.883 990.781 119.828L994.309 119.395C994.645 119.355 994.906 119.227 995.094 119.008C995.289 118.781 995.387 118.422 995.387 117.93C995.387 117.172 995.137 116.629 994.637 116.301C994.145 115.965 993.434 115.797 992.504 115.797C991.551 115.797 990.84 116 990.371 116.406C989.902 116.805 989.637 117.406 989.574 118.211H987.559ZM995.34 120.613C995.168 120.738 994.953 120.844 994.695 120.93C994.445 121.008 994.168 121.074 993.863 121.129C993.559 121.184 993.234 121.234 992.891 121.281C992.547 121.32 992.203 121.363 991.859 121.41C991.469 121.465 991.109 121.543 990.781 121.645C990.453 121.746 990.168 121.879 989.926 122.043C989.684 122.207 989.496 122.406 989.363 122.641C989.23 122.867 989.164 123.137 989.164 123.449C989.164 123.809 989.219 124.125 989.328 124.398C989.445 124.672 989.602 124.902 989.797 125.09C990 125.277 990.242 125.418 990.523 125.512C990.805 125.605 991.113 125.652 991.449 125.652C991.66 125.652 991.902 125.629 992.176 125.582C992.449 125.527 992.73 125.449 993.02 125.348C993.309 125.246 993.59 125.117 993.863 124.961C994.145 124.797 994.395 124.602 994.613 124.375C994.832 124.148 995.008 123.891 995.141 123.602C995.273 123.312 995.34 122.988 995.34 122.629V120.613ZM1009.82 119.582H1010.91L1015.03 114.449H1017.63L1012.7 120.402L1017.82 127H1015.16L1010.91 121.293H1009.82V127H1007.67V121.293H1006.57L1002.29 127H999.629L1004.8 120.402L999.887 114.449H1002.5L1006.57 119.582H1007.67V114.449H1009.82V119.582ZM1026.23 114.449H1028.39V116.172H1028.43C1028.57 115.883 1028.75 115.609 1028.96 115.352C1029.18 115.094 1029.44 114.871 1029.73 114.684C1030.04 114.488 1030.39 114.336 1030.78 114.227C1031.18 114.117 1031.63 114.062 1032.14 114.062C1032.81 114.062 1033.45 114.191 1034.07 114.449C1034.69 114.707 1035.23 115.094 1035.71 115.609C1036.19 116.125 1036.57 116.773 1036.85 117.555C1037.13 118.328 1037.27 119.23 1037.27 120.262C1037.27 121.551 1037.14 122.648 1036.87 123.555C1036.61 124.453 1036.24 125.188 1035.76 125.758C1035.28 126.328 1034.7 126.742 1034.02 127C1033.34 127.258 1032.59 127.387 1031.75 127.387C1031.34 127.387 1030.95 127.332 1030.59 127.223C1030.23 127.113 1029.91 126.973 1029.62 126.801C1029.34 126.621 1029.09 126.426 1028.89 126.215C1028.69 125.996 1028.54 125.785 1028.43 125.582H1028.39V131.945H1026.23V114.449ZM1028.34 120.789C1028.34 121.469 1028.41 122.098 1028.54 122.676C1028.67 123.246 1028.88 123.742 1029.15 124.164C1029.43 124.586 1029.78 124.918 1030.19 125.16C1030.61 125.395 1031.11 125.512 1031.68 125.512C1032.27 125.512 1032.79 125.395 1033.21 125.16C1033.65 124.918 1034.01 124.586 1034.29 124.164C1034.57 123.742 1034.78 123.246 1034.91 122.676C1035.05 122.098 1035.11 121.469 1035.11 120.789C1035.11 120.078 1035.05 119.426 1034.91 118.832C1034.78 118.238 1034.57 117.727 1034.29 117.297C1034.01 116.867 1033.65 116.535 1033.21 116.301C1032.79 116.059 1032.27 115.938 1031.68 115.938C1031.11 115.938 1030.61 116.059 1030.19 116.301C1029.78 116.535 1029.43 116.867 1029.15 117.297C1028.88 117.727 1028.67 118.238 1028.54 118.832C1028.41 119.426 1028.34 120.078 1028.34 120.789ZM1039.68 118.211C1039.71 117.445 1039.85 116.801 1040.12 116.277C1040.38 115.746 1040.74 115.316 1041.2 114.988C1041.65 114.66 1042.18 114.426 1042.8 114.285C1043.43 114.137 1044.11 114.062 1044.84 114.062C1045.45 114.062 1046.04 114.125 1046.61 114.25C1047.19 114.375 1047.7 114.578 1048.14 114.859C1048.59 115.133 1048.95 115.492 1049.21 115.938C1049.48 116.375 1049.62 116.91 1049.62 117.543V124.844C1049.62 125.047 1049.68 125.223 1049.79 125.371C1049.89 125.512 1050.07 125.582 1050.31 125.582C1050.42 125.582 1050.54 125.574 1050.65 125.559C1050.77 125.535 1050.89 125.512 1051.02 125.488V126.977C1050.84 127.023 1050.66 127.066 1050.48 127.105C1050.3 127.145 1050.1 127.164 1049.86 127.164C1049.48 127.164 1049.16 127.133 1048.88 127.07C1048.62 127.008 1048.39 126.906 1048.2 126.766C1048.02 126.617 1047.88 126.43 1047.78 126.203C1047.68 125.969 1047.61 125.684 1047.58 125.348C1047.32 125.637 1047.04 125.906 1046.74 126.156C1046.44 126.398 1046.11 126.613 1045.74 126.801C1045.38 126.98 1044.96 127.121 1044.51 127.223C1044.06 127.332 1043.55 127.387 1042.98 127.387C1042.49 127.387 1042.02 127.309 1041.56 127.152C1041.11 126.996 1040.7 126.766 1040.33 126.461C1039.97 126.156 1039.68 125.781 1039.46 125.336C1039.24 124.883 1039.13 124.359 1039.13 123.766C1039.13 123.117 1039.24 122.559 1039.46 122.09C1039.68 121.613 1039.96 121.219 1040.32 120.906C1040.67 120.586 1041.07 120.34 1041.52 120.168C1041.98 119.996 1042.44 119.883 1042.91 119.828L1046.43 119.395C1046.77 119.355 1047.03 119.227 1047.22 119.008C1047.41 118.781 1047.51 118.422 1047.51 117.93C1047.51 117.172 1047.26 116.629 1046.76 116.301C1046.27 115.965 1045.56 115.797 1044.63 115.797C1043.68 115.797 1042.96 116 1042.5 116.406C1042.03 116.805 1041.76 117.406 1041.7 118.211H1039.68ZM1047.46 120.613C1047.29 120.738 1047.08 120.844 1046.82 120.93C1046.57 121.008 1046.29 121.074 1045.99 121.129C1045.68 121.184 1045.36 121.234 1045.02 121.281C1044.67 121.32 1044.33 121.363 1043.98 121.41C1043.59 121.465 1043.23 121.543 1042.91 121.645C1042.58 121.746 1042.29 121.879 1042.05 122.043C1041.81 122.207 1041.62 122.406 1041.49 122.641C1041.36 122.867 1041.29 123.137 1041.29 123.449C1041.29 123.809 1041.34 124.125 1041.45 124.398C1041.57 124.672 1041.73 124.902 1041.92 125.09C1042.12 125.277 1042.37 125.418 1042.65 125.512C1042.93 125.605 1043.24 125.652 1043.57 125.652C1043.79 125.652 1044.03 125.629 1044.3 125.582C1044.57 125.527 1044.86 125.449 1045.14 125.348C1045.43 125.246 1045.71 125.117 1045.99 124.961C1046.27 124.797 1046.52 124.602 1046.74 124.375C1046.96 124.148 1047.13 123.891 1047.27 123.602C1047.4 123.312 1047.46 122.988 1047.46 122.629V120.613ZM1062.82 109.621C1062.8 109.738 1062.78 109.883 1062.75 110.055C1062.72 110.219 1062.67 110.395 1062.59 110.582C1062.52 110.77 1062.41 110.961 1062.27 111.156C1062.13 111.344 1061.95 111.52 1061.73 111.684C1061.6 111.77 1061.49 111.844 1061.39 111.906C1061.29 111.969 1061.16 112.023 1061 112.07C1060.84 112.117 1060.64 112.156 1060.4 112.188C1060.16 112.219 1059.84 112.238 1059.43 112.246L1058.54 112.27C1057.93 112.285 1057.38 112.41 1056.89 112.645C1056.4 112.871 1055.97 113.191 1055.6 113.605C1055.23 114.012 1054.93 114.504 1054.68 115.082C1054.44 115.66 1054.26 116.305 1054.14 117.016C1054.31 116.703 1054.51 116.398 1054.75 116.102C1055 115.797 1055.3 115.527 1055.66 115.293C1056.02 115.051 1056.44 114.859 1056.92 114.719C1057.41 114.57 1057.97 114.496 1058.61 114.496C1059.34 114.496 1060.02 114.625 1060.67 114.883C1061.33 115.141 1061.9 115.527 1062.38 116.043C1062.88 116.559 1063.27 117.199 1063.55 117.965C1063.84 118.73 1063.99 119.621 1063.99 120.637C1063.99 120.957 1063.96 121.348 1063.92 121.809C1063.87 122.262 1063.78 122.738 1063.64 123.238C1063.5 123.738 1063.29 124.238 1063.03 124.738C1062.77 125.23 1062.42 125.672 1061.98 126.062C1061.55 126.453 1061.03 126.77 1060.4 127.012C1059.79 127.262 1059.04 127.387 1058.18 127.387C1057.82 127.387 1057.43 127.355 1057.03 127.293C1056.63 127.238 1056.23 127.133 1055.82 126.977C1055.42 126.82 1055.03 126.602 1054.65 126.32C1054.27 126.039 1053.93 125.68 1053.62 125.242C1053.46 125.023 1053.3 124.773 1053.15 124.492C1053 124.203 1052.86 123.855 1052.74 123.449C1052.61 123.043 1052.51 122.562 1052.43 122.008C1052.36 121.453 1052.33 120.797 1052.33 120.039C1052.33 119.539 1052.35 118.973 1052.4 118.34C1052.45 117.707 1052.53 117.062 1052.64 116.406C1052.76 115.75 1052.92 115.117 1053.11 114.508C1053.31 113.891 1053.56 113.352 1053.86 112.891C1054.19 112.391 1054.54 111.984 1054.89 111.672C1055.25 111.359 1055.64 111.113 1056.04 110.934C1056.45 110.754 1056.89 110.625 1057.36 110.547C1057.82 110.469 1058.33 110.418 1058.88 110.395L1059.64 110.371C1059.89 110.363 1060.1 110.352 1060.27 110.336C1060.45 110.312 1060.6 110.277 1060.72 110.23C1060.84 110.184 1060.93 110.113 1061 110.02C1061.07 109.926 1061.13 109.793 1061.18 109.621H1062.82ZM1054.48 120.953C1054.48 121.188 1054.5 121.465 1054.52 121.785C1054.55 122.105 1054.61 122.441 1054.7 122.793C1054.78 123.137 1054.91 123.48 1055.07 123.824C1055.23 124.168 1055.45 124.477 1055.71 124.75C1055.99 125.016 1056.32 125.234 1056.72 125.406C1057.12 125.57 1057.6 125.652 1058.15 125.652C1058.77 125.652 1059.29 125.555 1059.71 125.359C1060.13 125.156 1060.48 124.898 1060.75 124.586C1061.03 124.266 1061.23 123.914 1061.38 123.531C1061.52 123.148 1061.63 122.777 1061.69 122.418C1061.76 122.051 1061.8 121.719 1061.81 121.422C1061.82 121.117 1061.83 120.887 1061.83 120.73C1061.83 120.16 1061.77 119.602 1061.63 119.055C1061.51 118.508 1061.3 118.023 1061.01 117.602C1060.73 117.18 1060.36 116.84 1059.9 116.582C1059.45 116.324 1058.89 116.195 1058.22 116.195C1057.57 116.195 1057.02 116.324 1056.55 116.582C1056.08 116.832 1055.69 117.176 1055.39 117.613C1055.08 118.043 1054.86 118.547 1054.71 119.125C1054.56 119.695 1054.48 120.305 1054.48 120.953ZM1075.19 120.707C1075.19 120.012 1075.11 119.375 1074.96 118.797C1074.8 118.211 1074.57 117.707 1074.25 117.285C1073.94 116.863 1073.55 116.535 1073.09 116.301C1072.64 116.059 1072.11 115.938 1071.51 115.938C1070.91 115.938 1070.38 116.059 1069.93 116.301C1069.48 116.535 1069.09 116.863 1068.78 117.285C1068.47 117.707 1068.23 118.211 1068.08 118.797C1067.92 119.375 1067.84 120.012 1067.84 120.707C1067.84 121.41 1067.92 122.059 1068.08 122.652C1068.23 123.238 1068.47 123.742 1068.78 124.164C1069.09 124.586 1069.48 124.918 1069.93 125.16C1070.38 125.395 1070.91 125.512 1071.51 125.512C1072.11 125.512 1072.64 125.395 1073.09 125.16C1073.55 124.918 1073.94 124.586 1074.25 124.164C1074.57 123.742 1074.8 123.238 1074.96 122.652C1075.11 122.059 1075.19 121.41 1075.19 120.707ZM1077.35 120.707C1077.35 121.738 1077.21 122.668 1076.95 123.496C1076.68 124.316 1076.3 125.016 1075.8 125.594C1075.3 126.172 1074.69 126.617 1073.96 126.93C1073.24 127.234 1072.43 127.387 1071.51 127.387C1070.6 127.387 1069.78 127.234 1069.06 126.93C1068.34 126.617 1067.73 126.172 1067.23 125.594C1066.73 125.016 1066.35 124.316 1066.09 123.496C1065.82 122.668 1065.69 121.738 1065.69 120.707C1065.69 119.691 1065.82 118.773 1066.09 117.953C1066.35 117.133 1066.73 116.434 1067.23 115.855C1067.73 115.277 1068.34 114.836 1069.06 114.531C1069.78 114.219 1070.6 114.062 1071.51 114.062C1072.43 114.062 1073.24 114.219 1073.96 114.531C1074.69 114.836 1075.3 115.277 1075.8 115.855C1076.3 116.434 1076.68 117.133 1076.95 117.953C1077.21 118.773 1077.35 119.691 1077.35 120.707ZM1083.12 116.324H1078.8V114.449H1089.61V116.324H1085.28V127H1083.12V116.324ZM1103.79 114.449H1105.94V127H1103.79V114.449ZM1091.79 114.449H1093.94V119.172H1097.71C1098.39 119.172 1099 119.266 1099.54 119.453C1100.09 119.633 1100.55 119.895 1100.93 120.238C1101.3 120.574 1101.59 120.984 1101.78 121.469C1101.98 121.945 1102.09 122.484 1102.09 123.086C1102.09 123.695 1101.98 124.242 1101.78 124.727C1101.59 125.203 1101.3 125.613 1100.93 125.957C1100.55 126.293 1100.09 126.551 1099.54 126.73C1099 126.91 1098.39 127 1097.71 127H1091.79V114.449ZM1093.94 125.277H1097.28C1097.66 125.277 1098 125.238 1098.32 125.16C1098.65 125.082 1098.93 124.957 1099.17 124.785C1099.4 124.605 1099.59 124.379 1099.72 124.105C1099.85 123.824 1099.92 123.484 1099.92 123.086C1099.92 122.695 1099.85 122.363 1099.71 122.09C1099.57 121.816 1099.38 121.594 1099.13 121.422C1098.89 121.242 1098.59 121.113 1098.24 121.035C1097.9 120.949 1097.52 120.906 1097.09 120.906H1093.94V125.277Z" fill="#E8E8E8"/>
</svg>
