<svg width="414" height="178" viewBox="0 0 414 178" fill="none" xmlns="http://www.w3.org/2000/svg">
<rect x="-1" width="415" height="178" fill="#454242"/>
<path d="M177.113 46.2334H178.549V50.6719H184.276V46.2334H185.719V57H184.276V51.9316H178.549V57H177.113V46.2334ZM187.814 51.5068C187.829 51.0283 187.919 50.6255 188.085 50.2983C188.251 49.9663 188.476 49.6978 188.759 49.4927C189.042 49.2876 189.376 49.1411 189.762 49.0532C190.153 48.9604 190.578 48.9141 191.037 48.9141C191.417 48.9141 191.786 48.9531 192.143 49.0312C192.504 49.1094 192.824 49.2363 193.102 49.4121C193.38 49.583 193.603 49.8076 193.769 50.0859C193.939 50.3594 194.025 50.6938 194.025 51.0894V55.6523C194.025 55.7793 194.059 55.8892 194.127 55.9819C194.196 56.0698 194.306 56.1138 194.457 56.1138C194.525 56.1138 194.596 56.1089 194.669 56.0991C194.743 56.0845 194.818 56.0698 194.896 56.0552V56.9854C194.784 57.0146 194.672 57.0415 194.56 57.0659C194.452 57.0903 194.323 57.1025 194.171 57.1025C193.937 57.1025 193.734 57.083 193.563 57.0439C193.397 57.0049 193.256 56.9414 193.139 56.8535C193.026 56.7607 192.938 56.6436 192.875 56.502C192.812 56.3555 192.77 56.1772 192.75 55.9673C192.584 56.1479 192.409 56.3164 192.223 56.4727C192.038 56.624 191.83 56.7583 191.601 56.8755C191.371 56.9878 191.115 57.0757 190.832 57.1392C190.548 57.2075 190.229 57.2417 189.872 57.2417C189.569 57.2417 189.274 57.1929 188.986 57.0952C188.703 56.9976 188.446 56.8535 188.217 56.6631C187.992 56.4727 187.812 56.2383 187.675 55.96C187.538 55.6768 187.47 55.3496 187.47 54.9785C187.47 54.5732 187.538 54.2241 187.675 53.9312C187.812 53.6333 187.99 53.3867 188.209 53.1914C188.429 52.9912 188.681 52.8374 188.964 52.73C189.247 52.6226 189.535 52.5518 189.828 52.5176L192.033 52.2466C192.243 52.2222 192.406 52.1416 192.523 52.0049C192.646 51.8633 192.707 51.6387 192.707 51.3311C192.707 50.8574 192.55 50.5181 192.238 50.313C191.93 50.103 191.486 49.998 190.905 49.998C190.309 49.998 189.865 50.125 189.572 50.3789C189.279 50.6279 189.113 51.0039 189.074 51.5068H187.814ZM192.677 53.0083C192.57 53.0864 192.436 53.1523 192.274 53.2061C192.118 53.2549 191.945 53.2964 191.754 53.3306C191.564 53.3647 191.361 53.3965 191.146 53.4258C190.932 53.4502 190.717 53.4771 190.502 53.5063C190.258 53.5405 190.033 53.5894 189.828 53.6528C189.623 53.7163 189.445 53.7993 189.293 53.9019C189.142 54.0044 189.025 54.1289 188.942 54.2754C188.859 54.417 188.817 54.5854 188.817 54.7808C188.817 55.0054 188.852 55.2031 188.92 55.374C188.993 55.5449 189.091 55.689 189.213 55.8062C189.34 55.9233 189.491 56.0112 189.667 56.0698C189.843 56.1284 190.036 56.1577 190.246 56.1577C190.377 56.1577 190.529 56.1431 190.7 56.1138C190.871 56.0796 191.046 56.0308 191.227 55.9673C191.408 55.9038 191.583 55.8232 191.754 55.7256C191.93 55.623 192.086 55.501 192.223 55.3594C192.36 55.2178 192.47 55.0566 192.553 54.876C192.636 54.6953 192.677 54.4927 192.677 54.2681V53.0083ZM202.345 54.2388C202.326 54.4292 202.287 54.6367 202.228 54.8613C202.174 55.0859 202.094 55.3105 201.986 55.5352C201.879 55.7549 201.74 55.9673 201.569 56.1724C201.403 56.3774 201.198 56.5605 200.954 56.7217C200.714 56.8779 200.431 57.0024 200.104 57.0952C199.777 57.1929 199.403 57.2417 198.983 57.2417C198.754 57.2417 198.512 57.2124 198.258 57.1538C198.004 57.1001 197.755 57.0073 197.511 56.8755C197.272 56.7437 197.042 56.5752 196.823 56.3701C196.608 56.1602 196.417 55.9014 196.251 55.5938C196.09 55.2861 195.961 54.9297 195.863 54.5244C195.766 54.1143 195.717 53.6455 195.717 53.1182C195.717 52.4688 195.81 51.8853 195.995 51.3677C196.181 50.8452 196.427 50.4033 196.735 50.042C197.047 49.6807 197.409 49.4023 197.819 49.207C198.234 49.0117 198.668 48.9141 199.123 48.9141C199.533 48.9141 199.894 48.958 200.207 49.0459C200.524 49.1338 200.8 49.251 201.034 49.3975C201.269 49.5439 201.466 49.7148 201.627 49.9102C201.789 50.1006 201.918 50.3032 202.016 50.5181C202.118 50.728 202.194 50.9429 202.243 51.1626C202.296 51.3823 202.331 51.5923 202.345 51.7925H201.085C201.017 51.2603 200.832 50.8428 200.529 50.54C200.231 50.2373 199.811 50.0859 199.269 50.0859C198.898 50.0859 198.573 50.1616 198.295 50.313C198.021 50.4644 197.792 50.6768 197.606 50.9502C197.426 51.2188 197.289 51.5459 197.196 51.9316C197.108 52.3125 197.064 52.7324 197.064 53.1914C197.064 53.709 197.113 54.1558 197.211 54.5317C197.309 54.9028 197.448 55.2104 197.628 55.4546C197.809 55.6938 198.029 55.8721 198.288 55.9893C198.551 56.1016 198.849 56.1577 199.181 56.1577C199.416 56.1577 199.638 56.1162 199.848 56.0332C200.058 55.9453 200.246 55.8208 200.412 55.6597C200.578 55.4937 200.719 55.291 200.836 55.0518C200.954 54.8125 201.037 54.5415 201.085 54.2388H202.345ZM205.766 50.3276H203.063V49.1558H209.816V50.3276H207.113V57H205.766V50.3276ZM217.558 57H216.203V53.8945H214.467C214.154 53.8945 213.881 53.9019 213.646 53.9165C213.417 53.9263 213.222 53.9702 213.061 54.0483C212.899 54.1265 212.772 54.2485 212.68 54.4146C212.592 54.5806 212.536 54.8174 212.511 55.125L212.453 55.9673C212.448 55.9917 212.443 56.0405 212.438 56.1138C212.433 56.187 212.423 56.2749 212.409 56.3774C212.394 56.4751 212.375 56.5801 212.35 56.6924C212.326 56.8047 212.296 56.9072 212.262 57H210.775C210.81 56.9561 210.841 56.9121 210.871 56.8682C210.905 56.8193 210.937 56.7534 210.966 56.6704C211 56.5874 211.029 56.48 211.054 56.3481C211.083 56.2163 211.11 56.0479 211.134 55.8428L211.222 54.8394C211.251 54.5757 211.286 54.3608 211.325 54.1948C211.369 54.0288 211.427 53.8921 211.5 53.7847C211.579 53.6724 211.679 53.582 211.801 53.5137C211.923 53.4404 212.077 53.3672 212.262 53.2939C211.422 52.9912 211.002 52.3711 211.002 51.4336C211.002 51.1992 211.032 50.9844 211.09 50.7891C211.149 50.5889 211.225 50.4106 211.317 50.2544C211.415 50.0981 211.522 49.9614 211.64 49.8442C211.762 49.7222 211.884 49.6221 212.006 49.5439C212.157 49.4463 212.323 49.373 212.504 49.3242C212.685 49.2705 212.865 49.2314 213.046 49.207C213.231 49.1826 213.412 49.168 213.588 49.1631C213.764 49.1582 213.925 49.1558 214.071 49.1558H217.558V57ZM216.203 50.3423H214.152C213.976 50.3423 213.825 50.3447 213.698 50.3496C213.571 50.3496 213.458 50.3545 213.361 50.3643C213.268 50.374 213.183 50.3911 213.104 50.4155C213.026 50.4399 212.946 50.4741 212.863 50.5181C212.692 50.6157 212.56 50.7598 212.467 50.9502C212.379 51.1406 212.335 51.3433 212.335 51.5581C212.335 51.7681 212.367 51.9463 212.431 52.0928C212.494 52.2344 212.577 52.3516 212.68 52.4443C212.787 52.5371 212.904 52.6104 213.031 52.6641C213.163 52.7129 213.295 52.7495 213.427 52.7739C213.563 52.7935 213.695 52.8057 213.822 52.8105C213.949 52.8154 214.059 52.8179 214.152 52.8179H216.203V50.3423ZM223.856 46.2334H232.462V57H231.02V47.4932H225.292V57H223.856V46.2334ZM240.05 53.0669C240.05 52.6323 240.001 52.2344 239.904 51.873C239.806 51.5068 239.66 51.1919 239.464 50.9282C239.269 50.6646 239.027 50.4595 238.739 50.313C238.456 50.1616 238.126 50.0859 237.75 50.0859C237.375 50.0859 237.045 50.1616 236.762 50.313C236.479 50.4595 236.239 50.6646 236.044 50.9282C235.849 51.1919 235.702 51.5068 235.604 51.873C235.507 52.2344 235.458 52.6323 235.458 53.0669C235.458 53.5063 235.507 53.9116 235.604 54.2827C235.702 54.6489 235.849 54.9639 236.044 55.2275C236.239 55.4912 236.479 55.6987 236.762 55.8501C237.045 55.9966 237.375 56.0698 237.75 56.0698C238.126 56.0698 238.456 55.9966 238.739 55.8501C239.027 55.6987 239.269 55.4912 239.464 55.2275C239.66 54.9639 239.806 54.6489 239.904 54.2827C240.001 53.9116 240.05 53.5063 240.05 53.0669ZM241.398 53.0669C241.398 53.7114 241.315 54.2925 241.149 54.8101C240.983 55.3228 240.744 55.7598 240.431 56.1211C240.119 56.4824 239.735 56.7607 239.281 56.9561C238.832 57.1465 238.322 57.2417 237.75 57.2417C237.179 57.2417 236.669 57.1465 236.22 56.9561C235.771 56.7607 235.39 56.4824 235.077 56.1211C234.765 55.7598 234.525 55.3228 234.359 54.8101C234.193 54.2925 234.11 53.7114 234.11 53.0669C234.11 52.4321 234.193 51.8584 234.359 51.3457C234.525 50.833 234.765 50.396 235.077 50.0347C235.39 49.6733 235.771 49.3975 236.22 49.207C236.669 49.0117 237.179 48.9141 237.75 48.9141C238.322 48.9141 238.832 49.0117 239.281 49.207C239.735 49.3975 240.119 49.6733 240.431 50.0347C240.744 50.396 240.983 50.833 241.149 51.3457C241.315 51.8584 241.398 52.4321 241.398 53.0669ZM247.646 53.8359C247.353 53.9141 247.03 53.98 246.679 54.0337C246.332 54.0874 246.007 54.1143 245.705 54.1143C244.655 54.1143 243.876 53.9141 243.368 53.5137C242.86 53.1084 242.606 52.4712 242.606 51.6021V49.1558H243.954V51.3311C243.954 51.624 243.988 51.8779 244.057 52.0928C244.13 52.3076 244.247 52.4858 244.408 52.6274C244.569 52.7642 244.782 52.8667 245.045 52.9351C245.309 53.0034 245.634 53.0376 246.02 53.0376C246.122 53.0376 246.244 53.0278 246.386 53.0083C246.532 52.9888 246.681 52.9644 246.833 52.9351C246.984 52.9058 247.13 52.874 247.272 52.8398C247.418 52.8008 247.543 52.7617 247.646 52.7227V49.1558H249V57H247.646V53.8359ZM257.672 54.4951C257.619 54.8369 257.501 55.1714 257.321 55.4985C257.14 55.8257 256.903 56.1187 256.61 56.3774C256.317 56.6362 255.971 56.8438 255.57 57C255.175 57.1611 254.735 57.2417 254.252 57.2417C253.725 57.2417 253.236 57.1562 252.787 56.9854C252.343 56.8096 251.957 56.5483 251.63 56.2017C251.308 55.8501 251.054 55.4106 250.868 54.8833C250.683 54.356 250.59 53.7358 250.59 53.0229C250.59 52.5444 250.641 52.1123 250.744 51.7266C250.851 51.3359 250.993 50.9893 251.168 50.6865C251.349 50.3789 251.557 50.1152 251.791 49.8955C252.025 49.6709 252.272 49.4878 252.531 49.3462C252.794 49.1997 253.063 49.0923 253.336 49.0239C253.61 48.9507 253.874 48.9141 254.127 48.9141C254.665 48.9141 255.155 48.9946 255.6 49.1558C256.044 49.3169 256.425 49.5635 256.742 49.8955C257.064 50.2227 257.313 50.6353 257.489 51.1333C257.67 51.6265 257.76 52.2075 257.76 52.8765V53.5503H252.025C252.03 53.9312 252.084 54.2778 252.187 54.5903C252.289 54.8979 252.436 55.1616 252.626 55.3813C252.816 55.6011 253.046 55.772 253.314 55.894C253.588 56.0112 253.896 56.0698 254.237 56.0698C254.584 56.0698 254.877 56.021 255.116 55.9233C255.355 55.8257 255.556 55.7012 255.717 55.5498C255.878 55.3984 256.007 55.23 256.105 55.0444C256.208 54.8589 256.293 54.6758 256.361 54.4951H257.672ZM256.405 52.4736C256.396 52.0928 256.337 51.7534 256.229 51.4556C256.127 51.1577 255.98 50.9087 255.79 50.7085C255.604 50.5034 255.38 50.3496 255.116 50.2471C254.853 50.1396 254.56 50.0859 254.237 50.0859C253.93 50.0859 253.646 50.147 253.388 50.269C253.129 50.3862 252.902 50.5522 252.707 50.7671C252.511 50.9771 252.355 51.2285 252.238 51.5215C252.121 51.8096 252.05 52.127 252.025 52.4736H256.405ZM259.269 49.1558H260.617V50.2324H260.646C260.734 50.0518 260.844 49.8809 260.976 49.7197C261.112 49.5586 261.273 49.4194 261.459 49.3022C261.649 49.1802 261.867 49.085 262.111 49.0166C262.36 48.9482 262.643 48.9141 262.96 48.9141C263.38 48.9141 263.783 48.9946 264.169 49.1558C264.555 49.3169 264.896 49.5586 265.194 49.8809C265.492 50.2031 265.729 50.6084 265.905 51.0967C266.081 51.5801 266.168 52.144 266.168 52.7886C266.168 53.5942 266.085 54.2803 265.919 54.8467C265.758 55.4082 265.526 55.8672 265.224 56.2236C264.926 56.5801 264.564 56.8389 264.14 57C263.715 57.1611 263.241 57.2417 262.719 57.2417C262.46 57.2417 262.218 57.2075 261.994 57.1392C261.769 57.0708 261.566 56.9829 261.386 56.8755C261.21 56.7632 261.059 56.6411 260.932 56.5093C260.805 56.3726 260.709 56.2407 260.646 56.1138H260.617V60.0908H259.269V49.1558ZM260.587 53.1182C260.587 53.543 260.629 53.936 260.712 54.2974C260.795 54.6538 260.922 54.9639 261.093 55.2275C261.269 55.4912 261.486 55.6987 261.745 55.8501C262.008 55.9966 262.318 56.0698 262.675 56.0698C263.046 56.0698 263.366 55.9966 263.634 55.8501C263.908 55.6987 264.132 55.4912 264.308 55.2275C264.484 54.9639 264.613 54.6538 264.696 54.2974C264.779 53.936 264.821 53.543 264.821 53.1182C264.821 52.6738 264.779 52.2661 264.696 51.895C264.613 51.5239 264.484 51.2041 264.308 50.9355C264.132 50.667 263.908 50.4595 263.634 50.313C263.366 50.1616 263.046 50.0859 262.675 50.0859C262.318 50.0859 262.008 50.1616 261.745 50.313C261.486 50.4595 261.269 50.667 261.093 50.9355C260.922 51.2041 260.795 51.5239 260.712 51.895C260.629 52.2661 260.587 52.6738 260.587 53.1182ZM267.692 49.1558H269.04V52.3198H272.702V49.1558H274.057V57H272.702V53.4917H269.04V57H267.692V49.1558ZM282.421 57H281.066V53.8945H279.33C279.018 53.8945 278.744 53.9019 278.51 53.9165C278.28 53.9263 278.085 53.9702 277.924 54.0483C277.763 54.1265 277.636 54.2485 277.543 54.4146C277.455 54.5806 277.399 54.8174 277.375 55.125L277.316 55.9673C277.311 55.9917 277.306 56.0405 277.301 56.1138C277.296 56.187 277.287 56.2749 277.272 56.3774C277.257 56.4751 277.238 56.5801 277.213 56.6924C277.189 56.8047 277.16 56.9072 277.125 57H275.639C275.673 56.9561 275.705 56.9121 275.734 56.8682C275.768 56.8193 275.8 56.7534 275.829 56.6704C275.863 56.5874 275.893 56.48 275.917 56.3481C275.946 56.2163 275.973 56.0479 275.998 55.8428L276.085 54.8394C276.115 54.5757 276.149 54.3608 276.188 54.1948C276.232 54.0288 276.291 53.8921 276.364 53.7847C276.442 53.6724 276.542 53.582 276.664 53.5137C276.786 53.4404 276.94 53.3672 277.125 53.2939C276.286 52.9912 275.866 52.3711 275.866 51.4336C275.866 51.1992 275.895 50.9844 275.954 50.7891C276.012 50.5889 276.088 50.4106 276.181 50.2544C276.278 50.0981 276.386 49.9614 276.503 49.8442C276.625 49.7222 276.747 49.6221 276.869 49.5439C277.021 49.4463 277.187 49.373 277.367 49.3242C277.548 49.2705 277.729 49.2314 277.909 49.207C278.095 49.1826 278.275 49.168 278.451 49.1631C278.627 49.1582 278.788 49.1558 278.935 49.1558H282.421V57ZM281.066 50.3423H279.015C278.839 50.3423 278.688 50.3447 278.561 50.3496C278.434 50.3496 278.322 50.3545 278.224 50.3643C278.131 50.374 278.046 50.3911 277.968 50.4155C277.89 50.4399 277.809 50.4741 277.726 50.5181C277.555 50.6157 277.423 50.7598 277.331 50.9502C277.243 51.1406 277.199 51.3433 277.199 51.5581C277.199 51.7681 277.23 51.9463 277.294 52.0928C277.357 52.2344 277.44 52.3516 277.543 52.4443C277.65 52.5371 277.768 52.6104 277.895 52.6641C278.026 52.7129 278.158 52.7495 278.29 52.7739C278.427 52.7935 278.559 52.8057 278.686 52.8105C278.812 52.8154 278.922 52.8179 279.015 52.8179H281.066V50.3423ZM291.1 54.4951C291.046 54.8369 290.929 55.1714 290.749 55.4985C290.568 55.8257 290.331 56.1187 290.038 56.3774C289.745 56.6362 289.398 56.8438 288.998 57C288.603 57.1611 288.163 57.2417 287.68 57.2417C287.152 57.2417 286.664 57.1562 286.215 56.9854C285.771 56.8096 285.385 56.5483 285.058 56.2017C284.735 55.8501 284.481 55.4106 284.296 54.8833C284.11 54.356 284.018 53.7358 284.018 53.0229C284.018 52.5444 284.069 52.1123 284.171 51.7266C284.279 51.3359 284.42 50.9893 284.596 50.6865C284.777 50.3789 284.984 50.1152 285.219 49.8955C285.453 49.6709 285.7 49.4878 285.958 49.3462C286.222 49.1997 286.491 49.0923 286.764 49.0239C287.038 48.9507 287.301 48.9141 287.555 48.9141C288.092 48.9141 288.583 48.9946 289.027 49.1558C289.472 49.3169 289.853 49.5635 290.17 49.8955C290.492 50.2227 290.741 50.6353 290.917 51.1333C291.098 51.6265 291.188 52.2075 291.188 52.8765V53.5503H285.453C285.458 53.9312 285.512 54.2778 285.614 54.5903C285.717 54.8979 285.863 55.1616 286.054 55.3813C286.244 55.6011 286.474 55.772 286.742 55.894C287.016 56.0112 287.323 56.0698 287.665 56.0698C288.012 56.0698 288.305 56.021 288.544 55.9233C288.783 55.8257 288.983 55.7012 289.145 55.5498C289.306 55.3984 289.435 55.23 289.533 55.0444C289.635 54.8589 289.721 54.6758 289.789 54.4951H291.1ZM289.833 52.4736C289.823 52.0928 289.765 51.7534 289.657 51.4556C289.555 51.1577 289.408 50.9087 289.218 50.7085C289.032 50.5034 288.808 50.3496 288.544 50.2471C288.28 50.1396 287.987 50.0859 287.665 50.0859C287.357 50.0859 287.074 50.147 286.815 50.269C286.557 50.3862 286.33 50.5522 286.134 50.7671C285.939 50.9771 285.783 51.2285 285.666 51.5215C285.548 51.8096 285.478 52.127 285.453 52.4736H289.833ZM292.77 49.1558H296.11C297.067 49.1558 297.782 49.334 298.256 49.6904C298.734 50.0469 298.974 50.5645 298.974 51.2432C298.974 51.6045 298.886 51.9097 298.71 52.1587C298.534 52.4077 298.302 52.6274 298.014 52.8179C298.429 52.9741 298.759 53.1987 299.003 53.4917C299.247 53.7847 299.369 54.1631 299.369 54.627C299.369 54.9932 299.308 55.3228 299.186 55.6157C299.064 55.9087 298.878 56.1577 298.629 56.3628C298.38 56.5679 298.063 56.7266 297.677 56.8389C297.296 56.9463 296.845 57 296.322 57H292.77V49.1558ZM294.118 55.9233H296.168C296.525 55.9233 296.82 55.8965 297.055 55.8428C297.294 55.7842 297.484 55.7012 297.626 55.5938C297.768 55.4863 297.868 55.3569 297.926 55.2056C297.985 55.0542 298.014 54.8833 298.014 54.6929C298.014 54.5024 297.985 54.3315 297.926 54.1802C297.868 54.0239 297.768 53.8945 297.626 53.792C297.484 53.6846 297.294 53.604 297.055 53.5503C296.82 53.4917 296.525 53.4624 296.168 53.4624H294.118V55.9233ZM294.118 52.4736H296.154C296.608 52.4736 296.967 52.3833 297.23 52.2026C297.494 52.022 297.626 51.7412 297.626 51.3604C297.626 51.1455 297.589 50.9673 297.516 50.8257C297.443 50.6792 297.345 50.562 297.223 50.4741C297.101 50.3862 296.962 50.3252 296.806 50.291C296.654 50.252 296.498 50.2324 296.337 50.2324H294.118V52.4736ZM300.973 51.5068C300.988 51.0283 301.078 50.6255 301.244 50.2983C301.41 49.9663 301.635 49.6978 301.918 49.4927C302.201 49.2876 302.536 49.1411 302.921 49.0532C303.312 48.9604 303.737 48.9141 304.196 48.9141C304.577 48.9141 304.945 48.9531 305.302 49.0312C305.663 49.1094 305.983 49.2363 306.261 49.4121C306.54 49.583 306.762 49.8076 306.928 50.0859C307.099 50.3594 307.184 50.6938 307.184 51.0894V55.6523C307.184 55.7793 307.218 55.8892 307.287 55.9819C307.355 56.0698 307.465 56.1138 307.616 56.1138C307.685 56.1138 307.755 56.1089 307.829 56.0991C307.902 56.0845 307.978 56.0698 308.056 56.0552V56.9854C307.943 57.0146 307.831 57.0415 307.719 57.0659C307.611 57.0903 307.482 57.1025 307.331 57.1025C307.096 57.1025 306.894 57.083 306.723 57.0439C306.557 57.0049 306.415 56.9414 306.298 56.8535C306.186 56.7607 306.098 56.6436 306.034 56.502C305.971 56.3555 305.929 56.1772 305.91 55.9673C305.744 56.1479 305.568 56.3164 305.382 56.4727C305.197 56.624 304.989 56.7583 304.76 56.8755C304.53 56.9878 304.274 57.0757 303.991 57.1392C303.708 57.2075 303.388 57.2417 303.031 57.2417C302.729 57.2417 302.433 57.1929 302.145 57.0952C301.862 56.9976 301.605 56.8535 301.376 56.6631C301.151 56.4727 300.971 56.2383 300.834 55.96C300.697 55.6768 300.629 55.3496 300.629 54.9785C300.629 54.5732 300.697 54.2241 300.834 53.9312C300.971 53.6333 301.149 53.3867 301.369 53.1914C301.588 52.9912 301.84 52.8374 302.123 52.73C302.406 52.6226 302.694 52.5518 302.987 52.5176L305.192 52.2466C305.402 52.2222 305.565 52.1416 305.683 52.0049C305.805 51.8633 305.866 51.6387 305.866 51.3311C305.866 50.8574 305.709 50.5181 305.397 50.313C305.089 50.103 304.645 49.998 304.064 49.998C303.468 49.998 303.024 50.125 302.731 50.3789C302.438 50.6279 302.272 51.0039 302.233 51.5068H300.973ZM305.836 53.0083C305.729 53.0864 305.595 53.1523 305.434 53.2061C305.277 53.2549 305.104 53.2964 304.914 53.3306C304.723 53.3647 304.521 53.3965 304.306 53.4258C304.091 53.4502 303.876 53.4771 303.661 53.5063C303.417 53.5405 303.192 53.5894 302.987 53.6528C302.782 53.7163 302.604 53.7993 302.453 53.9019C302.301 54.0044 302.184 54.1289 302.101 54.2754C302.018 54.417 301.977 54.5854 301.977 54.7808C301.977 55.0054 302.011 55.2031 302.079 55.374C302.152 55.5449 302.25 55.689 302.372 55.8062C302.499 55.9233 302.65 56.0112 302.826 56.0698C303.002 56.1284 303.195 56.1577 303.405 56.1577C303.537 56.1577 303.688 56.1431 303.859 56.1138C304.03 56.0796 304.206 56.0308 304.386 55.9673C304.567 55.9038 304.743 55.8232 304.914 55.7256C305.089 55.623 305.246 55.501 305.382 55.3594C305.519 55.2178 305.629 55.0566 305.712 54.876C305.795 54.6953 305.836 54.4927 305.836 54.2681V53.0083ZM314.289 52.3125H325.751V53.3892H314.289V52.3125ZM176.916 66.1558H178.263V67.2324H178.292C178.38 67.0518 178.49 66.8809 178.622 66.7197C178.759 66.5586 178.92 66.4194 179.105 66.3022C179.296 66.1802 179.513 66.085 179.757 66.0166C180.006 65.9482 180.29 65.9141 180.607 65.9141C181.027 65.9141 181.43 65.9946 181.815 66.1558C182.201 66.3169 182.543 66.5586 182.841 66.8809C183.139 67.2031 183.375 67.6084 183.551 68.0967C183.727 68.5801 183.815 69.144 183.815 69.7886C183.815 70.5942 183.732 71.2803 183.566 71.8467C183.405 72.4082 183.173 72.8672 182.87 73.2236C182.572 73.5801 182.211 73.8389 181.786 74C181.361 74.1611 180.888 74.2417 180.365 74.2417C180.106 74.2417 179.865 74.2075 179.64 74.1392C179.416 74.0708 179.213 73.9829 179.032 73.8755C178.856 73.7632 178.705 73.6411 178.578 73.5093C178.451 73.3726 178.356 73.2407 178.292 73.1138H178.263V77.0908H176.916V66.1558ZM178.234 70.1182C178.234 70.543 178.275 70.936 178.358 71.2974C178.441 71.6538 178.568 71.9639 178.739 72.2275C178.915 72.4912 179.132 72.6987 179.391 72.8501C179.655 72.9966 179.965 73.0698 180.321 73.0698C180.692 73.0698 181.012 72.9966 181.281 72.8501C181.554 72.6987 181.779 72.4912 181.955 72.2275C182.13 71.9639 182.26 71.6538 182.343 71.2974C182.426 70.936 182.467 70.543 182.467 70.1182C182.467 69.6738 182.426 69.2661 182.343 68.895C182.26 68.5239 182.13 68.2041 181.955 67.9355C181.779 67.667 181.554 67.4595 181.281 67.313C181.012 67.1616 180.692 67.0859 180.321 67.0859C179.965 67.0859 179.655 67.1616 179.391 67.313C179.132 67.4595 178.915 67.667 178.739 67.9355C178.568 68.2041 178.441 68.5239 178.358 68.895C178.275 69.2661 178.234 69.6738 178.234 70.1182ZM192.018 71.4951C191.964 71.8369 191.847 72.1714 191.667 72.4985C191.486 72.8257 191.249 73.1187 190.956 73.3774C190.663 73.6362 190.316 73.8438 189.916 74C189.521 74.1611 189.081 74.2417 188.598 74.2417C188.07 74.2417 187.582 74.1562 187.133 73.9854C186.688 73.8096 186.303 73.5483 185.976 73.2017C185.653 72.8501 185.399 72.4106 185.214 71.8833C185.028 71.356 184.936 70.7358 184.936 70.0229C184.936 69.5444 184.987 69.1123 185.089 68.7266C185.197 68.3359 185.338 67.9893 185.514 67.6865C185.695 67.3789 185.902 67.1152 186.137 66.8955C186.371 66.6709 186.618 66.4878 186.876 66.3462C187.14 66.1997 187.409 66.0923 187.682 66.0239C187.956 65.9507 188.219 65.9141 188.473 65.9141C189.01 65.9141 189.501 65.9946 189.945 66.1558C190.39 66.3169 190.771 66.5635 191.088 66.8955C191.41 67.2227 191.659 67.6353 191.835 68.1333C192.016 68.6265 192.106 69.2075 192.106 69.8765V70.5503H186.371C186.376 70.9312 186.43 71.2778 186.532 71.5903C186.635 71.8979 186.781 72.1616 186.972 72.3813C187.162 72.6011 187.392 72.772 187.66 72.894C187.934 73.0112 188.241 73.0698 188.583 73.0698C188.93 73.0698 189.223 73.021 189.462 72.9233C189.701 72.8257 189.901 72.7012 190.062 72.5498C190.224 72.3984 190.353 72.23 190.451 72.0444C190.553 71.8589 190.639 71.6758 190.707 71.4951H192.018ZM190.751 69.4736C190.741 69.0928 190.683 68.7534 190.575 68.4556C190.473 68.1577 190.326 67.9087 190.136 67.7085C189.95 67.5034 189.726 67.3496 189.462 67.2471C189.198 67.1396 188.905 67.0859 188.583 67.0859C188.275 67.0859 187.992 67.147 187.733 67.269C187.475 67.3862 187.248 67.5522 187.052 67.7671C186.857 67.9771 186.701 68.2285 186.583 68.5215C186.466 68.8096 186.396 69.127 186.371 69.4736H190.751ZM199.24 69.3638H199.921L202.492 66.1558H204.118L201.034 69.8765L204.235 74H202.572L199.921 70.4331H199.24V74H197.892V70.4331H197.204L194.53 74H192.868L196.098 69.8765L193.029 66.1558H194.662L197.204 69.3638H197.892V66.1558H199.24V69.3638ZM205.392 66.1558H206.74V72.1689H206.769L210.622 66.1558H212.167V74H210.812V67.9868H210.783L206.938 74H205.392V66.1558ZM220.319 71.2388C220.299 71.4292 220.26 71.6367 220.202 71.8613C220.148 72.0859 220.067 72.3105 219.96 72.5352C219.853 72.7549 219.713 72.9673 219.542 73.1724C219.376 73.3774 219.171 73.5605 218.927 73.7217C218.688 73.8779 218.405 74.0024 218.078 74.0952C217.75 74.1929 217.377 74.2417 216.957 74.2417C216.728 74.2417 216.486 74.2124 216.232 74.1538C215.978 74.1001 215.729 74.0073 215.485 73.8755C215.246 73.7437 215.016 73.5752 214.796 73.3701C214.582 73.1602 214.391 72.9014 214.225 72.5938C214.064 72.2861 213.935 71.9297 213.837 71.5244C213.739 71.1143 213.69 70.6455 213.69 70.1182C213.69 69.4688 213.783 68.8853 213.969 68.3677C214.154 67.8452 214.401 67.4033 214.708 67.042C215.021 66.6807 215.382 66.4023 215.792 66.207C216.208 66.0117 216.642 65.9141 217.096 65.9141C217.506 65.9141 217.868 65.958 218.18 66.0459C218.498 66.1338 218.773 66.251 219.008 66.3975C219.242 66.5439 219.44 66.7148 219.601 66.9102C219.762 67.1006 219.892 67.3032 219.989 67.5181C220.092 67.728 220.167 67.9429 220.216 68.1626C220.27 68.3823 220.304 68.5923 220.319 68.7925H219.059C218.991 68.2603 218.805 67.8428 218.502 67.54C218.205 67.2373 217.785 67.0859 217.243 67.0859C216.872 67.0859 216.547 67.1616 216.269 67.313C215.995 67.4644 215.766 67.6768 215.58 67.9502C215.399 68.2188 215.263 68.5459 215.17 68.9316C215.082 69.3125 215.038 69.7324 215.038 70.1914C215.038 70.709 215.087 71.1558 215.185 71.5317C215.282 71.9028 215.421 72.2104 215.602 72.4546C215.783 72.6938 216.002 72.8721 216.261 72.9893C216.525 73.1016 216.823 73.1577 217.155 73.1577C217.389 73.1577 217.611 73.1162 217.821 73.0332C218.031 72.9453 218.219 72.8208 218.385 72.6597C218.551 72.4937 218.693 72.291 218.81 72.0518C218.927 71.8125 219.01 71.5415 219.059 71.2388H220.319ZM228.332 71.4951C228.278 71.8369 228.161 72.1714 227.98 72.4985C227.799 72.8257 227.562 73.1187 227.27 73.3774C226.977 73.6362 226.63 73.8438 226.229 74C225.834 74.1611 225.395 74.2417 224.911 74.2417C224.384 74.2417 223.896 74.1562 223.446 73.9854C223.002 73.8096 222.616 73.5483 222.289 73.2017C221.967 72.8501 221.713 72.4106 221.527 71.8833C221.342 71.356 221.249 70.7358 221.249 70.0229C221.249 69.5444 221.3 69.1123 221.403 68.7266C221.51 68.3359 221.652 67.9893 221.828 67.6865C222.008 67.3789 222.216 67.1152 222.45 66.8955C222.685 66.6709 222.931 66.4878 223.19 66.3462C223.454 66.1997 223.722 66.0923 223.996 66.0239C224.269 65.9507 224.533 65.9141 224.787 65.9141C225.324 65.9141 225.814 65.9946 226.259 66.1558C226.703 66.3169 227.084 66.5635 227.401 66.8955C227.724 67.2227 227.973 67.6353 228.148 68.1333C228.329 68.6265 228.419 69.2075 228.419 69.8765V70.5503H222.685C222.689 70.9312 222.743 71.2778 222.846 71.5903C222.948 71.8979 223.095 72.1616 223.285 72.3813C223.476 72.6011 223.705 72.772 223.974 72.894C224.247 73.0112 224.555 73.0698 224.896 73.0698C225.243 73.0698 225.536 73.021 225.775 72.9233C226.015 72.8257 226.215 72.7012 226.376 72.5498C226.537 72.3984 226.667 72.23 226.764 72.0444C226.867 71.8589 226.952 71.6758 227.021 71.4951H228.332ZM227.064 69.4736C227.055 69.0928 226.996 68.7534 226.889 68.4556C226.786 68.1577 226.64 67.9087 226.449 67.7085C226.264 67.5034 226.039 67.3496 225.775 67.2471C225.512 67.1396 225.219 67.0859 224.896 67.0859C224.589 67.0859 224.306 67.147 224.047 67.269C223.788 67.3862 223.561 67.5522 223.366 67.7671C223.17 67.9771 223.014 68.2285 222.897 68.5215C222.78 68.8096 222.709 69.127 222.685 69.4736H227.064ZM229.928 66.1558H231.276V67.2324H231.305C231.393 67.0518 231.503 66.8809 231.635 66.7197C231.771 66.5586 231.933 66.4194 232.118 66.3022C232.309 66.1802 232.526 66.085 232.77 66.0166C233.019 65.9482 233.302 65.9141 233.62 65.9141C234.04 65.9141 234.442 65.9946 234.828 66.1558C235.214 66.3169 235.556 66.5586 235.854 66.8809C236.151 67.2031 236.388 67.6084 236.564 68.0967C236.74 68.5801 236.828 69.144 236.828 69.7886C236.828 70.5942 236.745 71.2803 236.579 71.8467C236.417 72.4082 236.186 72.8672 235.883 73.2236C235.585 73.5801 235.224 73.8389 234.799 74C234.374 74.1611 233.9 74.2417 233.378 74.2417C233.119 74.2417 232.877 74.2075 232.653 74.1392C232.428 74.0708 232.226 73.9829 232.045 73.8755C231.869 73.7632 231.718 73.6411 231.591 73.5093C231.464 73.3726 231.369 73.2407 231.305 73.1138H231.276V77.0908H229.928V66.1558ZM231.247 70.1182C231.247 70.543 231.288 70.936 231.371 71.2974C231.454 71.6538 231.581 71.9639 231.752 72.2275C231.928 72.4912 232.145 72.6987 232.404 72.8501C232.667 72.9966 232.978 73.0698 233.334 73.0698C233.705 73.0698 234.025 72.9966 234.293 72.8501C234.567 72.6987 234.792 72.4912 234.967 72.2275C235.143 71.9639 235.272 71.6538 235.355 71.2974C235.438 70.936 235.48 70.543 235.48 70.1182C235.48 69.6738 235.438 69.2661 235.355 68.895C235.272 68.5239 235.143 68.2041 234.967 67.9355C234.792 67.667 234.567 67.4595 234.293 67.313C234.025 67.1616 233.705 67.0859 233.334 67.0859C232.978 67.0859 232.667 67.1616 232.404 67.313C232.145 67.4595 231.928 67.667 231.752 67.9355C231.581 68.2041 231.454 68.5239 231.371 68.895C231.288 69.2661 231.247 69.6738 231.247 70.1182ZM237.985 69.144H241.662V70.499H237.985V69.144ZM248.356 67.3276H244.694V74H243.346V66.1558H249.711V74H248.356V67.3276ZM257.174 70.0669C257.174 69.6323 257.125 69.2344 257.028 68.873C256.93 68.5068 256.784 68.1919 256.588 67.9282C256.393 67.6646 256.151 67.4595 255.863 67.313C255.58 67.1616 255.25 67.0859 254.875 67.0859C254.499 67.0859 254.169 67.1616 253.886 67.313C253.603 67.4595 253.363 67.6646 253.168 67.9282C252.973 68.1919 252.826 68.5068 252.729 68.873C252.631 69.2344 252.582 69.6323 252.582 70.0669C252.582 70.5063 252.631 70.9116 252.729 71.2827C252.826 71.6489 252.973 71.9639 253.168 72.2275C253.363 72.4912 253.603 72.6987 253.886 72.8501C254.169 72.9966 254.499 73.0698 254.875 73.0698C255.25 73.0698 255.58 72.9966 255.863 72.8501C256.151 72.6987 256.393 72.4912 256.588 72.2275C256.784 71.9639 256.93 71.6489 257.028 71.2827C257.125 70.9116 257.174 70.5063 257.174 70.0669ZM258.522 70.0669C258.522 70.7114 258.439 71.2925 258.273 71.8101C258.107 72.3228 257.868 72.7598 257.555 73.1211C257.243 73.4824 256.859 73.7607 256.405 73.9561C255.956 74.1465 255.446 74.2417 254.875 74.2417C254.303 74.2417 253.793 74.1465 253.344 73.9561C252.895 73.7607 252.514 73.4824 252.201 73.1211C251.889 72.7598 251.649 72.3228 251.483 71.8101C251.317 71.2925 251.234 70.7114 251.234 70.0669C251.234 69.4321 251.317 68.8584 251.483 68.3457C251.649 67.833 251.889 67.396 252.201 67.0347C252.514 66.6733 252.895 66.3975 253.344 66.207C253.793 66.0117 254.303 65.9141 254.875 65.9141C255.446 65.9141 255.956 66.0117 256.405 66.207C256.859 66.3975 257.243 66.6733 257.555 67.0347C257.868 67.396 258.107 67.833 258.273 68.3457C258.439 68.8584 258.522 69.4321 258.522 70.0669ZM266.212 71.2388C266.193 71.4292 266.154 71.6367 266.095 71.8613C266.042 72.0859 265.961 72.3105 265.854 72.5352C265.746 72.7549 265.607 72.9673 265.436 73.1724C265.27 73.3774 265.065 73.5605 264.821 73.7217C264.582 73.8779 264.298 74.0024 263.971 74.0952C263.644 74.1929 263.271 74.2417 262.851 74.2417C262.621 74.2417 262.379 74.2124 262.125 74.1538C261.872 74.1001 261.623 74.0073 261.378 73.8755C261.139 73.7437 260.91 73.5752 260.69 73.3701C260.475 73.1602 260.285 72.9014 260.119 72.5938C259.958 72.2861 259.828 71.9297 259.73 71.5244C259.633 71.1143 259.584 70.6455 259.584 70.1182C259.584 69.4688 259.677 68.8853 259.862 68.3677C260.048 67.8452 260.294 67.4033 260.602 67.042C260.915 66.6807 261.276 66.4023 261.686 66.207C262.101 66.0117 262.536 65.9141 262.99 65.9141C263.4 65.9141 263.761 65.958 264.074 66.0459C264.391 66.1338 264.667 66.251 264.901 66.3975C265.136 66.5439 265.333 66.7148 265.495 66.9102C265.656 67.1006 265.785 67.3032 265.883 67.5181C265.985 67.728 266.061 67.9429 266.11 68.1626C266.164 68.3823 266.198 68.5923 266.212 68.7925H264.953C264.884 68.2603 264.699 67.8428 264.396 67.54C264.098 67.2373 263.678 67.0859 263.136 67.0859C262.765 67.0859 262.44 67.1616 262.162 67.313C261.889 67.4644 261.659 67.6768 261.474 67.9502C261.293 68.2188 261.156 68.5459 261.063 68.9316C260.976 69.3125 260.932 69.7324 260.932 70.1914C260.932 70.709 260.98 71.1558 261.078 71.5317C261.176 71.9028 261.315 72.2104 261.496 72.4546C261.676 72.6938 261.896 72.8721 262.155 72.9893C262.418 73.1016 262.716 73.1577 263.048 73.1577C263.283 73.1577 263.505 73.1162 263.715 73.0332C263.925 72.9453 264.113 72.8208 264.279 72.6597C264.445 72.4937 264.586 72.291 264.704 72.0518C264.821 71.8125 264.904 71.5415 264.953 71.2388H266.212ZM269.633 67.3276H266.93V66.1558H273.683V67.3276H270.98V74H269.633V67.3276ZM275.031 68.5068C275.045 68.0283 275.136 67.6255 275.302 67.2983C275.468 66.9663 275.692 66.6978 275.976 66.4927C276.259 66.2876 276.593 66.1411 276.979 66.0532C277.37 65.9604 277.794 65.9141 278.253 65.9141C278.634 65.9141 279.003 65.9531 279.359 66.0312C279.721 66.1094 280.041 66.2363 280.319 66.4121C280.597 66.583 280.819 66.8076 280.985 67.0859C281.156 67.3594 281.242 67.6938 281.242 68.0894V72.6523C281.242 72.7793 281.276 72.8892 281.344 72.9819C281.413 73.0698 281.522 73.1138 281.674 73.1138C281.742 73.1138 281.813 73.1089 281.886 73.0991C281.959 73.0845 282.035 73.0698 282.113 73.0552V73.9854C282.001 74.0146 281.889 74.0415 281.776 74.0659C281.669 74.0903 281.54 74.1025 281.388 74.1025C281.154 74.1025 280.951 74.083 280.78 74.0439C280.614 74.0049 280.473 73.9414 280.355 73.8535C280.243 73.7607 280.155 73.6436 280.092 73.502C280.028 73.3555 279.987 73.1772 279.967 72.9673C279.801 73.1479 279.625 73.3164 279.44 73.4727C279.254 73.624 279.047 73.7583 278.817 73.8755C278.588 73.9878 278.332 74.0757 278.048 74.1392C277.765 74.2075 277.445 74.2417 277.089 74.2417C276.786 74.2417 276.491 74.1929 276.203 74.0952C275.919 73.9976 275.663 73.8535 275.434 73.6631C275.209 73.4727 275.028 73.2383 274.892 72.96C274.755 72.6768 274.687 72.3496 274.687 71.9785C274.687 71.5732 274.755 71.2241 274.892 70.9312C275.028 70.6333 275.207 70.3867 275.426 70.1914C275.646 69.9912 275.897 69.8374 276.181 69.73C276.464 69.6226 276.752 69.5518 277.045 69.5176L279.25 69.2466C279.459 69.2222 279.623 69.1416 279.74 69.0049C279.862 68.8633 279.923 68.6387 279.923 68.3311C279.923 67.8574 279.767 67.5181 279.455 67.313C279.147 67.103 278.703 66.998 278.122 66.998C277.526 66.998 277.082 67.125 276.789 67.3789C276.496 67.6279 276.33 68.0039 276.291 68.5068H275.031ZM279.894 70.0083C279.787 70.0864 279.652 70.1523 279.491 70.2061C279.335 70.2549 279.162 70.2964 278.971 70.3306C278.781 70.3647 278.578 70.3965 278.363 70.4258C278.148 70.4502 277.934 70.4771 277.719 70.5063C277.475 70.5405 277.25 70.5894 277.045 70.6528C276.84 70.7163 276.662 70.7993 276.51 70.9019C276.359 71.0044 276.242 71.1289 276.159 71.2754C276.076 71.417 276.034 71.5854 276.034 71.7808C276.034 72.0054 276.068 72.2031 276.137 72.374C276.21 72.5449 276.308 72.689 276.43 72.8062C276.557 72.9233 276.708 73.0112 276.884 73.0698C277.06 73.1284 277.252 73.1577 277.462 73.1577C277.594 73.1577 277.746 73.1431 277.917 73.1138C278.087 73.0796 278.263 73.0308 278.444 72.9673C278.625 72.9038 278.8 72.8232 278.971 72.7256C279.147 72.623 279.303 72.501 279.44 72.3594C279.577 72.2178 279.687 72.0566 279.77 71.876C279.853 71.6953 279.894 71.4927 279.894 71.2681V70.0083ZM283.395 66.1558H284.743V69.3198H288.405V66.1558H289.76V74H288.405V70.4917H284.743V74H283.395V66.1558ZM297.223 70.0669C297.223 69.6323 297.174 69.2344 297.077 68.873C296.979 68.5068 296.833 68.1919 296.637 67.9282C296.442 67.6646 296.2 67.4595 295.912 67.313C295.629 67.1616 295.299 67.0859 294.923 67.0859C294.547 67.0859 294.218 67.1616 293.935 67.313C293.651 67.4595 293.412 67.6646 293.217 67.9282C293.021 68.1919 292.875 68.5068 292.777 68.873C292.68 69.2344 292.631 69.6323 292.631 70.0669C292.631 70.5063 292.68 70.9116 292.777 71.2827C292.875 71.6489 293.021 71.9639 293.217 72.2275C293.412 72.4912 293.651 72.6987 293.935 72.8501C294.218 72.9966 294.547 73.0698 294.923 73.0698C295.299 73.0698 295.629 72.9966 295.912 72.8501C296.2 72.6987 296.442 72.4912 296.637 72.2275C296.833 71.9639 296.979 71.6489 297.077 71.2827C297.174 70.9116 297.223 70.5063 297.223 70.0669ZM298.571 70.0669C298.571 70.7114 298.488 71.2925 298.322 71.8101C298.156 72.3228 297.917 72.7598 297.604 73.1211C297.292 73.4824 296.908 73.7607 296.454 73.9561C296.005 74.1465 295.495 74.2417 294.923 74.2417C294.352 74.2417 293.842 74.1465 293.393 73.9561C292.943 73.7607 292.562 73.4824 292.25 73.1211C291.938 72.7598 291.698 72.3228 291.532 71.8101C291.366 71.2925 291.283 70.7114 291.283 70.0669C291.283 69.4321 291.366 68.8584 291.532 68.3457C291.698 67.833 291.938 67.396 292.25 67.0347C292.562 66.6733 292.943 66.3975 293.393 66.207C293.842 66.0117 294.352 65.9141 294.923 65.9141C295.495 65.9141 296.005 66.0117 296.454 66.207C296.908 66.3975 297.292 66.6733 297.604 67.0347C297.917 67.396 298.156 67.833 298.322 68.3457C298.488 68.8584 298.571 69.4321 298.571 70.0669ZM300.094 66.1558H303.434C304.391 66.1558 305.106 66.334 305.58 66.6904C306.059 67.0469 306.298 67.5645 306.298 68.2432C306.298 68.6045 306.21 68.9097 306.034 69.1587C305.858 69.4077 305.626 69.6274 305.338 69.8179C305.753 69.9741 306.083 70.1987 306.327 70.4917C306.571 70.7847 306.693 71.1631 306.693 71.627C306.693 71.9932 306.632 72.3228 306.51 72.6157C306.388 72.9087 306.203 73.1577 305.954 73.3628C305.705 73.5679 305.387 73.7266 305.001 73.8389C304.621 73.9463 304.169 74 303.646 74H300.094V66.1558ZM301.442 72.9233H303.493C303.849 72.9233 304.145 72.8965 304.379 72.8428C304.618 72.7842 304.809 72.7012 304.95 72.5938C305.092 72.4863 305.192 72.3569 305.25 72.2056C305.309 72.0542 305.338 71.8833 305.338 71.6929C305.338 71.5024 305.309 71.3315 305.25 71.1802C305.192 71.0239 305.092 70.8945 304.95 70.792C304.809 70.6846 304.618 70.604 304.379 70.5503C304.145 70.4917 303.849 70.4624 303.493 70.4624H301.442V72.9233ZM301.442 69.4736H303.478C303.932 69.4736 304.291 69.3833 304.555 69.2026C304.818 69.022 304.95 68.7412 304.95 68.3604C304.95 68.1455 304.914 67.9673 304.84 67.8257C304.767 67.6792 304.669 67.562 304.547 67.4741C304.425 67.3862 304.286 67.3252 304.13 67.291C303.979 67.252 303.822 67.2324 303.661 67.2324H301.442V69.4736ZM317.716 74H308.312V66.1558H309.66V72.8281H312.487V66.1558H313.834V72.8281H316.654V66.1558H318.002V72.8281H318.976V75.9189H317.716V74ZM320.207 66.1558H321.554V72.1689H321.583L325.436 66.1558H326.981V74H325.626V67.9868H325.597L321.752 74H320.207V66.1558ZM328.966 66.1558H330.314V69.9497L334.276 66.1558H336.042L332.357 69.6201L336.1 74H334.364L331.303 70.4404L330.314 71.2681V74H328.966V66.1558Z" fill="#E8E8E8"/>
<path d="M375.989 124.156H380.859V125.328H377.336V132H375.989V124.156ZM387.517 128.067C387.517 127.632 387.468 127.234 387.371 126.873C387.273 126.507 387.126 126.192 386.931 125.928C386.736 125.665 386.494 125.459 386.206 125.313C385.923 125.162 385.593 125.086 385.217 125.086C384.841 125.086 384.512 125.162 384.229 125.313C383.945 125.459 383.706 125.665 383.511 125.928C383.315 126.192 383.169 126.507 383.071 126.873C382.974 127.234 382.925 127.632 382.925 128.067C382.925 128.506 382.974 128.912 383.071 129.283C383.169 129.649 383.315 129.964 383.511 130.228C383.706 130.491 383.945 130.699 384.229 130.85C384.512 130.997 384.841 131.07 385.217 131.07C385.593 131.07 385.923 130.997 386.206 130.85C386.494 130.699 386.736 130.491 386.931 130.228C387.126 129.964 387.273 129.649 387.371 129.283C387.468 128.912 387.517 128.506 387.517 128.067ZM388.865 128.067C388.865 128.711 388.782 129.292 388.616 129.81C388.45 130.323 388.21 130.76 387.898 131.121C387.585 131.482 387.202 131.761 386.748 131.956C386.299 132.146 385.789 132.242 385.217 132.242C384.646 132.242 384.136 132.146 383.687 131.956C383.237 131.761 382.856 131.482 382.544 131.121C382.231 130.76 381.992 130.323 381.826 129.81C381.66 129.292 381.577 128.711 381.577 128.067C381.577 127.432 381.66 126.858 381.826 126.346C381.992 125.833 382.231 125.396 382.544 125.035C382.856 124.673 383.237 124.397 383.687 124.207C384.136 124.012 384.646 123.914 385.217 123.914C385.789 123.914 386.299 124.012 386.748 124.207C387.202 124.397 387.585 124.673 387.898 125.035C388.21 125.396 388.45 125.833 388.616 126.346C388.782 126.858 388.865 127.432 388.865 128.067ZM396.929 132H390.864V133.919H389.604V130.828H390.637C390.852 130.301 391.023 129.764 391.15 129.217C391.277 128.665 391.375 128.111 391.443 127.554C391.511 126.993 391.555 126.429 391.575 125.862C391.594 125.296 391.604 124.727 391.604 124.156H397.083V130.828H398.188V133.919H396.929V132ZM395.735 130.828V125.328H392.893C392.859 125.772 392.822 126.229 392.783 126.697C392.749 127.166 392.7 127.637 392.637 128.111C392.578 128.58 392.498 129.043 392.395 129.502C392.297 129.961 392.168 130.403 392.007 130.828H395.735Z" fill="#E8E8E8"/>
<path d="M183.156 129.239C183.136 129.429 183.097 129.637 183.039 129.861C182.985 130.086 182.904 130.311 182.797 130.535C182.689 130.755 182.55 130.967 182.379 131.172C182.213 131.377 182.008 131.561 181.764 131.722C181.525 131.878 181.242 132.002 180.915 132.095C180.587 132.193 180.214 132.242 179.794 132.242C179.564 132.242 179.323 132.212 179.069 132.154C178.815 132.1 178.566 132.007 178.322 131.875C178.083 131.744 177.853 131.575 177.633 131.37C177.418 131.16 177.228 130.901 177.062 130.594C176.901 130.286 176.771 129.93 176.674 129.524C176.576 129.114 176.527 128.646 176.527 128.118C176.527 127.469 176.62 126.885 176.806 126.368C176.991 125.845 177.238 125.403 177.545 125.042C177.858 124.681 178.219 124.402 178.629 124.207C179.044 124.012 179.479 123.914 179.933 123.914C180.343 123.914 180.705 123.958 181.017 124.046C181.334 124.134 181.61 124.251 181.845 124.397C182.079 124.544 182.277 124.715 182.438 124.91C182.599 125.101 182.729 125.303 182.826 125.518C182.929 125.728 183.004 125.943 183.053 126.163C183.107 126.382 183.141 126.592 183.156 126.792H181.896C181.828 126.26 181.642 125.843 181.339 125.54C181.042 125.237 180.622 125.086 180.08 125.086C179.708 125.086 179.384 125.162 179.105 125.313C178.832 125.464 178.603 125.677 178.417 125.95C178.236 126.219 178.1 126.546 178.007 126.932C177.919 127.312 177.875 127.732 177.875 128.191C177.875 128.709 177.924 129.156 178.021 129.532C178.119 129.903 178.258 130.21 178.439 130.455C178.62 130.694 178.839 130.872 179.098 130.989C179.362 131.102 179.66 131.158 179.992 131.158C180.226 131.158 180.448 131.116 180.658 131.033C180.868 130.945 181.056 130.821 181.222 130.66C181.388 130.494 181.53 130.291 181.647 130.052C181.764 129.812 181.847 129.542 181.896 129.239H183.156ZM186.576 125.328H183.874V124.156H190.626V125.328H187.924V132H186.576V125.328ZM191.974 126.507C191.989 126.028 192.079 125.625 192.245 125.298C192.411 124.966 192.636 124.698 192.919 124.493C193.202 124.288 193.537 124.141 193.922 124.053C194.313 123.96 194.738 123.914 195.197 123.914C195.578 123.914 195.946 123.953 196.303 124.031C196.664 124.109 196.984 124.236 197.262 124.412C197.541 124.583 197.763 124.808 197.929 125.086C198.1 125.359 198.185 125.694 198.185 126.089V130.652C198.185 130.779 198.219 130.889 198.288 130.982C198.356 131.07 198.466 131.114 198.617 131.114C198.686 131.114 198.756 131.109 198.83 131.099C198.903 131.084 198.979 131.07 199.057 131.055V131.985C198.944 132.015 198.832 132.042 198.72 132.066C198.612 132.09 198.483 132.103 198.332 132.103C198.097 132.103 197.895 132.083 197.724 132.044C197.558 132.005 197.416 131.941 197.299 131.854C197.187 131.761 197.099 131.644 197.035 131.502C196.972 131.355 196.93 131.177 196.911 130.967C196.745 131.148 196.569 131.316 196.383 131.473C196.198 131.624 195.99 131.758 195.761 131.875C195.531 131.988 195.275 132.076 194.992 132.139C194.708 132.208 194.389 132.242 194.032 132.242C193.729 132.242 193.434 132.193 193.146 132.095C192.863 131.998 192.606 131.854 192.377 131.663C192.152 131.473 191.972 131.238 191.835 130.96C191.698 130.677 191.63 130.35 191.63 129.979C191.63 129.573 191.698 129.224 191.835 128.931C191.972 128.633 192.15 128.387 192.37 128.191C192.589 127.991 192.841 127.837 193.124 127.73C193.407 127.623 193.695 127.552 193.988 127.518L196.193 127.247C196.403 127.222 196.566 127.142 196.684 127.005C196.806 126.863 196.867 126.639 196.867 126.331C196.867 125.857 196.71 125.518 196.398 125.313C196.09 125.103 195.646 124.998 195.065 124.998C194.469 124.998 194.025 125.125 193.732 125.379C193.439 125.628 193.273 126.004 193.234 126.507H191.974ZM196.837 128.008C196.73 128.086 196.596 128.152 196.435 128.206C196.278 128.255 196.105 128.296 195.915 128.331C195.724 128.365 195.521 128.396 195.307 128.426C195.092 128.45 194.877 128.477 194.662 128.506C194.418 128.541 194.193 128.589 193.988 128.653C193.783 128.716 193.605 128.799 193.454 128.902C193.302 129.004 193.185 129.129 193.102 129.275C193.019 129.417 192.978 129.585 192.978 129.781C192.978 130.005 193.012 130.203 193.08 130.374C193.153 130.545 193.251 130.689 193.373 130.806C193.5 130.923 193.651 131.011 193.827 131.07C194.003 131.128 194.196 131.158 194.406 131.158C194.538 131.158 194.689 131.143 194.86 131.114C195.031 131.08 195.207 131.031 195.387 130.967C195.568 130.904 195.744 130.823 195.915 130.726C196.09 130.623 196.247 130.501 196.383 130.359C196.52 130.218 196.63 130.057 196.713 129.876C196.796 129.695 196.837 129.493 196.837 129.268V128.008ZM205.89 127.364H206.571L209.142 124.156H210.768L207.685 127.876L210.885 132H209.223L206.571 128.433H205.89V132H204.542V128.433H203.854L201.181 132H199.518L202.748 127.876L199.679 124.156H201.312L203.854 127.364H204.542V124.156H205.89V127.364ZM216.144 124.156H217.492V125.232H217.521C217.609 125.052 217.719 124.881 217.851 124.72C217.987 124.559 218.148 124.419 218.334 124.302C218.524 124.18 218.742 124.085 218.986 124.017C219.235 123.948 219.518 123.914 219.835 123.914C220.255 123.914 220.658 123.995 221.044 124.156C221.43 124.317 221.771 124.559 222.069 124.881C222.367 125.203 222.604 125.608 222.78 126.097C222.956 126.58 223.043 127.144 223.043 127.789C223.043 128.594 222.96 129.28 222.794 129.847C222.633 130.408 222.401 130.867 222.099 131.224C221.801 131.58 221.439 131.839 221.015 132C220.59 132.161 220.116 132.242 219.594 132.242C219.335 132.242 219.093 132.208 218.869 132.139C218.644 132.071 218.441 131.983 218.261 131.875C218.085 131.763 217.934 131.641 217.807 131.509C217.68 131.373 217.584 131.241 217.521 131.114H217.492V135.091H216.144V124.156ZM217.462 128.118C217.462 128.543 217.504 128.936 217.587 129.297C217.67 129.654 217.797 129.964 217.968 130.228C218.144 130.491 218.361 130.699 218.62 130.85C218.883 130.997 219.193 131.07 219.55 131.07C219.921 131.07 220.241 130.997 220.509 130.85C220.783 130.699 221.007 130.491 221.183 130.228C221.359 129.964 221.488 129.654 221.571 129.297C221.654 128.936 221.696 128.543 221.696 128.118C221.696 127.674 221.654 127.266 221.571 126.895C221.488 126.524 221.359 126.204 221.183 125.936C221.007 125.667 220.783 125.459 220.509 125.313C220.241 125.162 219.921 125.086 219.55 125.086C219.193 125.086 218.883 125.162 218.62 125.313C218.361 125.459 218.144 125.667 217.968 125.936C217.797 126.204 217.67 126.524 217.587 126.895C217.504 127.266 217.462 127.674 217.462 128.118ZM224.552 126.507C224.567 126.028 224.657 125.625 224.823 125.298C224.989 124.966 225.214 124.698 225.497 124.493C225.78 124.288 226.115 124.141 226.5 124.053C226.891 123.96 227.316 123.914 227.775 123.914C228.156 123.914 228.524 123.953 228.881 124.031C229.242 124.109 229.562 124.236 229.84 124.412C230.119 124.583 230.341 124.808 230.507 125.086C230.678 125.359 230.763 125.694 230.763 126.089V130.652C230.763 130.779 230.797 130.889 230.866 130.982C230.934 131.07 231.044 131.114 231.195 131.114C231.264 131.114 231.334 131.109 231.408 131.099C231.481 131.084 231.557 131.07 231.635 131.055V131.985C231.522 132.015 231.41 132.042 231.298 132.066C231.19 132.09 231.061 132.103 230.91 132.103C230.675 132.103 230.473 132.083 230.302 132.044C230.136 132.005 229.994 131.941 229.877 131.854C229.765 131.761 229.677 131.644 229.613 131.502C229.55 131.355 229.508 131.177 229.489 130.967C229.323 131.148 229.147 131.316 228.961 131.473C228.776 131.624 228.568 131.758 228.339 131.875C228.109 131.988 227.853 132.076 227.57 132.139C227.287 132.208 226.967 132.242 226.61 132.242C226.308 132.242 226.012 132.193 225.724 132.095C225.441 131.998 225.185 131.854 224.955 131.663C224.73 131.473 224.55 131.238 224.413 130.96C224.276 130.677 224.208 130.35 224.208 129.979C224.208 129.573 224.276 129.224 224.413 128.931C224.55 128.633 224.728 128.387 224.948 128.191C225.167 127.991 225.419 127.837 225.702 127.73C225.985 127.623 226.273 127.552 226.566 127.518L228.771 127.247C228.981 127.222 229.145 127.142 229.262 127.005C229.384 126.863 229.445 126.639 229.445 126.331C229.445 125.857 229.289 125.518 228.976 125.313C228.668 125.103 228.224 124.998 227.643 124.998C227.047 124.998 226.603 125.125 226.31 125.379C226.017 125.628 225.851 126.004 225.812 126.507H224.552ZM229.416 128.008C229.308 128.086 229.174 128.152 229.013 128.206C228.856 128.255 228.683 128.296 228.493 128.331C228.302 128.365 228.1 128.396 227.885 128.426C227.67 128.45 227.455 128.477 227.24 128.506C226.996 128.541 226.771 128.589 226.566 128.653C226.361 128.716 226.183 128.799 226.032 128.902C225.88 129.004 225.763 129.129 225.68 129.275C225.597 129.417 225.556 129.585 225.556 129.781C225.556 130.005 225.59 130.203 225.658 130.374C225.731 130.545 225.829 130.689 225.951 130.806C226.078 130.923 226.229 131.011 226.405 131.07C226.581 131.128 226.774 131.158 226.984 131.158C227.116 131.158 227.267 131.143 227.438 131.114C227.609 131.08 227.785 131.031 227.965 130.967C228.146 130.904 228.322 130.823 228.493 130.726C228.668 130.623 228.825 130.501 228.961 130.359C229.098 130.218 229.208 130.057 229.291 129.876C229.374 129.695 229.416 129.493 229.416 129.268V128.008ZM239.01 121.138C239 121.211 238.986 121.302 238.966 121.409C238.952 121.512 238.92 121.622 238.871 121.739C238.822 121.856 238.754 121.976 238.666 122.098C238.583 122.215 238.471 122.325 238.329 122.427C238.251 122.481 238.18 122.527 238.117 122.566C238.053 122.605 237.973 122.64 237.875 122.669C237.777 122.698 237.653 122.723 237.501 122.742C237.35 122.762 237.147 122.774 236.894 122.779L236.337 122.793C235.956 122.803 235.612 122.881 235.304 123.028C235.001 123.169 234.733 123.37 234.499 123.628C234.269 123.882 234.079 124.19 233.927 124.551C233.776 124.913 233.664 125.315 233.59 125.76C233.693 125.564 233.82 125.374 233.971 125.188C234.123 124.998 234.311 124.83 234.535 124.683C234.76 124.532 235.023 124.412 235.326 124.324C235.629 124.231 235.98 124.185 236.381 124.185C236.835 124.185 237.265 124.266 237.67 124.427C238.08 124.588 238.437 124.83 238.739 125.152C239.047 125.474 239.291 125.875 239.472 126.353C239.652 126.832 239.743 127.388 239.743 128.023C239.743 128.223 239.728 128.467 239.699 128.755C239.669 129.039 239.611 129.336 239.523 129.649C239.435 129.961 239.308 130.274 239.142 130.586C238.981 130.894 238.764 131.17 238.49 131.414C238.222 131.658 237.892 131.856 237.501 132.007C237.116 132.164 236.652 132.242 236.11 132.242C235.885 132.242 235.646 132.222 235.392 132.183C235.143 132.149 234.892 132.083 234.638 131.985C234.389 131.888 234.145 131.751 233.905 131.575C233.671 131.399 233.456 131.175 233.261 130.901C233.163 130.765 233.065 130.608 232.968 130.433C232.875 130.252 232.79 130.035 232.711 129.781C232.633 129.527 232.57 129.227 232.521 128.88C232.477 128.533 232.455 128.123 232.455 127.649C232.455 127.337 232.47 126.983 232.499 126.587C232.528 126.192 232.58 125.789 232.653 125.379C232.726 124.969 232.824 124.573 232.946 124.192C233.068 123.807 233.224 123.47 233.415 123.182C233.62 122.869 233.834 122.615 234.059 122.42C234.284 122.225 234.523 122.071 234.777 121.958C235.031 121.846 235.304 121.766 235.597 121.717C235.89 121.668 236.208 121.636 236.549 121.622L237.025 121.607C237.182 121.602 237.313 121.595 237.421 121.585C237.533 121.57 237.626 121.548 237.699 121.519C237.772 121.49 237.831 121.446 237.875 121.387C237.919 121.329 237.956 121.246 237.985 121.138H239.01ZM233.803 128.221C233.803 128.367 233.81 128.541 233.825 128.741C233.844 128.941 233.881 129.151 233.935 129.371C233.988 129.585 234.066 129.8 234.169 130.015C234.271 130.23 234.406 130.423 234.572 130.594C234.743 130.76 234.953 130.896 235.202 131.004C235.451 131.106 235.749 131.158 236.095 131.158C236.481 131.158 236.806 131.097 237.069 130.975C237.333 130.848 237.55 130.687 237.721 130.491C237.892 130.291 238.021 130.071 238.109 129.832C238.202 129.593 238.268 129.361 238.307 129.136C238.351 128.907 238.375 128.699 238.38 128.514C238.39 128.323 238.395 128.179 238.395 128.082C238.395 127.725 238.354 127.376 238.271 127.034C238.192 126.692 238.063 126.39 237.882 126.126C237.707 125.862 237.475 125.65 237.187 125.489C236.903 125.328 236.554 125.247 236.139 125.247C235.734 125.247 235.385 125.328 235.092 125.489C234.799 125.645 234.557 125.86 234.367 126.133C234.176 126.402 234.035 126.717 233.942 127.078C233.849 127.435 233.803 127.815 233.803 128.221ZM246.745 128.067C246.745 127.632 246.696 127.234 246.598 126.873C246.5 126.507 246.354 126.192 246.159 125.928C245.963 125.665 245.722 125.459 245.434 125.313C245.15 125.162 244.821 125.086 244.445 125.086C244.069 125.086 243.739 125.162 243.456 125.313C243.173 125.459 242.934 125.665 242.738 125.928C242.543 126.192 242.396 126.507 242.299 126.873C242.201 127.234 242.152 127.632 242.152 128.067C242.152 128.506 242.201 128.912 242.299 129.283C242.396 129.649 242.543 129.964 242.738 130.228C242.934 130.491 243.173 130.699 243.456 130.85C243.739 130.997 244.069 131.07 244.445 131.07C244.821 131.07 245.15 130.997 245.434 130.85C245.722 130.699 245.963 130.491 246.159 130.228C246.354 129.964 246.5 129.649 246.598 129.283C246.696 128.912 246.745 128.506 246.745 128.067ZM248.092 128.067C248.092 128.711 248.009 129.292 247.843 129.81C247.677 130.323 247.438 130.76 247.125 131.121C246.813 131.482 246.43 131.761 245.976 131.956C245.526 132.146 245.016 132.242 244.445 132.242C243.874 132.242 243.363 132.146 242.914 131.956C242.465 131.761 242.084 131.482 241.771 131.121C241.459 130.76 241.22 130.323 241.054 129.81C240.888 129.292 240.805 128.711 240.805 128.067C240.805 127.432 240.888 126.858 241.054 126.346C241.22 125.833 241.459 125.396 241.771 125.035C242.084 124.673 242.465 124.397 242.914 124.207C243.363 124.012 243.874 123.914 244.445 123.914C245.016 123.914 245.526 124.012 245.976 124.207C246.43 124.397 246.813 124.673 247.125 125.035C247.438 125.396 247.677 125.833 247.843 126.346C248.009 126.858 248.092 127.432 248.092 128.067ZM251.703 125.328H249V124.156H255.753V125.328H253.051V132H251.703V125.328ZM264.616 124.156H265.963V132H264.616V124.156ZM257.116 124.156H258.463V127.107H260.822C261.247 127.107 261.627 127.166 261.964 127.283C262.306 127.396 262.594 127.559 262.829 127.774C263.063 127.984 263.241 128.24 263.363 128.543C263.49 128.841 263.554 129.178 263.554 129.554C263.554 129.935 263.49 130.276 263.363 130.579C263.241 130.877 263.063 131.133 262.829 131.348C262.594 131.558 262.306 131.719 261.964 131.832C261.627 131.944 261.247 132 260.822 132H257.116V124.156ZM258.463 130.923H260.551C260.785 130.923 261.002 130.899 261.203 130.85C261.408 130.801 261.583 130.723 261.73 130.616C261.876 130.503 261.991 130.362 262.074 130.191C262.157 130.015 262.199 129.803 262.199 129.554C262.199 129.31 262.155 129.102 262.067 128.931C261.984 128.76 261.864 128.621 261.708 128.514C261.557 128.401 261.371 128.321 261.151 128.272C260.937 128.218 260.697 128.191 260.434 128.191H258.463V130.923ZM268.629 124.258H270.16V125.855H268.629V124.258ZM268.629 130.403H270.16V132H268.629V130.403Z" fill="#E8E8E8"/>
</svg>
