<svg width="1386" height="238" viewBox="0 0 1386 238" fill="none" xmlns="http://www.w3.org/2000/svg">
<rect width="1386" height="238" fill="#3D3D3D"/>
<path d="M1167.19 116.587H1173.03V117.993H1168.8V126H1167.19V116.587ZM1181.02 121.28C1181.02 120.759 1180.96 120.281 1180.84 119.848C1180.73 119.408 1180.55 119.03 1180.32 118.714C1180.08 118.397 1179.79 118.151 1179.45 117.976C1179.11 117.794 1178.71 117.703 1178.26 117.703C1177.81 117.703 1177.41 117.794 1177.07 117.976C1176.73 118.151 1176.45 118.397 1176.21 118.714C1175.98 119.03 1175.8 119.408 1175.69 119.848C1175.57 120.281 1175.51 120.759 1175.51 121.28C1175.51 121.808 1175.57 122.294 1175.69 122.739C1175.8 123.179 1175.98 123.557 1176.21 123.873C1176.45 124.189 1176.73 124.438 1177.07 124.62C1177.41 124.796 1177.81 124.884 1178.26 124.884C1178.71 124.884 1179.11 124.796 1179.45 124.62C1179.79 124.438 1180.08 124.189 1180.32 123.873C1180.55 123.557 1180.73 123.179 1180.84 122.739C1180.96 122.294 1181.02 121.808 1181.02 121.28ZM1182.64 121.28C1182.64 122.054 1182.54 122.751 1182.34 123.372C1182.14 123.987 1181.85 124.512 1181.48 124.945C1181.1 125.379 1180.64 125.713 1180.1 125.947C1179.56 126.176 1178.95 126.29 1178.26 126.29C1177.58 126.29 1176.96 126.176 1176.42 125.947C1175.88 125.713 1175.43 125.379 1175.05 124.945C1174.68 124.512 1174.39 123.987 1174.19 123.372C1173.99 122.751 1173.89 122.054 1173.89 121.28C1173.89 120.519 1173.99 119.83 1174.19 119.215C1174.39 118.6 1174.68 118.075 1175.05 117.642C1175.43 117.208 1175.88 116.877 1176.42 116.648C1176.96 116.414 1177.58 116.297 1178.26 116.297C1178.95 116.297 1179.56 116.414 1180.1 116.648C1180.64 116.877 1181.1 117.208 1181.48 117.642C1181.85 118.075 1182.14 118.6 1182.34 119.215C1182.54 119.83 1182.64 120.519 1182.64 121.28ZM1192.31 126H1185.04V128.303H1183.53V124.594H1184.76C1185.02 123.961 1185.23 123.316 1185.38 122.66C1185.53 121.998 1185.65 121.333 1185.73 120.665C1185.81 119.991 1185.87 119.314 1185.89 118.635C1185.91 117.955 1185.92 117.272 1185.92 116.587H1192.5V124.594H1193.83V128.303H1192.31V126ZM1190.88 124.594V117.993H1187.47C1187.43 118.526 1187.39 119.074 1187.34 119.637C1187.3 120.199 1187.24 120.765 1187.16 121.333C1187.09 121.896 1187 122.452 1186.87 123.003C1186.76 123.554 1186.6 124.084 1186.41 124.594H1190.88Z" fill="#E8E8E8"/>
<path d="M117.336 112.08H119.059V117.406H125.932V112.08H127.663V125H125.932V118.918H119.059V125H117.336V112.08ZM130.177 118.408C130.194 117.834 130.303 117.351 130.502 116.958C130.701 116.56 130.971 116.237 131.311 115.991C131.65 115.745 132.052 115.569 132.515 115.464C132.983 115.353 133.493 115.297 134.044 115.297C134.501 115.297 134.943 115.344 135.371 115.438C135.805 115.531 136.188 115.684 136.522 115.895C136.856 116.1 137.123 116.369 137.322 116.703C137.527 117.031 137.63 117.433 137.63 117.907V123.383C137.63 123.535 137.671 123.667 137.753 123.778C137.835 123.884 137.967 123.937 138.148 123.937C138.23 123.937 138.315 123.931 138.403 123.919C138.491 123.901 138.582 123.884 138.676 123.866V124.982C138.541 125.018 138.406 125.05 138.271 125.079C138.143 125.108 137.987 125.123 137.806 125.123C137.524 125.123 137.281 125.1 137.076 125.053C136.877 125.006 136.707 124.93 136.566 124.824C136.432 124.713 136.326 124.572 136.25 124.402C136.174 124.227 136.124 124.013 136.101 123.761C135.901 123.978 135.69 124.18 135.468 124.367C135.245 124.549 134.996 124.71 134.721 124.851C134.445 124.985 134.138 125.091 133.798 125.167C133.458 125.249 133.074 125.29 132.646 125.29C132.283 125.29 131.929 125.231 131.583 125.114C131.243 124.997 130.936 124.824 130.66 124.596C130.391 124.367 130.174 124.086 130.01 123.752C129.846 123.412 129.764 123.02 129.764 122.574C129.764 122.088 129.846 121.669 130.01 121.317C130.174 120.96 130.388 120.664 130.651 120.43C130.915 120.189 131.217 120.005 131.557 119.876C131.896 119.747 132.242 119.662 132.594 119.621L135.239 119.296C135.491 119.267 135.688 119.17 135.828 119.006C135.975 118.836 136.048 118.566 136.048 118.197C136.048 117.629 135.86 117.222 135.485 116.976C135.116 116.724 134.583 116.598 133.886 116.598C133.171 116.598 132.638 116.75 132.286 117.055C131.935 117.354 131.735 117.805 131.688 118.408H130.177ZM136.013 120.21C135.884 120.304 135.723 120.383 135.529 120.447C135.342 120.506 135.134 120.556 134.905 120.597C134.677 120.638 134.434 120.676 134.176 120.711C133.918 120.74 133.66 120.772 133.402 120.808C133.109 120.849 132.84 120.907 132.594 120.983C132.348 121.06 132.134 121.159 131.952 121.282C131.771 121.405 131.63 121.555 131.53 121.73C131.431 121.9 131.381 122.103 131.381 122.337C131.381 122.606 131.422 122.844 131.504 123.049C131.592 123.254 131.709 123.427 131.855 123.567C132.008 123.708 132.189 123.813 132.4 123.884C132.611 123.954 132.843 123.989 133.095 123.989C133.253 123.989 133.435 123.972 133.64 123.937C133.845 123.896 134.056 123.837 134.272 123.761C134.489 123.685 134.7 123.588 134.905 123.471C135.116 123.348 135.304 123.201 135.468 123.031C135.632 122.861 135.764 122.668 135.863 122.451C135.963 122.234 136.013 121.991 136.013 121.722V120.21ZM147.614 121.687C147.591 121.915 147.544 122.164 147.474 122.434C147.409 122.703 147.312 122.973 147.184 123.242C147.055 123.506 146.888 123.761 146.683 124.007C146.483 124.253 146.237 124.473 145.944 124.666C145.657 124.854 145.317 125.003 144.925 125.114C144.532 125.231 144.084 125.29 143.58 125.29C143.305 125.29 143.015 125.255 142.71 125.185C142.405 125.12 142.106 125.009 141.813 124.851C141.526 124.692 141.251 124.49 140.987 124.244C140.729 123.992 140.501 123.682 140.302 123.312C140.108 122.943 139.953 122.516 139.836 122.029C139.719 121.537 139.66 120.975 139.66 120.342C139.66 119.562 139.771 118.862 139.994 118.241C140.217 117.614 140.513 117.084 140.882 116.65C141.257 116.217 141.69 115.883 142.183 115.648C142.681 115.414 143.202 115.297 143.747 115.297C144.239 115.297 144.673 115.35 145.048 115.455C145.429 115.561 145.76 115.701 146.041 115.877C146.322 116.053 146.56 116.258 146.753 116.492C146.946 116.721 147.102 116.964 147.219 117.222C147.342 117.474 147.433 117.731 147.491 117.995C147.556 118.259 147.597 118.511 147.614 118.751H146.103C146.021 118.112 145.798 117.611 145.435 117.248C145.077 116.885 144.573 116.703 143.923 116.703C143.478 116.703 143.088 116.794 142.754 116.976C142.426 117.157 142.15 117.412 141.928 117.74C141.711 118.062 141.547 118.455 141.436 118.918C141.33 119.375 141.277 119.879 141.277 120.43C141.277 121.051 141.336 121.587 141.453 122.038C141.57 122.483 141.737 122.853 141.954 123.146C142.171 123.433 142.435 123.646 142.745 123.787C143.062 123.922 143.419 123.989 143.817 123.989C144.099 123.989 144.365 123.939 144.617 123.84C144.869 123.734 145.095 123.585 145.294 123.392C145.493 123.192 145.663 122.949 145.804 122.662C145.944 122.375 146.044 122.05 146.103 121.687H147.614ZM151.719 116.993H148.476V115.587H156.579V116.993H153.336V125H151.719V116.993ZM165.869 125H164.243V121.273H162.16C161.785 121.273 161.457 121.282 161.176 121.3C160.9 121.312 160.666 121.364 160.473 121.458C160.279 121.552 160.127 121.698 160.016 121.897C159.91 122.097 159.843 122.381 159.813 122.75L159.743 123.761C159.737 123.79 159.731 123.849 159.726 123.937C159.72 124.024 159.708 124.13 159.69 124.253C159.673 124.37 159.649 124.496 159.62 124.631C159.591 124.766 159.556 124.889 159.515 125H157.73C157.771 124.947 157.81 124.895 157.845 124.842C157.886 124.783 157.924 124.704 157.959 124.604C158 124.505 158.035 124.376 158.064 124.218C158.1 124.06 158.132 123.857 158.161 123.611L158.267 122.407C158.302 122.091 158.343 121.833 158.39 121.634C158.442 121.435 158.513 121.271 158.601 121.142C158.694 121.007 158.814 120.898 158.961 120.816C159.107 120.729 159.292 120.641 159.515 120.553C158.507 120.189 158.003 119.445 158.003 118.32C158.003 118.039 158.038 117.781 158.108 117.547C158.179 117.307 158.27 117.093 158.381 116.905C158.498 116.718 158.627 116.554 158.768 116.413C158.914 116.267 159.061 116.146 159.207 116.053C159.389 115.936 159.588 115.848 159.805 115.789C160.021 115.725 160.238 115.678 160.455 115.648C160.678 115.619 160.895 115.602 161.105 115.596C161.316 115.59 161.51 115.587 161.686 115.587H165.869V125ZM164.243 117.011H161.782C161.571 117.011 161.39 117.014 161.237 117.02C161.085 117.02 160.95 117.025 160.833 117.037C160.722 117.049 160.619 117.069 160.525 117.099C160.432 117.128 160.335 117.169 160.235 117.222C160.03 117.339 159.872 117.512 159.761 117.74C159.655 117.969 159.603 118.212 159.603 118.47C159.603 118.722 159.641 118.936 159.717 119.111C159.793 119.281 159.893 119.422 160.016 119.533C160.145 119.645 160.285 119.732 160.438 119.797C160.596 119.855 160.754 119.899 160.912 119.929C161.076 119.952 161.234 119.967 161.387 119.973C161.539 119.979 161.671 119.981 161.782 119.981H164.243V117.011ZM173.428 112.08H183.755V125H182.023V113.592H175.15V125H173.428V112.08ZM192.86 120.28C192.86 119.759 192.802 119.281 192.685 118.848C192.567 118.408 192.392 118.03 192.157 117.714C191.923 117.397 191.633 117.151 191.287 116.976C190.947 116.794 190.552 116.703 190.101 116.703C189.649 116.703 189.254 116.794 188.914 116.976C188.574 117.151 188.287 117.397 188.053 117.714C187.818 118.03 187.643 118.408 187.525 118.848C187.408 119.281 187.35 119.759 187.35 120.28C187.35 120.808 187.408 121.294 187.525 121.739C187.643 122.179 187.818 122.557 188.053 122.873C188.287 123.189 188.574 123.438 188.914 123.62C189.254 123.796 189.649 123.884 190.101 123.884C190.552 123.884 190.947 123.796 191.287 123.62C191.633 123.438 191.923 123.189 192.157 122.873C192.392 122.557 192.567 122.179 192.685 121.739C192.802 121.294 192.86 120.808 192.86 120.28ZM194.478 120.28C194.478 121.054 194.378 121.751 194.179 122.372C193.979 122.987 193.692 123.512 193.317 123.945C192.942 124.379 192.482 124.713 191.938 124.947C191.398 125.176 190.786 125.29 190.101 125.29C189.415 125.29 188.803 125.176 188.264 124.947C187.725 124.713 187.268 124.379 186.893 123.945C186.518 123.512 186.23 122.987 186.031 122.372C185.832 121.751 185.732 121.054 185.732 120.28C185.732 119.519 185.832 118.83 186.031 118.215C186.23 117.6 186.518 117.075 186.893 116.642C187.268 116.208 187.725 115.877 188.264 115.648C188.803 115.414 189.415 115.297 190.101 115.297C190.786 115.297 191.398 115.414 191.938 115.648C192.482 115.877 192.942 116.208 193.317 116.642C193.692 117.075 193.979 117.6 194.179 118.215C194.378 118.83 194.478 119.519 194.478 120.28ZM201.975 121.203C201.623 121.297 201.236 121.376 200.814 121.44C200.398 121.505 200.009 121.537 199.646 121.537C198.386 121.537 197.451 121.297 196.842 120.816C196.232 120.33 195.928 119.565 195.928 118.522V115.587H197.545V118.197C197.545 118.549 197.586 118.854 197.668 119.111C197.756 119.369 197.896 119.583 198.09 119.753C198.283 119.917 198.538 120.04 198.854 120.122C199.171 120.204 199.561 120.245 200.023 120.245C200.146 120.245 200.293 120.233 200.463 120.21C200.639 120.187 200.817 120.157 200.999 120.122C201.181 120.087 201.356 120.049 201.526 120.008C201.702 119.961 201.852 119.914 201.975 119.867V115.587H203.601V125H201.975V121.203ZM214.007 121.994C213.942 122.404 213.802 122.806 213.585 123.198C213.368 123.591 213.084 123.942 212.732 124.253C212.381 124.563 211.965 124.812 211.484 125C211.01 125.193 210.482 125.29 209.902 125.29C209.27 125.29 208.684 125.188 208.145 124.982C207.611 124.771 207.148 124.458 206.756 124.042C206.369 123.62 206.064 123.093 205.842 122.46C205.619 121.827 205.508 121.083 205.508 120.228C205.508 119.653 205.569 119.135 205.692 118.672C205.821 118.203 205.991 117.787 206.202 117.424C206.419 117.055 206.668 116.738 206.949 116.475C207.23 116.205 207.526 115.985 207.837 115.815C208.153 115.64 208.476 115.511 208.804 115.429C209.132 115.341 209.448 115.297 209.753 115.297C210.397 115.297 210.986 115.394 211.52 115.587C212.053 115.78 212.51 116.076 212.891 116.475C213.277 116.867 213.576 117.362 213.787 117.96C214.004 118.552 214.112 119.249 214.112 120.052V120.86H207.23C207.236 121.317 207.301 121.733 207.424 122.108C207.547 122.478 207.723 122.794 207.951 123.058C208.18 123.321 208.455 123.526 208.777 123.673C209.105 123.813 209.475 123.884 209.885 123.884C210.301 123.884 210.652 123.825 210.939 123.708C211.227 123.591 211.467 123.441 211.66 123.26C211.854 123.078 212.009 122.876 212.126 122.653C212.249 122.431 212.352 122.211 212.434 121.994H214.007ZM212.486 119.568C212.475 119.111 212.404 118.704 212.275 118.347C212.152 117.989 211.977 117.69 211.748 117.45C211.525 117.204 211.256 117.02 210.939 116.896C210.623 116.768 210.271 116.703 209.885 116.703C209.516 116.703 209.176 116.776 208.865 116.923C208.555 117.063 208.282 117.263 208.048 117.521C207.813 117.772 207.626 118.074 207.485 118.426C207.345 118.771 207.26 119.152 207.23 119.568H212.486ZM215.923 115.587H217.54V116.879H217.575C217.681 116.662 217.812 116.457 217.971 116.264C218.135 116.07 218.328 115.903 218.551 115.763C218.779 115.616 219.04 115.502 219.333 115.42C219.632 115.338 219.972 115.297 220.353 115.297C220.856 115.297 221.34 115.394 221.803 115.587C222.266 115.78 222.676 116.07 223.033 116.457C223.391 116.844 223.675 117.33 223.886 117.916C224.097 118.496 224.202 119.173 224.202 119.946C224.202 120.913 224.103 121.736 223.903 122.416C223.71 123.09 223.432 123.641 223.068 124.068C222.711 124.496 222.277 124.807 221.768 125C221.258 125.193 220.689 125.29 220.062 125.29C219.752 125.29 219.462 125.249 219.192 125.167C218.923 125.085 218.68 124.979 218.463 124.851C218.252 124.716 218.07 124.569 217.918 124.411C217.766 124.247 217.651 124.089 217.575 123.937H217.54V128.709H215.923V115.587ZM217.505 120.342C217.505 120.852 217.555 121.323 217.654 121.757C217.754 122.185 217.906 122.557 218.111 122.873C218.322 123.189 218.583 123.438 218.894 123.62C219.21 123.796 219.582 123.884 220.01 123.884C220.455 123.884 220.839 123.796 221.161 123.62C221.489 123.438 221.759 123.189 221.97 122.873C222.181 122.557 222.336 122.185 222.436 121.757C222.535 121.323 222.585 120.852 222.585 120.342C222.585 119.809 222.535 119.319 222.436 118.874C222.336 118.429 222.181 118.045 221.97 117.723C221.759 117.4 221.489 117.151 221.161 116.976C220.839 116.794 220.455 116.703 220.01 116.703C219.582 116.703 219.21 116.794 218.894 116.976C218.583 117.151 218.322 117.4 218.111 117.723C217.906 118.045 217.754 118.429 217.654 118.874C217.555 119.319 217.505 119.809 217.505 120.342ZM226.03 115.587H227.647V119.384H232.042V115.587H233.668V125H232.042V120.79H227.647V125H226.03V115.587ZM243.705 125H242.079V121.273H239.996C239.621 121.273 239.293 121.282 239.012 121.3C238.736 121.312 238.502 121.364 238.309 121.458C238.115 121.552 237.963 121.698 237.852 121.897C237.746 122.097 237.679 122.381 237.649 122.75L237.579 123.761C237.573 123.79 237.567 123.849 237.562 123.937C237.556 124.024 237.544 124.13 237.526 124.253C237.509 124.37 237.485 124.496 237.456 124.631C237.427 124.766 237.392 124.889 237.351 125H235.566C235.607 124.947 235.646 124.895 235.681 124.842C235.722 124.783 235.76 124.704 235.795 124.604C235.836 124.505 235.871 124.376 235.9 124.218C235.936 124.06 235.968 123.857 235.997 123.611L236.103 122.407C236.138 122.091 236.179 121.833 236.226 121.634C236.278 121.435 236.349 121.271 236.437 121.142C236.53 121.007 236.65 120.898 236.797 120.816C236.943 120.729 237.128 120.641 237.351 120.553C236.343 120.189 235.839 119.445 235.839 118.32C235.839 118.039 235.874 117.781 235.944 117.547C236.015 117.307 236.105 117.093 236.217 116.905C236.334 116.718 236.463 116.554 236.604 116.413C236.75 116.267 236.896 116.146 237.043 116.053C237.225 115.936 237.424 115.848 237.641 115.789C237.857 115.725 238.074 115.678 238.291 115.648C238.514 115.619 238.73 115.602 238.941 115.596C239.152 115.59 239.346 115.587 239.521 115.587H243.705V125ZM242.079 117.011H239.618C239.407 117.011 239.226 117.014 239.073 117.02C238.921 117.02 238.786 117.025 238.669 117.037C238.558 117.049 238.455 117.069 238.361 117.099C238.268 117.128 238.171 117.169 238.071 117.222C237.866 117.339 237.708 117.512 237.597 117.74C237.491 117.969 237.438 118.212 237.438 118.47C237.438 118.722 237.477 118.936 237.553 119.111C237.629 119.281 237.729 119.422 237.852 119.533C237.98 119.645 238.121 119.732 238.273 119.797C238.432 119.855 238.59 119.899 238.748 119.929C238.912 119.952 239.07 119.967 239.223 119.973C239.375 119.979 239.507 119.981 239.618 119.981H242.079V117.011ZM254.12 121.994C254.056 122.404 253.915 122.806 253.698 123.198C253.481 123.591 253.197 123.942 252.846 124.253C252.494 124.563 252.078 124.812 251.598 125C251.123 125.193 250.596 125.29 250.016 125.29C249.383 125.29 248.797 125.188 248.258 124.982C247.725 124.771 247.262 124.458 246.869 124.042C246.482 123.62 246.178 123.093 245.955 122.46C245.732 121.827 245.621 121.083 245.621 120.228C245.621 119.653 245.683 119.135 245.806 118.672C245.935 118.203 246.104 117.787 246.315 117.424C246.532 117.055 246.781 116.738 247.062 116.475C247.344 116.205 247.64 115.985 247.95 115.815C248.267 115.64 248.589 115.511 248.917 115.429C249.245 115.341 249.562 115.297 249.866 115.297C250.511 115.297 251.1 115.394 251.633 115.587C252.166 115.78 252.623 116.076 253.004 116.475C253.391 116.867 253.689 117.362 253.9 117.96C254.117 118.552 254.226 119.249 254.226 120.052V120.86H247.344C247.35 121.317 247.414 121.733 247.537 122.108C247.66 122.478 247.836 122.794 248.064 123.058C248.293 123.321 248.568 123.526 248.891 123.673C249.219 123.813 249.588 123.884 249.998 123.884C250.414 123.884 250.766 123.825 251.053 123.708C251.34 123.591 251.58 123.441 251.773 123.26C251.967 123.078 252.122 122.876 252.239 122.653C252.362 122.431 252.465 122.211 252.547 121.994H254.12ZM252.6 119.568C252.588 119.111 252.518 118.704 252.389 118.347C252.266 117.989 252.09 117.69 251.861 117.45C251.639 117.204 251.369 117.02 251.053 116.896C250.736 116.768 250.385 116.703 249.998 116.703C249.629 116.703 249.289 116.776 248.979 116.923C248.668 117.063 248.396 117.263 248.161 117.521C247.927 117.772 247.739 118.074 247.599 118.426C247.458 118.771 247.373 119.152 247.344 119.568H252.6ZM256.124 115.587H260.132C261.28 115.587 262.139 115.801 262.707 116.229C263.281 116.656 263.568 117.277 263.568 118.092C263.568 118.525 263.463 118.892 263.252 119.19C263.041 119.489 262.763 119.753 262.417 119.981C262.915 120.169 263.311 120.438 263.604 120.79C263.896 121.142 264.043 121.596 264.043 122.152C264.043 122.592 263.97 122.987 263.823 123.339C263.677 123.69 263.454 123.989 263.155 124.235C262.856 124.481 262.476 124.672 262.013 124.807C261.556 124.936 261.014 125 260.387 125H256.124V115.587ZM257.741 123.708H260.202C260.63 123.708 260.984 123.676 261.266 123.611C261.553 123.541 261.781 123.441 261.951 123.312C262.121 123.184 262.241 123.028 262.312 122.847C262.382 122.665 262.417 122.46 262.417 122.231C262.417 122.003 262.382 121.798 262.312 121.616C262.241 121.429 262.121 121.273 261.951 121.15C261.781 121.021 261.553 120.925 261.266 120.86C260.984 120.79 260.63 120.755 260.202 120.755H257.741V123.708ZM257.741 119.568H260.185C260.729 119.568 261.16 119.46 261.477 119.243C261.793 119.026 261.951 118.689 261.951 118.232C261.951 117.975 261.907 117.761 261.819 117.591C261.731 117.415 261.614 117.274 261.468 117.169C261.321 117.063 261.154 116.99 260.967 116.949C260.785 116.902 260.598 116.879 260.404 116.879H257.741V119.568ZM265.968 118.408C265.985 117.834 266.094 117.351 266.293 116.958C266.492 116.56 266.762 116.237 267.102 115.991C267.441 115.745 267.843 115.569 268.306 115.464C268.774 115.353 269.284 115.297 269.835 115.297C270.292 115.297 270.734 115.344 271.162 115.438C271.596 115.531 271.979 115.684 272.313 115.895C272.647 116.1 272.914 116.369 273.113 116.703C273.318 117.031 273.421 117.433 273.421 117.907V123.383C273.421 123.535 273.462 123.667 273.544 123.778C273.626 123.884 273.758 123.937 273.939 123.937C274.021 123.937 274.106 123.931 274.194 123.919C274.282 123.901 274.373 123.884 274.467 123.866V124.982C274.332 125.018 274.197 125.05 274.062 125.079C273.934 125.108 273.778 125.123 273.597 125.123C273.315 125.123 273.072 125.1 272.867 125.053C272.668 125.006 272.498 124.93 272.357 124.824C272.223 124.713 272.117 124.572 272.041 124.402C271.965 124.227 271.915 124.013 271.892 123.761C271.692 123.978 271.481 124.18 271.259 124.367C271.036 124.549 270.787 124.71 270.512 124.851C270.236 124.985 269.929 125.091 269.589 125.167C269.249 125.249 268.865 125.29 268.438 125.29C268.074 125.29 267.72 125.231 267.374 125.114C267.034 124.997 266.727 124.824 266.451 124.596C266.182 124.367 265.965 124.086 265.801 123.752C265.637 123.412 265.555 123.02 265.555 122.574C265.555 122.088 265.637 121.669 265.801 121.317C265.965 120.96 266.179 120.664 266.442 120.43C266.706 120.189 267.008 120.005 267.348 119.876C267.688 119.747 268.033 119.662 268.385 119.621L271.03 119.296C271.282 119.267 271.479 119.17 271.619 119.006C271.766 118.836 271.839 118.566 271.839 118.197C271.839 117.629 271.651 117.222 271.276 116.976C270.907 116.724 270.374 116.598 269.677 116.598C268.962 116.598 268.429 116.75 268.077 117.055C267.726 117.354 267.526 117.805 267.479 118.408H265.968ZM271.804 120.21C271.675 120.304 271.514 120.383 271.32 120.447C271.133 120.506 270.925 120.556 270.696 120.597C270.468 120.638 270.225 120.676 269.967 120.711C269.709 120.74 269.451 120.772 269.193 120.808C268.9 120.849 268.631 120.907 268.385 120.983C268.139 121.06 267.925 121.159 267.743 121.282C267.562 121.405 267.421 121.555 267.321 121.73C267.222 121.9 267.172 122.103 267.172 122.337C267.172 122.606 267.213 122.844 267.295 123.049C267.383 123.254 267.5 123.427 267.646 123.567C267.799 123.708 267.98 123.813 268.191 123.884C268.402 123.954 268.634 123.989 268.886 123.989C269.044 123.989 269.226 123.972 269.431 123.937C269.636 123.896 269.847 123.837 270.063 123.761C270.28 123.685 270.491 123.588 270.696 123.471C270.907 123.348 271.095 123.201 271.259 123.031C271.423 122.861 271.555 122.668 271.654 122.451C271.754 122.234 271.804 121.991 271.804 121.722V120.21ZM280.575 119.173H284.987V120.799H280.575V119.173ZM291.931 115.587H293.548V116.879H293.583C293.688 116.662 293.82 116.457 293.979 116.264C294.143 116.07 294.336 115.903 294.559 115.763C294.787 115.616 295.048 115.502 295.341 115.42C295.64 115.338 295.979 115.297 296.36 115.297C296.864 115.297 297.348 115.394 297.811 115.587C298.273 115.78 298.684 116.07 299.041 116.457C299.398 116.844 299.683 117.33 299.894 117.916C300.104 118.496 300.21 119.173 300.21 119.946C300.21 120.913 300.11 121.736 299.911 122.416C299.718 123.09 299.439 123.641 299.076 124.068C298.719 124.496 298.285 124.807 297.775 125C297.266 125.193 296.697 125.29 296.07 125.29C295.76 125.29 295.47 125.249 295.2 125.167C294.931 125.085 294.688 124.979 294.471 124.851C294.26 124.716 294.078 124.569 293.926 124.411C293.773 124.247 293.659 124.089 293.583 123.937H293.548V128.709H291.931V115.587ZM293.513 120.342C293.513 120.852 293.562 121.323 293.662 121.757C293.762 122.185 293.914 122.557 294.119 122.873C294.33 123.189 294.591 123.438 294.901 123.62C295.218 123.796 295.59 123.884 296.018 123.884C296.463 123.884 296.847 123.796 297.169 123.62C297.497 123.438 297.767 123.189 297.978 122.873C298.188 122.557 298.344 122.185 298.443 121.757C298.543 121.323 298.593 120.852 298.593 120.342C298.593 119.809 298.543 119.319 298.443 118.874C298.344 118.429 298.188 118.045 297.978 117.723C297.767 117.4 297.497 117.151 297.169 116.976C296.847 116.794 296.463 116.703 296.018 116.703C295.59 116.703 295.218 116.794 294.901 116.976C294.591 117.151 294.33 117.4 294.119 117.723C293.914 118.045 293.762 118.429 293.662 118.874C293.562 119.319 293.513 119.809 293.513 120.342ZM310.054 121.994C309.989 122.404 309.849 122.806 309.632 123.198C309.415 123.591 309.131 123.942 308.779 124.253C308.428 124.563 308.012 124.812 307.531 125C307.057 125.193 306.529 125.29 305.949 125.29C305.316 125.29 304.73 125.188 304.191 124.982C303.658 124.771 303.195 124.458 302.803 124.042C302.416 123.62 302.111 123.093 301.889 122.46C301.666 121.827 301.555 121.083 301.555 120.228C301.555 119.653 301.616 119.135 301.739 118.672C301.868 118.203 302.038 117.787 302.249 117.424C302.466 117.055 302.715 116.738 302.996 116.475C303.277 116.205 303.573 115.985 303.884 115.815C304.2 115.64 304.522 115.511 304.851 115.429C305.179 115.341 305.495 115.297 305.8 115.297C306.444 115.297 307.033 115.394 307.566 115.587C308.1 115.78 308.557 116.076 308.938 116.475C309.324 116.867 309.623 117.362 309.834 117.96C310.051 118.552 310.159 119.249 310.159 120.052V120.86H303.277C303.283 121.317 303.348 121.733 303.471 122.108C303.594 122.478 303.77 122.794 303.998 123.058C304.227 123.321 304.502 123.526 304.824 123.673C305.152 123.813 305.521 123.884 305.932 123.884C306.348 123.884 306.699 123.825 306.986 123.708C307.273 123.591 307.514 123.441 307.707 123.26C307.9 123.078 308.056 122.876 308.173 122.653C308.296 122.431 308.398 122.211 308.48 121.994H310.054ZM308.533 119.568C308.521 119.111 308.451 118.704 308.322 118.347C308.199 117.989 308.023 117.69 307.795 117.45C307.572 117.204 307.303 117.02 306.986 116.896C306.67 116.768 306.318 116.703 305.932 116.703C305.562 116.703 305.223 116.776 304.912 116.923C304.602 117.063 304.329 117.263 304.095 117.521C303.86 117.772 303.673 118.074 303.532 118.426C303.392 118.771 303.307 119.152 303.277 119.568H308.533ZM318.72 119.437H319.537L322.622 115.587H324.573L320.873 120.052L324.714 125H322.719L319.537 120.72H318.72V125H317.103V120.72H316.276L313.068 125H311.073L314.949 120.052L311.267 115.587H313.227L316.276 119.437H317.103V115.587H318.72V119.437ZM326.103 115.587H327.72V122.803H327.755L332.378 115.587H334.232V125H332.606V117.784H332.571L327.957 125H326.103V115.587ZM344.015 121.687C343.991 121.915 343.944 122.164 343.874 122.434C343.81 122.703 343.713 122.973 343.584 123.242C343.455 123.506 343.288 123.761 343.083 124.007C342.884 124.253 342.638 124.473 342.345 124.666C342.058 124.854 341.718 125.003 341.325 125.114C340.933 125.231 340.484 125.29 339.98 125.29C339.705 125.29 339.415 125.255 339.11 125.185C338.806 125.12 338.507 125.009 338.214 124.851C337.927 124.692 337.651 124.49 337.388 124.244C337.13 123.992 336.901 123.682 336.702 123.312C336.509 122.943 336.354 122.516 336.236 122.029C336.119 121.537 336.061 120.975 336.061 120.342C336.061 119.562 336.172 118.862 336.395 118.241C336.617 117.614 336.913 117.084 337.282 116.65C337.657 116.217 338.091 115.883 338.583 115.648C339.081 115.414 339.603 115.297 340.147 115.297C340.64 115.297 341.073 115.35 341.448 115.455C341.829 115.561 342.16 115.701 342.441 115.877C342.723 116.053 342.96 116.258 343.153 116.492C343.347 116.721 343.502 116.964 343.619 117.222C343.742 117.474 343.833 117.731 343.892 117.995C343.956 118.259 343.997 118.511 344.015 118.751H342.503C342.421 118.112 342.198 117.611 341.835 117.248C341.478 116.885 340.974 116.703 340.323 116.703C339.878 116.703 339.488 116.794 339.154 116.976C338.826 117.157 338.551 117.412 338.328 117.74C338.111 118.062 337.947 118.455 337.836 118.918C337.73 119.375 337.678 119.879 337.678 120.43C337.678 121.051 337.736 121.587 337.854 122.038C337.971 122.483 338.138 122.853 338.354 123.146C338.571 123.433 338.835 123.646 339.146 123.787C339.462 123.922 339.819 123.989 340.218 123.989C340.499 123.989 340.766 123.939 341.018 123.84C341.27 123.734 341.495 123.585 341.694 123.392C341.894 123.192 342.063 122.949 342.204 122.662C342.345 122.375 342.444 122.05 342.503 121.687H344.015ZM353.015 121.687C352.991 121.915 352.944 122.164 352.874 122.434C352.81 122.703 352.713 122.973 352.584 123.242C352.455 123.506 352.288 123.761 352.083 124.007C351.884 124.253 351.638 124.473 351.345 124.666C351.058 124.854 350.718 125.003 350.325 125.114C349.933 125.231 349.484 125.29 348.98 125.29C348.705 125.29 348.415 125.255 348.11 125.185C347.806 125.12 347.507 125.009 347.214 124.851C346.927 124.692 346.651 124.49 346.388 124.244C346.13 123.992 345.901 123.682 345.702 123.312C345.509 122.943 345.354 122.516 345.236 122.029C345.119 121.537 345.061 120.975 345.061 120.342C345.061 119.562 345.172 118.862 345.395 118.241C345.617 117.614 345.913 117.084 346.282 116.65C346.657 116.217 347.091 115.883 347.583 115.648C348.081 115.414 348.603 115.297 349.147 115.297C349.64 115.297 350.073 115.35 350.448 115.455C350.829 115.561 351.16 115.701 351.441 115.877C351.723 116.053 351.96 116.258 352.153 116.492C352.347 116.721 352.502 116.964 352.619 117.222C352.742 117.474 352.833 117.731 352.892 117.995C352.956 118.259 352.997 118.511 353.015 118.751H351.503C351.421 118.112 351.198 117.611 350.835 117.248C350.478 116.885 349.974 116.703 349.323 116.703C348.878 116.703 348.488 116.794 348.154 116.976C347.826 117.157 347.551 117.412 347.328 117.74C347.111 118.062 346.947 118.455 346.836 118.918C346.73 119.375 346.678 119.879 346.678 120.43C346.678 121.051 346.736 121.587 346.854 122.038C346.971 122.483 347.138 122.853 347.354 123.146C347.571 123.433 347.835 123.646 348.146 123.787C348.462 123.922 348.819 123.989 349.218 123.989C349.499 123.989 349.766 123.939 350.018 123.84C350.27 123.734 350.495 123.585 350.694 123.392C350.894 123.192 351.063 122.949 351.204 122.662C351.345 122.375 351.444 122.05 351.503 121.687H353.015ZM362.63 121.994C362.565 122.404 362.425 122.806 362.208 123.198C361.991 123.591 361.707 123.942 361.355 124.253C361.004 124.563 360.588 124.812 360.107 125C359.633 125.193 359.105 125.29 358.525 125.29C357.893 125.29 357.307 125.188 356.768 124.982C356.234 124.771 355.771 124.458 355.379 124.042C354.992 123.62 354.688 123.093 354.465 122.46C354.242 121.827 354.131 121.083 354.131 120.228C354.131 119.653 354.192 119.135 354.315 118.672C354.444 118.203 354.614 117.787 354.825 117.424C355.042 117.055 355.291 116.738 355.572 116.475C355.854 116.205 356.149 115.985 356.46 115.815C356.776 115.64 357.099 115.511 357.427 115.429C357.755 115.341 358.071 115.297 358.376 115.297C359.021 115.297 359.609 115.394 360.143 115.587C360.676 115.78 361.133 116.076 361.514 116.475C361.9 116.867 362.199 117.362 362.41 117.96C362.627 118.552 362.735 119.249 362.735 120.052V120.86H355.854C355.859 121.317 355.924 121.733 356.047 122.108C356.17 122.478 356.346 122.794 356.574 123.058C356.803 123.321 357.078 123.526 357.4 123.673C357.729 123.813 358.098 123.884 358.508 123.884C358.924 123.884 359.275 123.825 359.562 123.708C359.85 123.591 360.09 123.441 360.283 123.26C360.477 123.078 360.632 122.876 360.749 122.653C360.872 122.431 360.975 122.211 361.057 121.994H362.63ZM361.109 119.568C361.098 119.111 361.027 118.704 360.898 118.347C360.775 117.989 360.6 117.69 360.371 117.45C360.148 117.204 359.879 117.02 359.562 116.896C359.246 116.768 358.895 116.703 358.508 116.703C358.139 116.703 357.799 116.776 357.488 116.923C357.178 117.063 356.905 117.263 356.671 117.521C356.437 117.772 356.249 118.074 356.108 118.426C355.968 118.771 355.883 119.152 355.854 119.568H361.109ZM364.546 115.587H366.163V116.879H366.198C366.304 116.662 366.436 116.457 366.594 116.264C366.758 116.07 366.951 115.903 367.174 115.763C367.402 115.616 367.663 115.502 367.956 115.42C368.255 115.338 368.595 115.297 368.976 115.297C369.479 115.297 369.963 115.394 370.426 115.587C370.889 115.78 371.299 116.07 371.656 116.457C372.014 116.844 372.298 117.33 372.509 117.916C372.72 118.496 372.825 119.173 372.825 119.946C372.825 120.913 372.726 121.736 372.526 122.416C372.333 123.09 372.055 123.641 371.691 124.068C371.334 124.496 370.9 124.807 370.391 125C369.881 125.193 369.312 125.29 368.686 125.29C368.375 125.29 368.085 125.249 367.815 125.167C367.546 125.085 367.303 124.979 367.086 124.851C366.875 124.716 366.693 124.569 366.541 124.411C366.389 124.247 366.274 124.089 366.198 123.937H366.163V128.709H364.546V115.587ZM366.128 120.342C366.128 120.852 366.178 121.323 366.277 121.757C366.377 122.185 366.529 122.557 366.734 122.873C366.945 123.189 367.206 123.438 367.517 123.62C367.833 123.796 368.205 123.884 368.633 123.884C369.078 123.884 369.462 123.796 369.784 123.62C370.112 123.438 370.382 123.189 370.593 122.873C370.804 122.557 370.959 122.185 371.059 121.757C371.158 121.323 371.208 120.852 371.208 120.342C371.208 119.809 371.158 119.319 371.059 118.874C370.959 118.429 370.804 118.045 370.593 117.723C370.382 117.4 370.112 117.151 369.784 116.976C369.462 116.794 369.078 116.703 368.633 116.703C368.205 116.703 367.833 116.794 367.517 116.976C367.206 117.151 366.945 117.4 366.734 117.723C366.529 118.045 366.377 118.429 366.277 118.874C366.178 119.319 366.128 119.809 366.128 120.342ZM374.214 119.173H378.626V120.799H374.214V119.173ZM386.659 116.993H382.265V125H380.647V115.587H388.285V125H386.659V116.993ZM397.241 120.28C397.241 119.759 397.183 119.281 397.065 118.848C396.948 118.408 396.772 118.03 396.538 117.714C396.304 117.397 396.014 117.151 395.668 116.976C395.328 116.794 394.933 116.703 394.481 116.703C394.03 116.703 393.635 116.794 393.295 116.976C392.955 117.151 392.668 117.397 392.434 117.714C392.199 118.03 392.023 118.408 391.906 118.848C391.789 119.281 391.73 119.759 391.73 120.28C391.73 120.808 391.789 121.294 391.906 121.739C392.023 122.179 392.199 122.557 392.434 122.873C392.668 123.189 392.955 123.438 393.295 123.62C393.635 123.796 394.03 123.884 394.481 123.884C394.933 123.884 395.328 123.796 395.668 123.62C396.014 123.438 396.304 123.189 396.538 122.873C396.772 122.557 396.948 122.179 397.065 121.739C397.183 121.294 397.241 120.808 397.241 120.28ZM398.858 120.28C398.858 121.054 398.759 121.751 398.56 122.372C398.36 122.987 398.073 123.512 397.698 123.945C397.323 124.379 396.863 124.713 396.318 124.947C395.779 125.176 395.167 125.29 394.481 125.29C393.796 125.29 393.184 125.176 392.645 124.947C392.105 124.713 391.648 124.379 391.273 123.945C390.898 123.512 390.611 122.987 390.412 122.372C390.213 121.751 390.113 121.054 390.113 120.28C390.113 119.519 390.213 118.83 390.412 118.215C390.611 117.6 390.898 117.075 391.273 116.642C391.648 116.208 392.105 115.877 392.645 115.648C393.184 115.414 393.796 115.297 394.481 115.297C395.167 115.297 395.779 115.414 396.318 115.648C396.863 115.877 397.323 116.208 397.698 116.642C398.073 117.075 398.36 117.6 398.56 118.215C398.759 118.83 398.858 119.519 398.858 120.28ZM408.087 121.687C408.063 121.915 408.017 122.164 407.946 122.434C407.882 122.703 407.785 122.973 407.656 123.242C407.527 123.506 407.36 123.761 407.155 124.007C406.956 124.253 406.71 124.473 406.417 124.666C406.13 124.854 405.79 125.003 405.397 125.114C405.005 125.231 404.557 125.29 404.053 125.29C403.777 125.29 403.487 125.255 403.183 125.185C402.878 125.12 402.579 125.009 402.286 124.851C401.999 124.692 401.724 124.49 401.46 124.244C401.202 123.992 400.974 123.682 400.774 123.312C400.581 122.943 400.426 122.516 400.309 122.029C400.191 121.537 400.133 120.975 400.133 120.342C400.133 119.562 400.244 118.862 400.467 118.241C400.689 117.614 400.985 117.084 401.354 116.65C401.729 116.217 402.163 115.883 402.655 115.648C403.153 115.414 403.675 115.297 404.22 115.297C404.712 115.297 405.146 115.35 405.521 115.455C405.901 115.561 406.232 115.701 406.514 115.877C406.795 116.053 407.032 116.258 407.226 116.492C407.419 116.721 407.574 116.964 407.691 117.222C407.814 117.474 407.905 117.731 407.964 117.995C408.028 118.259 408.069 118.511 408.087 118.751H406.575C406.493 118.112 406.271 117.611 405.907 117.248C405.55 116.885 405.046 116.703 404.396 116.703C403.95 116.703 403.561 116.794 403.227 116.976C402.898 117.157 402.623 117.412 402.4 117.74C402.184 118.062 402.02 118.455 401.908 118.918C401.803 119.375 401.75 119.879 401.75 120.43C401.75 121.051 401.809 121.587 401.926 122.038C402.043 122.483 402.21 122.853 402.427 123.146C402.644 123.433 402.907 123.646 403.218 123.787C403.534 123.922 403.892 123.989 404.29 123.989C404.571 123.989 404.838 123.939 405.09 123.84C405.342 123.734 405.567 123.585 405.767 123.392C405.966 123.192 406.136 122.949 406.276 122.662C406.417 122.375 406.517 122.05 406.575 121.687H408.087ZM412.191 116.993H408.948V115.587H417.052V116.993H413.809V125H412.191V116.993ZM418.669 118.408C418.687 117.834 418.795 117.351 418.994 116.958C419.193 116.56 419.463 116.237 419.803 115.991C420.143 115.745 420.544 115.569 421.007 115.464C421.476 115.353 421.985 115.297 422.536 115.297C422.993 115.297 423.436 115.344 423.863 115.438C424.297 115.531 424.681 115.684 425.015 115.895C425.349 116.1 425.615 116.369 425.814 116.703C426.02 117.031 426.122 117.433 426.122 117.907V123.383C426.122 123.535 426.163 123.667 426.245 123.778C426.327 123.884 426.459 123.937 426.641 123.937C426.723 123.937 426.808 123.931 426.896 123.919C426.983 123.901 427.074 123.884 427.168 123.866V124.982C427.033 125.018 426.898 125.05 426.764 125.079C426.635 125.108 426.479 125.123 426.298 125.123C426.017 125.123 425.773 125.1 425.568 125.053C425.369 125.006 425.199 124.93 425.059 124.824C424.924 124.713 424.818 124.572 424.742 124.402C424.666 124.227 424.616 124.013 424.593 123.761C424.394 123.978 424.183 124.18 423.96 124.367C423.737 124.549 423.488 124.71 423.213 124.851C422.938 124.985 422.63 125.091 422.29 125.167C421.95 125.249 421.566 125.29 421.139 125.29C420.775 125.29 420.421 125.231 420.075 125.114C419.735 124.997 419.428 124.824 419.152 124.596C418.883 124.367 418.666 124.086 418.502 123.752C418.338 123.412 418.256 123.02 418.256 122.574C418.256 122.088 418.338 121.669 418.502 121.317C418.666 120.96 418.88 120.664 419.144 120.43C419.407 120.189 419.709 120.005 420.049 119.876C420.389 119.747 420.734 119.662 421.086 119.621L423.731 119.296C423.983 119.267 424.18 119.17 424.32 119.006C424.467 118.836 424.54 118.566 424.54 118.197C424.54 117.629 424.353 117.222 423.978 116.976C423.608 116.724 423.075 116.598 422.378 116.598C421.663 116.598 421.13 116.75 420.778 117.055C420.427 117.354 420.228 117.805 420.181 118.408H418.669ZM424.505 120.21C424.376 120.304 424.215 120.383 424.021 120.447C423.834 120.506 423.626 120.556 423.397 120.597C423.169 120.638 422.926 120.676 422.668 120.711C422.41 120.74 422.152 120.772 421.895 120.808C421.602 120.849 421.332 120.907 421.086 120.983C420.84 121.06 420.626 121.159 420.444 121.282C420.263 121.405 420.122 121.555 420.022 121.73C419.923 121.9 419.873 122.103 419.873 122.337C419.873 122.606 419.914 122.844 419.996 123.049C420.084 123.254 420.201 123.427 420.348 123.567C420.5 123.708 420.682 123.813 420.893 123.884C421.104 123.954 421.335 123.989 421.587 123.989C421.745 123.989 421.927 123.972 422.132 123.937C422.337 123.896 422.548 123.837 422.765 123.761C422.981 123.685 423.192 123.588 423.397 123.471C423.608 123.348 423.796 123.201 423.96 123.031C424.124 122.861 424.256 122.668 424.355 122.451C424.455 122.234 424.505 121.991 424.505 121.722V120.21ZM428.706 115.587H430.323V119.384H434.718V115.587H436.344V125H434.718V120.79H430.323V125H428.706V115.587ZM445.3 120.28C445.3 119.759 445.241 119.281 445.124 118.848C445.007 118.408 444.831 118.03 444.597 117.714C444.362 117.397 444.072 117.151 443.727 116.976C443.387 116.794 442.991 116.703 442.54 116.703C442.089 116.703 441.693 116.794 441.354 116.976C441.014 117.151 440.727 117.397 440.492 117.714C440.258 118.03 440.082 118.408 439.965 118.848C439.848 119.281 439.789 119.759 439.789 120.28C439.789 120.808 439.848 121.294 439.965 121.739C440.082 122.179 440.258 122.557 440.492 122.873C440.727 123.189 441.014 123.438 441.354 123.62C441.693 123.796 442.089 123.884 442.54 123.884C442.991 123.884 443.387 123.796 443.727 123.62C444.072 123.438 444.362 123.189 444.597 122.873C444.831 122.557 445.007 122.179 445.124 121.739C445.241 121.294 445.3 120.808 445.3 120.28ZM446.917 120.28C446.917 121.054 446.817 121.751 446.618 122.372C446.419 122.987 446.132 123.512 445.757 123.945C445.382 124.379 444.922 124.713 444.377 124.947C443.838 125.176 443.226 125.29 442.54 125.29C441.854 125.29 441.242 125.176 440.703 124.947C440.164 124.713 439.707 124.379 439.332 123.945C438.957 123.512 438.67 122.987 438.471 122.372C438.271 121.751 438.172 121.054 438.172 120.28C438.172 119.519 438.271 118.83 438.471 118.215C438.67 117.6 438.957 117.075 439.332 116.642C439.707 116.208 440.164 115.877 440.703 115.648C441.242 115.414 441.854 115.297 442.54 115.297C443.226 115.297 443.838 115.414 444.377 115.648C444.922 115.877 445.382 116.208 445.757 116.642C446.132 117.075 446.419 117.6 446.618 118.215C446.817 118.83 446.917 119.519 446.917 120.28ZM448.745 115.587H452.753C453.901 115.587 454.76 115.801 455.328 116.229C455.902 116.656 456.189 117.277 456.189 118.092C456.189 118.525 456.084 118.892 455.873 119.19C455.662 119.489 455.384 119.753 455.038 119.981C455.536 120.169 455.932 120.438 456.225 120.79C456.518 121.142 456.664 121.596 456.664 122.152C456.664 122.592 456.591 122.987 456.444 123.339C456.298 123.69 456.075 123.989 455.776 124.235C455.478 124.481 455.097 124.672 454.634 124.807C454.177 124.936 453.635 125 453.008 125H448.745V115.587ZM450.362 123.708H452.823C453.251 123.708 453.605 123.676 453.887 123.611C454.174 123.541 454.402 123.441 454.572 123.312C454.742 123.184 454.862 123.028 454.933 122.847C455.003 122.665 455.038 122.46 455.038 122.231C455.038 122.003 455.003 121.798 454.933 121.616C454.862 121.429 454.742 121.273 454.572 121.15C454.402 121.021 454.174 120.925 453.887 120.86C453.605 120.79 453.251 120.755 452.823 120.755H450.362V123.708ZM450.362 119.568H452.806C453.351 119.568 453.781 119.46 454.098 119.243C454.414 119.026 454.572 118.689 454.572 118.232C454.572 117.975 454.528 117.761 454.44 117.591C454.353 117.415 454.235 117.274 454.089 117.169C453.942 117.063 453.775 116.99 453.588 116.949C453.406 116.902 453.219 116.879 453.025 116.879H450.362V119.568ZM469.892 125H458.606V115.587H460.224V123.594H463.616V115.587H465.233V123.594H468.617V115.587H470.234V123.594H471.403V127.303H469.892V125ZM472.88 115.587H474.497V122.803H474.532L479.155 115.587H481.01V125H479.384V117.784H479.349L474.734 125H472.88V115.587ZM483.392 115.587H485.009V120.14L489.764 115.587H491.882L487.461 119.744L491.952 125H489.869L486.195 120.729L485.009 121.722V125H483.392V115.587Z" fill="#E8E8E8"/>
<path d="M939.587 122.687C939.563 122.915 939.517 123.164 939.446 123.434C939.382 123.703 939.285 123.973 939.156 124.242C939.027 124.506 938.86 124.761 938.655 125.007C938.456 125.253 938.21 125.473 937.917 125.666C937.63 125.854 937.29 126.003 936.897 126.114C936.505 126.231 936.057 126.29 935.553 126.29C935.277 126.29 934.987 126.255 934.683 126.185C934.378 126.12 934.079 126.009 933.786 125.851C933.499 125.692 933.224 125.49 932.96 125.244C932.702 124.992 932.474 124.682 932.274 124.312C932.081 123.943 931.926 123.516 931.809 123.029C931.691 122.537 931.633 121.975 931.633 121.342C931.633 120.562 931.744 119.862 931.967 119.241C932.189 118.614 932.485 118.084 932.854 117.65C933.229 117.217 933.663 116.883 934.155 116.648C934.653 116.414 935.175 116.297 935.72 116.297C936.212 116.297 936.646 116.35 937.021 116.455C937.401 116.561 937.732 116.701 938.014 116.877C938.295 117.053 938.532 117.258 938.726 117.492C938.919 117.721 939.074 117.964 939.191 118.222C939.314 118.474 939.405 118.731 939.464 118.995C939.528 119.259 939.569 119.511 939.587 119.751H938.075C937.993 119.112 937.771 118.611 937.407 118.248C937.05 117.885 936.546 117.703 935.896 117.703C935.45 117.703 935.061 117.794 934.727 117.976C934.398 118.157 934.123 118.412 933.9 118.74C933.684 119.062 933.52 119.455 933.408 119.918C933.303 120.375 933.25 120.879 933.25 121.43C933.25 122.051 933.309 122.587 933.426 123.038C933.543 123.483 933.71 123.853 933.927 124.146C934.144 124.433 934.407 124.646 934.718 124.787C935.034 124.922 935.392 124.989 935.79 124.989C936.071 124.989 936.338 124.939 936.59 124.84C936.842 124.734 937.067 124.585 937.267 124.392C937.466 124.192 937.636 123.949 937.776 123.662C937.917 123.375 938.017 123.05 938.075 122.687H939.587ZM943.691 117.993H940.448V116.587H948.552V117.993H945.309V126H943.691V117.993ZM950.169 119.408C950.187 118.834 950.295 118.351 950.494 117.958C950.693 117.56 950.963 117.237 951.303 116.991C951.643 116.745 952.044 116.569 952.507 116.464C952.976 116.353 953.485 116.297 954.036 116.297C954.493 116.297 954.936 116.344 955.363 116.438C955.797 116.531 956.181 116.684 956.515 116.895C956.849 117.1 957.115 117.369 957.314 117.703C957.52 118.031 957.622 118.433 957.622 118.907V124.383C957.622 124.535 957.663 124.667 957.745 124.778C957.827 124.884 957.959 124.937 958.141 124.937C958.223 124.937 958.308 124.931 958.396 124.919C958.483 124.901 958.574 124.884 958.668 124.866V125.982C958.533 126.018 958.398 126.05 958.264 126.079C958.135 126.108 957.979 126.123 957.798 126.123C957.517 126.123 957.273 126.1 957.068 126.053C956.869 126.006 956.699 125.93 956.559 125.824C956.424 125.713 956.318 125.572 956.242 125.402C956.166 125.227 956.116 125.013 956.093 124.761C955.894 124.978 955.683 125.18 955.46 125.367C955.237 125.549 954.988 125.71 954.713 125.851C954.438 125.985 954.13 126.091 953.79 126.167C953.45 126.249 953.066 126.29 952.639 126.29C952.275 126.29 951.921 126.231 951.575 126.114C951.235 125.997 950.928 125.824 950.652 125.596C950.383 125.367 950.166 125.086 950.002 124.752C949.838 124.412 949.756 124.02 949.756 123.574C949.756 123.088 949.838 122.669 950.002 122.317C950.166 121.96 950.38 121.664 950.644 121.43C950.907 121.189 951.209 121.005 951.549 120.876C951.889 120.747 952.234 120.662 952.586 120.621L955.231 120.296C955.483 120.267 955.68 120.17 955.82 120.006C955.967 119.836 956.04 119.566 956.04 119.197C956.04 118.629 955.853 118.222 955.478 117.976C955.108 117.724 954.575 117.598 953.878 117.598C953.163 117.598 952.63 117.75 952.278 118.055C951.927 118.354 951.728 118.805 951.681 119.408H950.169ZM956.005 121.21C955.876 121.304 955.715 121.383 955.521 121.447C955.334 121.506 955.126 121.556 954.897 121.597C954.669 121.638 954.426 121.676 954.168 121.711C953.91 121.74 953.652 121.772 953.395 121.808C953.102 121.849 952.832 121.907 952.586 121.983C952.34 122.06 952.126 122.159 951.944 122.282C951.763 122.405 951.622 122.555 951.522 122.73C951.423 122.9 951.373 123.103 951.373 123.337C951.373 123.606 951.414 123.844 951.496 124.049C951.584 124.254 951.701 124.427 951.848 124.567C952 124.708 952.182 124.813 952.393 124.884C952.604 124.954 952.835 124.989 953.087 124.989C953.245 124.989 953.427 124.972 953.632 124.937C953.837 124.896 954.048 124.837 954.265 124.761C954.481 124.685 954.692 124.588 954.897 124.471C955.108 124.348 955.296 124.201 955.46 124.031C955.624 123.861 955.756 123.668 955.855 123.451C955.955 123.234 956.005 122.991 956.005 122.722V121.21ZM966.868 120.437H967.686L970.771 116.587H972.722L969.021 121.052L972.862 126H970.867L967.686 121.72H966.868V126H965.251V121.72H964.425L961.217 126H959.222L963.098 121.052L959.415 116.587H961.375L964.425 120.437H965.251V116.587H966.868V120.437ZM979.173 116.587H980.79V117.879H980.825C980.931 117.662 981.062 117.457 981.221 117.264C981.385 117.07 981.578 116.903 981.801 116.763C982.029 116.616 982.29 116.502 982.583 116.42C982.882 116.338 983.222 116.297 983.603 116.297C984.106 116.297 984.59 116.394 985.053 116.587C985.516 116.78 985.926 117.07 986.283 117.457C986.641 117.844 986.925 118.33 987.136 118.916C987.347 119.496 987.452 120.173 987.452 120.946C987.452 121.913 987.353 122.736 987.153 123.416C986.96 124.09 986.682 124.641 986.318 125.068C985.961 125.496 985.527 125.807 985.018 126C984.508 126.193 983.939 126.29 983.312 126.29C983.002 126.29 982.712 126.249 982.442 126.167C982.173 126.085 981.93 125.979 981.713 125.851C981.502 125.716 981.32 125.569 981.168 125.411C981.016 125.247 980.901 125.089 980.825 124.937H980.79V129.709H979.173V116.587ZM980.755 121.342C980.755 121.852 980.805 122.323 980.904 122.757C981.004 123.185 981.156 123.557 981.361 123.873C981.572 124.189 981.833 124.438 982.144 124.62C982.46 124.796 982.832 124.884 983.26 124.884C983.705 124.884 984.089 124.796 984.411 124.62C984.739 124.438 985.009 124.189 985.22 123.873C985.431 123.557 985.586 123.185 985.686 122.757C985.785 122.323 985.835 121.852 985.835 121.342C985.835 120.809 985.785 120.319 985.686 119.874C985.586 119.429 985.431 119.045 985.22 118.723C985.009 118.4 984.739 118.151 984.411 117.976C984.089 117.794 983.705 117.703 983.26 117.703C982.832 117.703 982.46 117.794 982.144 117.976C981.833 118.151 981.572 118.4 981.361 118.723C981.156 119.045 981.004 119.429 980.904 119.874C980.805 120.319 980.755 120.809 980.755 121.342ZM989.263 119.408C989.28 118.834 989.389 118.351 989.588 117.958C989.787 117.56 990.057 117.237 990.396 116.991C990.736 116.745 991.138 116.569 991.601 116.464C992.069 116.353 992.579 116.297 993.13 116.297C993.587 116.297 994.029 116.344 994.457 116.438C994.891 116.531 995.274 116.684 995.608 116.895C995.942 117.1 996.209 117.369 996.408 117.703C996.613 118.031 996.716 118.433 996.716 118.907V124.383C996.716 124.535 996.757 124.667 996.839 124.778C996.921 124.884 997.053 124.937 997.234 124.937C997.316 124.937 997.401 124.931 997.489 124.919C997.577 124.901 997.668 124.884 997.762 124.866V125.982C997.627 126.018 997.492 126.05 997.357 126.079C997.229 126.108 997.073 126.123 996.892 126.123C996.61 126.123 996.367 126.1 996.162 126.053C995.963 126.006 995.793 125.93 995.652 125.824C995.518 125.713 995.412 125.572 995.336 125.402C995.26 125.227 995.21 125.013 995.187 124.761C994.987 124.978 994.776 125.18 994.554 125.367C994.331 125.549 994.082 125.71 993.807 125.851C993.531 125.985 993.224 126.091 992.884 126.167C992.544 126.249 992.16 126.29 991.732 126.29C991.369 126.29 991.015 126.231 990.669 126.114C990.329 125.997 990.021 125.824 989.746 125.596C989.477 125.367 989.26 125.086 989.096 124.752C988.932 124.412 988.85 124.02 988.85 123.574C988.85 123.088 988.932 122.669 989.096 122.317C989.26 121.96 989.474 121.664 989.737 121.43C990.001 121.189 990.303 121.005 990.643 120.876C990.982 120.747 991.328 120.662 991.68 120.621L994.325 120.296C994.577 120.267 994.773 120.17 994.914 120.006C995.061 119.836 995.134 119.566 995.134 119.197C995.134 118.629 994.946 118.222 994.571 117.976C994.202 117.724 993.669 117.598 992.972 117.598C992.257 117.598 991.724 117.75 991.372 118.055C991.021 118.354 990.821 118.805 990.774 119.408H989.263ZM995.099 121.21C994.97 121.304 994.809 121.383 994.615 121.447C994.428 121.506 994.22 121.556 993.991 121.597C993.763 121.638 993.52 121.676 993.262 121.711C993.004 121.74 992.746 121.772 992.488 121.808C992.195 121.849 991.926 121.907 991.68 121.983C991.434 122.06 991.22 122.159 991.038 122.282C990.856 122.405 990.716 122.555 990.616 122.73C990.517 122.9 990.467 123.103 990.467 123.337C990.467 123.606 990.508 123.844 990.59 124.049C990.678 124.254 990.795 124.427 990.941 124.567C991.094 124.708 991.275 124.813 991.486 124.884C991.697 124.954 991.929 124.989 992.181 124.989C992.339 124.989 992.521 124.972 992.726 124.937C992.931 124.896 993.142 124.837 993.358 124.761C993.575 124.685 993.786 124.588 993.991 124.471C994.202 124.348 994.39 124.201 994.554 124.031C994.718 123.861 994.85 123.668 994.949 123.451C995.049 123.234 995.099 122.991 995.099 122.722V121.21ZM1006.61 112.966C1006.6 113.054 1006.58 113.162 1006.56 113.291C1006.54 113.414 1006.5 113.546 1006.45 113.687C1006.39 113.827 1006.3 113.971 1006.2 114.117C1006.1 114.258 1005.96 114.39 1005.79 114.513C1005.7 114.577 1005.62 114.633 1005.54 114.68C1005.46 114.727 1005.37 114.768 1005.25 114.803C1005.13 114.838 1004.98 114.867 1004.8 114.891C1004.62 114.914 1004.38 114.929 1004.07 114.935L1003.4 114.952C1002.95 114.964 1002.53 115.058 1002.17 115.233C1001.8 115.403 1001.48 115.644 1001.2 115.954C1000.92 116.259 1000.69 116.628 1000.51 117.062C1000.33 117.495 1000.2 117.979 1000.11 118.512C1000.23 118.277 1000.38 118.049 1000.57 117.826C1000.75 117.598 1000.97 117.396 1001.24 117.22C1001.51 117.038 1001.83 116.895 1002.19 116.789C1002.55 116.678 1002.98 116.622 1003.46 116.622C1004 116.622 1004.52 116.719 1005 116.912C1005.5 117.105 1005.92 117.396 1006.29 117.782C1006.66 118.169 1006.95 118.649 1007.17 119.224C1007.38 119.798 1007.49 120.466 1007.49 121.228C1007.49 121.468 1007.47 121.761 1007.44 122.106C1007.4 122.446 1007.33 122.804 1007.23 123.179C1007.12 123.554 1006.97 123.929 1006.77 124.304C1006.58 124.673 1006.32 125.004 1005.99 125.297C1005.67 125.59 1005.27 125.827 1004.8 126.009C1004.34 126.196 1003.78 126.29 1003.13 126.29C1002.86 126.29 1002.58 126.267 1002.27 126.22C1001.97 126.179 1001.67 126.1 1001.37 125.982C1001.07 125.865 1000.77 125.701 1000.49 125.49C1000.21 125.279 999.947 125.01 999.713 124.682C999.596 124.518 999.479 124.33 999.361 124.119C999.25 123.902 999.147 123.642 999.054 123.337C998.96 123.032 998.884 122.672 998.825 122.256C998.772 121.84 998.746 121.348 998.746 120.779C998.746 120.404 998.764 119.979 998.799 119.505C998.834 119.03 998.896 118.547 998.983 118.055C999.071 117.562 999.188 117.088 999.335 116.631C999.481 116.168 999.669 115.764 999.897 115.418C1000.14 115.043 1000.4 114.738 1000.67 114.504C1000.94 114.27 1001.23 114.085 1001.53 113.95C1001.84 113.815 1002.17 113.719 1002.52 113.66C1002.87 113.602 1003.25 113.563 1003.66 113.546L1004.23 113.528C1004.42 113.522 1004.58 113.514 1004.71 113.502C1004.84 113.484 1004.95 113.458 1005.04 113.423C1005.13 113.388 1005.2 113.335 1005.25 113.265C1005.3 113.194 1005.35 113.095 1005.38 112.966H1006.61ZM1000.36 121.465C1000.36 121.641 1000.37 121.849 1000.39 122.089C1000.41 122.329 1000.46 122.581 1000.52 122.845C1000.59 123.103 1000.68 123.36 1000.8 123.618C1000.93 123.876 1001.09 124.107 1001.29 124.312C1001.49 124.512 1001.74 124.676 1002.04 124.805C1002.34 124.928 1002.7 124.989 1003.11 124.989C1003.58 124.989 1003.97 124.916 1004.28 124.77C1004.6 124.617 1004.86 124.424 1005.07 124.189C1005.27 123.949 1005.43 123.686 1005.53 123.398C1005.64 123.111 1005.72 122.833 1005.77 122.563C1005.82 122.288 1005.85 122.039 1005.86 121.816C1005.87 121.588 1005.87 121.415 1005.87 121.298C1005.87 120.87 1005.82 120.451 1005.72 120.041C1005.63 119.631 1005.48 119.268 1005.26 118.951C1005.05 118.635 1004.77 118.38 1004.42 118.187C1004.08 117.993 1003.67 117.896 1003.17 117.896C1002.68 117.896 1002.26 117.993 1001.91 118.187C1001.56 118.374 1001.27 118.632 1001.04 118.96C1000.81 119.282 1000.64 119.66 1000.53 120.094C1000.42 120.521 1000.36 120.979 1000.36 121.465ZM1015.89 121.28C1015.89 120.759 1015.83 120.281 1015.72 119.848C1015.6 119.408 1015.42 119.03 1015.19 118.714C1014.96 118.397 1014.67 118.151 1014.32 117.976C1013.98 117.794 1013.58 117.703 1013.13 117.703C1012.68 117.703 1012.29 117.794 1011.95 117.976C1011.61 118.151 1011.32 118.397 1011.09 118.714C1010.85 119.03 1010.68 119.408 1010.56 119.848C1010.44 120.281 1010.38 120.759 1010.38 121.28C1010.38 121.808 1010.44 122.294 1010.56 122.739C1010.68 123.179 1010.85 123.557 1011.09 123.873C1011.32 124.189 1011.61 124.438 1011.95 124.62C1012.29 124.796 1012.68 124.884 1013.13 124.884C1013.58 124.884 1013.98 124.796 1014.32 124.62C1014.67 124.438 1014.96 124.189 1015.19 123.873C1015.42 123.557 1015.6 123.179 1015.72 122.739C1015.83 122.294 1015.89 121.808 1015.89 121.28ZM1017.51 121.28C1017.51 122.054 1017.41 122.751 1017.21 123.372C1017.01 123.987 1016.73 124.512 1016.35 124.945C1015.98 125.379 1015.52 125.713 1014.97 125.947C1014.43 126.176 1013.82 126.29 1013.13 126.29C1012.45 126.29 1011.84 126.176 1011.3 125.947C1010.76 125.713 1010.3 125.379 1009.93 124.945C1009.55 124.512 1009.26 123.987 1009.06 123.372C1008.87 122.751 1008.77 122.054 1008.77 121.28C1008.77 120.519 1008.87 119.83 1009.06 119.215C1009.26 118.6 1009.55 118.075 1009.93 117.642C1010.3 117.208 1010.76 116.877 1011.3 116.648C1011.84 116.414 1012.45 116.297 1013.13 116.297C1013.82 116.297 1014.43 116.414 1014.97 116.648C1015.52 116.877 1015.98 117.208 1016.35 117.642C1016.73 118.075 1017.01 118.6 1017.21 119.215C1017.41 119.83 1017.51 120.519 1017.51 121.28ZM1021.84 117.993H1018.6V116.587H1026.7V117.993H1023.46V126H1021.84V117.993ZM1037.34 116.587H1038.96V126H1037.34V116.587ZM1028.34 116.587H1029.96V120.129H1032.79C1033.3 120.129 1033.75 120.199 1034.16 120.34C1034.57 120.475 1034.91 120.671 1035.19 120.929C1035.48 121.181 1035.69 121.488 1035.84 121.852C1035.99 122.209 1036.06 122.613 1036.06 123.064C1036.06 123.521 1035.99 123.932 1035.84 124.295C1035.69 124.652 1035.48 124.96 1035.19 125.218C1034.91 125.47 1034.57 125.663 1034.16 125.798C1033.75 125.933 1033.3 126 1032.79 126H1028.34V116.587ZM1029.96 124.708H1032.46C1032.74 124.708 1033 124.679 1033.24 124.62C1033.49 124.562 1033.7 124.468 1033.88 124.339C1034.05 124.204 1034.19 124.034 1034.29 123.829C1034.39 123.618 1034.44 123.363 1034.44 123.064C1034.44 122.771 1034.39 122.522 1034.28 122.317C1034.18 122.112 1034.04 121.945 1033.85 121.816C1033.67 121.682 1033.45 121.585 1033.18 121.526C1032.92 121.462 1032.64 121.43 1032.32 121.43H1029.96V124.708Z" fill="#E8E8E8"/>
</svg>
