<svg width="341" height="482" viewBox="0 0 341 482" fill="none" xmlns="http://www.w3.org/2000/svg">
<rect x="0.5" y="0.5" width="340" height="481" fill="white"/>
<rect x="0.5" y="0.5" width="340" height="481" stroke="#212121"/>
<path d="M105.795 241.884L108.322 239.921V241.329L106.632 242.627L108.322 243.926V245.334L105.795 243.37V241.884ZM102.518 241.884L105.036 239.921V241.329L103.355 242.627L105.036 243.926V245.334L102.518 243.37V241.884ZM115.218 243.621C114.905 243.704 114.561 243.775 114.185 243.832C113.815 243.889 113.468 243.918 113.145 243.918C112.024 243.918 111.192 243.704 110.65 243.277C110.107 242.844 109.836 242.163 109.836 241.235V238.622H111.275V240.946C111.275 241.258 111.312 241.53 111.385 241.759C111.463 241.989 111.588 242.179 111.76 242.33C111.932 242.476 112.159 242.586 112.441 242.659C112.722 242.732 113.069 242.768 113.481 242.768C113.591 242.768 113.721 242.758 113.872 242.737C114.029 242.716 114.188 242.69 114.349 242.659C114.511 242.627 114.668 242.593 114.819 242.557C114.975 242.515 115.108 242.474 115.218 242.432V238.622H116.665V247H115.218V243.621ZM117.115 238.622H118.696L120.925 245.443H120.956L123.186 238.622H124.766L121.566 247.336C121.405 247.774 121.256 248.155 121.12 248.478C120.985 248.802 120.852 249.076 120.721 249.3C120.591 249.529 120.458 249.714 120.323 249.855C120.192 249.996 120.046 250.105 119.885 250.184C119.728 250.267 119.551 250.322 119.353 250.348C119.16 250.379 118.935 250.395 118.68 250.395C118.471 250.395 118.307 250.384 118.187 250.364C118.072 250.348 117.971 250.327 117.882 250.301V249.003C117.976 249.034 118.098 249.065 118.25 249.096C118.401 249.128 118.56 249.143 118.727 249.143C118.993 249.143 119.207 249.078 119.368 248.948C119.535 248.823 119.663 248.643 119.752 248.408L120.221 247.227L117.115 238.622ZM125.201 238.622H128.767C129.79 238.622 130.554 238.813 131.059 239.193C131.57 239.574 131.826 240.127 131.826 240.852C131.826 241.238 131.732 241.564 131.544 241.829C131.357 242.095 131.109 242.33 130.801 242.533C131.245 242.7 131.597 242.94 131.857 243.253C132.118 243.566 132.248 243.97 132.248 244.466C132.248 244.857 132.183 245.209 132.053 245.522C131.922 245.834 131.724 246.1 131.458 246.319C131.192 246.538 130.853 246.708 130.441 246.828C130.035 246.943 129.552 247 128.994 247H125.201V238.622ZM126.64 245.85H128.83C129.211 245.85 129.526 245.821 129.777 245.764C130.032 245.702 130.235 245.613 130.387 245.498C130.538 245.383 130.645 245.245 130.707 245.084C130.77 244.922 130.801 244.739 130.801 244.536C130.801 244.333 130.77 244.15 130.707 243.988C130.645 243.822 130.538 243.683 130.387 243.574C130.235 243.459 130.032 243.373 129.777 243.316C129.526 243.253 129.211 243.222 128.83 243.222H126.64V245.85ZM126.64 242.166H128.814C129.299 242.166 129.683 242.069 129.964 241.876C130.246 241.683 130.387 241.384 130.387 240.977C130.387 240.747 130.348 240.557 130.269 240.406C130.191 240.249 130.087 240.124 129.956 240.03C129.826 239.936 129.677 239.871 129.511 239.835C129.349 239.793 129.182 239.772 129.01 239.772H126.64V242.166ZM139.762 244.051C139.742 244.254 139.7 244.476 139.637 244.716C139.58 244.956 139.494 245.196 139.379 245.436C139.264 245.67 139.116 245.897 138.933 246.116C138.756 246.335 138.537 246.531 138.276 246.703C138.021 246.87 137.718 247.003 137.369 247.102C137.019 247.206 136.621 247.258 136.172 247.258C135.927 247.258 135.669 247.227 135.398 247.164C135.126 247.107 134.861 247.008 134.6 246.867C134.344 246.726 134.099 246.546 133.864 246.327C133.635 246.103 133.432 245.827 133.254 245.498C133.082 245.17 132.944 244.789 132.84 244.356C132.735 243.918 132.683 243.417 132.683 242.854C132.683 242.161 132.782 241.537 132.981 240.985C133.179 240.427 133.442 239.955 133.771 239.569C134.104 239.183 134.49 238.886 134.928 238.677C135.372 238.469 135.836 238.364 136.321 238.364C136.759 238.364 137.145 238.411 137.478 238.505C137.817 238.599 138.112 238.724 138.362 238.88C138.613 239.037 138.824 239.219 138.996 239.428C139.168 239.631 139.306 239.848 139.41 240.077C139.52 240.302 139.601 240.531 139.653 240.766C139.71 241 139.747 241.225 139.762 241.438H138.417C138.344 240.87 138.146 240.424 137.823 240.101C137.504 239.777 137.056 239.616 136.477 239.616C136.081 239.616 135.734 239.697 135.437 239.858C135.145 240.02 134.9 240.247 134.701 240.539C134.509 240.826 134.362 241.175 134.263 241.587C134.17 241.994 134.123 242.442 134.123 242.932C134.123 243.485 134.175 243.962 134.279 244.364C134.383 244.76 134.532 245.089 134.725 245.35C134.918 245.605 135.153 245.795 135.429 245.921C135.711 246.04 136.029 246.1 136.383 246.1C136.634 246.1 136.871 246.056 137.095 245.967C137.319 245.874 137.52 245.741 137.697 245.569C137.875 245.391 138.026 245.175 138.151 244.919C138.276 244.664 138.365 244.374 138.417 244.051H139.762ZM142.614 239.874H139.728V238.622H146.94V239.874H144.054V247H142.614V239.874ZM147.594 238.622H151.161C152.183 238.622 152.947 238.813 153.453 239.193C153.964 239.574 154.22 240.127 154.22 240.852C154.22 241.238 154.126 241.564 153.938 241.829C153.75 242.095 153.503 242.33 153.195 242.533C153.638 242.7 153.99 242.94 154.251 243.253C154.512 243.566 154.642 243.97 154.642 244.466C154.642 244.857 154.577 245.209 154.446 245.522C154.316 245.834 154.118 246.1 153.852 246.319C153.586 246.538 153.247 246.708 152.835 246.828C152.428 246.943 151.946 247 151.388 247H147.594V238.622ZM149.033 245.85H151.224C151.604 245.85 151.92 245.821 152.17 245.764C152.426 245.702 152.629 245.613 152.78 245.498C152.932 245.383 153.038 245.245 153.101 245.084C153.164 244.922 153.195 244.739 153.195 244.536C153.195 244.333 153.164 244.15 153.101 243.988C153.038 243.822 152.932 243.683 152.78 243.574C152.629 243.459 152.426 243.373 152.17 243.316C151.92 243.253 151.604 243.222 151.224 243.222H149.033V245.85ZM149.033 242.166H151.208C151.693 242.166 152.076 242.069 152.358 241.876C152.639 241.683 152.78 241.384 152.78 240.977C152.78 240.747 152.741 240.557 152.663 240.406C152.585 240.249 152.48 240.124 152.35 240.03C152.22 239.936 152.071 239.871 151.904 239.835C151.743 239.793 151.576 239.772 151.404 239.772H149.033V242.166ZM155.554 241.133C155.57 240.622 155.666 240.192 155.843 239.843C156.021 239.488 156.261 239.201 156.563 238.982C156.866 238.763 157.223 238.607 157.635 238.513C158.052 238.414 158.506 238.364 158.996 238.364C159.403 238.364 159.796 238.406 160.177 238.489C160.563 238.573 160.904 238.708 161.202 238.896C161.499 239.079 161.736 239.319 161.914 239.616C162.096 239.908 162.187 240.265 162.187 240.687V245.561C162.187 245.696 162.224 245.814 162.297 245.913C162.37 246.007 162.487 246.054 162.649 246.054C162.722 246.054 162.797 246.048 162.876 246.038C162.954 246.022 163.035 246.007 163.118 245.991V246.984C162.998 247.016 162.878 247.044 162.758 247.07C162.644 247.096 162.505 247.11 162.344 247.11C162.093 247.11 161.877 247.089 161.695 247.047C161.517 247.005 161.366 246.937 161.241 246.844C161.121 246.744 161.027 246.619 160.959 246.468C160.891 246.312 160.847 246.121 160.826 245.897C160.649 246.09 160.461 246.27 160.263 246.437C160.065 246.598 159.843 246.742 159.598 246.867C159.353 246.987 159.079 247.081 158.777 247.149C158.474 247.222 158.133 247.258 157.752 247.258C157.429 247.258 157.113 247.206 156.806 247.102C156.503 246.997 156.229 246.844 155.984 246.64C155.744 246.437 155.551 246.186 155.405 245.889C155.259 245.587 155.186 245.237 155.186 244.841C155.186 244.408 155.259 244.035 155.405 243.722C155.551 243.404 155.742 243.141 155.976 242.932C156.211 242.719 156.48 242.554 156.782 242.44C157.085 242.325 157.392 242.249 157.705 242.213L160.06 241.923C160.284 241.897 160.459 241.811 160.584 241.665C160.714 241.514 160.779 241.274 160.779 240.946C160.779 240.44 160.612 240.077 160.279 239.858C159.95 239.634 159.476 239.522 158.855 239.522C158.219 239.522 157.744 239.657 157.431 239.929C157.119 240.195 156.941 240.596 156.899 241.133H155.554ZM160.748 242.737C160.633 242.82 160.49 242.891 160.318 242.948C160.151 243 159.966 243.045 159.762 243.081C159.559 243.118 159.343 243.151 159.113 243.183C158.884 243.209 158.654 243.237 158.425 243.269C158.164 243.305 157.924 243.357 157.705 243.425C157.486 243.493 157.296 243.582 157.134 243.691C156.972 243.801 156.847 243.934 156.759 244.09C156.67 244.241 156.626 244.421 156.626 244.63C156.626 244.87 156.662 245.081 156.735 245.263C156.813 245.446 156.918 245.6 157.048 245.725C157.184 245.85 157.345 245.944 157.533 246.007C157.721 246.069 157.927 246.1 158.151 246.1C158.292 246.1 158.454 246.085 158.636 246.054C158.819 246.017 159.006 245.965 159.199 245.897C159.392 245.829 159.58 245.743 159.762 245.639C159.95 245.529 160.117 245.399 160.263 245.248C160.409 245.097 160.526 244.924 160.615 244.732C160.704 244.539 160.748 244.322 160.748 244.082V242.737ZM167.344 238.622H168.783V245.044H168.814L172.929 238.622H174.579V247H173.132V240.578H173.101L168.994 247H167.344V238.622ZM181.684 242.275H184.57C184.513 241.431 184.296 240.776 183.921 240.312C183.545 239.848 183.019 239.616 182.341 239.616C182.028 239.616 181.754 239.663 181.519 239.757C181.29 239.85 181.094 239.973 180.933 240.124C180.776 240.275 180.648 240.45 180.549 240.648C180.455 240.846 180.385 241.047 180.338 241.251H178.961C179.029 240.75 179.175 240.32 179.399 239.96C179.624 239.595 179.892 239.295 180.205 239.06C180.523 238.821 180.87 238.646 181.246 238.536C181.621 238.422 181.996 238.364 182.372 238.364C182.972 238.364 183.504 238.474 183.968 238.693C184.432 238.907 184.82 239.209 185.133 239.6C185.451 239.991 185.691 240.458 185.853 241C186.02 241.543 186.103 242.137 186.103 242.784C186.103 243.446 186.02 244.051 185.853 244.599C185.691 245.146 185.451 245.618 185.133 246.014C184.82 246.406 184.432 246.711 183.968 246.93C183.504 247.149 182.972 247.258 182.372 247.258C181.934 247.258 181.522 247.198 181.136 247.078C180.755 246.958 180.414 246.776 180.111 246.531C179.814 246.286 179.558 245.975 179.345 245.6C179.131 245.219 178.972 244.773 178.868 244.262H180.338C180.364 244.518 180.432 244.752 180.541 244.966C180.651 245.18 180.792 245.365 180.964 245.522C181.141 245.673 181.345 245.793 181.574 245.881C181.809 245.965 182.059 246.007 182.325 246.007C182.706 246.007 183.037 245.928 183.318 245.772C183.6 245.61 183.832 245.404 184.015 245.154C184.197 244.904 184.333 244.627 184.421 244.325C184.515 244.017 184.565 243.717 184.57 243.425H181.684V242.275ZM186.921 238.622H189.018L191.231 245.49H191.263L193.508 238.622H195.479V247H194.133V240.257H194.102L191.888 247H190.512L188.298 240.257H188.267V247H186.921V238.622ZM202.641 242.799C202.641 242.335 202.589 241.91 202.485 241.524C202.38 241.133 202.224 240.797 202.015 240.515C201.807 240.234 201.548 240.015 201.241 239.858C200.938 239.697 200.586 239.616 200.185 239.616C199.783 239.616 199.431 239.697 199.129 239.858C198.826 240.015 198.571 240.234 198.362 240.515C198.154 240.797 197.997 241.133 197.893 241.524C197.789 241.91 197.736 242.335 197.736 242.799C197.736 243.269 197.789 243.702 197.893 244.098C197.997 244.489 198.154 244.825 198.362 245.107C198.571 245.389 198.826 245.61 199.129 245.772C199.431 245.928 199.783 246.007 200.185 246.007C200.586 246.007 200.938 245.928 201.241 245.772C201.548 245.61 201.807 245.389 202.015 245.107C202.224 244.825 202.38 244.489 202.485 244.098C202.589 243.702 202.641 243.269 202.641 242.799ZM204.08 242.799C204.08 243.488 203.992 244.108 203.814 244.661C203.637 245.209 203.381 245.675 203.048 246.061C202.714 246.447 202.305 246.744 201.82 246.953C201.34 247.156 200.795 247.258 200.185 247.258C199.575 247.258 199.03 247.156 198.55 246.953C198.07 246.744 197.663 246.447 197.33 246.061C196.996 245.675 196.74 245.209 196.563 244.661C196.386 244.108 196.297 243.488 196.297 242.799C196.297 242.122 196.386 241.509 196.563 240.961C196.74 240.414 196.996 239.947 197.33 239.561C197.663 239.175 198.07 238.88 198.55 238.677C199.03 238.469 199.575 238.364 200.185 238.364C200.795 238.364 201.34 238.469 201.82 238.677C202.305 238.88 202.714 239.175 203.048 239.561C203.381 239.947 203.637 240.414 203.814 240.961C203.992 241.509 204.08 242.122 204.08 242.799ZM204.906 238.622H206.346V245.748H210.257V238.622H211.704V245.748H212.736V249.049H211.391V247H204.906V238.622ZM213.257 238.622H214.697V245.044H214.728L218.842 238.622H220.493V247H219.046V240.578H219.015L214.908 247H213.257V238.622ZM221.812 238.622H223.251V245.044H223.282L227.397 238.622H229.047V247H227.6V240.578H227.569L223.462 247H221.812V238.622ZM234.105 243.926L235.756 242.627L234.105 241.329V239.921L236.632 241.884V243.37L234.105 245.334V243.926ZM230.828 243.926L232.478 242.627L230.828 241.329V239.921L233.346 241.884V243.37L230.828 245.334V243.926Z" fill="#212121"/>
<rect x="90" y="211" width="160" height="60" stroke="#212121" stroke-width="2"/>
<rect x="116" y="378" width="172" height="83" stroke="#212121" stroke-width="2"/>
<rect x="226" y="163" width="82" height="259" stroke="#212121" stroke-width="2"/>
<rect x="33" y="21" width="217" height="98" stroke="#212121" stroke-width="2"/>
<rect x="33" y="294" width="100" height="144" stroke="#212121" stroke-width="2"/>
<rect x="43" y="63" width="166" height="125" stroke="#212121" stroke-width="2"/>
<path d="M200.053 79.5537V78.8125C200.751 78.7445 201.238 78.6317 201.514 78.4741C201.789 78.313 201.995 77.9352 202.131 77.3408H202.894V85H201.863V79.5537H200.053ZM210.325 77.4375V78.2808C210.078 78.5207 209.749 78.9378 209.337 79.5322C208.929 80.1266 208.567 80.7676 208.252 81.4551C207.941 82.1247 207.704 82.7352 207.543 83.2866C207.439 83.6411 207.305 84.2122 207.14 85H206.072C206.315 83.5319 206.852 82.071 207.683 80.6172C208.173 79.765 208.689 79.0291 209.23 78.4097H204.976V77.4375H210.325Z" fill="#212121"/>
<path d="M146.725 388.248H148.165L149.685 392.963H149.706L151.248 388.248H152.601V394H151.677V389.37H151.656L150.136 394H149.19L147.67 389.37H147.649V394H146.725V388.248ZM153.491 389.972C153.501 389.621 153.568 389.325 153.689 389.085C153.811 388.842 153.976 388.645 154.183 388.495C154.391 388.344 154.636 388.237 154.919 388.172C155.206 388.104 155.517 388.07 155.854 388.07C156.133 388.07 156.403 388.099 156.665 388.156C156.93 388.214 157.164 388.307 157.368 388.436C157.573 388.561 157.735 388.726 157.857 388.93C157.983 389.13 158.045 389.375 158.045 389.666V393.012C158.045 393.105 158.07 393.185 158.12 393.253C158.171 393.318 158.251 393.35 158.362 393.35C158.412 393.35 158.464 393.347 158.518 393.339C158.572 393.329 158.627 393.318 158.684 393.307V393.989C158.602 394.011 158.52 394.03 158.437 394.048C158.359 394.066 158.264 394.075 158.153 394.075C157.981 394.075 157.832 394.061 157.707 394.032C157.585 394.004 157.481 393.957 157.395 393.893C157.313 393.825 157.249 393.739 157.202 393.635C157.155 393.527 157.125 393.397 157.111 393.243C156.989 393.375 156.86 393.499 156.724 393.613C156.588 393.724 156.436 393.823 156.267 393.909C156.099 393.991 155.911 394.056 155.703 394.102C155.496 394.152 155.261 394.177 155 394.177C154.778 394.177 154.561 394.141 154.35 394.07C154.142 393.998 153.954 393.893 153.786 393.753C153.621 393.613 153.489 393.441 153.388 393.237C153.288 393.03 153.238 392.79 153.238 392.518C153.238 392.22 153.288 391.964 153.388 391.75C153.489 391.531 153.619 391.35 153.781 391.207C153.942 391.06 154.126 390.947 154.334 390.869C154.541 390.79 154.753 390.738 154.968 390.713L156.584 390.514C156.738 390.496 156.858 390.437 156.944 390.337C157.034 390.233 157.078 390.068 157.078 389.843C157.078 389.495 156.964 389.247 156.735 389.096C156.509 388.942 156.183 388.865 155.757 388.865C155.32 388.865 154.994 388.958 154.78 389.145C154.565 389.327 154.443 389.603 154.414 389.972H153.491ZM157.057 391.073C156.978 391.13 156.88 391.178 156.762 391.218C156.647 391.254 156.52 391.284 156.38 391.309C156.241 391.334 156.092 391.357 155.934 391.379C155.777 391.397 155.619 391.417 155.462 391.438C155.283 391.463 155.118 391.499 154.968 391.545C154.817 391.592 154.686 391.653 154.575 391.728C154.464 391.803 154.379 391.895 154.318 392.002C154.257 392.106 154.226 392.229 154.226 392.373C154.226 392.537 154.251 392.682 154.302 392.808C154.355 392.933 154.427 393.039 154.516 393.125C154.61 393.21 154.721 393.275 154.849 393.318C154.978 393.361 155.12 393.382 155.274 393.382C155.37 393.382 155.481 393.372 155.607 393.35C155.732 393.325 155.861 393.289 155.993 393.243C156.126 393.196 156.255 393.137 156.38 393.065C156.509 392.99 156.624 392.901 156.724 392.797C156.824 392.693 156.905 392.575 156.966 392.442C157.026 392.31 157.057 392.161 157.057 391.997V391.073ZM163.753 394H162.759V391.723H161.486C161.257 391.723 161.056 391.728 160.884 391.739C160.716 391.746 160.573 391.778 160.455 391.835C160.337 391.893 160.243 391.982 160.175 392.104C160.111 392.226 160.07 392.399 160.052 392.625L160.009 393.243C160.005 393.261 160.002 393.296 159.998 393.35C159.995 393.404 159.987 393.468 159.977 393.543C159.966 393.615 159.952 393.692 159.934 393.774C159.916 393.857 159.894 393.932 159.869 394H158.779C158.804 393.968 158.827 393.936 158.849 393.903C158.874 393.868 158.897 393.819 158.919 393.758C158.944 393.697 158.965 393.619 158.983 393.522C159.004 393.425 159.024 393.302 159.042 393.151L159.107 392.416C159.128 392.222 159.153 392.065 159.182 391.943C159.214 391.821 159.257 391.721 159.311 391.642C159.368 391.56 159.441 391.493 159.531 391.443C159.62 391.39 159.733 391.336 159.869 391.282C159.253 391.06 158.945 390.605 158.945 389.918C158.945 389.746 158.967 389.589 159.01 389.445C159.053 389.299 159.108 389.168 159.176 389.053C159.248 388.939 159.327 388.838 159.413 388.752C159.502 388.663 159.592 388.59 159.681 388.532C159.792 388.461 159.914 388.407 160.046 388.371C160.179 388.332 160.311 388.303 160.444 388.285C160.58 388.267 160.712 388.257 160.841 388.253C160.97 388.249 161.088 388.248 161.196 388.248H163.753V394ZM162.759 389.118H161.255C161.126 389.118 161.015 389.119 160.922 389.123C160.829 389.123 160.747 389.127 160.675 389.134C160.607 389.141 160.544 389.153 160.487 389.171C160.43 389.189 160.371 389.214 160.31 389.247C160.184 389.318 160.088 389.424 160.02 389.563C159.955 389.703 159.923 389.852 159.923 390.009C159.923 390.163 159.946 390.294 159.993 390.401C160.039 390.505 160.1 390.591 160.175 390.659C160.254 390.727 160.34 390.781 160.433 390.82C160.53 390.856 160.627 390.883 160.723 390.901C160.824 390.915 160.92 390.924 161.013 390.928C161.106 390.931 161.187 390.933 161.255 390.933H162.759V389.118Z" fill="#212121"/>
<path d="M252.053 79.5537V78.8125C252.751 78.7445 253.238 78.6317 253.514 78.4741C253.789 78.313 253.995 77.9352 254.131 77.3408H254.894V85H253.863V79.5537H252.053ZM262.325 77.4375V78.2808C262.078 78.5207 261.749 78.9378 261.337 79.5322C260.929 80.1266 260.567 80.7676 260.252 81.4551C259.941 82.1247 259.704 82.7352 259.543 83.2866C259.439 83.6411 259.305 84.2122 259.14 85H258.072C258.315 83.5319 258.852 82.071 259.683 80.6172C260.173 79.765 260.689 79.0291 261.23 78.4097H256.976V77.4375H262.325Z" fill="#212121"/>
<path d="M203.725 388.248H205.165L206.685 392.963H206.706L208.248 388.248H209.601V394H208.677V389.37H208.656L207.136 394H206.19L204.67 389.37H204.649V394H203.725V388.248ZM210.491 389.972C210.501 389.621 210.568 389.325 210.689 389.085C210.811 388.842 210.976 388.645 211.183 388.495C211.391 388.344 211.636 388.237 211.919 388.172C212.206 388.104 212.517 388.07 212.854 388.07C213.133 388.07 213.403 388.099 213.665 388.156C213.93 388.214 214.164 388.307 214.368 388.436C214.573 388.561 214.735 388.726 214.857 388.93C214.983 389.13 215.045 389.375 215.045 389.666V393.012C215.045 393.105 215.07 393.185 215.12 393.253C215.171 393.318 215.251 393.35 215.362 393.35C215.412 393.35 215.464 393.347 215.518 393.339C215.572 393.329 215.627 393.318 215.684 393.307V393.989C215.602 394.011 215.52 394.03 215.437 394.048C215.359 394.066 215.264 394.075 215.153 394.075C214.981 394.075 214.832 394.061 214.707 394.032C214.585 394.004 214.481 393.957 214.395 393.893C214.313 393.825 214.249 393.739 214.202 393.635C214.155 393.527 214.125 393.397 214.111 393.243C213.989 393.375 213.86 393.499 213.724 393.613C213.588 393.724 213.436 393.823 213.267 393.909C213.099 393.991 212.911 394.056 212.703 394.102C212.496 394.152 212.261 394.177 212 394.177C211.778 394.177 211.561 394.141 211.35 394.07C211.142 393.998 210.954 393.893 210.786 393.753C210.621 393.613 210.489 393.441 210.388 393.237C210.288 393.03 210.238 392.79 210.238 392.518C210.238 392.22 210.288 391.964 210.388 391.75C210.489 391.531 210.619 391.35 210.781 391.207C210.942 391.06 211.126 390.947 211.334 390.869C211.541 390.79 211.753 390.738 211.968 390.713L213.584 390.514C213.738 390.496 213.858 390.437 213.944 390.337C214.034 390.233 214.078 390.068 214.078 389.843C214.078 389.495 213.964 389.247 213.735 389.096C213.509 388.942 213.183 388.865 212.757 388.865C212.32 388.865 211.994 388.958 211.78 389.145C211.565 389.327 211.443 389.603 211.414 389.972H210.491ZM214.057 391.073C213.978 391.13 213.88 391.178 213.762 391.218C213.647 391.254 213.52 391.284 213.38 391.309C213.241 391.334 213.092 391.357 212.934 391.379C212.777 391.397 212.619 391.417 212.462 391.438C212.283 391.463 212.118 391.499 211.968 391.545C211.817 391.592 211.686 391.653 211.575 391.728C211.464 391.803 211.379 391.895 211.318 392.002C211.257 392.106 211.226 392.229 211.226 392.373C211.226 392.537 211.251 392.682 211.302 392.808C211.355 392.933 211.427 393.039 211.516 393.125C211.61 393.21 211.721 393.275 211.849 393.318C211.978 393.361 212.12 393.382 212.274 393.382C212.37 393.382 212.481 393.372 212.607 393.35C212.732 393.325 212.861 393.289 212.993 393.243C213.126 393.196 213.255 393.137 213.38 393.065C213.509 392.99 213.624 392.901 213.724 392.797C213.824 392.693 213.905 392.575 213.966 392.442C214.026 392.31 214.057 392.161 214.057 391.997V391.073ZM220.753 394H219.759V391.723H218.486C218.257 391.723 218.056 391.728 217.884 391.739C217.716 391.746 217.573 391.778 217.455 391.835C217.337 391.893 217.243 391.982 217.175 392.104C217.111 392.226 217.07 392.399 217.052 392.625L217.009 393.243C217.005 393.261 217.002 393.296 216.998 393.35C216.995 393.404 216.987 393.468 216.977 393.543C216.966 393.615 216.952 393.692 216.934 393.774C216.916 393.857 216.894 393.932 216.869 394H215.779C215.804 393.968 215.827 393.936 215.849 393.903C215.874 393.868 215.897 393.819 215.919 393.758C215.944 393.697 215.965 393.619 215.983 393.522C216.004 393.425 216.024 393.302 216.042 393.151L216.107 392.416C216.128 392.222 216.153 392.065 216.182 391.943C216.214 391.821 216.257 391.721 216.311 391.642C216.368 391.56 216.441 391.493 216.531 391.443C216.62 391.39 216.733 391.336 216.869 391.282C216.253 391.06 215.945 390.605 215.945 389.918C215.945 389.746 215.967 389.589 216.01 389.445C216.053 389.299 216.108 389.168 216.176 389.053C216.248 388.939 216.327 388.838 216.413 388.752C216.502 388.663 216.592 388.59 216.681 388.532C216.792 388.461 216.914 388.407 217.046 388.371C217.179 388.332 217.311 388.303 217.444 388.285C217.58 388.267 217.712 388.257 217.841 388.253C217.97 388.249 218.088 388.248 218.196 388.248H220.753V394ZM219.759 389.118H218.255C218.126 389.118 218.015 389.119 217.922 389.123C217.829 389.123 217.747 389.127 217.675 389.134C217.607 389.141 217.544 389.153 217.487 389.171C217.43 389.189 217.371 389.214 217.31 389.247C217.184 389.318 217.088 389.424 217.02 389.563C216.955 389.703 216.923 389.852 216.923 390.009C216.923 390.163 216.946 390.294 216.993 390.401C217.039 390.505 217.1 390.591 217.175 390.659C217.254 390.727 217.34 390.781 217.433 390.82C217.53 390.856 217.627 390.883 217.723 390.901C217.824 390.915 217.92 390.924 218.013 390.928C218.106 390.931 218.187 390.933 218.255 390.933H219.759V389.118Z" fill="#212121"/>
<path d="M298.053 79.5537V78.8125C298.751 78.7445 299.238 78.6317 299.514 78.4741C299.789 78.313 299.995 77.9352 300.131 77.3408H300.894V85H299.863V79.5537H298.053ZM308.325 77.4375V78.2808C308.078 78.5207 307.749 78.9378 307.337 79.5322C306.929 80.1266 306.567 80.7676 306.252 81.4551C305.941 82.1247 305.704 82.7352 305.543 83.2866C305.439 83.6411 305.305 84.2122 305.14 85H304.072C304.315 83.5319 304.852 82.071 305.683 80.6172C306.173 79.765 306.689 79.0291 307.23 78.4097H302.976V77.4375H308.325Z" fill="#212121"/>
<path d="M260.725 388.248H262.165L263.685 392.963H263.706L265.248 388.248H266.601V394H265.677V389.37H265.656L264.136 394H263.19L261.67 389.37H261.649V394H260.725V388.248ZM267.491 389.972C267.501 389.621 267.568 389.325 267.689 389.085C267.811 388.842 267.976 388.645 268.183 388.495C268.391 388.344 268.636 388.237 268.919 388.172C269.206 388.104 269.517 388.07 269.854 388.07C270.133 388.07 270.403 388.099 270.665 388.156C270.93 388.214 271.164 388.307 271.368 388.436C271.573 388.561 271.735 388.726 271.857 388.93C271.983 389.13 272.045 389.375 272.045 389.666V393.012C272.045 393.105 272.07 393.185 272.12 393.253C272.171 393.318 272.251 393.35 272.362 393.35C272.412 393.35 272.464 393.347 272.518 393.339C272.572 393.329 272.627 393.318 272.684 393.307V393.989C272.602 394.011 272.52 394.03 272.437 394.048C272.359 394.066 272.264 394.075 272.153 394.075C271.981 394.075 271.832 394.061 271.707 394.032C271.585 394.004 271.481 393.957 271.395 393.893C271.313 393.825 271.249 393.739 271.202 393.635C271.155 393.527 271.125 393.397 271.111 393.243C270.989 393.375 270.86 393.499 270.724 393.613C270.588 393.724 270.436 393.823 270.267 393.909C270.099 393.991 269.911 394.056 269.703 394.102C269.496 394.152 269.261 394.177 269 394.177C268.778 394.177 268.561 394.141 268.35 394.07C268.142 393.998 267.954 393.893 267.786 393.753C267.621 393.613 267.489 393.441 267.388 393.237C267.288 393.03 267.238 392.79 267.238 392.518C267.238 392.22 267.288 391.964 267.388 391.75C267.489 391.531 267.619 391.35 267.781 391.207C267.942 391.06 268.126 390.947 268.334 390.869C268.541 390.79 268.753 390.738 268.968 390.713L270.584 390.514C270.738 390.496 270.858 390.437 270.944 390.337C271.034 390.233 271.078 390.068 271.078 389.843C271.078 389.495 270.964 389.247 270.735 389.096C270.509 388.942 270.183 388.865 269.757 388.865C269.32 388.865 268.994 388.958 268.78 389.145C268.565 389.327 268.443 389.603 268.414 389.972H267.491ZM271.057 391.073C270.978 391.13 270.88 391.178 270.762 391.218C270.647 391.254 270.52 391.284 270.38 391.309C270.241 391.334 270.092 391.357 269.934 391.379C269.777 391.397 269.619 391.417 269.462 391.438C269.283 391.463 269.118 391.499 268.968 391.545C268.817 391.592 268.686 391.653 268.575 391.728C268.464 391.803 268.379 391.895 268.318 392.002C268.257 392.106 268.226 392.229 268.226 392.373C268.226 392.537 268.251 392.682 268.302 392.808C268.355 392.933 268.427 393.039 268.516 393.125C268.61 393.21 268.721 393.275 268.849 393.318C268.978 393.361 269.12 393.382 269.274 393.382C269.37 393.382 269.481 393.372 269.607 393.35C269.732 393.325 269.861 393.289 269.993 393.243C270.126 393.196 270.255 393.137 270.38 393.065C270.509 392.99 270.624 392.901 270.724 392.797C270.824 392.693 270.905 392.575 270.966 392.442C271.026 392.31 271.057 392.161 271.057 391.997V391.073ZM277.753 394H276.759V391.723H275.486C275.257 391.723 275.056 391.728 274.884 391.739C274.716 391.746 274.573 391.778 274.455 391.835C274.337 391.893 274.243 391.982 274.175 392.104C274.111 392.226 274.07 392.399 274.052 392.625L274.009 393.243C274.005 393.261 274.002 393.296 273.998 393.35C273.995 393.404 273.987 393.468 273.977 393.543C273.966 393.615 273.952 393.692 273.934 393.774C273.916 393.857 273.894 393.932 273.869 394H272.779C272.804 393.968 272.827 393.936 272.849 393.903C272.874 393.868 272.897 393.819 272.919 393.758C272.944 393.697 272.965 393.619 272.983 393.522C273.004 393.425 273.024 393.302 273.042 393.151L273.107 392.416C273.128 392.222 273.153 392.065 273.182 391.943C273.214 391.821 273.257 391.721 273.311 391.642C273.368 391.56 273.441 391.493 273.531 391.443C273.62 391.39 273.733 391.336 273.869 391.282C273.253 391.06 272.945 390.605 272.945 389.918C272.945 389.746 272.967 389.589 273.01 389.445C273.053 389.299 273.108 389.168 273.176 389.053C273.248 388.939 273.327 388.838 273.413 388.752C273.502 388.663 273.592 388.59 273.681 388.532C273.792 388.461 273.914 388.407 274.046 388.371C274.179 388.332 274.311 388.303 274.444 388.285C274.58 388.267 274.712 388.257 274.841 388.253C274.97 388.249 275.088 388.248 275.196 388.248H277.753V394ZM276.759 389.118H275.255C275.126 389.118 275.015 389.119 274.922 389.123C274.829 389.123 274.747 389.127 274.675 389.134C274.607 389.141 274.544 389.153 274.487 389.171C274.43 389.189 274.371 389.214 274.31 389.247C274.184 389.318 274.088 389.424 274.02 389.563C273.955 389.703 273.923 389.852 273.923 390.009C273.923 390.163 273.946 390.294 273.993 390.401C274.039 390.505 274.1 390.591 274.175 390.659C274.254 390.727 274.34 390.781 274.433 390.82C274.53 390.856 274.627 390.883 274.723 390.901C274.824 390.915 274.92 390.924 275.013 390.928C275.106 390.931 275.187 390.933 275.255 390.933H276.759V389.118Z" fill="#212121"/>
<path d="M102.053 79.5537V78.8125C102.751 78.7445 103.238 78.6317 103.514 78.4741C103.789 78.313 103.995 77.9352 104.131 77.3408H104.894V85H103.863V79.5537H102.053ZM112.325 77.4375V78.2808C112.078 78.5207 111.749 78.9378 111.337 79.5322C110.929 80.1266 110.567 80.7676 110.252 81.4551C109.941 82.1247 109.704 82.7352 109.543 83.2866C109.439 83.6411 109.305 84.2122 109.14 85H108.072C108.315 83.5319 108.852 82.071 109.683 80.6172C110.173 79.765 110.689 79.0291 111.23 78.4097H106.976V77.4375H112.325Z" fill="#212121"/>
<path d="M34.7251 388.248H36.1646L37.6846 392.963H37.7061L39.2476 388.248H40.6011V394H39.6772V389.37H39.6558L38.1357 394H37.1904L35.6704 389.37H35.6489V394H34.7251V388.248ZM41.4905 389.972C41.5013 389.621 41.5675 389.325 41.6893 389.085C41.811 388.842 41.9757 388.645 42.1834 388.495C42.3911 388.344 42.6364 388.237 42.9192 388.172C43.2057 388.104 43.5172 388.07 43.8538 388.07C44.1331 388.07 44.4035 388.099 44.6648 388.156C44.9298 388.214 45.1644 388.307 45.3685 388.436C45.5726 388.561 45.7355 388.726 45.8572 388.93C45.9826 389.13 46.0452 389.375 46.0452 389.666V393.012C46.0452 393.105 46.0703 393.185 46.1204 393.253C46.1705 393.318 46.2511 393.35 46.3621 393.35C46.4122 393.35 46.4642 393.347 46.5179 393.339C46.5716 393.329 46.6271 393.318 46.6844 393.307V393.989C46.602 394.011 46.5197 394.03 46.4373 394.048C46.3585 394.066 46.2636 394.075 46.1526 394.075C45.9808 394.075 45.8322 394.061 45.7068 394.032C45.5851 394.004 45.4812 393.957 45.3953 393.893C45.313 393.825 45.2485 393.739 45.202 393.635C45.1554 393.527 45.125 393.397 45.1106 393.243C44.9889 393.375 44.86 393.499 44.7239 393.613C44.5879 393.724 44.4357 393.823 44.2674 393.909C44.0991 393.991 43.9111 394.056 43.7034 394.102C43.4957 394.152 43.2612 394.177 42.9998 394.177C42.7778 394.177 42.5612 394.141 42.3499 394.07C42.1422 393.998 41.9542 393.893 41.7859 393.753C41.6212 393.613 41.4887 393.441 41.3885 393.237C41.2882 393.03 41.2381 392.79 41.2381 392.518C41.2381 392.22 41.2882 391.964 41.3885 391.75C41.4887 391.531 41.6194 391.35 41.7806 391.207C41.9417 391.06 42.1261 390.947 42.3338 390.869C42.5415 390.79 42.7527 390.738 42.9676 390.713L44.5843 390.514C44.7382 390.496 44.8582 390.437 44.9441 390.337C45.0337 390.233 45.0784 390.068 45.0784 389.843C45.0784 389.495 44.9638 389.247 44.7347 389.096C44.5091 388.942 44.1832 388.865 43.7571 388.865C43.3203 388.865 42.9944 388.958 42.7796 389.145C42.5647 389.327 42.443 389.603 42.4144 389.972H41.4905ZM45.0569 391.073C44.9782 391.13 44.8797 391.178 44.7615 391.218C44.6469 391.254 44.5198 391.284 44.3802 391.309C44.2405 391.334 44.0919 391.357 43.9344 391.379C43.7768 391.397 43.6193 391.417 43.4617 391.438C43.2827 391.463 43.118 391.499 42.9676 391.545C42.8172 391.592 42.6865 391.653 42.5755 391.728C42.4645 391.803 42.3785 391.895 42.3177 392.002C42.2568 392.106 42.2264 392.229 42.2264 392.373C42.2264 392.537 42.2514 392.682 42.3016 392.808C42.3553 392.933 42.4269 393.039 42.5164 393.125C42.6095 393.21 42.7205 393.275 42.8494 393.318C42.9783 393.361 43.1198 393.382 43.2737 393.382C43.3704 393.382 43.4814 393.372 43.6067 393.35C43.7321 393.325 43.861 393.289 43.9935 393.243C44.1259 393.196 44.2549 393.137 44.3802 393.065C44.5091 392.99 44.6237 392.901 44.7239 392.797C44.8242 392.693 44.9048 392.575 44.9656 392.442C45.0265 392.31 45.0569 392.161 45.0569 391.997V391.073ZM51.7525 394H50.7589V391.723H49.4859C49.2568 391.723 49.0562 391.728 48.8844 391.739C48.7161 391.746 48.5729 391.778 48.4547 391.835C48.3365 391.893 48.2434 391.982 48.1754 392.104C48.1109 392.226 48.0698 392.399 48.0519 392.625L48.0089 393.243C48.0053 393.261 48.0017 393.296 47.9981 393.35C47.9946 393.404 47.9874 393.468 47.9767 393.543C47.9659 393.615 47.9516 393.692 47.9337 393.774C47.9158 393.857 47.8943 393.932 47.8692 394H46.7789C46.804 393.968 46.8272 393.936 46.8487 393.903C46.8738 393.868 46.8971 393.819 46.9186 393.758C46.9436 393.697 46.9651 393.619 46.983 393.522C47.0045 393.425 47.0242 393.302 47.0421 393.151L47.1065 392.416C47.128 392.222 47.1531 392.065 47.1817 391.943C47.214 391.821 47.2569 391.721 47.3106 391.642C47.3679 391.56 47.4413 391.493 47.5309 391.443C47.6204 391.39 47.7332 391.336 47.8692 391.282C47.2534 391.06 46.9454 390.605 46.9454 389.918C46.9454 389.746 46.9669 389.589 47.0099 389.445C47.0528 389.299 47.1083 389.168 47.1764 389.053C47.248 388.939 47.3268 388.838 47.4127 388.752C47.5022 388.663 47.5917 388.59 47.6812 388.532C47.7923 388.461 47.914 388.407 48.0465 388.371C48.179 388.332 48.3115 388.303 48.4439 388.285C48.58 388.267 48.7125 388.257 48.8414 388.253C48.9703 388.249 49.0885 388.248 49.1959 388.248H51.7525V394ZM50.7589 389.118H49.255C49.1261 389.118 49.0151 389.119 48.922 389.123C48.8289 389.123 48.7465 389.127 48.6749 389.134C48.6069 389.141 48.5442 389.153 48.4869 389.171C48.4296 389.189 48.3705 389.214 48.3097 389.247C48.1843 389.318 48.0877 389.424 48.0196 389.563C47.9552 389.703 47.9229 389.852 47.9229 390.009C47.9229 390.163 47.9462 390.294 47.9928 390.401C48.0393 390.505 48.1002 390.591 48.1754 390.659C48.2542 390.727 48.3401 390.781 48.4332 390.82C48.5299 390.856 48.6266 390.883 48.7232 390.901C48.8235 390.915 48.9202 390.924 49.0133 390.928C49.1064 390.931 49.1869 390.933 49.255 390.933H50.7589V389.118Z" fill="#212121"/>
<path d="M151.053 79.5537V78.8125C151.751 78.7445 152.238 78.6317 152.514 78.4741C152.789 78.313 152.995 77.9352 153.131 77.3408H153.894V85H152.863V79.5537H151.053ZM161.325 77.4375V78.2808C161.078 78.5207 160.749 78.9378 160.337 79.5322C159.929 80.1266 159.567 80.7676 159.252 81.4551C158.941 82.1247 158.704 82.7352 158.543 83.2866C158.439 83.6411 158.305 84.2122 158.14 85H157.072C157.315 83.5319 157.852 82.071 158.683 80.6172C159.173 79.765 159.689 79.0291 160.23 78.4097H155.976V77.4375H161.325Z" fill="#212121"/>
<path d="M90.7251 388.248H92.1646L93.6846 392.963H93.7061L95.2476 388.248H96.6011V394H95.6772V389.37H95.6558L94.1357 394H93.1904L91.6704 389.37H91.6489V394H90.7251V388.248ZM97.4905 389.972C97.5013 389.621 97.5675 389.325 97.6893 389.085C97.811 388.842 97.9757 388.645 98.1834 388.495C98.3911 388.344 98.6364 388.237 98.9192 388.172C99.2057 388.104 99.5172 388.07 99.8538 388.07C100.133 388.07 100.403 388.099 100.665 388.156C100.93 388.214 101.164 388.307 101.368 388.436C101.573 388.561 101.735 388.726 101.857 388.93C101.983 389.13 102.045 389.375 102.045 389.666V393.012C102.045 393.105 102.07 393.185 102.12 393.253C102.171 393.318 102.251 393.35 102.362 393.35C102.412 393.35 102.464 393.347 102.518 393.339C102.572 393.329 102.627 393.318 102.684 393.307V393.989C102.602 394.011 102.52 394.03 102.437 394.048C102.359 394.066 102.264 394.075 102.153 394.075C101.981 394.075 101.832 394.061 101.707 394.032C101.585 394.004 101.481 393.957 101.395 393.893C101.313 393.825 101.249 393.739 101.202 393.635C101.155 393.527 101.125 393.397 101.111 393.243C100.989 393.375 100.86 393.499 100.724 393.613C100.588 393.724 100.436 393.823 100.267 393.909C100.099 393.991 99.9111 394.056 99.7034 394.102C99.4957 394.152 99.2612 394.177 98.9998 394.177C98.7778 394.177 98.5612 394.141 98.3499 394.07C98.1422 393.998 97.9542 393.893 97.7859 393.753C97.6212 393.613 97.4887 393.441 97.3885 393.237C97.2882 393.03 97.2381 392.79 97.2381 392.518C97.2381 392.22 97.2882 391.964 97.3885 391.75C97.4887 391.531 97.6194 391.35 97.7806 391.207C97.9417 391.06 98.1261 390.947 98.3338 390.869C98.5415 390.79 98.7527 390.738 98.9676 390.713L100.584 390.514C100.738 390.496 100.858 390.437 100.944 390.337C101.034 390.233 101.078 390.068 101.078 389.843C101.078 389.495 100.964 389.247 100.735 389.096C100.509 388.942 100.183 388.865 99.7571 388.865C99.3203 388.865 98.9944 388.958 98.7796 389.145C98.5647 389.327 98.443 389.603 98.4144 389.972H97.4905ZM101.057 391.073C100.978 391.13 100.88 391.178 100.762 391.218C100.647 391.254 100.52 391.284 100.38 391.309C100.241 391.334 100.092 391.357 99.9344 391.379C99.7768 391.397 99.6193 391.417 99.4617 391.438C99.2827 391.463 99.118 391.499 98.9676 391.545C98.8172 391.592 98.6865 391.653 98.5755 391.728C98.4645 391.803 98.3785 391.895 98.3177 392.002C98.2568 392.106 98.2264 392.229 98.2264 392.373C98.2264 392.537 98.2514 392.682 98.3016 392.808C98.3553 392.933 98.4269 393.039 98.5164 393.125C98.6095 393.21 98.7205 393.275 98.8494 393.318C98.9783 393.361 99.1198 393.382 99.2737 393.382C99.3704 393.382 99.4814 393.372 99.6067 393.35C99.7321 393.325 99.861 393.289 99.9935 393.243C100.126 393.196 100.255 393.137 100.38 393.065C100.509 392.99 100.624 392.901 100.724 392.797C100.824 392.693 100.905 392.575 100.966 392.442C101.026 392.31 101.057 392.161 101.057 391.997V391.073ZM107.753 394H106.759V391.723H105.486C105.257 391.723 105.056 391.728 104.884 391.739C104.716 391.746 104.573 391.778 104.455 391.835C104.337 391.893 104.243 391.982 104.175 392.104C104.111 392.226 104.07 392.399 104.052 392.625L104.009 393.243C104.005 393.261 104.002 393.296 103.998 393.35C103.995 393.404 103.987 393.468 103.977 393.543C103.966 393.615 103.952 393.692 103.934 393.774C103.916 393.857 103.894 393.932 103.869 394H102.779C102.804 393.968 102.827 393.936 102.849 393.903C102.874 393.868 102.897 393.819 102.919 393.758C102.944 393.697 102.965 393.619 102.983 393.522C103.004 393.425 103.024 393.302 103.042 393.151L103.107 392.416C103.128 392.222 103.153 392.065 103.182 391.943C103.214 391.821 103.257 391.721 103.311 391.642C103.368 391.56 103.441 391.493 103.531 391.443C103.62 391.39 103.733 391.336 103.869 391.282C103.253 391.06 102.945 390.605 102.945 389.918C102.945 389.746 102.967 389.589 103.01 389.445C103.053 389.299 103.108 389.168 103.176 389.053C103.248 388.939 103.327 388.838 103.413 388.752C103.502 388.663 103.592 388.59 103.681 388.532C103.792 388.461 103.914 388.407 104.046 388.371C104.179 388.332 104.311 388.303 104.444 388.285C104.58 388.267 104.712 388.257 104.841 388.253C104.97 388.249 105.088 388.248 105.196 388.248H107.753V394ZM106.759 389.118H105.255C105.126 389.118 105.015 389.119 104.922 389.123C104.829 389.123 104.747 389.127 104.675 389.134C104.607 389.141 104.544 389.153 104.487 389.171C104.43 389.189 104.371 389.214 104.31 389.247C104.184 389.318 104.088 389.424 104.02 389.563C103.955 389.703 103.923 389.852 103.923 390.009C103.923 390.163 103.946 390.294 103.993 390.401C104.039 390.505 104.1 390.591 104.175 390.659C104.254 390.727 104.34 390.781 104.433 390.82C104.53 390.856 104.627 390.883 104.723 390.901C104.824 390.915 104.92 390.924 105.013 390.928C105.106 390.931 105.187 390.933 105.255 390.933H106.759V389.118Z" fill="#212121"/>
<rect x="31" y="125" width="103" height="58" fill="#212121"/>
<rect x="164" y="29" width="82" height="123" fill="#212121"/>
<rect x="49" y="263" width="97" height="107" fill="#212121"/>
<rect x="238" y="274" width="69" height="112" fill="#212121"/>
</svg>
