<svg width="341" height="482" viewBox="0 0 341 482" fill="none" xmlns="http://www.w3.org/2000/svg">
<rect width="341" height="482" fill="#212121"/>
<path d="M168.795 32.8842L171.322 30.9208V32.3289L169.632 33.6274L171.322 34.9258V36.3339L168.795 34.3705V32.8842ZM165.518 32.8842L168.036 30.9208V32.3289L166.355 33.6274L168.036 34.9258V36.3339L165.518 34.3705V32.8842ZM175.402 30.8739H172.515V29.6224H179.727V30.8739H176.841V38H175.402V30.8739ZM187.515 35.3248C187.458 35.6898 187.333 36.047 187.14 36.3964C186.947 36.7458 186.694 37.0587 186.381 37.3351C186.068 37.6115 185.698 37.8331 185.27 38C184.848 38.1721 184.379 38.2581 183.862 38.2581C183.299 38.2581 182.778 38.1669 182.298 37.9844C181.823 37.7966 181.411 37.5176 181.062 37.1474C180.718 36.7719 180.447 36.3026 180.248 35.7394C180.05 35.1762 179.951 34.5139 179.951 33.7525C179.951 33.2415 180.006 32.7799 180.115 32.368C180.23 31.9508 180.381 31.5805 180.569 31.2572C180.762 30.9287 180.984 30.6471 181.234 30.4124C181.484 30.1725 181.748 29.977 182.024 29.8257C182.306 29.6693 182.592 29.5546 182.885 29.4816C183.177 29.4033 183.458 29.3642 183.729 29.3642C184.303 29.3642 184.827 29.4503 185.302 29.6224C185.776 29.7944 186.183 30.0578 186.522 30.4124C186.866 30.7618 187.132 31.2025 187.32 31.7344C187.513 32.2611 187.609 32.8816 187.609 33.5961V34.3157H181.484C181.49 34.7225 181.547 35.0927 181.656 35.4265C181.766 35.755 181.922 36.0366 182.126 36.2713C182.329 36.5059 182.574 36.6885 182.861 36.8188C183.153 36.944 183.482 37.0066 183.847 37.0066C184.217 37.0066 184.53 36.9544 184.785 36.8501C185.041 36.7458 185.255 36.6129 185.427 36.4512C185.599 36.2895 185.737 36.1096 185.841 35.9115C185.951 35.7133 186.042 35.5177 186.115 35.3248H187.515ZM186.162 33.1658C186.152 32.7591 186.089 32.3967 185.974 32.0785C185.865 31.7604 185.708 31.4945 185.505 31.2807C185.307 31.0617 185.067 30.8974 184.785 30.7879C184.504 30.6731 184.191 30.6158 183.847 30.6158C183.518 30.6158 183.216 30.681 182.939 30.8113C182.663 30.9365 182.42 31.1138 182.212 31.3433C182.003 31.5675 181.836 31.8361 181.711 32.1489C181.586 32.4566 181.51 32.7956 181.484 33.1658H186.162ZM188.498 29.6224H190.594L192.808 36.4903H192.839L195.084 29.6224H197.055V38H195.71V31.2572H195.679L193.465 38H192.088L189.874 31.2572H189.843V38H188.498V29.6224ZM198.366 29.6224H199.806V33.0016H203.717V29.6224H205.164V38H203.717V34.2531H199.806V38H198.366V29.6224ZM212.334 33.7994C212.334 33.3353 212.282 32.9103 212.177 32.5244C212.073 32.1333 211.917 31.7969 211.708 31.5153C211.499 31.2337 211.241 31.0147 210.934 30.8583C210.631 30.6966 210.279 30.6158 209.878 30.6158C209.476 30.6158 209.124 30.6966 208.822 30.8583C208.519 31.0147 208.264 31.2337 208.055 31.5153C207.846 31.7969 207.69 32.1333 207.586 32.5244C207.481 32.9103 207.429 33.3353 207.429 33.7994C207.429 34.2688 207.481 34.7016 207.586 35.0979C207.69 35.4891 207.846 35.8254 208.055 36.107C208.264 36.3886 208.519 36.6102 208.822 36.7719C209.124 36.9283 209.476 37.0066 209.878 37.0066C210.279 37.0066 210.631 36.9283 210.934 36.7719C211.241 36.6102 211.499 36.3886 211.708 36.107C211.917 35.8254 212.073 35.4891 212.177 35.0979C212.282 34.7016 212.334 34.2688 212.334 33.7994ZM213.773 33.7994C213.773 34.4878 213.684 35.1084 213.507 35.6611C213.33 36.2087 213.074 36.6754 212.741 37.0613C212.407 37.4472 211.997 37.7445 211.512 37.9531C211.033 38.1564 210.488 38.2581 209.878 38.2581C209.267 38.2581 208.723 38.1564 208.243 37.9531C207.763 37.7445 207.356 37.4472 207.022 37.0613C206.689 36.6754 206.433 36.2087 206.256 35.6611C206.079 35.1084 205.99 34.4878 205.99 33.7994C205.99 33.1215 206.079 32.5088 206.256 31.9612C206.433 31.4137 206.689 30.9469 207.022 30.561C207.356 30.1751 207.763 29.8805 208.243 29.6771C208.723 29.4685 209.267 29.3642 209.878 29.3642C210.488 29.3642 211.033 29.4685 211.512 29.6771C211.997 29.8805 212.407 30.1751 212.741 30.561C213.074 30.9469 213.33 31.4137 213.507 31.9612C213.684 32.5088 213.773 33.1215 213.773 33.7994ZM216.828 30.8739H213.942V29.6224H221.154V30.8739H218.268V38H216.828V30.8739ZM221.792 32.1333C221.808 31.6222 221.905 31.192 222.082 30.8426C222.259 30.488 222.499 30.2012 222.802 29.9822C223.104 29.7632 223.461 29.6067 223.873 29.5128C224.29 29.4138 224.744 29.3642 225.234 29.3642C225.641 29.3642 226.035 29.4059 226.415 29.4894C226.801 29.5728 227.143 29.7084 227.44 29.8961C227.737 30.0787 227.975 30.3185 228.152 30.6158C228.334 30.9078 228.426 31.265 228.426 31.6874V36.5607C228.426 36.6963 228.462 36.8136 228.535 36.9127C228.608 37.0066 228.726 37.0535 228.887 37.0535C228.96 37.0535 229.036 37.0483 229.114 37.0379C229.192 37.0222 229.273 37.0066 229.357 36.9909V37.9844C229.237 38.0156 229.117 38.0443 228.997 38.0704C228.882 38.0965 228.744 38.1095 228.582 38.1095C228.332 38.1095 228.115 38.0887 227.933 38.0469C227.756 38.0052 227.604 37.9374 227.479 37.8436C227.359 37.7445 227.265 37.6193 227.198 37.4681C227.13 37.3116 227.086 37.1213 227.065 36.8971C226.887 37.09 226.7 37.2699 226.501 37.4368C226.303 37.5985 226.082 37.7419 225.837 37.867C225.591 37.987 225.318 38.0808 225.015 38.1486C224.713 38.2216 224.371 38.2581 223.991 38.2581C223.667 38.2581 223.352 38.206 223.044 38.1017C222.742 37.9974 222.468 37.8436 222.223 37.6402C221.983 37.4368 221.79 37.1865 221.644 36.8892C221.498 36.5868 221.425 36.2374 221.425 35.8411C221.425 35.4082 221.498 35.0354 221.644 34.7225C221.79 34.4044 221.98 34.141 222.215 33.9324C222.45 33.7186 222.718 33.5543 223.021 33.4396C223.323 33.3249 223.631 33.2493 223.944 33.2128L226.298 32.9233C226.522 32.8973 226.697 32.8112 226.822 32.6652C226.953 32.514 227.018 32.2741 227.018 31.9456C227.018 31.4397 226.851 31.0773 226.517 30.8583C226.189 30.634 225.714 30.5219 225.093 30.5219C224.457 30.5219 223.983 30.6575 223.67 30.9287C223.357 31.1946 223.18 31.5962 223.138 32.1333H221.792ZM226.986 33.7369C226.872 33.8203 226.728 33.8907 226.556 33.9481C226.389 34.0002 226.204 34.0445 226.001 34.081C225.797 34.1175 225.581 34.1514 225.352 34.1827C225.122 34.2088 224.893 34.2375 224.663 34.2688C224.402 34.3053 224.163 34.3574 223.944 34.4252C223.725 34.493 223.534 34.5817 223.373 34.6912C223.211 34.8007 223.086 34.9337 222.997 35.0901C222.908 35.2413 222.864 35.4213 222.864 35.6299C222.864 35.8697 222.901 36.0809 222.974 36.2635C223.052 36.446 223.156 36.5998 223.287 36.725C223.422 36.8501 223.584 36.944 223.772 37.0066C223.959 37.0692 224.165 37.1004 224.389 37.1004C224.53 37.1004 224.692 37.0848 224.874 37.0535C225.057 37.017 225.245 36.9649 225.438 36.8971C225.631 36.8293 225.818 36.7432 226.001 36.6389C226.189 36.5294 226.355 36.399 226.501 36.2478C226.647 36.0966 226.765 35.9245 226.853 35.7315C226.942 35.5386 226.986 35.3222 226.986 35.0823V33.7369ZM233.582 29.6224H235.021V36.0444H235.053L239.167 29.6224H240.818V38H239.371V31.5779H239.339L235.233 38H233.582V29.6224ZM248.024 30.8739H245.137V29.6224H252.349V30.8739H249.463V38H248.024V30.8739ZM253.003 29.6224H254.443V36.0444H254.474L258.588 29.6224H260.239V38H258.792V31.5779H258.76L254.654 38H253.003V29.6224ZM261.558 29.6224H262.997V36.7484H266.016V29.6224H267.456V36.7484H270.467V29.6224H271.907V38H261.558V29.6224ZM273.225 29.6224H274.665V36.0444H274.696L278.811 29.6224H280.461V38H279.014V31.5779H278.983L274.876 38H273.225V29.6224ZM281.78 29.6224H283.219V33.0016H287.13V29.6224H288.577V38H287.13V34.2531H283.219V38H281.78V29.6224ZM289.881 32.1333C289.896 31.6222 289.993 31.192 290.17 30.8426C290.347 30.488 290.587 30.2012 290.89 29.9822C291.192 29.7632 291.549 29.6067 291.961 29.5128C292.379 29.4138 292.832 29.3642 293.322 29.3642C293.729 29.3642 294.123 29.4059 294.504 29.4894C294.889 29.5728 295.231 29.7084 295.528 29.8961C295.826 30.0787 296.063 30.3185 296.24 30.6158C296.423 30.9078 296.514 31.265 296.514 31.6874V36.5607C296.514 36.6963 296.55 36.8136 296.623 36.9127C296.696 37.0066 296.814 37.0535 296.975 37.0535C297.048 37.0535 297.124 37.0483 297.202 37.0379C297.28 37.0222 297.361 37.0066 297.445 36.9909V37.9844C297.325 38.0156 297.205 38.0443 297.085 38.0704C296.97 38.0965 296.832 38.1095 296.67 38.1095C296.42 38.1095 296.204 38.0887 296.021 38.0469C295.844 38.0052 295.693 37.9374 295.567 37.8436C295.447 37.7445 295.354 37.6193 295.286 37.4681C295.218 37.3116 295.174 37.1213 295.153 36.8971C294.975 37.09 294.788 37.2699 294.59 37.4368C294.391 37.5985 294.17 37.7419 293.925 37.867C293.68 37.987 293.406 38.0808 293.103 38.1486C292.801 38.2216 292.459 38.2581 292.079 38.2581C291.755 38.2581 291.44 38.206 291.132 38.1017C290.83 37.9974 290.556 37.8436 290.311 37.6402C290.071 37.4368 289.878 37.1865 289.732 36.8892C289.586 36.5868 289.513 36.2374 289.513 35.8411C289.513 35.4082 289.586 35.0354 289.732 34.7225C289.878 34.4044 290.068 34.141 290.303 33.9324C290.538 33.7186 290.806 33.5543 291.109 33.4396C291.411 33.3249 291.719 33.2493 292.032 33.2128L294.386 32.9233C294.61 32.8973 294.785 32.8112 294.91 32.6652C295.041 32.514 295.106 32.2741 295.106 31.9456C295.106 31.4397 294.939 31.0773 294.605 30.8583C294.277 30.634 293.802 30.5219 293.182 30.5219C292.545 30.5219 292.071 30.6575 291.758 30.9287C291.445 31.1946 291.268 31.5962 291.226 32.1333H289.881ZM295.075 33.7369C294.96 33.8203 294.816 33.8907 294.644 33.9481C294.477 34.0002 294.292 34.0445 294.089 34.081C293.886 34.1175 293.669 34.1514 293.44 34.1827C293.21 34.2088 292.981 34.2375 292.751 34.2688C292.491 34.3053 292.251 34.3574 292.032 34.4252C291.813 34.493 291.622 34.5817 291.461 34.6912C291.299 34.8007 291.174 34.9337 291.085 35.0901C290.997 35.2413 290.952 35.4213 290.952 35.6299C290.952 35.8697 290.989 36.0809 291.062 36.2635C291.14 36.446 291.244 36.5998 291.375 36.725C291.51 36.8501 291.672 36.944 291.86 37.0066C292.047 37.0692 292.253 37.1004 292.478 37.1004C292.618 37.1004 292.78 37.0848 292.963 37.0535C293.145 37.017 293.333 36.9649 293.526 36.8971C293.719 36.8293 293.906 36.7432 294.089 36.6389C294.277 36.5294 294.444 36.399 294.59 36.2478C294.736 36.0966 294.853 35.9245 294.942 35.7315C295.03 35.5386 295.075 35.3222 295.075 35.0823V33.7369ZM301.752 34.9258L303.402 33.6274L301.752 32.3289V30.9208L304.278 32.8842V34.3705L301.752 36.3339V34.9258ZM298.474 34.9258L300.125 33.6274L298.474 32.3289V30.9208L300.993 32.8842V34.3705L298.474 36.3339V34.9258Z" fill="white"/>
<rect x="-1" y="1" width="160" height="60" transform="matrix(-1 0 0 1 250 210)" stroke="white" stroke-width="2"/>
<rect x="-1" y="1" width="192" height="83" transform="matrix(-1 0 0 1 224 377)" stroke="white" stroke-width="2"/>
<rect x="-1" y="1" width="82" height="197" transform="matrix(-1 0 0 1 114 162)" stroke="white" stroke-width="2"/>
<rect x="-1" y="1" width="217" height="98" transform="matrix(-1 0 0 1 307 20)" stroke="white" stroke-width="2"/>
<rect x="-1" y="1" width="100" height="144" transform="matrix(-1 0 0 1 307 293)" stroke="white" stroke-width="2"/>
<rect x="-1" y="1" width="166" height="125" transform="matrix(-1 0 0 1 297 62)" stroke="white" stroke-width="2"/>
<path d="M200.053 104.554V103.812C200.751 103.744 201.238 103.632 201.514 103.474C201.789 103.313 201.995 102.935 202.131 102.341H202.894V110H201.863V104.554H200.053ZM210.325 102.438V103.281C210.078 103.521 209.749 103.938 209.337 104.532C208.929 105.127 208.567 105.768 208.252 106.455C207.941 107.125 207.704 107.735 207.543 108.287C207.439 108.641 207.305 109.212 207.14 110H206.072C206.315 108.532 206.852 107.071 207.683 105.617C208.173 104.765 208.689 104.029 209.23 103.41H204.976V102.438H210.325Z" fill="white"/>
<path d="M147.725 318.248H149.165L150.685 322.963H150.706L152.248 318.248H153.601V324H152.677V319.37H152.656L151.136 324H150.19L148.67 319.37H148.649V324H147.725V318.248ZM154.491 319.972C154.501 319.621 154.568 319.325 154.689 319.085C154.811 318.842 154.976 318.645 155.183 318.495C155.391 318.344 155.636 318.237 155.919 318.172C156.206 318.104 156.517 318.07 156.854 318.07C157.133 318.07 157.403 318.099 157.665 318.156C157.93 318.214 158.164 318.307 158.368 318.436C158.573 318.561 158.735 318.726 158.857 318.93C158.983 319.13 159.045 319.375 159.045 319.666V323.012C159.045 323.105 159.07 323.185 159.12 323.253C159.171 323.318 159.251 323.35 159.362 323.35C159.412 323.35 159.464 323.347 159.518 323.339C159.572 323.329 159.627 323.318 159.684 323.307V323.989C159.602 324.011 159.52 324.03 159.437 324.048C159.359 324.066 159.264 324.075 159.153 324.075C158.981 324.075 158.832 324.061 158.707 324.032C158.585 324.004 158.481 323.957 158.395 323.893C158.313 323.825 158.249 323.739 158.202 323.635C158.155 323.527 158.125 323.397 158.111 323.243C157.989 323.375 157.86 323.499 157.724 323.613C157.588 323.724 157.436 323.823 157.267 323.909C157.099 323.991 156.911 324.056 156.703 324.102C156.496 324.152 156.261 324.177 156 324.177C155.778 324.177 155.561 324.141 155.35 324.07C155.142 323.998 154.954 323.893 154.786 323.753C154.621 323.613 154.489 323.441 154.388 323.237C154.288 323.03 154.238 322.79 154.238 322.518C154.238 322.22 154.288 321.964 154.388 321.75C154.489 321.531 154.619 321.35 154.781 321.207C154.942 321.06 155.126 320.947 155.334 320.869C155.541 320.79 155.753 320.738 155.968 320.713L157.584 320.514C157.738 320.496 157.858 320.437 157.944 320.337C158.034 320.233 158.078 320.068 158.078 319.843C158.078 319.495 157.964 319.247 157.735 319.096C157.509 318.942 157.183 318.865 156.757 318.865C156.32 318.865 155.994 318.958 155.78 319.145C155.565 319.327 155.443 319.603 155.414 319.972H154.491ZM158.057 321.073C157.978 321.13 157.88 321.178 157.762 321.218C157.647 321.254 157.52 321.284 157.38 321.309C157.241 321.334 157.092 321.357 156.934 321.379C156.777 321.397 156.619 321.417 156.462 321.438C156.283 321.463 156.118 321.499 155.968 321.545C155.817 321.592 155.686 321.653 155.575 321.728C155.464 321.803 155.379 321.895 155.318 322.002C155.257 322.106 155.226 322.229 155.226 322.373C155.226 322.537 155.251 322.682 155.302 322.808C155.355 322.933 155.427 323.039 155.516 323.125C155.61 323.21 155.721 323.275 155.849 323.318C155.978 323.361 156.12 323.382 156.274 323.382C156.37 323.382 156.481 323.372 156.607 323.35C156.732 323.325 156.861 323.289 156.993 323.243C157.126 323.196 157.255 323.137 157.38 323.065C157.509 322.99 157.624 322.901 157.724 322.797C157.824 322.693 157.905 322.575 157.966 322.442C158.026 322.31 158.057 322.161 158.057 321.997V321.073ZM164.753 324H163.759V321.723H162.486C162.257 321.723 162.056 321.728 161.884 321.739C161.716 321.746 161.573 321.778 161.455 321.835C161.337 321.893 161.243 321.982 161.175 322.104C161.111 322.226 161.07 322.399 161.052 322.625L161.009 323.243C161.005 323.261 161.002 323.296 160.998 323.35C160.995 323.404 160.987 323.468 160.977 323.543C160.966 323.615 160.952 323.692 160.934 323.774C160.916 323.857 160.894 323.932 160.869 324H159.779C159.804 323.968 159.827 323.936 159.849 323.903C159.874 323.868 159.897 323.819 159.919 323.758C159.944 323.697 159.965 323.619 159.983 323.522C160.004 323.425 160.024 323.302 160.042 323.151L160.107 322.416C160.128 322.222 160.153 322.065 160.182 321.943C160.214 321.821 160.257 321.721 160.311 321.642C160.368 321.56 160.441 321.493 160.531 321.443C160.62 321.39 160.733 321.336 160.869 321.282C160.253 321.06 159.945 320.605 159.945 319.918C159.945 319.746 159.967 319.589 160.01 319.445C160.053 319.299 160.108 319.168 160.176 319.053C160.248 318.939 160.327 318.838 160.413 318.752C160.502 318.663 160.592 318.59 160.681 318.532C160.792 318.461 160.914 318.407 161.046 318.371C161.179 318.332 161.311 318.303 161.444 318.285C161.58 318.267 161.712 318.257 161.841 318.253C161.97 318.249 162.088 318.248 162.196 318.248H164.753V324ZM163.759 319.118H162.255C162.126 319.118 162.015 319.119 161.922 319.123C161.829 319.123 161.747 319.127 161.675 319.134C161.607 319.141 161.544 319.153 161.487 319.171C161.43 319.189 161.371 319.214 161.31 319.247C161.184 319.318 161.088 319.424 161.02 319.563C160.955 319.703 160.923 319.852 160.923 320.009C160.923 320.163 160.946 320.294 160.993 320.401C161.039 320.505 161.1 320.591 161.175 320.659C161.254 320.727 161.34 320.781 161.433 320.82C161.53 320.856 161.627 320.883 161.723 320.901C161.824 320.915 161.92 320.924 162.013 320.928C162.106 320.931 162.187 320.933 162.255 320.933H163.759V319.118Z" fill="white"/>
<path d="M252.053 104.554V103.812C252.751 103.744 253.238 103.632 253.514 103.474C253.789 103.313 253.995 102.935 254.131 102.341H254.894V110H253.863V104.554H252.053ZM262.325 102.438V103.281C262.078 103.521 261.749 103.938 261.337 104.532C260.929 105.127 260.567 105.768 260.252 106.455C259.941 107.125 259.704 107.735 259.543 108.287C259.439 108.641 259.305 109.212 259.14 110H258.072C258.315 108.532 258.852 107.071 259.683 105.617C260.173 104.765 260.689 104.029 261.23 103.41H256.976V102.438H262.325Z" fill="white"/>
<path d="M204.725 318.248H206.165L207.685 322.963H207.706L209.248 318.248H210.601V324H209.677V319.37H209.656L208.136 324H207.19L205.67 319.37H205.649V324H204.725V318.248ZM211.491 319.972C211.501 319.621 211.568 319.325 211.689 319.085C211.811 318.842 211.976 318.645 212.183 318.495C212.391 318.344 212.636 318.237 212.919 318.172C213.206 318.104 213.517 318.07 213.854 318.07C214.133 318.07 214.403 318.099 214.665 318.156C214.93 318.214 215.164 318.307 215.368 318.436C215.573 318.561 215.735 318.726 215.857 318.93C215.983 319.13 216.045 319.375 216.045 319.666V323.012C216.045 323.105 216.07 323.185 216.12 323.253C216.171 323.318 216.251 323.35 216.362 323.35C216.412 323.35 216.464 323.347 216.518 323.339C216.572 323.329 216.627 323.318 216.684 323.307V323.989C216.602 324.011 216.52 324.03 216.437 324.048C216.359 324.066 216.264 324.075 216.153 324.075C215.981 324.075 215.832 324.061 215.707 324.032C215.585 324.004 215.481 323.957 215.395 323.893C215.313 323.825 215.249 323.739 215.202 323.635C215.155 323.527 215.125 323.397 215.111 323.243C214.989 323.375 214.86 323.499 214.724 323.613C214.588 323.724 214.436 323.823 214.267 323.909C214.099 323.991 213.911 324.056 213.703 324.102C213.496 324.152 213.261 324.177 213 324.177C212.778 324.177 212.561 324.141 212.35 324.07C212.142 323.998 211.954 323.893 211.786 323.753C211.621 323.613 211.489 323.441 211.388 323.237C211.288 323.03 211.238 322.79 211.238 322.518C211.238 322.22 211.288 321.964 211.388 321.75C211.489 321.531 211.619 321.35 211.781 321.207C211.942 321.06 212.126 320.947 212.334 320.869C212.541 320.79 212.753 320.738 212.968 320.713L214.584 320.514C214.738 320.496 214.858 320.437 214.944 320.337C215.034 320.233 215.078 320.068 215.078 319.843C215.078 319.495 214.964 319.247 214.735 319.096C214.509 318.942 214.183 318.865 213.757 318.865C213.32 318.865 212.994 318.958 212.78 319.145C212.565 319.327 212.443 319.603 212.414 319.972H211.491ZM215.057 321.073C214.978 321.13 214.88 321.178 214.762 321.218C214.647 321.254 214.52 321.284 214.38 321.309C214.241 321.334 214.092 321.357 213.934 321.379C213.777 321.397 213.619 321.417 213.462 321.438C213.283 321.463 213.118 321.499 212.968 321.545C212.817 321.592 212.686 321.653 212.575 321.728C212.464 321.803 212.379 321.895 212.318 322.002C212.257 322.106 212.226 322.229 212.226 322.373C212.226 322.537 212.251 322.682 212.302 322.808C212.355 322.933 212.427 323.039 212.516 323.125C212.61 323.21 212.721 323.275 212.849 323.318C212.978 323.361 213.12 323.382 213.274 323.382C213.37 323.382 213.481 323.372 213.607 323.35C213.732 323.325 213.861 323.289 213.993 323.243C214.126 323.196 214.255 323.137 214.38 323.065C214.509 322.99 214.624 322.901 214.724 322.797C214.824 322.693 214.905 322.575 214.966 322.442C215.026 322.31 215.057 322.161 215.057 321.997V321.073ZM221.753 324H220.759V321.723H219.486C219.257 321.723 219.056 321.728 218.884 321.739C218.716 321.746 218.573 321.778 218.455 321.835C218.337 321.893 218.243 321.982 218.175 322.104C218.111 322.226 218.07 322.399 218.052 322.625L218.009 323.243C218.005 323.261 218.002 323.296 217.998 323.35C217.995 323.404 217.987 323.468 217.977 323.543C217.966 323.615 217.952 323.692 217.934 323.774C217.916 323.857 217.894 323.932 217.869 324H216.779C216.804 323.968 216.827 323.936 216.849 323.903C216.874 323.868 216.897 323.819 216.919 323.758C216.944 323.697 216.965 323.619 216.983 323.522C217.004 323.425 217.024 323.302 217.042 323.151L217.107 322.416C217.128 322.222 217.153 322.065 217.182 321.943C217.214 321.821 217.257 321.721 217.311 321.642C217.368 321.56 217.441 321.493 217.531 321.443C217.62 321.39 217.733 321.336 217.869 321.282C217.253 321.06 216.945 320.605 216.945 319.918C216.945 319.746 216.967 319.589 217.01 319.445C217.053 319.299 217.108 319.168 217.176 319.053C217.248 318.939 217.327 318.838 217.413 318.752C217.502 318.663 217.592 318.59 217.681 318.532C217.792 318.461 217.914 318.407 218.046 318.371C218.179 318.332 218.311 318.303 218.444 318.285C218.58 318.267 218.712 318.257 218.841 318.253C218.97 318.249 219.088 318.248 219.196 318.248H221.753V324ZM220.759 319.118H219.255C219.126 319.118 219.015 319.119 218.922 319.123C218.829 319.123 218.747 319.127 218.675 319.134C218.607 319.141 218.544 319.153 218.487 319.171C218.43 319.189 218.371 319.214 218.31 319.247C218.184 319.318 218.088 319.424 218.02 319.563C217.955 319.703 217.923 319.852 217.923 320.009C217.923 320.163 217.946 320.294 217.993 320.401C218.039 320.505 218.1 320.591 218.175 320.659C218.254 320.727 218.34 320.781 218.433 320.82C218.53 320.856 218.627 320.883 218.723 320.901C218.824 320.915 218.92 320.924 219.013 320.928C219.106 320.931 219.187 320.933 219.255 320.933H220.759V319.118Z" fill="white"/>
<path d="M298.053 104.554V103.812C298.751 103.744 299.238 103.632 299.514 103.474C299.789 103.313 299.995 102.935 300.131 102.341H300.894V110H299.863V104.554H298.053ZM308.325 102.438V103.281C308.078 103.521 307.749 103.938 307.337 104.532C306.929 105.127 306.567 105.768 306.252 106.455C305.941 107.125 305.704 107.735 305.543 108.287C305.439 108.641 305.305 109.212 305.14 110H304.072C304.315 108.532 304.852 107.071 305.683 105.617C306.173 104.765 306.689 104.029 307.23 103.41H302.976V102.438H308.325Z" fill="white"/>
<path d="M261.725 318.248H263.165L264.685 322.963H264.706L266.248 318.248H267.601V324H266.677V319.37H266.656L265.136 324H264.19L262.67 319.37H262.649V324H261.725V318.248ZM268.491 319.972C268.501 319.621 268.568 319.325 268.689 319.085C268.811 318.842 268.976 318.645 269.183 318.495C269.391 318.344 269.636 318.237 269.919 318.172C270.206 318.104 270.517 318.07 270.854 318.07C271.133 318.07 271.403 318.099 271.665 318.156C271.93 318.214 272.164 318.307 272.368 318.436C272.573 318.561 272.735 318.726 272.857 318.93C272.983 319.13 273.045 319.375 273.045 319.666V323.012C273.045 323.105 273.07 323.185 273.12 323.253C273.171 323.318 273.251 323.35 273.362 323.35C273.412 323.35 273.464 323.347 273.518 323.339C273.572 323.329 273.627 323.318 273.684 323.307V323.989C273.602 324.011 273.52 324.03 273.437 324.048C273.359 324.066 273.264 324.075 273.153 324.075C272.981 324.075 272.832 324.061 272.707 324.032C272.585 324.004 272.481 323.957 272.395 323.893C272.313 323.825 272.249 323.739 272.202 323.635C272.155 323.527 272.125 323.397 272.111 323.243C271.989 323.375 271.86 323.499 271.724 323.613C271.588 323.724 271.436 323.823 271.267 323.909C271.099 323.991 270.911 324.056 270.703 324.102C270.496 324.152 270.261 324.177 270 324.177C269.778 324.177 269.561 324.141 269.35 324.07C269.142 323.998 268.954 323.893 268.786 323.753C268.621 323.613 268.489 323.441 268.388 323.237C268.288 323.03 268.238 322.79 268.238 322.518C268.238 322.22 268.288 321.964 268.388 321.75C268.489 321.531 268.619 321.35 268.781 321.207C268.942 321.06 269.126 320.947 269.334 320.869C269.541 320.79 269.753 320.738 269.968 320.713L271.584 320.514C271.738 320.496 271.858 320.437 271.944 320.337C272.034 320.233 272.078 320.068 272.078 319.843C272.078 319.495 271.964 319.247 271.735 319.096C271.509 318.942 271.183 318.865 270.757 318.865C270.32 318.865 269.994 318.958 269.78 319.145C269.565 319.327 269.443 319.603 269.414 319.972H268.491ZM272.057 321.073C271.978 321.13 271.88 321.178 271.762 321.218C271.647 321.254 271.52 321.284 271.38 321.309C271.241 321.334 271.092 321.357 270.934 321.379C270.777 321.397 270.619 321.417 270.462 321.438C270.283 321.463 270.118 321.499 269.968 321.545C269.817 321.592 269.686 321.653 269.575 321.728C269.464 321.803 269.379 321.895 269.318 322.002C269.257 322.106 269.226 322.229 269.226 322.373C269.226 322.537 269.251 322.682 269.302 322.808C269.355 322.933 269.427 323.039 269.516 323.125C269.61 323.21 269.721 323.275 269.849 323.318C269.978 323.361 270.12 323.382 270.274 323.382C270.37 323.382 270.481 323.372 270.607 323.35C270.732 323.325 270.861 323.289 270.993 323.243C271.126 323.196 271.255 323.137 271.38 323.065C271.509 322.99 271.624 322.901 271.724 322.797C271.824 322.693 271.905 322.575 271.966 322.442C272.026 322.31 272.057 322.161 272.057 321.997V321.073ZM278.753 324H277.759V321.723H276.486C276.257 321.723 276.056 321.728 275.884 321.739C275.716 321.746 275.573 321.778 275.455 321.835C275.337 321.893 275.243 321.982 275.175 322.104C275.111 322.226 275.07 322.399 275.052 322.625L275.009 323.243C275.005 323.261 275.002 323.296 274.998 323.35C274.995 323.404 274.987 323.468 274.977 323.543C274.966 323.615 274.952 323.692 274.934 323.774C274.916 323.857 274.894 323.932 274.869 324H273.779C273.804 323.968 273.827 323.936 273.849 323.903C273.874 323.868 273.897 323.819 273.919 323.758C273.944 323.697 273.965 323.619 273.983 323.522C274.004 323.425 274.024 323.302 274.042 323.151L274.107 322.416C274.128 322.222 274.153 322.065 274.182 321.943C274.214 321.821 274.257 321.721 274.311 321.642C274.368 321.56 274.441 321.493 274.531 321.443C274.62 321.39 274.733 321.336 274.869 321.282C274.253 321.06 273.945 320.605 273.945 319.918C273.945 319.746 273.967 319.589 274.01 319.445C274.053 319.299 274.108 319.168 274.176 319.053C274.248 318.939 274.327 318.838 274.413 318.752C274.502 318.663 274.592 318.59 274.681 318.532C274.792 318.461 274.914 318.407 275.046 318.371C275.179 318.332 275.311 318.303 275.444 318.285C275.58 318.267 275.712 318.257 275.841 318.253C275.97 318.249 276.088 318.248 276.196 318.248H278.753V324ZM277.759 319.118H276.255C276.126 319.118 276.015 319.119 275.922 319.123C275.829 319.123 275.747 319.127 275.675 319.134C275.607 319.141 275.544 319.153 275.487 319.171C275.43 319.189 275.371 319.214 275.31 319.247C275.184 319.318 275.088 319.424 275.02 319.563C274.955 319.703 274.923 319.852 274.923 320.009C274.923 320.163 274.946 320.294 274.993 320.401C275.039 320.505 275.1 320.591 275.175 320.659C275.254 320.727 275.34 320.781 275.433 320.82C275.53 320.856 275.627 320.883 275.723 320.901C275.824 320.915 275.92 320.924 276.013 320.928C276.106 320.931 276.187 320.933 276.255 320.933H277.759V319.118Z" fill="white"/>
<path d="M102.053 104.554V103.812C102.751 103.744 103.238 103.632 103.514 103.474C103.789 103.313 103.995 102.935 104.131 102.341H104.894V110H103.863V104.554H102.053ZM112.325 102.438V103.281C112.078 103.521 111.749 103.938 111.337 104.532C110.929 105.127 110.567 105.768 110.252 106.455C109.941 107.125 109.704 107.735 109.543 108.287C109.439 108.641 109.305 109.212 109.14 110H108.072C108.315 108.532 108.852 107.071 109.683 105.617C110.173 104.765 110.689 104.029 111.23 103.41H106.976V102.438H112.325Z" fill="white"/>
<path d="M35.7251 318.248H37.1646L38.6846 322.963H38.7061L40.2476 318.248H41.6011V324H40.6772V319.37H40.6558L39.1357 324H38.1904L36.6704 319.37H36.6489V324H35.7251V318.248ZM42.4905 319.972C42.5013 319.621 42.5675 319.325 42.6893 319.085C42.811 318.842 42.9757 318.645 43.1834 318.495C43.3911 318.344 43.6364 318.237 43.9192 318.172C44.2057 318.104 44.5172 318.07 44.8538 318.07C45.1331 318.07 45.4035 318.099 45.6648 318.156C45.9298 318.214 46.1644 318.307 46.3685 318.436C46.5726 318.561 46.7355 318.726 46.8572 318.93C46.9826 319.13 47.0452 319.375 47.0452 319.666V323.012C47.0452 323.105 47.0703 323.185 47.1204 323.253C47.1705 323.318 47.2511 323.35 47.3621 323.35C47.4122 323.35 47.4642 323.347 47.5179 323.339C47.5716 323.329 47.6271 323.318 47.6844 323.307V323.989C47.602 324.011 47.5197 324.03 47.4373 324.048C47.3585 324.066 47.2636 324.075 47.1526 324.075C46.9808 324.075 46.8322 324.061 46.7068 324.032C46.5851 324.004 46.4812 323.957 46.3953 323.893C46.313 323.825 46.2485 323.739 46.202 323.635C46.1554 323.527 46.125 323.397 46.1106 323.243C45.9889 323.375 45.86 323.499 45.7239 323.613C45.5879 323.724 45.4357 323.823 45.2674 323.909C45.0991 323.991 44.9111 324.056 44.7034 324.102C44.4957 324.152 44.2612 324.177 43.9998 324.177C43.7778 324.177 43.5612 324.141 43.3499 324.07C43.1422 323.998 42.9542 323.893 42.7859 323.753C42.6212 323.613 42.4887 323.441 42.3885 323.237C42.2882 323.03 42.2381 322.79 42.2381 322.518C42.2381 322.22 42.2882 321.964 42.3885 321.75C42.4887 321.531 42.6194 321.35 42.7806 321.207C42.9417 321.06 43.1261 320.947 43.3338 320.869C43.5415 320.79 43.7527 320.738 43.9676 320.713L45.5843 320.514C45.7382 320.496 45.8582 320.437 45.9441 320.337C46.0337 320.233 46.0784 320.068 46.0784 319.843C46.0784 319.495 45.9638 319.247 45.7347 319.096C45.5091 318.942 45.1832 318.865 44.7571 318.865C44.3203 318.865 43.9944 318.958 43.7796 319.145C43.5647 319.327 43.443 319.603 43.4144 319.972H42.4905ZM46.0569 321.073C45.9782 321.13 45.8797 321.178 45.7615 321.218C45.6469 321.254 45.5198 321.284 45.3802 321.309C45.2405 321.334 45.0919 321.357 44.9344 321.379C44.7768 321.397 44.6193 321.417 44.4617 321.438C44.2827 321.463 44.118 321.499 43.9676 321.545C43.8172 321.592 43.6865 321.653 43.5755 321.728C43.4645 321.803 43.3785 321.895 43.3177 322.002C43.2568 322.106 43.2264 322.229 43.2264 322.373C43.2264 322.537 43.2514 322.682 43.3016 322.808C43.3553 322.933 43.4269 323.039 43.5164 323.125C43.6095 323.21 43.7205 323.275 43.8494 323.318C43.9783 323.361 44.1198 323.382 44.2737 323.382C44.3704 323.382 44.4814 323.372 44.6067 323.35C44.7321 323.325 44.861 323.289 44.9935 323.243C45.1259 323.196 45.2549 323.137 45.3802 323.065C45.5091 322.99 45.6237 322.901 45.7239 322.797C45.8242 322.693 45.9048 322.575 45.9656 322.442C46.0265 322.31 46.0569 322.161 46.0569 321.997V321.073ZM52.7525 324H51.7589V321.723H50.4859C50.2568 321.723 50.0562 321.728 49.8844 321.739C49.7161 321.746 49.5729 321.778 49.4547 321.835C49.3365 321.893 49.2434 321.982 49.1754 322.104C49.1109 322.226 49.0698 322.399 49.0519 322.625L49.0089 323.243C49.0053 323.261 49.0017 323.296 48.9981 323.35C48.9946 323.404 48.9874 323.468 48.9767 323.543C48.9659 323.615 48.9516 323.692 48.9337 323.774C48.9158 323.857 48.8943 323.932 48.8692 324H47.7789C47.804 323.968 47.8272 323.936 47.8487 323.903C47.8738 323.868 47.8971 323.819 47.9186 323.758C47.9436 323.697 47.9651 323.619 47.983 323.522C48.0045 323.425 48.0242 323.302 48.0421 323.151L48.1065 322.416C48.128 322.222 48.1531 322.065 48.1817 321.943C48.214 321.821 48.2569 321.721 48.3106 321.642C48.3679 321.56 48.4413 321.493 48.5309 321.443C48.6204 321.39 48.7332 321.336 48.8692 321.282C48.2534 321.06 47.9454 320.605 47.9454 319.918C47.9454 319.746 47.9669 319.589 48.0099 319.445C48.0528 319.299 48.1083 319.168 48.1764 319.053C48.248 318.939 48.3268 318.838 48.4127 318.752C48.5022 318.663 48.5917 318.59 48.6812 318.532C48.7923 318.461 48.914 318.407 49.0465 318.371C49.179 318.332 49.3115 318.303 49.4439 318.285C49.58 318.267 49.7125 318.257 49.8414 318.253C49.9703 318.249 50.0885 318.248 50.1959 318.248H52.7525V324ZM51.7589 319.118H50.255C50.1261 319.118 50.0151 319.119 49.922 319.123C49.8289 319.123 49.7465 319.127 49.6749 319.134C49.6069 319.141 49.5442 319.153 49.4869 319.171C49.4296 319.189 49.3705 319.214 49.3097 319.247C49.1843 319.318 49.0877 319.424 49.0196 319.563C48.9552 319.703 48.9229 319.852 48.9229 320.009C48.9229 320.163 48.9462 320.294 48.9928 320.401C49.0393 320.505 49.1002 320.591 49.1754 320.659C49.2542 320.727 49.3401 320.781 49.4332 320.82C49.5299 320.856 49.6266 320.883 49.7232 320.901C49.8235 320.915 49.9202 320.924 50.0133 320.928C50.1064 320.931 50.1869 320.933 50.255 320.933H51.7589V319.118Z" fill="white"/>
<path d="M151.053 104.554V103.812C151.751 103.744 152.238 103.632 152.514 103.474C152.789 103.313 152.995 102.935 153.131 102.341H153.894V110H152.863V104.554H151.053ZM161.325 102.438V103.281C161.078 103.521 160.749 103.938 160.337 104.532C159.929 105.127 159.567 105.768 159.252 106.455C158.941 107.125 158.704 107.735 158.543 108.287C158.439 108.641 158.305 109.212 158.14 110H157.072C157.315 108.532 157.852 107.071 158.683 105.617C159.173 104.765 159.689 104.029 160.23 103.41H155.976V102.438H161.325Z" fill="white"/>
<path d="M91.7251 318.248H93.1646L94.6846 322.963H94.7061L96.2476 318.248H97.6011V324H96.6772V319.37H96.6558L95.1357 324H94.1904L92.6704 319.37H92.6489V324H91.7251V318.248ZM98.4905 319.972C98.5013 319.621 98.5675 319.325 98.6893 319.085C98.811 318.842 98.9757 318.645 99.1834 318.495C99.3911 318.344 99.6364 318.237 99.9192 318.172C100.206 318.104 100.517 318.07 100.854 318.07C101.133 318.07 101.403 318.099 101.665 318.156C101.93 318.214 102.164 318.307 102.368 318.436C102.573 318.561 102.735 318.726 102.857 318.93C102.983 319.13 103.045 319.375 103.045 319.666V323.012C103.045 323.105 103.07 323.185 103.12 323.253C103.171 323.318 103.251 323.35 103.362 323.35C103.412 323.35 103.464 323.347 103.518 323.339C103.572 323.329 103.627 323.318 103.684 323.307V323.989C103.602 324.011 103.52 324.03 103.437 324.048C103.359 324.066 103.264 324.075 103.153 324.075C102.981 324.075 102.832 324.061 102.707 324.032C102.585 324.004 102.481 323.957 102.395 323.893C102.313 323.825 102.249 323.739 102.202 323.635C102.155 323.527 102.125 323.397 102.111 323.243C101.989 323.375 101.86 323.499 101.724 323.613C101.588 323.724 101.436 323.823 101.267 323.909C101.099 323.991 100.911 324.056 100.703 324.102C100.496 324.152 100.261 324.177 99.9998 324.177C99.7778 324.177 99.5612 324.141 99.3499 324.07C99.1422 323.998 98.9542 323.893 98.7859 323.753C98.6212 323.613 98.4887 323.441 98.3885 323.237C98.2882 323.03 98.2381 322.79 98.2381 322.518C98.2381 322.22 98.2882 321.964 98.3885 321.75C98.4887 321.531 98.6194 321.35 98.7806 321.207C98.9417 321.06 99.1261 320.947 99.3338 320.869C99.5415 320.79 99.7527 320.738 99.9676 320.713L101.584 320.514C101.738 320.496 101.858 320.437 101.944 320.337C102.034 320.233 102.078 320.068 102.078 319.843C102.078 319.495 101.964 319.247 101.735 319.096C101.509 318.942 101.183 318.865 100.757 318.865C100.32 318.865 99.9944 318.958 99.7796 319.145C99.5647 319.327 99.443 319.603 99.4144 319.972H98.4905ZM102.057 321.073C101.978 321.13 101.88 321.178 101.762 321.218C101.647 321.254 101.52 321.284 101.38 321.309C101.241 321.334 101.092 321.357 100.934 321.379C100.777 321.397 100.619 321.417 100.462 321.438C100.283 321.463 100.118 321.499 99.9676 321.545C99.8172 321.592 99.6865 321.653 99.5755 321.728C99.4645 321.803 99.3785 321.895 99.3177 322.002C99.2568 322.106 99.2264 322.229 99.2264 322.373C99.2264 322.537 99.2514 322.682 99.3016 322.808C99.3553 322.933 99.4269 323.039 99.5164 323.125C99.6095 323.21 99.7205 323.275 99.8494 323.318C99.9783 323.361 100.12 323.382 100.274 323.382C100.37 323.382 100.481 323.372 100.607 323.35C100.732 323.325 100.861 323.289 100.993 323.243C101.126 323.196 101.255 323.137 101.38 323.065C101.509 322.99 101.624 322.901 101.724 322.797C101.824 322.693 101.905 322.575 101.966 322.442C102.026 322.31 102.057 322.161 102.057 321.997V321.073ZM108.753 324H107.759V321.723H106.486C106.257 321.723 106.056 321.728 105.884 321.739C105.716 321.746 105.573 321.778 105.455 321.835C105.337 321.893 105.243 321.982 105.175 322.104C105.111 322.226 105.07 322.399 105.052 322.625L105.009 323.243C105.005 323.261 105.002 323.296 104.998 323.35C104.995 323.404 104.987 323.468 104.977 323.543C104.966 323.615 104.952 323.692 104.934 323.774C104.916 323.857 104.894 323.932 104.869 324H103.779C103.804 323.968 103.827 323.936 103.849 323.903C103.874 323.868 103.897 323.819 103.919 323.758C103.944 323.697 103.965 323.619 103.983 323.522C104.004 323.425 104.024 323.302 104.042 323.151L104.107 322.416C104.128 322.222 104.153 322.065 104.182 321.943C104.214 321.821 104.257 321.721 104.311 321.642C104.368 321.56 104.441 321.493 104.531 321.443C104.62 321.39 104.733 321.336 104.869 321.282C104.253 321.06 103.945 320.605 103.945 319.918C103.945 319.746 103.967 319.589 104.01 319.445C104.053 319.299 104.108 319.168 104.176 319.053C104.248 318.939 104.327 318.838 104.413 318.752C104.502 318.663 104.592 318.59 104.681 318.532C104.792 318.461 104.914 318.407 105.046 318.371C105.179 318.332 105.311 318.303 105.444 318.285C105.58 318.267 105.712 318.257 105.841 318.253C105.97 318.249 106.088 318.248 106.196 318.248H108.753V324ZM107.759 319.118H106.255C106.126 319.118 106.015 319.119 105.922 319.123C105.829 319.123 105.747 319.127 105.675 319.134C105.607 319.141 105.544 319.153 105.487 319.171C105.43 319.189 105.371 319.214 105.31 319.247C105.184 319.318 105.088 319.424 105.02 319.563C104.955 319.703 104.923 319.852 104.923 320.009C104.923 320.163 104.946 320.294 104.993 320.401C105.039 320.505 105.1 320.591 105.175 320.659C105.254 320.727 105.34 320.781 105.433 320.82C105.53 320.856 105.627 320.883 105.723 320.901C105.824 320.915 105.92 320.924 106.013 320.928C106.106 320.931 106.187 320.933 106.255 320.933H107.759V319.118Z" fill="white"/>
<rect x="31" y="88" width="136" height="79" fill="white"/>
<rect x="222" y="158" width="87" height="107" fill="white"/>
<path d="M38.2812 449.883H35.3984V448.633H42.6016V449.883H39.7188V457H38.2812V449.883ZM50.3797 454.328C50.3224 454.693 50.1974 455.049 50.0047 455.398C49.812 455.747 49.5594 456.06 49.2469 456.336C48.9344 456.612 48.5646 456.833 48.1375 457C47.7156 457.172 47.2469 457.258 46.7312 457.258C46.1687 457.258 45.6479 457.167 45.1687 456.984C44.6948 456.797 44.2833 456.518 43.9344 456.148C43.5906 455.773 43.3198 455.305 43.1219 454.742C42.924 454.18 42.825 453.518 42.825 452.758C42.825 452.247 42.8797 451.786 42.9891 451.375C43.1036 450.958 43.2547 450.589 43.4422 450.266C43.6349 449.938 43.8562 449.656 44.1062 449.422C44.3562 449.182 44.6193 448.987 44.8953 448.836C45.1766 448.68 45.463 448.565 45.7547 448.492C46.0464 448.414 46.3276 448.375 46.5984 448.375C47.1714 448.375 47.6948 448.461 48.1687 448.633C48.6427 448.805 49.049 449.068 49.3875 449.422C49.7312 449.771 49.9969 450.211 50.1844 450.742C50.3771 451.268 50.4734 451.888 50.4734 452.602V453.32H44.3562C44.3615 453.727 44.4187 454.096 44.5281 454.43C44.6375 454.758 44.7937 455.039 44.9969 455.273C45.2 455.508 45.4448 455.69 45.7312 455.82C46.0229 455.945 46.351 456.008 46.7156 456.008C47.0854 456.008 47.3979 455.956 47.6531 455.852C47.9083 455.747 48.1219 455.615 48.2937 455.453C48.4656 455.292 48.6036 455.112 48.7078 454.914C48.8172 454.716 48.9083 454.521 48.9812 454.328H50.3797ZM49.0281 452.172C49.0177 451.766 48.9552 451.404 48.8406 451.086C48.7312 450.768 48.575 450.503 48.3719 450.289C48.174 450.07 47.9344 449.906 47.6531 449.797C47.3719 449.682 47.0594 449.625 46.7156 449.625C46.3875 449.625 46.0854 449.69 45.8094 449.82C45.5333 449.945 45.2911 450.122 45.0828 450.352C44.8745 450.576 44.7078 450.844 44.5828 451.156C44.4578 451.464 44.3823 451.802 44.3562 452.172H49.0281ZM51.3453 451.141C51.3609 450.63 51.4573 450.201 51.6344 449.852C51.8115 449.497 52.051 449.211 52.3531 448.992C52.6552 448.773 53.012 448.617 53.4234 448.523C53.8401 448.424 54.2932 448.375 54.7828 448.375C55.1891 448.375 55.5823 448.417 55.9625 448.5C56.3479 448.583 56.6891 448.719 56.9859 448.906C57.2828 449.089 57.5198 449.328 57.6969 449.625C57.8792 449.917 57.9703 450.273 57.9703 450.695V455.562C57.9703 455.698 58.0068 455.815 58.0797 455.914C58.1526 456.008 58.2698 456.055 58.4312 456.055C58.5042 456.055 58.5797 456.049 58.6578 456.039C58.7359 456.023 58.8167 456.008 58.9 455.992V456.984C58.7802 457.016 58.6604 457.044 58.5406 457.07C58.426 457.096 58.288 457.109 58.1266 457.109C57.8766 457.109 57.6604 457.089 57.4781 457.047C57.301 457.005 57.15 456.938 57.025 456.844C56.9052 456.745 56.8115 456.62 56.7437 456.469C56.676 456.312 56.6318 456.122 56.6109 455.898C56.4339 456.091 56.2464 456.271 56.0484 456.438C55.8505 456.599 55.6292 456.742 55.3844 456.867C55.1396 456.987 54.8661 457.081 54.5641 457.148C54.262 457.221 53.9208 457.258 53.5406 457.258C53.2177 457.258 52.9026 457.206 52.5953 457.102C52.2932 456.997 52.0198 456.844 51.775 456.641C51.5354 456.438 51.3427 456.188 51.1969 455.891C51.051 455.589 50.9781 455.24 50.9781 454.844C50.9781 454.411 51.051 454.039 51.1969 453.727C51.3427 453.409 51.5328 453.146 51.7672 452.938C52.0016 452.724 52.2698 452.56 52.5719 452.445C52.874 452.331 53.1812 452.255 53.4937 452.219L55.8453 451.93C56.0693 451.904 56.2437 451.818 56.3687 451.672C56.499 451.521 56.5641 451.281 56.5641 450.953C56.5641 450.448 56.3974 450.086 56.0641 449.867C55.7359 449.643 55.262 449.531 54.6422 449.531C54.0068 449.531 53.5328 449.667 53.2203 449.938C52.9078 450.203 52.7307 450.604 52.6891 451.141H51.3453ZM56.5328 452.742C56.4182 452.826 56.275 452.896 56.1031 452.953C55.9365 453.005 55.7516 453.049 55.5484 453.086C55.3453 453.122 55.1292 453.156 54.9 453.188C54.6708 453.214 54.4417 453.242 54.2125 453.273C53.9521 453.31 53.7125 453.362 53.4937 453.43C53.275 453.497 53.0849 453.586 52.9234 453.695C52.762 453.805 52.637 453.938 52.5484 454.094C52.4599 454.245 52.4156 454.424 52.4156 454.633C52.4156 454.872 52.4521 455.083 52.525 455.266C52.6031 455.448 52.7073 455.602 52.8375 455.727C52.9729 455.852 53.1344 455.945 53.3219 456.008C53.5094 456.07 53.7151 456.102 53.9391 456.102C54.0797 456.102 54.2411 456.086 54.4234 456.055C54.6057 456.018 54.7932 455.966 54.9859 455.898C55.1786 455.831 55.3661 455.745 55.5484 455.641C55.7359 455.531 55.9026 455.401 56.0484 455.25C56.1943 455.099 56.3115 454.927 56.4 454.734C56.4885 454.542 56.5328 454.326 56.5328 454.086V452.742ZM61.6938 449.883H58.8109V448.633H66.0141V449.883H63.1313V457H61.6938V449.883ZM66.5891 448.633H68.0266V449.781H68.0578C68.1516 449.589 68.2687 449.406 68.4094 449.234C68.5552 449.062 68.7271 448.914 68.925 448.789C69.1281 448.659 69.3599 448.557 69.6203 448.484C69.8859 448.411 70.188 448.375 70.5266 448.375C70.9745 448.375 71.4042 448.461 71.8156 448.633C72.2271 448.805 72.5917 449.062 72.9094 449.406C73.2271 449.75 73.4797 450.182 73.6672 450.703C73.8547 451.219 73.9484 451.82 73.9484 452.508C73.9484 453.367 73.8599 454.099 73.6828 454.703C73.5109 455.302 73.2635 455.792 72.9406 456.172C72.6229 456.552 72.2375 456.828 71.7844 457C71.3312 457.172 70.826 457.258 70.2687 457.258C69.9927 457.258 69.7349 457.221 69.4953 457.148C69.2557 457.076 69.0396 456.982 68.8469 456.867C68.6594 456.747 68.4979 456.617 68.3625 456.477C68.2271 456.331 68.1255 456.19 68.0578 456.055H68.0266V460.297H66.5891V448.633ZM67.9953 452.859C67.9953 453.312 68.0396 453.732 68.1281 454.117C68.2167 454.497 68.3521 454.828 68.5344 455.109C68.7219 455.391 68.9536 455.612 69.2297 455.773C69.5109 455.93 69.8417 456.008 70.2219 456.008C70.6177 456.008 70.9589 455.93 71.2453 455.773C71.537 455.612 71.7766 455.391 71.9641 455.109C72.1516 454.828 72.2896 454.497 72.3781 454.117C72.4667 453.732 72.5109 453.312 72.5109 452.859C72.5109 452.385 72.4667 451.951 72.3781 451.555C72.2896 451.159 72.1516 450.818 71.9641 450.531C71.7766 450.245 71.537 450.023 71.2453 449.867C70.9589 449.706 70.6177 449.625 70.2219 449.625C69.8417 449.625 69.5109 449.706 69.2297 449.867C68.9536 450.023 68.7219 450.245 68.5344 450.531C68.3521 450.818 68.2167 451.159 68.1281 451.555C68.0396 451.951 67.9953 452.385 67.9953 452.859ZM82.1609 451.891L84.6844 449.93V451.336L82.9969 452.633L84.6844 453.93V455.336L82.1609 453.375V451.891ZM78.8875 451.891L81.4031 449.93V451.336L79.7234 452.633L81.4031 453.93V455.336L78.8875 453.375V451.891ZM86.5172 451.141C86.5328 450.63 86.6292 450.201 86.8063 449.852C86.9833 449.497 87.2229 449.211 87.525 448.992C87.8271 448.773 88.1839 448.617 88.5953 448.523C89.012 448.424 89.4651 448.375 89.9547 448.375C90.3609 448.375 90.7542 448.417 91.1344 448.5C91.5198 448.583 91.8609 448.719 92.1578 448.906C92.4547 449.089 92.6917 449.328 92.8688 449.625C93.051 449.917 93.1422 450.273 93.1422 450.695V455.562C93.1422 455.698 93.1786 455.815 93.2516 455.914C93.3245 456.008 93.4417 456.055 93.6031 456.055C93.676 456.055 93.7516 456.049 93.8297 456.039C93.9078 456.023 93.9885 456.008 94.0719 455.992V456.984C93.9521 457.016 93.8323 457.044 93.7125 457.07C93.5979 457.096 93.4599 457.109 93.2984 457.109C93.0484 457.109 92.8323 457.089 92.65 457.047C92.4729 457.005 92.3219 456.938 92.1969 456.844C92.0771 456.745 91.9833 456.62 91.9156 456.469C91.8479 456.312 91.8036 456.122 91.7828 455.898C91.6057 456.091 91.4182 456.271 91.2203 456.438C91.0224 456.599 90.801 456.742 90.5563 456.867C90.3115 456.987 90.038 457.081 89.7359 457.148C89.4339 457.221 89.0927 457.258 88.7125 457.258C88.3896 457.258 88.0745 457.206 87.7672 457.102C87.4651 456.997 87.1917 456.844 86.9469 456.641C86.7073 456.438 86.5146 456.188 86.3688 455.891C86.2229 455.589 86.15 455.24 86.15 454.844C86.15 454.411 86.2229 454.039 86.3688 453.727C86.5146 453.409 86.7047 453.146 86.9391 452.938C87.1734 452.724 87.4417 452.56 87.7438 452.445C88.0458 452.331 88.3531 452.255 88.6656 452.219L91.0172 451.93C91.2411 451.904 91.4156 451.818 91.5406 451.672C91.6708 451.521 91.7359 451.281 91.7359 450.953C91.7359 450.448 91.5693 450.086 91.2359 449.867C90.9078 449.643 90.4339 449.531 89.8141 449.531C89.1786 449.531 88.7047 449.667 88.3922 449.938C88.0797 450.203 87.9026 450.604 87.8609 451.141H86.5172ZM91.7047 452.742C91.5901 452.826 91.4469 452.896 91.275 452.953C91.1083 453.005 90.9234 453.049 90.7203 453.086C90.5172 453.122 90.301 453.156 90.0719 453.188C89.8427 453.214 89.6135 453.242 89.3844 453.273C89.124 453.31 88.8844 453.362 88.6656 453.43C88.4469 453.497 88.2568 453.586 88.0953 453.695C87.9339 453.805 87.8089 453.938 87.7203 454.094C87.6318 454.245 87.5875 454.424 87.5875 454.633C87.5875 454.872 87.624 455.083 87.6969 455.266C87.775 455.448 87.8792 455.602 88.0094 455.727C88.1448 455.852 88.3063 455.945 88.4938 456.008C88.6813 456.07 88.887 456.102 89.1109 456.102C89.2516 456.102 89.413 456.086 89.5953 456.055C89.7776 456.018 89.9651 455.966 90.1578 455.898C90.3505 455.831 90.538 455.745 90.7203 455.641C90.9078 455.531 91.0745 455.401 91.2203 455.25C91.3661 455.099 91.4833 454.927 91.5719 454.734C91.6604 454.542 91.7047 454.326 91.7047 454.086V452.742ZM105.417 454.328C105.36 454.693 105.235 455.049 105.042 455.398C104.849 455.747 104.597 456.06 104.284 456.336C103.972 456.612 103.602 456.833 103.175 457C102.753 457.172 102.284 457.258 101.769 457.258C101.206 457.258 100.685 457.167 100.206 456.984C99.7323 456.797 99.3208 456.518 98.9719 456.148C98.6281 455.773 98.3573 455.305 98.1594 454.742C97.9615 454.18 97.8625 453.518 97.8625 452.758C97.8625 452.247 97.9172 451.786 98.0266 451.375C98.1411 450.958 98.2922 450.589 98.4797 450.266C98.6724 449.938 98.8937 449.656 99.1437 449.422C99.3937 449.182 99.6568 448.987 99.9328 448.836C100.214 448.68 100.501 448.565 100.792 448.492C101.084 448.414 101.365 448.375 101.636 448.375C102.209 448.375 102.732 448.461 103.206 448.633C103.68 448.805 104.086 449.068 104.425 449.422C104.769 449.771 105.034 450.211 105.222 450.742C105.415 451.268 105.511 451.888 105.511 452.602V453.32H99.3937C99.399 453.727 99.4562 454.096 99.5656 454.43C99.675 454.758 99.8312 455.039 100.034 455.273C100.237 455.508 100.482 455.69 100.769 455.82C101.06 455.945 101.389 456.008 101.753 456.008C102.123 456.008 102.435 455.956 102.691 455.852C102.946 455.747 103.159 455.615 103.331 455.453C103.503 455.292 103.641 455.112 103.745 454.914C103.855 454.716 103.946 454.521 104.019 454.328H105.417ZM104.066 452.172C104.055 451.766 103.993 451.404 103.878 451.086C103.769 450.768 103.612 450.503 103.409 450.289C103.211 450.07 102.972 449.906 102.691 449.797C102.409 449.682 102.097 449.625 101.753 449.625C101.425 449.625 101.123 449.69 100.847 449.82C100.571 449.945 100.329 450.122 100.12 450.352C99.912 450.576 99.7453 450.844 99.6203 451.156C99.4953 451.464 99.4198 451.802 99.3937 452.172H104.066ZM112.977 454.055C112.956 454.258 112.914 454.479 112.852 454.719C112.794 454.958 112.708 455.198 112.594 455.438C112.479 455.672 112.331 455.898 112.148 456.117C111.971 456.336 111.753 456.531 111.492 456.703C111.237 456.87 110.935 457.003 110.586 457.102C110.237 457.206 109.839 457.258 109.391 457.258C109.146 457.258 108.888 457.227 108.617 457.164C108.346 457.107 108.081 457.008 107.82 456.867C107.565 456.727 107.32 456.547 107.086 456.328C106.857 456.104 106.654 455.828 106.477 455.5C106.305 455.172 106.167 454.792 106.062 454.359C105.958 453.922 105.906 453.422 105.906 452.859C105.906 452.167 106.005 451.544 106.203 450.992C106.401 450.435 106.664 449.964 106.992 449.578C107.326 449.193 107.711 448.896 108.148 448.688C108.591 448.479 109.055 448.375 109.539 448.375C109.977 448.375 110.362 448.422 110.695 448.516C111.034 448.609 111.328 448.734 111.578 448.891C111.828 449.047 112.039 449.229 112.211 449.438C112.383 449.641 112.521 449.857 112.625 450.086C112.734 450.31 112.815 450.539 112.867 450.773C112.924 451.008 112.961 451.232 112.977 451.445H111.633C111.56 450.878 111.362 450.432 111.039 450.109C110.721 449.786 110.273 449.625 109.695 449.625C109.299 449.625 108.953 449.706 108.656 449.867C108.365 450.029 108.12 450.255 107.922 450.547C107.729 450.833 107.583 451.182 107.484 451.594C107.391 452 107.344 452.448 107.344 452.938C107.344 453.49 107.396 453.966 107.5 454.367C107.604 454.763 107.753 455.091 107.945 455.352C108.138 455.607 108.372 455.797 108.648 455.922C108.93 456.042 109.247 456.102 109.602 456.102C109.852 456.102 110.089 456.057 110.312 455.969C110.536 455.875 110.737 455.742 110.914 455.57C111.091 455.393 111.242 455.177 111.367 454.922C111.492 454.667 111.581 454.378 111.633 454.055H112.977ZM119.231 449.883H116.028L115.966 451.891C115.934 452.906 115.856 453.755 115.731 454.438C115.606 455.115 115.434 455.659 115.216 456.07C115.002 456.482 114.742 456.773 114.434 456.945C114.127 457.117 113.776 457.203 113.38 457.203C113.234 457.203 113.106 457.18 112.997 457.133C112.893 457.091 112.812 457.047 112.755 457V455.734C112.958 455.812 113.137 455.852 113.294 455.852C113.403 455.852 113.507 455.833 113.606 455.797C113.71 455.76 113.807 455.69 113.895 455.586C113.989 455.482 114.075 455.336 114.153 455.148C114.231 454.956 114.299 454.706 114.356 454.398C114.419 454.091 114.468 453.719 114.505 453.281C114.546 452.844 114.575 452.323 114.591 451.719L114.661 448.633H120.669V457H119.231V449.883ZM121.986 448.633H123.423V455.047H123.455L127.564 448.633H129.213V457H127.767V450.586H127.736L123.634 457H121.986V448.633ZM134.264 453.93L135.912 452.633L134.264 451.336V449.93L136.787 451.891V453.375L134.264 455.336V453.93ZM130.991 453.93L132.639 452.633L130.991 451.336V449.93L133.506 451.891V453.375L130.991 455.336V453.93Z" fill="white"/>
<rect x="129" y="302" width="142" height="92" fill="white"/>
</svg>
