<svg width="222" height="79" viewBox="0 0 222 79" fill="none" xmlns="http://www.w3.org/2000/svg">
<rect width="222" height="79" fill="#740606"/>
<path d="M52.7559 45.7852C51.89 45.401 51.1706 44.8737 50.5977 44.2031C50.0247 43.526 49.5951 42.7285 49.3086 41.8105C49.0221 40.8861 48.8789 39.89 48.8789 38.8223C48.8789 37.748 49.0221 36.752 49.3086 35.834C49.5951 34.916 50.0247 34.1217 50.5977 33.4512C51.1706 32.7741 51.89 32.2435 52.7559 31.8594C53.6217 31.4753 54.6309 31.2832 55.7832 31.2832C56.8444 31.2832 57.8014 31.4753 58.6543 31.8594C59.5072 32.2435 60.2298 32.7741 60.8223 33.4512C61.4212 34.1217 61.8802 34.916 62.1992 35.834C62.5182 36.752 62.6777 37.748 62.6777 38.8223C62.6777 39.89 62.5182 40.8861 62.1992 41.8105C61.8802 42.7285 61.4212 43.526 60.8223 44.2031C60.2298 44.8737 59.5072 45.401 58.6543 45.7852C57.8014 46.1693 56.8444 46.3613 55.7832 46.3613C54.6309 46.3613 53.6217 46.1693 52.7559 45.7852ZM51.877 38.8223C51.877 39.5384 51.9681 40.196 52.1504 40.7949C52.3262 41.4004 52.5801 41.9245 52.9121 42.3672C53.2507 42.8034 53.6608 43.1452 54.1426 43.3926C54.6243 43.64 55.1712 43.7637 55.7832 43.7637C56.3952 43.7637 56.9421 43.64 57.4238 43.3926C57.9056 43.1452 58.3125 42.8034 58.6445 42.3672C58.9831 41.9245 59.2402 41.4036 59.416 40.8047C59.5918 40.1992 59.6797 39.5384 59.6797 38.8223C59.6797 38.1061 59.5918 37.4486 59.416 36.8496C59.2402 36.2441 58.9831 35.7233 58.6445 35.2871C58.3125 34.8444 57.9056 34.4993 57.4238 34.252C56.9421 34.0046 56.3952 33.8809 55.7832 33.8809C55.1712 33.8809 54.6243 34.0046 54.1426 34.252C53.6608 34.4993 53.2507 34.8444 52.9121 35.2871C52.5801 35.7233 52.3229 36.2441 52.1406 36.8496C51.9648 37.4486 51.877 38.1061 51.877 38.8223ZM63.8105 31.6445H75.5684V34.1152H71.1836V46H68.1855V34.1152H63.8105V31.6445ZM77.209 31.6445H88.8496V46H85.8516V34.1152H80.2168V46H77.209V31.6445ZM100.178 40.502C99.5918 40.7298 98.9277 40.8438 98.1855 40.8438H94.9043V46H91.9062V31.6445H98.4297C99.1914 31.6445 99.8522 31.7487 100.412 31.957C100.979 32.1654 101.447 32.4681 101.818 32.8652C102.189 33.2624 102.466 33.7441 102.648 34.3105C102.831 34.877 102.922 35.5215 102.922 36.2441C102.922 36.9147 102.814 37.5332 102.6 38.0996C102.385 38.6595 102.072 39.1445 101.662 39.5547C101.258 39.9583 100.764 40.2741 100.178 40.502ZM94.9043 38.3633H97.7461C98.4232 38.3633 98.9538 38.1973 99.3379 37.8652C99.7285 37.5332 99.9238 36.9928 99.9238 36.2441C99.9238 35.8665 99.8717 35.5443 99.7676 35.2773C99.6699 35.0104 99.5267 34.7923 99.3379 34.623C99.1556 34.4473 98.9277 34.3203 98.6543 34.2422C98.3874 34.1576 98.0846 34.1152 97.7461 34.1152H94.9043V38.3633ZM117.648 46H114.387L113.469 43.041H108.166L107.17 46H104.006L109.143 31.6445H112.57L117.648 46ZM112.629 40.5605L110.842 34.877H110.803L108.967 40.5605H112.629ZM128.293 31.8105C128.736 31.9212 129.12 32.071 129.445 32.2598C129.771 32.4486 130.044 32.6667 130.266 32.9141C130.487 33.1615 130.663 33.4219 130.793 33.6953C130.923 33.9622 131.014 34.2357 131.066 34.5156C131.125 34.7956 131.154 35.0625 131.154 35.3164C131.154 35.681 131.122 36.0098 131.057 36.3027C130.992 36.5892 130.887 36.8529 130.744 37.0938C130.607 37.3281 130.425 37.543 130.197 37.7383C129.976 37.9271 129.709 38.0996 129.396 38.2559C129.878 38.4382 130.266 38.6628 130.559 38.9297C130.852 39.1966 131.076 39.4863 131.232 39.7988C131.389 40.1048 131.493 40.4238 131.545 40.7559C131.597 41.0814 131.623 41.3971 131.623 41.7031C131.623 42.3997 131.496 43.015 131.242 43.5488C130.988 44.0827 130.63 44.5319 130.168 44.8965C129.706 45.2546 129.143 45.528 128.479 45.7168C127.821 45.9056 127.089 46 126.281 46H119.699V31.6445H126.74C127.326 31.6445 127.844 31.6999 128.293 31.8105ZM127.111 39.7207C126.825 39.6816 126.535 39.6621 126.242 39.6621H122.58V43.5195H126.32C126.652 43.5195 126.958 43.4805 127.238 43.4023C127.518 43.3242 127.759 43.207 127.961 43.0508C128.169 42.888 128.329 42.6862 128.439 42.4453C128.557 42.1979 128.615 41.9082 128.615 41.5762C128.615 41.1595 128.547 40.8275 128.41 40.5801C128.273 40.3262 128.091 40.1309 127.863 39.9941C127.642 39.8574 127.391 39.7663 127.111 39.7207ZM127.678 36.918C127.86 36.7878 128.007 36.6185 128.117 36.4102C128.228 36.2018 128.283 35.9512 128.283 35.6582C128.283 35.3522 128.231 35.1016 128.127 34.9062C128.029 34.7044 127.893 34.5449 127.717 34.4277C127.541 34.3105 127.336 34.2292 127.102 34.1836C126.867 34.138 126.62 34.1152 126.359 34.1152H122.58V37.2988H126.281C126.542 37.2988 126.792 37.2695 127.033 37.2109C127.274 37.1523 127.489 37.0547 127.678 36.918ZM142.668 46V36.2832H142.629L136.955 46H133.908V31.6445H136.789V41.4199H136.828L142.512 31.6445H145.549V46H142.668ZM147.209 31.6445H158.967V34.1152H154.582V46H151.584V34.1152H147.209V31.6445ZM167.541 37.3184C167.873 37.3314 168.231 37.3802 168.615 37.4648C168.999 37.543 169.383 37.6699 169.768 37.8457C170.152 38.0215 170.5 38.2721 170.812 38.5977C171.125 38.9167 171.379 39.3268 171.574 39.8281C171.77 40.3229 171.867 40.9349 171.867 41.6641C171.867 42.3867 171.77 42.9954 171.574 43.4902C171.379 43.985 171.128 44.3952 170.822 44.7207C170.523 45.0397 170.188 45.2871 169.816 45.4629C169.452 45.6322 169.094 45.7591 168.742 45.8438C168.397 45.9219 168.078 45.9674 167.785 45.9805C167.499 45.9935 167.287 46 167.15 46H160.852V31.6445H163.85V37.2988H166.711C166.926 37.2988 167.202 37.3053 167.541 37.3184ZM167.209 39.7109C166.896 39.6784 166.584 39.6621 166.271 39.6621H163.85V43.5195H166.389C166.662 43.5195 166.942 43.5 167.229 43.4609C167.521 43.4219 167.788 43.3372 168.029 43.207C168.277 43.0768 168.479 42.8848 168.635 42.6309C168.791 42.3704 168.869 42.0254 168.869 41.5957C168.869 41.1465 168.791 40.7949 168.635 40.541C168.485 40.2806 168.286 40.0853 168.039 39.9551C167.792 39.8249 167.515 39.7435 167.209 39.7109Z" fill="#ECECEC"/>
</svg>
