<svg width="222" height="79" viewBox="0 0 222 79" fill="none" xmlns="http://www.w3.org/2000/svg">
<rect width="222" height="79" fill="#740606"/>
<path d="M52.0391 46V39.584H46.4043V46H43.3965V31.6445H46.4043V37.1035H52.0391V31.6445H55.0371V46H52.0391ZM70.4961 46H67.2344L66.3164 43.041H61.0137L60.0176 46H56.8535L61.9902 31.6445H65.418L70.4961 46ZM65.4766 40.5605L63.6895 34.877H63.6504L61.8145 40.5605H65.4766ZM78.1133 31.6445H87.7715V34.1152H81.1113V46H78.1133V31.6445ZM91.2676 31.6445H101.287V46H98.2891V34.1152H94.0801L94.0898 36.2832C94.0964 37.5918 94.0671 38.7474 94.002 39.75C93.9434 40.7461 93.8457 41.6152 93.709 42.3574C93.5788 43.0931 93.4095 43.7116 93.2012 44.2129C92.9993 44.7142 92.7585 45.1178 92.4785 45.4238C92.1986 45.7233 91.8796 45.9382 91.5215 46.0684C91.1634 46.1986 90.7695 46.2637 90.3398 46.2637C89.9883 46.2637 89.6758 46.2409 89.4023 46.1953C89.1354 46.1562 88.8685 46.0814 88.6016 45.9707L88.5918 43.2266C88.6829 43.2721 88.7773 43.3112 88.875 43.3438C88.9792 43.3698 89.0801 43.3926 89.1777 43.4121C89.2754 43.4251 89.3633 43.4349 89.4414 43.4414C89.526 43.4479 89.5911 43.4512 89.6367 43.4512C89.8125 43.4512 89.9753 43.4284 90.125 43.3828C90.2812 43.3307 90.418 43.2233 90.5352 43.0605C90.6589 42.8978 90.7663 42.6634 90.8574 42.3574C90.9486 42.0514 91.0234 41.6445 91.082 41.1367C91.1471 40.6289 91.1927 40.0007 91.2188 39.252C91.2513 38.5033 91.2676 37.6081 91.2676 36.5664V31.6445ZM116.492 46H113.23L112.312 43.041H107.01L106.014 46H102.85L107.986 31.6445H111.414L116.492 46ZM111.473 40.5605L109.686 34.877H109.646L107.811 40.5605H111.473ZM127.137 31.8105C127.579 31.9212 127.964 32.071 128.289 32.2598C128.615 32.4486 128.888 32.6667 129.109 32.9141C129.331 33.1615 129.507 33.4219 129.637 33.6953C129.767 33.9622 129.858 34.2357 129.91 34.5156C129.969 34.7956 129.998 35.0625 129.998 35.3164C129.998 35.681 129.965 36.0098 129.9 36.3027C129.835 36.5892 129.731 36.8529 129.588 37.0938C129.451 37.3281 129.269 37.543 129.041 37.7383C128.82 37.9271 128.553 38.0996 128.24 38.2559C128.722 38.4382 129.109 38.6628 129.402 38.9297C129.695 39.1966 129.92 39.4863 130.076 39.7988C130.232 40.1048 130.337 40.4238 130.389 40.7559C130.441 41.0814 130.467 41.3971 130.467 41.7031C130.467 42.3997 130.34 43.015 130.086 43.5488C129.832 44.0827 129.474 44.5319 129.012 44.8965C128.549 45.2546 127.986 45.528 127.322 45.7168C126.665 45.9056 125.932 46 125.125 46H118.543V31.6445H125.584C126.17 31.6445 126.688 31.6999 127.137 31.8105ZM125.955 39.7207C125.669 39.6816 125.379 39.6621 125.086 39.6621H121.424V43.5195H125.164C125.496 43.5195 125.802 43.4805 126.082 43.4023C126.362 43.3242 126.603 43.207 126.805 43.0508C127.013 42.888 127.173 42.6862 127.283 42.4453C127.4 42.1979 127.459 41.9082 127.459 41.5762C127.459 41.1595 127.391 40.8275 127.254 40.5801C127.117 40.3262 126.935 40.1309 126.707 39.9941C126.486 39.8574 126.235 39.7663 125.955 39.7207ZM126.521 36.918C126.704 36.7878 126.85 36.6185 126.961 36.4102C127.072 36.2018 127.127 35.9512 127.127 35.6582C127.127 35.3522 127.075 35.1016 126.971 34.9062C126.873 34.7044 126.736 34.5449 126.561 34.4277C126.385 34.3105 126.18 34.2292 125.945 34.1836C125.711 34.138 125.464 34.1152 125.203 34.1152H121.424V37.2988H125.125C125.385 37.2988 125.636 37.2695 125.877 37.2109C126.118 37.1523 126.333 37.0547 126.521 36.918ZM141.395 46V39.584H135.76V46H132.752V31.6445H135.76V37.1035H141.395V31.6445H144.393V46H141.395ZM149.92 43.6758C150.33 43.6758 150.652 43.5553 150.887 43.3145C151.121 43.0736 151.284 42.7708 151.375 42.4062L146.287 31.6445H149.666L152.928 39.3594L155.789 31.6445H159.012L154.432 42.2402C153.833 43.64 153.198 44.6784 152.527 45.3555C151.857 46.026 151.108 46.3613 150.281 46.3613C150.021 46.3613 149.793 46.3483 149.598 46.3223C149.409 46.2962 149.243 46.2637 149.1 46.2246C148.963 46.1855 148.839 46.1465 148.729 46.1074C148.624 46.0684 148.523 46.0326 148.426 46V43.2754C148.615 43.3991 148.833 43.4967 149.08 43.5684C149.327 43.64 149.607 43.6758 149.92 43.6758ZM169.9 31.5273C170.454 31.3646 171.056 31.2832 171.707 31.2832C172.143 31.2832 172.609 31.3288 173.104 31.4199C173.605 31.5046 174.096 31.6576 174.578 31.8789C175.066 32.0938 175.532 32.3835 175.975 32.748C176.424 33.1126 176.818 33.5716 177.156 34.125C177.495 34.6719 177.765 35.3229 177.967 36.0781C178.169 36.8268 178.27 37.6992 178.27 38.6953C178.27 39.8737 178.113 40.9349 177.801 41.8789C177.488 42.8229 177.042 43.627 176.463 44.291C175.89 44.9551 175.2 45.4661 174.393 45.8242C173.585 46.1823 172.69 46.3613 171.707 46.3613C170.665 46.3613 169.76 46.1921 168.992 45.8535C168.23 45.515 167.589 45.056 167.068 44.4766C166.554 43.8906 166.15 43.2135 165.857 42.4453C165.571 41.6771 165.382 40.8633 165.291 40.0039H163.426V46H160.545V31.6445H163.426V37.6406H165.291C165.337 37.1003 165.438 36.5664 165.594 36.0391C165.75 35.5117 165.955 35.0137 166.209 34.5449C166.469 34.0697 166.779 33.6335 167.137 33.2363C167.501 32.8392 167.911 32.4974 168.367 32.2109C168.829 31.918 169.34 31.6901 169.9 31.5273ZM168.172 38.8027C168.172 39.6556 168.257 40.3945 168.426 41.0195C168.595 41.6445 168.833 42.1621 169.139 42.5723C169.451 42.9759 169.826 43.2754 170.262 43.4707C170.698 43.666 171.18 43.7637 171.707 43.7637C172.241 43.7637 172.726 43.666 173.162 43.4707C173.605 43.2754 173.982 42.9759 174.295 42.5723C174.607 42.1621 174.848 41.6445 175.018 41.0195C175.187 40.3945 175.271 39.6556 175.271 38.8027C175.271 37.9564 175.187 37.224 175.018 36.6055C174.848 35.987 174.607 35.4759 174.295 35.0723C173.982 34.6686 173.605 34.3691 173.162 34.1738C172.726 33.9785 172.241 33.8809 171.707 33.8809C171.18 33.8809 170.698 33.9785 170.262 34.1738C169.826 34.3691 169.451 34.6686 169.139 35.0723C168.833 35.4759 168.595 35.987 168.426 36.6055C168.257 37.224 168.172 37.9564 168.172 38.8027Z" fill="#ECECEC"/>
</svg>
