<svg width="222" height="79" viewBox="0 0 222 79" fill="none" xmlns="http://www.w3.org/2000/svg">
<rect width="222" height="79" fill="#740606"/>
<path d="M67.2324 31.6445H77.252V46H74.2539V34.1152H70.0449L70.0547 36.2832C70.0612 37.5918 70.0319 38.7474 69.9668 39.75C69.9082 40.7461 69.8105 41.6152 69.6738 42.3574C69.5436 43.0931 69.3743 43.7116 69.166 44.2129C68.9642 44.7142 68.7233 45.1178 68.4434 45.4238C68.1634 45.7233 67.8444 45.9382 67.4863 46.0684C67.1283 46.1986 66.7344 46.2637 66.3047 46.2637C65.9531 46.2637 65.6406 46.2409 65.3672 46.1953C65.1003 46.1562 64.8333 46.0814 64.5664 45.9707L64.5566 43.2266C64.6478 43.2721 64.7422 43.3112 64.8398 43.3438C64.944 43.3698 65.0449 43.3926 65.1426 43.4121C65.2402 43.4251 65.3281 43.4349 65.4062 43.4414C65.4909 43.4479 65.556 43.4512 65.6016 43.4512C65.7773 43.4512 65.9401 43.4284 66.0898 43.3828C66.2461 43.3307 66.3828 43.2233 66.5 43.0605C66.6237 42.8978 66.7311 42.6634 66.8223 42.3574C66.9134 42.0514 66.9883 41.6445 67.0469 41.1367C67.112 40.6289 67.1576 40.0007 67.1836 39.252C67.2161 38.5033 67.2324 37.6081 67.2324 36.5664V31.6445ZM88.5703 46V36.2832H88.5312L82.8574 46H79.8105V31.6445H82.6914V41.4199H82.7305L88.4141 31.6445H91.4512V46H88.5703ZM98.8047 43.4219C99.2344 43.6497 99.7227 43.7637 100.27 43.7637C100.901 43.7637 101.415 43.666 101.812 43.4707C102.21 43.2754 102.525 43.0378 102.76 42.7578C103.001 42.4779 103.18 42.1849 103.297 41.8789C103.414 41.5729 103.505 41.306 103.57 41.0781H106.549C106.386 41.9766 106.116 42.7578 105.738 43.4219C105.361 44.0794 104.902 44.6263 104.361 45.0625C103.821 45.4987 103.212 45.8242 102.535 46.0391C101.865 46.2539 101.148 46.3613 100.387 46.3613C99.319 46.3613 98.3717 46.1855 97.5449 45.834C96.7246 45.4759 96.0312 44.9681 95.4648 44.3105C94.9049 43.653 94.4785 42.862 94.1855 41.9375C93.8926 41.0065 93.7461 39.9681 93.7461 38.8223C93.7461 37.9368 93.8307 37.1361 94 36.4199C94.1693 35.7038 94.4036 35.069 94.7031 34.5156C95.0091 33.9557 95.3672 33.474 95.7773 33.0703C96.1875 32.6602 96.6335 32.3249 97.1152 32.0645C97.6035 31.7975 98.1146 31.6022 98.6484 31.4785C99.1823 31.3483 99.7227 31.2832 100.27 31.2832C101.051 31.2832 101.744 31.3646 102.35 31.5273C102.955 31.6901 103.486 31.9082 103.941 32.1816C104.397 32.4551 104.785 32.7676 105.104 33.1191C105.429 33.4707 105.693 33.8353 105.895 34.2129C106.103 34.584 106.256 34.9583 106.354 35.3359C106.458 35.707 106.523 36.0488 106.549 36.3613H103.551C103.512 36.2246 103.463 36.0684 103.404 35.8926C103.346 35.7103 103.264 35.528 103.16 35.3457C103.062 35.1634 102.936 34.9844 102.779 34.8086C102.63 34.6328 102.441 34.4766 102.213 34.3398C101.985 34.2031 101.712 34.0924 101.393 34.0078C101.074 33.9232 100.699 33.8809 100.27 33.8809C100.087 33.8809 99.8724 33.9036 99.625 33.9492C99.3776 33.9948 99.1237 34.0827 98.8633 34.2129C98.6029 34.3366 98.3457 34.5124 98.0918 34.7402C97.8379 34.9681 97.61 35.2676 97.4082 35.6387C97.2129 36.0033 97.0534 36.446 96.9297 36.9668C96.806 37.4876 96.7441 38.1061 96.7441 38.8223C96.7441 39.597 96.8255 40.2904 96.9883 40.9023C97.151 41.5143 97.3854 42.0319 97.6914 42.4551C97.9974 42.8783 98.3685 43.2005 98.8047 43.4219ZM107.564 31.6445H119.322V34.1152H114.938V46H111.939V34.1152H107.564V31.6445ZM133.609 46H130.348L129.43 43.041H124.127L123.131 46H119.967L125.104 31.6445H128.531L133.609 46ZM128.59 40.5605L126.803 34.877H126.764L124.928 40.5605H128.59ZM134.264 31.6445H146.021V34.1152H141.637V46H138.639V34.1152H134.264V31.6445ZM154.596 37.3184C154.928 37.3314 155.286 37.3802 155.67 37.4648C156.054 37.543 156.438 37.6699 156.822 37.8457C157.206 38.0215 157.555 38.2721 157.867 38.5977C158.18 38.9167 158.434 39.3268 158.629 39.8281C158.824 40.3229 158.922 40.9349 158.922 41.6641C158.922 42.3867 158.824 42.9954 158.629 43.4902C158.434 43.985 158.183 44.3952 157.877 44.7207C157.577 45.0397 157.242 45.2871 156.871 45.4629C156.507 45.6322 156.148 45.7591 155.797 45.8438C155.452 45.9219 155.133 45.9674 154.84 45.9805C154.553 45.9935 154.342 46 154.205 46H147.906V31.6445H150.904V37.2988H153.766C153.98 37.2988 154.257 37.3053 154.596 37.3184ZM154.264 39.7109C153.951 39.6784 153.639 39.6621 153.326 39.6621H150.904V43.5195H153.443C153.717 43.5195 153.997 43.5 154.283 43.4609C154.576 43.4219 154.843 43.3372 155.084 43.207C155.331 43.0768 155.533 42.8848 155.689 42.6309C155.846 42.3704 155.924 42.0254 155.924 41.5957C155.924 41.1465 155.846 40.7949 155.689 40.541C155.54 40.2806 155.341 40.0853 155.094 39.9551C154.846 39.8249 154.57 39.7435 154.264 39.7109Z" fill="#ECECEC"/>
</svg>
